<svg width="142" height="148" viewBox="0 0 142 148" fill="none" xmlns="http://www.w3.org/2000/svg">
<rect width="142" height="148" fill="white"/>
<path fill-rule="evenodd" clip-rule="evenodd" d="M37.5252 59.8824C34.9709 57.693 27.4833 58.4411 22.5206 68.0744C17.558 77.7078 21.1427 81.6166 22.9671 83.4411C25.6237 86.0977 27.926 86.6799 33.955 72.4941C35.3543 69.2015 36.2934 67.1422 37.436 64.9743C38.2347 63.4588 39.1189 61.9581 39.7759 61.0383C41.7024 58.3412 40.5226 62.9648 38.6811 72.5974C37.2829 79.9111 37.3449 88.7918 37.4641 92.2478C37.9506 93.9507 41.3782 98.4127 42.0877 94.9449C42.718 91.8647 42.7044 76.9174 43.69 70.2639C44.4198 64.5471 48.6042 52.6994 52.1056 46.3968C54.0321 42.9291 53.6468 41.0026 48.699 39.076C47.0967 38.4521 46.7725 41.7732 45.0111 45.1718C43.0804 48.8972 41.2122 52.5616 37.5252 59.8824ZM27.3868 70.2639C30.0141 64.1336 34.0358 61.8712 35.7387 61.5063C36.0306 62.3821 34.4007 65.2769 33.5493 66.6149C31.6032 70.1423 28.2217 78.2188 27.346 79.3864C26.2513 80.8461 24.1027 77.9268 27.3868 70.2639Z" fill="#424B54"/>
<path d="M37.5252 59.8824L37.1998 60.262L37.6846 60.6775L37.9718 60.1073L37.5252 59.8824ZM22.9671 83.4411L22.6136 83.7946L22.9671 83.4411ZM33.955 72.4941L33.4948 72.2985L33.955 72.4941ZM39.7759 61.0383L39.3691 60.7477L39.7759 61.0383ZM37.4641 92.2478L36.9644 92.265L36.9665 92.3263L36.9833 92.3852L37.4641 92.2478ZM42.0877 94.9449L42.5776 95.0452L42.0877 94.9449ZM43.69 70.2639L44.1847 70.3372L44.186 70.3272L43.69 70.2639ZM52.1056 46.3968L52.5427 46.6396L52.1056 46.3968ZM48.699 39.076L48.8805 38.6101L48.699 39.076ZM35.7387 61.5063L36.213 61.3482L36.0715 60.9236L35.6339 61.0174L35.7387 61.5063ZM27.3868 70.2639L26.9272 70.067L27.3868 70.2639ZM27.346 79.3864L26.946 79.0864L27.346 79.3864ZM33.5493 66.6149L33.1275 66.3465L33.1191 66.3597L33.1115 66.3734L33.5493 66.6149ZM37.436 64.9743L37.8783 65.2074L37.436 64.9743ZM38.6811 72.5974L39.1722 72.6913L38.6811 72.5974ZM45.0111 45.1718L45.455 45.4018L45.0111 45.1718ZM37.8506 59.5028C36.3839 58.2456 33.6567 57.9215 30.7414 59.0802C27.7978 60.2502 24.6021 62.9421 22.0762 67.8455L22.9651 68.3034C25.4018 63.5734 28.4313 61.0745 31.1107 60.0095C33.8185 58.9332 36.1122 59.3298 37.1998 60.262L37.8506 59.5028ZM22.0762 67.8455C19.5609 72.728 19.1748 76.2325 19.7093 78.7885C20.2441 81.3458 21.6846 82.8656 22.6136 83.7946L23.3207 83.0875C22.4252 82.1921 21.1611 80.8453 20.6881 78.5837C20.2149 76.3209 20.5177 73.0542 22.9651 68.3034L22.0762 67.8455ZM22.6136 83.7946C23.2807 84.4617 23.9989 85.0792 24.8123 85.3249C25.6805 85.5872 26.5713 85.4051 27.5039 84.6778C28.4106 83.9706 29.3853 82.7301 30.5003 80.8143C31.6204 78.8899 32.904 76.2452 34.4151 72.6896L33.4948 72.2985C31.9914 75.8359 30.7264 78.438 29.6361 80.3112C28.5408 82.193 27.6434 83.3008 26.8889 83.8892C26.1602 84.4575 25.6005 84.5183 25.1015 84.3676C24.5477 84.2003 23.9819 83.7487 23.3207 83.0875L22.6136 83.7946ZM36.9833 92.3852C37.1254 92.8823 37.4625 93.53 37.8755 94.1519C38.2926 94.78 38.8159 95.4251 39.3601 95.909C39.6321 96.1509 39.9219 96.3637 40.2176 96.5116C40.5103 96.658 40.8424 96.7575 41.184 96.7235C41.9538 96.6467 42.3876 95.9738 42.5776 95.0452L41.5979 94.8447C41.4331 95.65 41.1725 95.7197 41.0848 95.7284C40.9976 95.7371 40.8603 95.715 40.6649 95.6173C40.4726 95.5211 40.2557 95.3672 40.0246 95.1617C39.5623 94.7507 39.0931 94.1778 38.7086 93.5987C38.3199 93.0134 38.0461 92.4647 37.9449 92.1105L36.9833 92.3852ZM42.5776 95.0452C42.7441 94.2312 42.8625 92.6792 42.9647 90.7511C43.0677 88.8085 43.156 86.4385 43.2552 83.9644C43.4542 79.001 43.6966 73.6315 44.1846 70.3372L43.1954 70.1907C42.6978 73.5498 42.4542 78.9806 42.256 83.9243C42.1566 86.4038 42.0686 88.764 41.9661 90.6982C41.8628 92.647 41.7465 94.1185 41.5979 94.8447L42.5776 95.0452ZM44.186 70.3272C44.544 67.5227 45.7581 63.1718 47.33 58.7164C48.8999 54.2663 50.8107 49.7573 52.5427 46.6396L51.6685 46.154C49.8991 49.3389 47.967 53.9051 46.3869 58.3837C44.8088 62.857 43.5658 67.2884 43.1941 70.2006L44.186 70.3272ZM52.5427 46.6396C53.5116 44.8956 54.0122 43.3574 53.4428 41.9688C52.8826 40.6026 51.3614 39.5761 48.8805 38.6101L48.5176 39.542C50.9845 40.5025 52.1298 41.4026 52.5176 42.3482C52.8961 43.2714 52.6261 44.4303 51.6685 46.154L52.5427 46.6396ZM35.6339 61.0174C33.7448 61.4222 29.6064 63.8155 26.9272 70.067L27.8464 70.4609C30.4217 64.4517 34.3268 62.3202 35.8435 61.9952L35.6339 61.0174ZM26.9272 70.067C25.2668 73.9413 24.9446 76.6917 25.2318 78.3323C25.3716 79.131 25.6774 79.7775 26.1656 80.0796C26.4275 80.2416 26.7329 80.2952 27.0361 80.2086C27.3271 80.1254 27.5644 79.9286 27.746 79.6864L26.946 79.0864C26.8539 79.2092 26.7846 79.2404 26.7613 79.2471C26.7504 79.2502 26.734 79.2553 26.6918 79.2292C26.5719 79.155 26.3405 78.8665 26.2168 78.1599C25.9771 76.7901 26.2227 74.2495 27.8464 70.4609L26.9272 70.067ZM27.746 79.6864C28.0008 79.3466 28.3989 78.5711 28.8615 77.6114C29.3344 76.6299 29.9021 75.3962 30.5005 74.0944C31.7023 71.4804 33.0251 68.6001 33.9871 66.8565L33.1115 66.3734C32.1274 68.1571 30.7863 71.0788 29.592 73.6767C28.9923 74.981 28.4288 76.2057 27.9606 77.1773C27.482 78.1705 27.129 78.8424 26.946 79.0864L27.746 79.6864ZM33.9711 66.8834C34.4041 66.2029 35.0354 65.1265 35.524 64.1026C35.7677 63.5919 35.9827 63.0802 36.1183 62.6299C36.186 62.4048 36.2376 62.1832 36.2603 61.9773C36.2824 61.7777 36.2819 61.5549 36.213 61.3482L35.2644 61.6644C35.2684 61.6766 35.2809 61.7359 35.2664 61.8675C35.2525 61.9927 35.218 62.1514 35.1607 62.3417C35.0461 62.7224 34.8552 63.1823 34.6215 63.6719C34.1553 64.6489 33.5459 65.689 33.1275 66.3465L33.9711 66.8834ZM34.4151 72.6896C35.8124 69.402 36.7452 67.3574 37.8783 65.2074L36.9937 64.7411C35.8416 66.9271 34.8963 69.0009 33.4948 72.2985L34.4151 72.6896ZM37.8783 65.2074C38.6726 63.7002 39.5448 62.2221 40.1828 61.3289L39.3691 60.7477C38.6931 61.694 37.7968 63.2173 36.9937 64.7411L37.8783 65.2074ZM40.1828 61.3289C40.4214 60.9948 40.5767 60.827 40.6601 60.7636C40.7067 60.7281 40.6688 60.7737 40.5676 60.7776C40.4117 60.7837 40.3002 60.6911 40.2559 60.6223C40.23 60.582 40.2406 60.5736 40.2511 60.651C40.2602 60.7182 40.2652 60.8184 40.2618 60.9585C40.2551 61.2382 40.2166 61.6252 40.1464 62.1246C39.8643 64.1313 39.1146 67.6668 38.19 72.5035L39.1722 72.6913C40.0891 67.8954 40.85 64.3028 41.1366 62.2638C41.2086 61.7518 41.2534 61.32 41.2615 60.9826C41.2656 60.8141 41.2609 60.6562 41.242 60.5168C41.2246 60.3877 41.1889 60.2243 41.0972 60.0817C40.9872 59.9104 40.7904 59.7682 40.5286 59.7784C40.3214 59.7865 40.1569 59.89 40.055 59.9674C39.8414 60.1298 39.612 60.4075 39.3691 60.7477L40.1828 61.3289ZM38.19 72.5035C36.781 79.8741 36.8449 88.8004 36.9644 92.265L37.9638 92.2306C37.8449 88.7831 37.7849 79.9481 39.1722 72.6913L38.19 72.5035ZM48.8805 38.6101C48.6049 38.5028 48.322 38.4681 48.0417 38.5319C47.7643 38.5951 47.5345 38.7446 47.3451 38.9297C46.9836 39.2828 46.7058 39.8301 46.4547 40.4195C45.9231 41.6671 45.4404 43.2567 44.5672 44.9417L45.455 45.4018C46.3431 43.6882 46.9032 41.918 47.3747 40.8114C47.6251 40.2237 47.8388 39.8453 48.0439 39.645C48.1377 39.5534 48.2099 39.5192 48.2638 39.5069C48.3148 39.4953 48.3926 39.4933 48.5176 39.542L48.8805 38.6101ZM44.5672 44.9417C42.6352 48.6696 40.766 52.336 37.0786 59.6575L37.9718 60.1073C41.6584 52.7873 43.5256 49.1248 45.455 45.4018L44.5672 44.9417Z" fill="#424B54"/>
<path d="M56.7671 85.2656C51.2206 82.6383 51.3481 67.7504 54.9426 59.7226C63.2809 57.5332 59.7408 71.0345 60.1057 79.0624C60.3977 85.4846 64.3629 79.7922 66.3091 76.1432L66.674 79.0624C63.3899 87.4551 58.5187 86.4333 56.7671 85.2656Z" fill="#424B54"/>
<path d="M56.7671 49.5054C58.1233 49.2621 60.6166 49.5054 59.7408 52.4246C58.6461 56.0736 55.253 52.4246 56.7671 49.5054Z" fill="#424B54"/>
<path d="M56.7671 85.2656C51.2206 82.6383 51.3481 67.7504 54.9426 59.7226C63.2809 57.5332 59.7408 71.0345 60.1057 79.0624C60.3977 85.4846 64.3629 79.7922 66.3091 76.1432L66.674 79.0624C63.3899 87.4551 58.5187 86.4333 56.7671 85.2656Z" stroke="#424B54" stroke-linecap="round" stroke-linejoin="round"/>
<path d="M56.7671 49.5054C58.1233 49.2621 60.6166 49.5054 59.7408 52.4246C58.6461 56.0736 55.253 52.4246 56.7671 49.5054Z" stroke="#424B54" stroke-linecap="round" stroke-linejoin="round"/>
<path fill-rule="evenodd" clip-rule="evenodd" d="M71.4175 64.1016C79.4427 56.3218 84.2434 58.628 85.3381 60.4525C85.6726 61.5419 85.9773 61.171 86.5283 60.5006C87.2692 59.5991 88.4553 58.1559 90.7573 58.993C94.7712 60.4526 93.3116 64.4665 92.5818 66.291C91.852 68.1155 88.5679 76.5082 92.5818 74.3188C96.5957 72.1294 98.0553 72.4943 99.15 73.589C100.245 74.6837 99.5149 75.4135 95.501 76.5082C91.4871 77.6029 88.9328 80.5221 87.8381 87.8202C86.7434 95.1182 84.5948 106.43 82.4053 112.998C80.2159 119.567 71.4175 121.756 69.9579 108.984C68.7902 98.7672 79.2021 86.2389 84.554 81.2519C86.4401 77.2102 86.5355 75.1581 86.7503 70.5411C86.8263 68.9055 86.9174 66.9482 87.1083 64.4665C85.527 65.5612 78.3507 73.2241 74.3367 78.3327C68.1012 86.2687 61.2547 73.9538 71.4175 64.1016ZM81.6347 63.3718C80.4184 64.1016 77.2559 66.364 74.3367 69.5751C70.6877 73.589 71.4175 76.1025 76.5261 71.7237C81.6347 67.3449 83.8241 64.4665 84.9189 63.0069C86.0136 61.5473 83.8242 61.847 81.6347 63.3718ZM80.4992 108.62C81.9588 105.7 85.2838 93.0504 86.0136 87.0904C82.7294 89.2798 72.1473 103.511 73.9718 111.539C75.7963 119.567 78.6747 112.269 80.4992 108.62Z" fill="#424B54"/>
<path d="M85.3381 60.4525L85.8161 60.3058L85.7982 60.2475L85.7669 60.1953L85.3381 60.4525ZM71.4175 64.1016L71.0695 63.7426L71.4175 64.1016ZM74.3367 78.3327L73.9436 78.0238L74.3367 78.3327ZM87.1083 64.4665L87.6068 64.5048C87.6216 64.3125 87.5244 64.1289 87.3571 64.0328C87.1898 63.9368 86.9822 63.9456 86.8237 64.0554L87.1083 64.4665ZM84.554 81.2519L84.8948 81.6177L84.9659 81.5515L85.007 81.4634L84.554 81.2519ZM69.9579 108.984L70.4547 108.928L69.9579 108.984ZM90.7573 58.993L90.9281 58.5231L90.7573 58.993ZM81.6347 63.3718L81.892 63.8005L81.9066 63.7918L81.9205 63.7821L81.6347 63.3718ZM74.3367 69.5751L74.7067 69.9114L74.3367 69.5751ZM86.0136 87.0904L86.5098 87.1511L86.6422 86.0703L85.7362 86.6743L86.0136 87.0904ZM86.7503 70.5411L87.2497 70.5643L86.7503 70.5411ZM86.5283 60.5006L86.9146 60.8181V60.8181L86.5283 60.5006ZM85.7669 60.1953C85.1105 59.1014 83.4446 57.9971 80.941 58.1767C78.4397 58.3561 75.1284 59.8078 71.0695 63.7426L71.7655 64.4606C75.7318 60.6156 78.8334 59.3304 81.0125 59.1741C83.1892 59.018 84.471 59.9792 84.9094 60.7098L85.7669 60.1953ZM71.0695 63.7426C65.8781 68.7753 64.9553 74.518 66.2585 78.0604C66.9074 79.8244 68.1467 81.1106 69.7508 81.3377C71.3591 81.5653 73.1145 80.6976 74.7299 78.6417L73.9436 78.0238C72.4412 79.9359 71.0025 80.5049 69.8909 80.3475C68.7751 80.1896 67.7688 79.2693 67.197 77.7151C66.0587 74.621 66.794 69.2802 71.7655 64.4606L71.0695 63.7426ZM74.7299 78.6417C76.7255 76.1019 79.5132 72.9199 82.0015 70.2342C83.2451 68.892 84.4109 67.6771 85.3626 66.7311C86.3268 65.7727 87.0405 65.1216 87.3929 64.8776L86.8237 64.0554C86.3854 64.3588 85.6091 65.076 84.6576 66.0219C83.6935 66.9803 82.5179 68.2056 81.268 69.5546C78.7694 72.2512 75.962 75.455 73.9436 78.0238L74.7299 78.6417ZM84.2131 80.8861C81.5102 83.4047 77.5393 87.8171 74.3864 92.893C71.2437 97.9525 68.8576 103.76 69.4612 109.041L70.4547 108.928C69.8905 103.991 72.1266 98.4264 75.2358 93.4207C78.3349 88.4314 82.2458 84.0862 84.8948 81.6177L84.2131 80.8861ZM69.4612 109.041C70.1987 115.495 72.8366 118.482 75.8652 118.742C78.827 118.996 81.7391 116.578 82.8797 113.156L81.931 112.84C80.8822 115.987 78.3004 117.947 75.9507 117.746C73.6679 117.55 71.1767 115.246 70.4547 108.928L69.4612 109.041ZM82.8797 113.156C85.0835 106.545 87.2371 95.1972 88.3325 87.8943L87.3436 87.746C86.2496 95.0392 84.106 106.315 81.931 112.84L82.8797 113.156ZM88.3325 87.8943C88.874 84.2844 89.7688 81.818 90.981 80.1296C92.1816 78.4572 93.7194 77.5124 95.6325 76.9906L95.3694 76.0258C93.2687 76.5988 91.5223 77.6609 90.1687 79.5463C88.8266 81.4157 87.8968 84.0579 87.3436 87.746L88.3325 87.8943ZM95.6325 76.9906C96.6435 76.7149 97.4606 76.4587 98.0997 76.2102C98.7307 75.9648 99.2246 75.7133 99.5613 75.4327C99.9068 75.1448 100.148 74.7698 100.104 74.3056C100.064 73.8872 99.7991 73.531 99.5035 73.2355L98.7964 73.9426C99.0482 74.1944 99.1026 74.3399 99.1084 74.4004C99.1098 74.4152 99.123 74.4963 98.9211 74.6645C98.7105 74.8401 98.3377 75.0447 97.7372 75.2782C97.1447 75.5086 96.3654 75.7542 95.3694 76.0258L95.6325 76.9906ZM99.5035 73.2355C98.8788 72.6107 98.11 72.1696 96.9379 72.2229C95.8176 72.2738 94.3671 72.7755 92.3423 73.8799L92.8212 74.7578C94.8103 73.6728 96.0966 73.2622 96.9833 73.2219C97.8181 73.1839 98.3265 73.4726 98.7964 73.9426L99.5035 73.2355ZM92.3423 73.8799C91.8711 74.1369 91.5877 74.1908 91.4394 74.1789C91.3432 74.1712 91.2904 74.1398 91.236 74.0272C91.1644 73.879 91.1167 73.6208 91.1253 73.2331C91.1337 72.8561 91.1937 72.4056 91.2932 71.9082C91.6934 69.9072 92.6793 67.3935 93.046 66.4767L92.1175 66.1053C91.7545 67.013 90.7334 69.608 90.3126 71.7121C90.2068 72.241 90.1357 72.754 90.1255 73.2109C90.1156 73.657 90.162 74.103 90.3356 74.4622C90.5263 74.857 90.8698 75.1364 91.3594 75.1757C91.7969 75.2108 92.289 75.0481 92.8212 74.7578L92.3423 73.8799ZM93.046 66.4767C93.4092 65.5687 93.9975 64.0197 93.9481 62.489C93.9231 61.7125 93.7339 60.918 93.2514 60.2107C92.7668 59.5004 92.0132 58.9177 90.9281 58.5231L90.5864 59.4629C91.5083 59.7981 92.0775 60.2644 92.4253 60.7743C92.7752 61.2871 92.9281 61.8838 92.9487 62.5213C92.9905 63.8186 92.4841 65.1888 92.1175 66.1053L93.046 66.4767ZM81.3775 62.943C80.123 63.6957 76.9216 65.9884 73.9668 69.2388L74.7067 69.9114C77.5903 66.7395 80.7138 64.5074 81.892 63.8005L81.3775 62.943ZM73.9668 69.2388C73.0348 70.2639 72.3653 71.2114 71.9736 71.9968C71.7783 72.3883 71.6428 72.758 71.5861 73.089C71.5312 73.4092 71.5382 73.7661 71.7235 74.062C71.9282 74.389 72.2705 74.5203 72.6174 74.5264C72.9475 74.5323 73.3199 74.4302 73.7151 74.2583C74.5118 73.9118 75.5594 73.2109 76.8515 72.1033L76.2007 71.3441C74.9385 72.426 73.9792 73.0529 73.3163 73.3413C72.9817 73.4868 72.7611 73.5288 72.6351 73.5266C72.5259 73.5247 72.5489 73.4958 72.5711 73.5313C72.574 73.5359 72.5353 73.4703 72.5717 73.2579C72.6062 73.0563 72.6988 72.7833 72.8684 72.4431C73.2065 71.7652 73.8141 70.8933 74.7067 69.9114L73.9668 69.2388ZM76.8515 72.1033C81.9941 67.6954 84.2078 64.7882 85.3189 63.3069L84.5189 62.7069C83.4405 64.1448 81.2754 66.9944 76.2007 71.3441L76.8515 72.1033ZM85.3189 63.3069C85.473 63.1013 85.5943 62.895 85.6586 62.6917C85.7228 62.4884 85.7462 62.2306 85.6121 61.9902C85.4772 61.7484 85.247 61.6383 85.0536 61.5924C84.8611 61.5467 84.6507 61.5492 84.4481 61.5738C83.6509 61.6706 82.4781 62.1752 81.349 62.9615L81.9205 63.7821C82.9808 63.0436 83.9974 62.6359 84.5686 62.5666C84.7081 62.5496 84.7885 62.5573 84.8226 62.5654C84.8558 62.5732 84.7881 62.5657 84.7388 62.4773C84.6902 62.3902 84.7221 62.3365 84.7051 62.3903C84.6881 62.444 84.6383 62.5476 84.5189 62.7069L85.3189 63.3069ZM85.5173 87.0296C85.1564 89.9763 84.1494 94.6034 83.046 98.8701C81.9382 103.154 80.7539 106.992 80.052 108.396L80.9465 108.843C81.7042 107.328 82.9121 103.382 84.0141 99.1204C85.1205 94.8424 86.1409 90.1644 86.5098 87.1511L85.5173 87.0296ZM80.052 108.396C79.5806 109.339 79.0796 110.437 78.5222 111.514C77.9679 112.585 77.406 113.535 76.8677 114.119C76.5973 114.413 76.3709 114.572 76.1951 114.632C76.0513 114.682 75.9333 114.672 75.7912 114.573C75.6196 114.453 75.3969 114.187 75.156 113.66C74.9187 113.141 74.6833 112.413 74.4594 111.428L73.4843 111.65C73.7165 112.671 73.9702 113.471 74.2466 114.076C74.5194 114.672 74.8352 115.125 75.2185 115.392C75.6314 115.681 76.0848 115.728 76.5206 115.578C76.9244 115.439 77.2859 115.141 77.6034 114.797C78.2408 114.104 78.8546 113.047 79.4102 111.974C79.9626 110.907 80.5057 109.725 80.9465 108.843L80.052 108.396ZM74.4594 111.428C74.0314 109.545 74.3239 107.249 75.0987 104.79C75.8709 102.339 77.1066 99.7744 78.5086 97.3776C79.9096 94.9823 81.4689 92.7677 82.8792 91.019C84.3013 89.2556 85.5382 88.0082 86.2909 87.5064L85.7362 86.6743C84.8469 87.2672 83.5294 88.6198 82.1008 90.3913C80.6602 92.1775 79.0723 94.433 77.6454 96.8727C76.2193 99.3108 74.9464 101.946 74.1449 104.49C73.3461 107.025 73 109.519 73.4843 111.65L74.4594 111.428ZM86.6097 64.4282C86.4182 66.918 86.3269 68.8819 86.2508 70.5178L87.2497 70.5643C87.3258 68.9292 87.4165 66.9784 87.6068 64.5048L86.6097 64.4282ZM86.2508 70.5178C86.143 72.8355 86.0663 74.4673 85.7868 76.0239C85.5096 77.5676 85.03 79.0494 84.1009 81.0405L85.007 81.4634C85.964 79.4127 86.4753 77.8476 86.771 76.2006C87.0645 74.5664 87.1428 72.8637 87.2497 70.5643L86.2508 70.5178ZM90.9281 58.5231C89.6453 58.0566 88.6237 58.2168 87.8181 58.6558C87.0438 59.0777 86.5056 59.7407 86.142 60.1831L86.9146 60.8181C87.2919 60.359 87.7172 59.8496 88.2966 59.5339C88.8448 59.2351 89.5673 59.0923 90.5864 59.4629L90.9281 58.5231ZM86.142 60.1831C85.9992 60.357 85.8933 60.4851 85.8022 60.5768C85.7581 60.6211 85.7288 60.6453 85.7118 60.6571C85.6935 60.6699 85.7066 60.6564 85.7465 60.6478C85.7962 60.637 85.8606 60.6399 85.921 60.667C85.9731 60.6904 85.9908 60.7177 85.9819 60.7064C85.9729 60.6948 85.9507 60.6615 85.9193 60.5911C85.8886 60.5223 85.854 60.4292 85.8161 60.3058L84.8601 60.5993C84.9476 60.8843 85.0507 61.1385 85.1935 61.3214C85.2688 61.418 85.3719 61.5167 85.5118 61.5795C85.6599 61.6459 85.8144 61.6561 85.9575 61.6252C86.2055 61.5717 86.3949 61.3991 86.5117 61.2815C86.6432 61.1491 86.782 60.9795 86.9146 60.8181L86.142 60.1831Z" fill="#424B54"/>
<path fill-rule="evenodd" clip-rule="evenodd" d="M109.732 52.7897C106.935 54.9791 100.902 59.9417 99.1501 62.2771C96.9607 65.1963 95.1362 75.0486 103.529 72.8592C106.261 72.1464 109.26 70.5491 111.076 69.8542C114.84 68.4149 118.125 69.1763 118.125 72.1294C118.125 75.8254 115.206 76.1704 112.135 77.9804C109.064 79.7904 105.592 80.9325 100.245 86.7255C91.4872 96.2129 102.069 99.8619 106.813 96.5778C110.863 93.774 118.438 84.1712 119.54 81.362C119.826 80.6344 121.543 78.1815 121.774 77.63C124.143 76.5353 125.238 75.8055 129.437 75.0757C130.567 74.8792 131.772 72.7133 129.437 72.1294C127.102 71.5456 122.382 72.3727 121.044 72.8592C120.436 70.4266 119.585 65.5612 115.206 65.5612C113.265 65.5612 110.727 66.2497 108.471 66.8615C104.367 67.9749 101.197 68.8347 104.259 64.8314C108.04 59.8869 111.125 57.4926 112.592 56.3548C112.965 56.0652 113.233 55.857 113.381 55.7089C114.111 54.9791 115.936 52.7897 109.732 52.7897ZM104.989 88.1851C106.74 85.8497 117.03 79.7923 119.22 79.7923L115.571 85.6308C111.828 90.3215 108.054 95.1912 104.259 95.4831C99.9036 95.8181 102.2 91.847 104.42 88.9351C104.618 88.6754 104.809 88.4241 104.989 88.1851Z" fill="#424B54"/>
<path d="M109.732 52.7897V52.2897C109.621 52.2897 109.512 52.3271 109.424 52.3959L109.732 52.7897ZM99.1501 62.2771L99.5501 62.5771L99.1501 62.2771ZM103.529 72.8592L103.655 73.343L103.529 72.8592ZM100.245 86.7255L100.612 87.0646L100.245 86.7255ZM106.813 96.5778L107.098 96.9889L106.813 96.5778ZM121.774 77.63L121.564 77.1761L121.388 77.2576L121.313 77.4367L121.774 77.63ZM129.437 75.0757L129.523 75.5683L129.437 75.0757ZM121.044 72.8592L120.559 72.9805L120.694 73.5187L121.215 73.3291L121.044 72.8592ZM104.259 64.8314L103.862 64.5277L104.259 64.8314ZM113.381 55.7089L113.028 55.3553V55.3553L113.381 55.7089ZM119.22 79.7923L119.644 80.0573C119.74 79.9032 119.745 79.7089 119.657 79.55C119.569 79.391 119.401 79.2923 119.22 79.2923V79.7923ZM104.989 88.1851L105.389 88.4851L104.989 88.1851ZM104.259 95.4831L104.297 95.9816H104.297L104.259 95.4831ZM115.571 85.6308L115.961 85.9426L115.979 85.9201L115.995 85.8958L115.571 85.6308ZM111.076 69.8542L111.255 70.3212L111.076 69.8542ZM119.54 81.362L119.075 81.1794L119.54 81.362ZM108.471 66.8615L108.602 67.3441L108.471 66.8615ZM112.592 56.3548L112.285 55.9598V55.9598L112.592 56.3548ZM104.42 88.9351L104.022 88.6321L104.42 88.9351ZM109.424 52.3959C108.02 53.4948 105.805 55.2884 103.721 57.1014C101.651 58.9019 99.663 60.76 98.7501 61.9771L99.5501 62.5771C100.389 61.4589 102.294 59.6679 104.377 57.8559C106.446 56.0564 108.647 54.2739 110.04 53.1834L109.424 52.3959ZM98.7501 61.9771C98.1523 62.7742 97.6055 64.0023 97.2474 65.3408C96.8883 66.683 96.7052 68.187 96.8751 69.5459C97.0447 70.9023 97.5771 72.1815 98.7155 72.9537C99.8554 73.727 101.482 73.91 103.655 73.343L103.403 72.3754C101.38 72.9032 100.087 72.6757 99.2769 72.1262C98.4654 71.5756 98.0171 70.6198 97.8674 69.4219C97.718 68.2265 97.877 66.8569 98.2135 65.5992C98.551 64.3377 99.0533 63.2396 99.5501 62.5771L98.7501 61.9771ZM99.8774 86.3863C97.6518 88.7973 96.5927 90.9017 96.4119 92.6786C96.2279 94.487 96.961 95.8926 98.1566 96.8338C99.3335 97.7603 100.941 98.2279 102.545 98.2579C104.15 98.288 105.809 97.881 107.098 96.9889L106.528 96.1667C105.445 96.9167 104.003 97.2851 102.563 97.2581C101.122 97.2311 99.7421 96.8093 98.7752 96.0481C97.827 95.3016 97.2601 94.2213 97.4068 92.7798C97.5567 91.3068 98.4589 89.3973 100.612 87.0646L99.8774 86.3863ZM121.984 78.0839C123.195 77.5242 124.023 77.0861 125.095 76.6842C126.152 76.2875 127.444 75.9295 129.523 75.5683L129.351 74.5831C127.23 74.9517 125.875 75.3235 124.743 75.7479C123.626 76.167 122.722 76.6411 121.564 77.1761L121.984 78.0839ZM129.523 75.5683C129.935 75.4966 130.312 75.257 130.599 74.9649C130.889 74.67 131.124 74.2838 131.223 73.8625C131.324 73.4338 131.286 72.9516 130.993 72.5256C130.705 72.1056 130.218 71.8093 129.558 71.6444L129.316 72.6145C129.824 72.7415 130.061 72.9348 130.169 73.0914C130.272 73.2417 130.3 73.4228 130.25 73.6331C130.199 73.8509 130.067 74.0795 129.885 74.2643C129.701 74.4518 129.504 74.5566 129.351 74.5831L129.523 75.5683ZM129.558 71.6444C128.296 71.3287 126.453 71.401 124.808 71.5964C123.154 71.7928 121.595 72.1267 120.873 72.3893L121.215 73.3291C121.831 73.1052 123.301 72.7823 124.925 72.5894C126.558 72.3956 128.243 72.3463 129.316 72.6145L129.558 71.6444ZM121.529 72.738C121.234 71.5578 120.853 69.6495 119.977 68.057C119.084 66.4326 117.633 65.0612 115.206 65.0612V66.0612C117.157 66.0612 118.322 67.1224 119.101 68.5389C119.897 69.9873 120.246 71.728 120.559 72.9805L121.529 72.738ZM113.735 56.0624C113.927 55.8702 114.215 55.5595 114.425 55.1938C114.628 54.8392 114.815 54.3327 114.628 53.8074C114.436 53.2723 113.925 52.9027 113.172 52.6661C112.411 52.4273 111.304 52.2897 109.732 52.2897V53.2897C111.262 53.2897 112.253 53.4257 112.872 53.6202C113.499 53.817 113.649 54.0403 113.686 54.1438C113.726 54.2571 113.708 54.4347 113.558 54.6959C113.414 54.946 113.2 55.1826 113.028 55.3553L113.735 56.0624ZM119.22 79.2923C118.858 79.2923 118.391 79.4116 117.889 79.5844C117.372 79.7622 116.767 80.0156 116.108 80.3219C114.789 80.935 113.228 81.7734 111.686 82.6822C110.144 83.5911 108.611 84.5755 107.351 85.4827C106.109 86.3768 105.078 87.2327 104.589 87.8851L105.389 88.4851C105.775 87.9697 106.687 87.1927 107.935 86.2943C109.165 85.4088 110.671 84.441 112.194 83.5437C113.717 82.6462 115.248 81.8244 116.529 81.2287C117.171 80.9306 117.742 80.6925 118.214 80.5299C118.701 80.3624 119.034 80.2923 119.22 80.2923V79.2923ZM104.297 95.9816C106.381 95.8213 108.383 94.4186 110.283 92.5643C112.197 90.6973 114.098 88.2783 115.961 85.9426L115.18 85.3189C113.301 87.6739 111.443 90.0351 109.585 91.8486C107.714 93.6748 105.931 94.853 104.22 94.9846L104.297 95.9816ZM115.995 85.8958L119.644 80.0573L118.796 79.5273L115.147 85.3658L115.995 85.8958ZM103.655 73.343C105.061 72.9763 106.523 72.3857 107.846 71.8082C109.189 71.2219 110.36 70.6635 111.255 70.3212L110.898 69.3872C109.976 69.7398 108.739 70.3275 107.446 70.8917C106.133 71.4648 104.73 72.0293 103.403 72.3754L103.655 73.343ZM111.255 70.3212C113.078 69.6239 114.722 69.4867 115.871 69.8244C116.439 69.9912 116.87 70.2685 117.161 70.6357C117.448 70.9999 117.625 71.4878 117.625 72.1294H118.625C118.625 71.2944 118.391 70.5797 117.945 70.0156C117.502 69.4545 116.877 69.0777 116.153 68.8649C114.718 68.4434 112.838 68.6452 110.898 69.3872L111.255 70.3212ZM117.625 72.1294C117.625 72.9853 117.457 73.6131 117.184 74.106C116.91 74.6003 116.511 74.9937 115.996 75.3517C115.475 75.7139 114.856 76.0269 114.147 76.3731C113.448 76.7145 112.669 77.085 111.881 77.5497L112.389 78.4112C113.136 77.9708 113.874 77.6194 114.586 77.2716C115.288 76.9285 115.974 76.5849 116.567 76.1727C117.166 75.7562 117.689 75.2571 118.058 74.5907C118.428 73.9229 118.625 73.1216 118.625 72.1294H117.625ZM111.881 77.5497C108.852 79.3346 105.289 80.5238 99.8774 86.3863L100.612 87.0646C105.895 81.3413 109.275 80.2462 112.389 78.4112L111.881 77.5497ZM107.098 96.9889C109.186 95.5433 112.13 92.3921 114.669 89.2885C115.945 87.729 117.13 86.167 118.067 84.8152C118.995 83.4762 119.707 82.3069 120.006 81.5447L119.075 81.1794C118.823 81.8217 118.174 82.9062 117.245 84.2454C116.326 85.5718 115.157 87.1125 113.895 88.6553C111.358 91.7563 108.49 94.8085 106.528 96.1667L107.098 96.9889ZM120.006 81.5447C120.06 81.4075 120.199 81.152 120.406 80.8069C120.607 80.4726 120.852 80.0858 121.099 79.6991C121.344 79.3151 121.592 78.9296 121.792 78.6072C121.984 78.2986 122.159 78.0055 122.235 77.8234L121.313 77.4367C121.274 77.5303 121.147 77.7506 120.943 78.0798C120.747 78.3951 120.505 78.7717 120.256 79.1608C120.009 79.5472 119.757 79.9446 119.549 80.2921C119.346 80.6288 119.164 80.9528 119.075 81.1794L120.006 81.5447ZM115.206 65.0612C113.183 65.0612 110.572 65.7735 108.34 66.379L108.602 67.3441C110.881 66.7258 113.346 66.0612 115.206 66.0612V65.0612ZM108.34 66.379C107.31 66.6584 106.357 66.9167 105.548 67.0878C104.719 67.2629 104.116 67.3285 103.756 67.2714C103.673 67.2582 103.618 67.2405 103.583 67.2246C103.566 67.217 103.556 67.2104 103.55 67.2061C103.547 67.204 103.545 67.2024 103.544 67.2013C103.543 67.2004 103.543 67.1998 103.543 67.1998C103.543 67.1998 103.543 67.2 103.543 67.2005C103.543 67.2007 103.543 67.2008 103.543 67.201C103.543 67.2011 103.543 67.2012 103.543 67.2012C103.543 67.2012 103.543 67.201 103.543 67.2007C103.543 67.2004 103.543 67.1999 103.543 67.1992C103.542 67.1977 103.541 67.1952 103.541 67.1915C103.537 67.1761 103.532 67.138 103.543 67.0677C103.565 66.9203 103.644 66.6904 103.83 66.3562C104.012 66.0275 104.282 65.6242 104.656 65.1351L103.862 64.5277C103.47 65.0394 103.169 65.485 102.955 65.8711C102.744 66.2519 102.601 66.6028 102.554 66.9204C102.505 67.2485 102.554 67.5853 102.786 67.8533C103.004 68.1059 103.313 68.2136 103.6 68.259C104.162 68.3483 104.93 68.2403 105.754 68.0662C106.598 67.888 107.58 67.6213 108.602 67.3441L108.34 66.379ZM104.656 65.1351C108.401 60.2382 111.449 57.874 112.898 56.7499L112.285 55.9598C110.801 57.1111 107.679 59.5356 103.862 64.5277L104.656 65.1351ZM112.898 56.7499C113.257 56.4713 113.558 56.2387 113.735 56.0624L113.028 55.3553C112.908 55.4752 112.673 55.659 112.285 55.9598L112.898 56.7499ZM104.22 94.9846C103.172 95.0652 102.694 94.8678 102.492 94.6612C102.309 94.4737 102.221 94.1364 102.361 93.5404C102.497 92.9562 102.826 92.2487 103.276 91.4884C103.722 90.7344 104.269 89.9571 104.817 89.2382L104.022 88.6321C103.46 89.369 102.888 90.1801 102.416 90.9792C101.947 91.772 101.558 92.5822 101.387 93.3129C101.219 94.0318 101.235 94.8065 101.777 95.3603C102.3 95.8951 103.168 96.0684 104.297 95.9816L104.22 94.9846ZM104.817 89.2382C105.015 88.9788 105.208 88.726 105.389 88.4851L104.589 87.8851C104.411 88.1223 104.22 88.372 104.022 88.6321L104.817 89.2382Z" fill="#424B54"/>
</svg>
