<svg width="142" height="148" viewBox="0 0 142 148" fill="none" xmlns="http://www.w3.org/2000/svg">
<rect width="142" height="148" fill="white"/>
<path fill-rule="evenodd" clip-rule="evenodd" d="M36.5252 59.8824C33.9709 57.693 26.4833 58.4411 21.5206 68.0744C16.558 77.7078 20.1427 81.6166 21.9671 83.4411C24.6237 86.0977 26.926 86.6799 32.955 72.4941C34.3543 69.2015 35.2934 67.1422 36.436 64.9743C37.2347 63.4588 38.1189 61.9581 38.7759 61.0383C40.7024 58.3412 39.5226 62.9648 37.6811 72.5974C36.2829 79.9111 36.3449 88.7918 36.4641 92.2478C36.9506 93.9507 40.3782 98.4127 41.0877 94.9449C41.718 91.8647 41.7044 76.9174 42.69 70.2639C43.4198 64.5471 47.6042 52.6994 51.1056 46.3968C53.0321 42.9291 52.6468 41.0026 47.699 39.076C46.0967 38.4521 45.7725 41.7732 44.0111 45.1718C42.0804 48.8972 40.2122 52.5616 36.5252 59.8824ZM26.3868 70.2639C29.0141 64.1336 33.0358 61.8712 34.7387 61.5063C35.0306 62.3821 33.4007 65.2769 32.5493 66.6149C30.6032 70.1423 27.2217 78.2188 26.346 79.3864C25.2513 80.8461 23.1027 77.9268 26.3868 70.2639Z" fill="#140000"/>
<path d="M36.5252 59.8824L36.1998 60.262L36.6846 60.6775L36.9718 60.1073L36.5252 59.8824ZM21.9671 83.4411L21.6136 83.7946L21.9671 83.4411ZM32.955 72.4941L32.4948 72.2985L32.955 72.4941ZM38.7759 61.0383L38.3691 60.7477L38.7759 61.0383ZM36.4641 92.2478L35.9644 92.265L35.9665 92.3263L35.9833 92.3852L36.4641 92.2478ZM41.0877 94.9449L41.5776 95.0452L41.0877 94.9449ZM42.69 70.2639L43.1847 70.3372L43.186 70.3272L42.69 70.2639ZM51.1056 46.3968L51.5427 46.6396L51.1056 46.3968ZM47.699 39.076L47.8805 38.6101L47.699 39.076ZM34.7387 61.5063L35.213 61.3482L35.0715 60.9236L34.6339 61.0174L34.7387 61.5063ZM26.3868 70.2639L25.9272 70.067L26.3868 70.2639ZM26.346 79.3864L25.946 79.0864L26.346 79.3864ZM32.5493 66.6149L32.1275 66.3465L32.1191 66.3597L32.1115 66.3734L32.5493 66.6149ZM36.436 64.9743L36.8783 65.2074L36.436 64.9743ZM37.6811 72.5974L38.1722 72.6913L37.6811 72.5974ZM44.0111 45.1718L44.455 45.4018L44.0111 45.1718ZM36.8506 59.5028C35.3839 58.2456 32.6567 57.9215 29.7414 59.0802C26.7978 60.2502 23.6021 62.9421 21.0762 67.8455L21.9651 68.3034C24.4018 63.5734 27.4313 61.0745 30.1107 60.0095C32.8185 58.9332 35.1122 59.3298 36.1998 60.262L36.8506 59.5028ZM21.0762 67.8455C18.5609 72.728 18.1748 76.2325 18.7093 78.7885C19.2441 81.3458 20.6846 82.8656 21.6136 83.7946L22.3207 83.0875C21.4252 82.1921 20.1611 80.8453 19.6881 78.5837C19.2149 76.3209 19.5177 73.0542 21.9651 68.3034L21.0762 67.8455ZM21.6136 83.7946C22.2807 84.4617 22.9989 85.0792 23.8123 85.3249C24.6805 85.5872 25.5713 85.4051 26.5039 84.6778C27.4106 83.9706 28.3853 82.7301 29.5003 80.8143C30.6204 78.8899 31.904 76.2452 33.4151 72.6896L32.4948 72.2985C30.9914 75.8359 29.7264 78.438 28.6361 80.3112C27.5408 82.193 26.6434 83.3008 25.8889 83.8892C25.1602 84.4575 24.6005 84.5183 24.1015 84.3676C23.5477 84.2003 22.9819 83.7487 22.3207 83.0875L21.6136 83.7946ZM35.9833 92.3852C36.1254 92.8823 36.4625 93.53 36.8755 94.1519C37.2926 94.78 37.8159 95.4251 38.3601 95.909C38.6321 96.1509 38.9219 96.3637 39.2176 96.5116C39.5103 96.658 39.8424 96.7575 40.184 96.7235C40.9538 96.6467 41.3876 95.9738 41.5776 95.0452L40.5979 94.8447C40.4331 95.65 40.1725 95.7197 40.0848 95.7284C39.9976 95.7371 39.8603 95.715 39.6649 95.6173C39.4726 95.5211 39.2557 95.3672 39.0246 95.1617C38.5623 94.7507 38.0931 94.1778 37.7086 93.5987C37.3199 93.0134 37.0461 92.4647 36.9449 92.1105L35.9833 92.3852ZM41.5776 95.0452C41.7441 94.2312 41.8625 92.6792 41.9647 90.7511C42.0677 88.8085 42.156 86.4385 42.2552 83.9644C42.4542 79.001 42.6966 73.6315 43.1846 70.3372L42.1954 70.1907C41.6978 73.5498 41.4542 78.9806 41.256 83.9243C41.1566 86.4038 41.0686 88.764 40.9661 90.6982C40.8628 92.647 40.7465 94.1185 40.5979 94.8447L41.5776 95.0452ZM43.186 70.3272C43.544 67.5227 44.7581 63.1718 46.33 58.7164C47.8999 54.2663 49.8107 49.7573 51.5427 46.6396L50.6685 46.154C48.8991 49.3389 46.967 53.9051 45.3869 58.3837C43.8088 62.857 42.5658 67.2884 42.1941 70.2006L43.186 70.3272ZM51.5427 46.6396C52.5116 44.8956 53.0122 43.3574 52.4428 41.9688C51.8826 40.6026 50.3614 39.5761 47.8805 38.6101L47.5176 39.542C49.9845 40.5025 51.1298 41.4026 51.5176 42.3482C51.8961 43.2714 51.6261 44.4303 50.6685 46.154L51.5427 46.6396ZM34.6339 61.0174C32.7448 61.4222 28.6064 63.8155 25.9272 70.067L26.8464 70.4609C29.4217 64.4517 33.3268 62.3202 34.8435 61.9952L34.6339 61.0174ZM25.9272 70.067C24.2668 73.9413 23.9446 76.6917 24.2318 78.3323C24.3716 79.131 24.6774 79.7775 25.1656 80.0796C25.4275 80.2416 25.7329 80.2952 26.0361 80.2086C26.3271 80.1254 26.5644 79.9286 26.746 79.6864L25.946 79.0864C25.8539 79.2092 25.7846 79.2404 25.7613 79.2471C25.7504 79.2502 25.734 79.2553 25.6918 79.2292C25.5719 79.155 25.3405 78.8665 25.2168 78.1599C24.9771 76.7901 25.2227 74.2495 26.8464 70.4609L25.9272 70.067ZM26.746 79.6864C27.0008 79.3466 27.3989 78.5711 27.8615 77.6114C28.3344 76.6299 28.9021 75.3962 29.5005 74.0944C30.7023 71.4804 32.0251 68.6001 32.9871 66.8565L32.1115 66.3734C31.1274 68.1571 29.7863 71.0788 28.592 73.6767C27.9923 74.981 27.4288 76.2057 26.9606 77.1773C26.482 78.1705 26.129 78.8424 25.946 79.0864L26.746 79.6864ZM32.9711 66.8834C33.4041 66.2029 34.0354 65.1265 34.524 64.1026C34.7677 63.5919 34.9827 63.0802 35.1183 62.6299C35.186 62.4048 35.2376 62.1832 35.2603 61.9773C35.2824 61.7777 35.2819 61.5549 35.213 61.3482L34.2644 61.6644C34.2684 61.6766 34.2809 61.7359 34.2664 61.8675C34.2525 61.9927 34.218 62.1514 34.1607 62.3417C34.0461 62.7224 33.8552 63.1823 33.6215 63.6719C33.1553 64.6489 32.5459 65.689 32.1275 66.3465L32.9711 66.8834ZM33.4151 72.6896C34.8124 69.402 35.7452 67.3574 36.8783 65.2074L35.9937 64.7411C34.8416 66.9271 33.8963 69.0009 32.4948 72.2985L33.4151 72.6896ZM36.8783 65.2074C37.6726 63.7002 38.5448 62.2221 39.1828 61.3289L38.3691 60.7477C37.6931 61.694 36.7968 63.2173 35.9937 64.7411L36.8783 65.2074ZM39.1828 61.3289C39.4214 60.9948 39.5767 60.827 39.6601 60.7636C39.7067 60.7281 39.6688 60.7737 39.5676 60.7776C39.4117 60.7837 39.3002 60.6911 39.2559 60.6223C39.23 60.582 39.2406 60.5736 39.2511 60.651C39.2602 60.7182 39.2652 60.8184 39.2618 60.9585C39.2551 61.2382 39.2166 61.6252 39.1464 62.1246C38.8643 64.1313 38.1146 67.6668 37.19 72.5035L38.1722 72.6913C39.0891 67.8954 39.85 64.3028 40.1366 62.2638C40.2086 61.7518 40.2534 61.32 40.2615 60.9826C40.2656 60.8141 40.2609 60.6562 40.242 60.5168C40.2246 60.3877 40.1889 60.2243 40.0972 60.0817C39.9872 59.9104 39.7904 59.7682 39.5286 59.7784C39.3214 59.7865 39.1569 59.89 39.055 59.9674C38.8414 60.1298 38.612 60.4075 38.3691 60.7477L39.1828 61.3289ZM37.19 72.5035C35.781 79.8741 35.8449 88.8004 35.9644 92.265L36.9638 92.2306C36.8449 88.7831 36.7849 79.9481 38.1722 72.6913L37.19 72.5035ZM47.8805 38.6101C47.6049 38.5028 47.322 38.4681 47.0417 38.5319C46.7643 38.5951 46.5345 38.7446 46.3451 38.9297C45.9836 39.2828 45.7058 39.8301 45.4547 40.4195C44.9231 41.6671 44.4404 43.2567 43.5672 44.9417L44.455 45.4018C45.3431 43.6882 45.9032 41.918 46.3747 40.8114C46.6251 40.2237 46.8388 39.8453 47.0439 39.645C47.1377 39.5534 47.2099 39.5192 47.2638 39.5069C47.3148 39.4953 47.3926 39.4933 47.5176 39.542L47.8805 38.6101ZM43.5672 44.9417C41.6352 48.6696 39.766 52.336 36.0786 59.6575L36.9718 60.1073C40.6584 52.7873 42.5256 49.1248 44.455 45.4018L43.5672 44.9417Z" fill="#140000"/>
<path d="M55.7671 85.2656C50.2206 82.6383 50.3481 67.7504 53.9426 59.7226C62.2809 57.5332 58.7408 71.0345 59.1057 79.0624C59.3977 85.4846 63.3629 79.7922 65.3091 76.1432L65.674 79.0624C62.3899 87.4551 57.5187 86.4333 55.7671 85.2656Z" fill="#140000"/>
<path d="M55.7671 49.5054C57.1233 49.2621 59.6166 49.5054 58.7408 52.4246C57.6461 56.0736 54.253 52.4246 55.7671 49.5054Z" fill="#140000"/>
<path d="M55.7671 85.2656C50.2206 82.6383 50.3481 67.7504 53.9426 59.7226C62.2809 57.5332 58.7408 71.0345 59.1057 79.0624C59.3977 85.4846 63.3629 79.7922 65.3091 76.1432L65.674 79.0624C62.3899 87.4551 57.5187 86.4333 55.7671 85.2656Z" stroke="#140000" stroke-linecap="round" stroke-linejoin="round"/>
<path d="M55.7671 49.5054C57.1233 49.2621 59.6166 49.5054 58.7408 52.4246C57.6461 56.0736 54.253 52.4246 55.7671 49.5054Z" stroke="#140000" stroke-linecap="round" stroke-linejoin="round"/>
<path fill-rule="evenodd" clip-rule="evenodd" d="M70.4175 64.1016C78.4427 56.3218 83.2434 58.628 84.3381 60.4525C84.6726 61.5419 84.9773 61.171 85.5283 60.5006C86.2692 59.5991 87.4553 58.1559 89.7573 58.993C93.7712 60.4526 92.3116 64.4665 91.5818 66.291C90.852 68.1155 87.5679 76.5082 91.5818 74.3188C95.5957 72.1294 97.0553 72.4943 98.15 73.589C99.2447 74.6837 98.5149 75.4135 94.501 76.5082C90.4871 77.6029 87.9328 80.5221 86.8381 87.8202C85.7434 95.1182 83.5948 106.43 81.4053 112.998C79.2159 119.567 70.4175 121.756 68.9579 108.984C67.7902 98.7672 78.2021 86.2389 83.554 81.2519C85.4401 77.2102 85.5355 75.1581 85.7503 70.5411C85.8263 68.9055 85.9174 66.9482 86.1083 64.4665C84.527 65.5612 77.3507 73.2241 73.3367 78.3327C67.1012 86.2687 60.2547 73.9538 70.4175 64.1016ZM80.6347 63.3718C79.4184 64.1016 76.2559 66.364 73.3367 69.5751C69.6877 73.589 70.4175 76.1025 75.5261 71.7237C80.6347 67.3449 82.8241 64.4665 83.9189 63.0069C85.0136 61.5473 82.8242 61.847 80.6347 63.3718ZM79.4992 108.62C80.9588 105.7 84.2838 93.0504 85.0136 87.0904C81.7294 89.2798 71.1473 103.511 72.9718 111.539C74.7963 119.567 77.6747 112.269 79.4992 108.62Z" fill="#140000"/>
<path d="M84.3381 60.4525L84.8161 60.3058L84.7982 60.2475L84.7669 60.1953L84.3381 60.4525ZM70.4175 64.1016L70.0695 63.7426L70.4175 64.1016ZM73.3367 78.3327L72.9436 78.0238L73.3367 78.3327ZM86.1083 64.4665L86.6068 64.5048C86.6216 64.3125 86.5244 64.1289 86.3571 64.0328C86.1898 63.9368 85.9822 63.9456 85.8237 64.0554L86.1083 64.4665ZM83.554 81.2519L83.8948 81.6177L83.9659 81.5515L84.007 81.4634L83.554 81.2519ZM68.9579 108.984L69.4547 108.928L68.9579 108.984ZM89.7573 58.993L89.9281 58.5231L89.7573 58.993ZM80.6347 63.3718L80.892 63.8005L80.9066 63.7918L80.9205 63.7821L80.6347 63.3718ZM73.3367 69.5751L73.7067 69.9114L73.3367 69.5751ZM85.0136 87.0904L85.5098 87.1511L85.6422 86.0703L84.7362 86.6743L85.0136 87.0904ZM85.7503 70.5411L86.2497 70.5643L85.7503 70.5411ZM85.5283 60.5006L85.9146 60.8181V60.8181L85.5283 60.5006ZM84.7669 60.1953C84.1105 59.1014 82.4446 57.9971 79.941 58.1767C77.4397 58.3561 74.1284 59.8078 70.0695 63.7426L70.7655 64.4606C74.7318 60.6156 77.8334 59.3304 80.0125 59.1741C82.1892 59.018 83.471 59.9792 83.9094 60.7098L84.7669 60.1953ZM70.0695 63.7426C64.8781 68.7753 63.9553 74.518 65.2585 78.0604C65.9074 79.8244 67.1467 81.1106 68.7508 81.3377C70.3591 81.5653 72.1145 80.6976 73.7299 78.6417L72.9436 78.0238C71.4412 79.9359 70.0025 80.5049 68.8909 80.3475C67.7751 80.1896 66.7688 79.2693 66.197 77.7151C65.0587 74.621 65.794 69.2802 70.7655 64.4606L70.0695 63.7426ZM73.7299 78.6417C75.7255 76.1019 78.5132 72.9199 81.0015 70.2342C82.2451 68.892 83.4109 67.6771 84.3626 66.7311C85.3268 65.7727 86.0405 65.1216 86.3929 64.8776L85.8237 64.0554C85.3854 64.3588 84.6091 65.076 83.6576 66.0219C82.6935 66.9803 81.5179 68.2056 80.268 69.5546C77.7694 72.2512 74.962 75.455 72.9436 78.0238L73.7299 78.6417ZM83.2131 80.8861C80.5102 83.4047 76.5393 87.8171 73.3864 92.893C70.2437 97.9525 67.8576 103.76 68.4612 109.041L69.4547 108.928C68.8905 103.991 71.1266 98.4264 74.2358 93.4207C77.3349 88.4314 81.2458 84.0862 83.8948 81.6177L83.2131 80.8861ZM68.4612 109.041C69.1987 115.495 71.8366 118.482 74.8652 118.742C77.827 118.996 80.7391 116.578 81.8797 113.156L80.931 112.84C79.8822 115.987 77.3004 117.947 74.9507 117.746C72.6679 117.55 70.1767 115.246 69.4547 108.928L68.4612 109.041ZM81.8797 113.156C84.0835 106.545 86.2371 95.1972 87.3325 87.8943L86.3436 87.746C85.2496 95.0392 83.106 106.315 80.931 112.84L81.8797 113.156ZM87.3325 87.8943C87.874 84.2844 88.7688 81.818 89.981 80.1296C91.1816 78.4572 92.7194 77.5124 94.6325 76.9906L94.3694 76.0258C92.2687 76.5988 90.5223 77.6609 89.1687 79.5463C87.8266 81.4157 86.8968 84.0579 86.3436 87.746L87.3325 87.8943ZM94.6325 76.9906C95.6435 76.7149 96.4606 76.4587 97.0997 76.2102C97.7307 75.9648 98.2246 75.7133 98.5613 75.4327C98.9068 75.1448 99.1481 74.7698 99.1039 74.3056C99.064 73.8872 98.7991 73.531 98.5035 73.2355L97.7964 73.9426C98.0482 74.1944 98.1026 74.3399 98.1084 74.4004C98.1098 74.4152 98.123 74.4963 97.9211 74.6645C97.7105 74.8401 97.3377 75.0447 96.7372 75.2782C96.1447 75.5086 95.3654 75.7542 94.3694 76.0258L94.6325 76.9906ZM98.5035 73.2355C97.8788 72.6107 97.11 72.1696 95.9379 72.2229C94.8176 72.2738 93.3671 72.7755 91.3423 73.8799L91.8212 74.7578C93.8103 73.6728 95.0966 73.2622 95.9833 73.2219C96.8181 73.1839 97.3265 73.4726 97.7964 73.9426L98.5035 73.2355ZM91.3423 73.8799C90.8711 74.1369 90.5877 74.1908 90.4394 74.1789C90.3432 74.1712 90.2904 74.1398 90.236 74.0272C90.1644 73.879 90.1167 73.6208 90.1253 73.2331C90.1337 72.8561 90.1937 72.4056 90.2932 71.9082C90.6934 69.9072 91.6793 67.3935 92.046 66.4767L91.1175 66.1053C90.7545 67.013 89.7334 69.608 89.3126 71.7121C89.2068 72.241 89.1357 72.754 89.1255 73.2109C89.1156 73.657 89.162 74.103 89.3356 74.4622C89.5263 74.857 89.8698 75.1364 90.3594 75.1757C90.7969 75.2108 91.289 75.0481 91.8212 74.7578L91.3423 73.8799ZM92.046 66.4767C92.4092 65.5687 92.9975 64.0197 92.9481 62.489C92.9231 61.7125 92.7339 60.918 92.2514 60.2107C91.7668 59.5004 91.0132 58.9177 89.9281 58.5231L89.5864 59.4629C90.5083 59.7981 91.0775 60.2644 91.4253 60.7743C91.7752 61.2871 91.9281 61.8838 91.9487 62.5213C91.9905 63.8186 91.4841 65.1888 91.1175 66.1053L92.046 66.4767ZM80.3775 62.943C79.123 63.6957 75.9216 65.9884 72.9668 69.2388L73.7067 69.9114C76.5903 66.7395 79.7138 64.5074 80.892 63.8005L80.3775 62.943ZM72.9668 69.2388C72.0348 70.2639 71.3653 71.2114 70.9736 71.9968C70.7783 72.3883 70.6428 72.758 70.5861 73.089C70.5312 73.4092 70.5382 73.7661 70.7235 74.062C70.9282 74.389 71.2705 74.5203 71.6174 74.5264C71.9475 74.5323 72.3199 74.4302 72.7151 74.2583C73.5118 73.9118 74.5594 73.2109 75.8515 72.1033L75.2007 71.3441C73.9385 72.426 72.9792 73.0529 72.3163 73.3413C71.9817 73.4868 71.7611 73.5288 71.6351 73.5266C71.5259 73.5247 71.5489 73.4958 71.5711 73.5313C71.574 73.5359 71.5353 73.4703 71.5717 73.2579C71.6062 73.0563 71.6988 72.7833 71.8684 72.4431C72.2065 71.7652 72.8141 70.8933 73.7067 69.9114L72.9668 69.2388ZM75.8515 72.1033C80.9941 67.6954 83.2078 64.7882 84.3189 63.3069L83.5189 62.7069C82.4405 64.1448 80.2754 66.9944 75.2007 71.3441L75.8515 72.1033ZM84.3189 63.3069C84.473 63.1013 84.5943 62.895 84.6586 62.6917C84.7228 62.4884 84.7462 62.2306 84.6121 61.9902C84.4772 61.7484 84.247 61.6383 84.0536 61.5924C83.8611 61.5467 83.6507 61.5492 83.4481 61.5738C82.6509 61.6706 81.4781 62.1752 80.349 62.9615L80.9205 63.7821C81.9808 63.0436 82.9974 62.6359 83.5686 62.5666C83.7081 62.5496 83.7885 62.5573 83.8226 62.5654C83.8558 62.5732 83.7881 62.5657 83.7388 62.4773C83.6902 62.3902 83.7221 62.3365 83.7051 62.3903C83.6881 62.444 83.6383 62.5476 83.5189 62.7069L84.3189 63.3069ZM84.5173 87.0296C84.1564 89.9763 83.1494 94.6034 82.046 98.8701C80.9382 103.154 79.7539 106.992 79.052 108.396L79.9465 108.843C80.7042 107.328 81.9121 103.382 83.0141 99.1204C84.1205 94.8424 85.1409 90.1644 85.5098 87.1511L84.5173 87.0296ZM79.052 108.396C78.5806 109.339 78.0796 110.437 77.5222 111.514C76.9679 112.585 76.406 113.535 75.8677 114.119C75.5973 114.413 75.3709 114.572 75.1951 114.632C75.0513 114.682 74.9333 114.672 74.7912 114.573C74.6196 114.453 74.3969 114.187 74.156 113.66C73.9187 113.141 73.6833 112.413 73.4594 111.428L72.4843 111.65C72.7165 112.671 72.9702 113.471 73.2466 114.076C73.5194 114.672 73.8352 115.125 74.2185 115.392C74.6314 115.681 75.0848 115.728 75.5206 115.578C75.9244 115.439 76.2859 115.141 76.6034 114.797C77.2408 114.104 77.8546 113.047 78.4102 111.974C78.9626 110.907 79.5057 109.725 79.9465 108.843L79.052 108.396ZM73.4594 111.428C73.0314 109.545 73.3239 107.249 74.0987 104.79C74.8709 102.339 76.1066 99.7744 77.5086 97.3776C78.9096 94.9823 80.4689 92.7677 81.8792 91.019C83.3013 89.2556 84.5382 88.0082 85.2909 87.5064L84.7362 86.6743C83.8469 87.2672 82.5294 88.6198 81.1008 90.3913C79.6602 92.1775 78.0723 94.433 76.6454 96.8727C75.2193 99.3108 73.9464 101.946 73.1449 104.49C72.3461 107.025 72 109.519 72.4843 111.65L73.4594 111.428ZM85.6097 64.4282C85.4182 66.918 85.3269 68.8819 85.2508 70.5178L86.2497 70.5643C86.3258 68.9292 86.4165 66.9784 86.6068 64.5048L85.6097 64.4282ZM85.2508 70.5178C85.143 72.8355 85.0663 74.4673 84.7868 76.0239C84.5096 77.5676 84.03 79.0494 83.1009 81.0405L84.007 81.4634C84.964 79.4127 85.4753 77.8476 85.771 76.2006C86.0645 74.5664 86.1428 72.8637 86.2497 70.5643L85.2508 70.5178ZM89.9281 58.5231C88.6453 58.0566 87.6237 58.2168 86.8181 58.6558C86.0438 59.0777 85.5056 59.7407 85.142 60.1831L85.9146 60.8181C86.2919 60.359 86.7172 59.8496 87.2966 59.5339C87.8448 59.2351 88.5673 59.0923 89.5864 59.4629L89.9281 58.5231ZM85.142 60.1831C84.9992 60.357 84.8933 60.4851 84.8022 60.5768C84.7581 60.6211 84.7288 60.6453 84.7118 60.6571C84.6935 60.6699 84.7066 60.6564 84.7465 60.6478C84.7962 60.637 84.8606 60.6399 84.921 60.667C84.9731 60.6904 84.9908 60.7177 84.9819 60.7064C84.9729 60.6948 84.9507 60.6615 84.9193 60.5911C84.8886 60.5223 84.854 60.4292 84.8161 60.3058L83.8601 60.5993C83.9476 60.8843 84.0507 61.1385 84.1935 61.3214C84.2688 61.418 84.3719 61.5167 84.5118 61.5795C84.6599 61.6459 84.8144 61.6561 84.9575 61.6252C85.2055 61.5717 85.3949 61.3991 85.5117 61.2815C85.6432 61.1491 85.782 60.9795 85.9146 60.8181L85.142 60.1831Z" fill="#140000"/>
<path fill-rule="evenodd" clip-rule="evenodd" d="M108.732 52.7897C105.935 54.9791 99.9017 59.9417 98.1501 62.2771C95.9607 65.1963 94.1362 75.0486 102.529 72.8592C105.261 72.1464 108.26 70.5491 110.076 69.8542C113.84 68.4149 117.125 69.1763 117.125 72.1294C117.125 75.8254 114.206 76.1704 111.135 77.9804C108.064 79.7904 104.592 80.9325 99.2448 86.7255C90.4872 96.2129 101.069 99.8619 105.813 96.5778C109.863 93.774 117.438 84.1712 118.54 81.362C118.826 80.6344 120.543 78.1815 120.774 77.63C123.143 76.5353 124.238 75.8055 128.437 75.0757C129.567 74.8792 130.772 72.7133 128.437 72.1294C126.102 71.5456 121.382 72.3727 120.044 72.8592C119.436 70.4266 118.585 65.5612 114.206 65.5612C112.265 65.5612 109.727 66.2497 107.471 66.8615C103.367 67.9749 100.197 68.8347 103.259 64.8314C107.04 59.8869 110.125 57.4926 111.592 56.3548C111.965 56.0652 112.233 55.857 112.381 55.7089C113.111 54.9791 114.936 52.7897 108.732 52.7897ZM103.989 88.1851C105.74 85.8497 116.03 79.7923 118.22 79.7923L114.571 85.6308C110.828 90.3215 107.054 95.1912 103.259 95.4831C98.9036 95.8181 101.2 91.847 103.42 88.9351C103.618 88.6754 103.809 88.4241 103.989 88.1851Z" fill="#140000"/>
<path d="M108.732 52.7897V52.2897C108.621 52.2897 108.512 52.3271 108.424 52.3959L108.732 52.7897ZM98.1501 62.2771L98.5501 62.5771L98.1501 62.2771ZM102.529 72.8592L102.655 73.343L102.529 72.8592ZM99.2448 86.7255L99.6122 87.0646L99.2448 86.7255ZM105.813 96.5778L106.098 96.9889L105.813 96.5778ZM120.774 77.63L120.564 77.1761L120.388 77.2576L120.313 77.4367L120.774 77.63ZM128.437 75.0757L128.523 75.5683L128.437 75.0757ZM120.044 72.8592L119.559 72.9805L119.694 73.5187L120.215 73.3291L120.044 72.8592ZM103.259 64.8314L102.862 64.5277L103.259 64.8314ZM112.381 55.7089L112.028 55.3553V55.3553L112.381 55.7089ZM118.22 79.7923L118.644 80.0573C118.74 79.9032 118.745 79.7089 118.657 79.55C118.569 79.391 118.401 79.2923 118.22 79.2923V79.7923ZM103.989 88.1851L104.389 88.4851L103.989 88.1851ZM103.259 95.4831L103.297 95.9816H103.297L103.259 95.4831ZM114.571 85.6308L114.961 85.9426L114.979 85.9201L114.995 85.8958L114.571 85.6308ZM110.076 69.8542L110.255 70.3212L110.076 69.8542ZM118.54 81.362L118.075 81.1794L118.54 81.362ZM107.471 66.8615L107.602 67.3441L107.471 66.8615ZM111.592 56.3548L111.285 55.9598V55.9598L111.592 56.3548ZM103.42 88.9351L103.022 88.6321L103.42 88.9351ZM108.424 52.3959C107.02 53.4948 104.805 55.2884 102.721 57.1014C100.651 58.9019 98.663 60.76 97.7501 61.9771L98.5501 62.5771C99.3888 61.4589 101.294 59.6679 103.377 57.8559C105.446 56.0564 107.647 54.2739 109.04 53.1834L108.424 52.3959ZM97.7501 61.9771C97.1523 62.7742 96.6055 64.0023 96.2474 65.3408C95.8883 66.683 95.7052 68.187 95.8751 69.5459C96.0447 70.9023 96.5771 72.1815 97.7155 72.9537C98.8554 73.727 100.482 73.91 102.655 73.343L102.403 72.3754C100.38 72.9032 99.087 72.6757 98.2769 72.1262C97.4654 71.5756 97.0171 70.6198 96.8674 69.4219C96.718 68.2265 96.877 66.8569 97.2135 65.5992C97.551 64.3377 98.0533 63.2396 98.5501 62.5771L97.7501 61.9771ZM98.8774 86.3863C96.6518 88.7973 95.5927 90.9017 95.4119 92.6786C95.2279 94.487 95.961 95.8926 97.1566 96.8338C98.3335 97.7603 99.9408 98.2279 101.545 98.2579C103.15 98.288 104.809 97.881 106.098 96.9889L105.528 96.1667C104.445 96.9167 103.003 97.2851 101.563 97.2581C100.122 97.2311 98.7421 96.8093 97.7752 96.0481C96.827 95.3016 96.2601 94.2213 96.4068 92.7798C96.5567 91.3068 97.4589 89.3973 99.6122 87.0646L98.8774 86.3863ZM120.984 78.0839C122.195 77.5242 123.023 77.0861 124.095 76.6842C125.152 76.2875 126.444 75.9295 128.523 75.5683L128.351 74.5831C126.23 74.9517 124.875 75.3235 123.743 75.7479C122.626 76.167 121.722 76.6411 120.564 77.1761L120.984 78.0839ZM128.523 75.5683C128.935 75.4966 129.312 75.257 129.599 74.9649C129.889 74.67 130.124 74.2838 130.223 73.8625C130.324 73.4338 130.286 72.9516 129.993 72.5256C129.705 72.1056 129.218 71.8093 128.558 71.6444L128.316 72.6145C128.824 72.7415 129.061 72.9348 129.169 73.0914C129.272 73.2417 129.3 73.4228 129.25 73.6331C129.199 73.8509 129.067 74.0795 128.885 74.2643C128.701 74.4518 128.504 74.5566 128.351 74.5831L128.523 75.5683ZM128.558 71.6444C127.296 71.3287 125.453 71.401 123.808 71.5964C122.154 71.7928 120.595 72.1267 119.873 72.3893L120.215 73.3291C120.831 73.1052 122.301 72.7823 123.925 72.5894C125.558 72.3956 127.243 72.3463 128.316 72.6145L128.558 71.6444ZM120.529 72.738C120.234 71.5578 119.853 69.6495 118.977 68.057C118.084 66.4326 116.633 65.0612 114.206 65.0612V66.0612C116.157 66.0612 117.322 67.1224 118.101 68.5389C118.897 69.9873 119.246 71.728 119.559 72.9805L120.529 72.738ZM112.735 56.0624C112.927 55.8702 113.215 55.5595 113.425 55.1938C113.628 54.8392 113.815 54.3327 113.628 53.8074C113.436 53.2723 112.925 52.9027 112.172 52.6661C111.411 52.4273 110.304 52.2897 108.732 52.2897V53.2897C110.262 53.2897 111.253 53.4257 111.872 53.6202C112.499 53.817 112.649 54.0403 112.686 54.1438C112.726 54.2571 112.708 54.4347 112.558 54.6959C112.414 54.946 112.2 55.1826 112.028 55.3553L112.735 56.0624ZM118.22 79.2923C117.858 79.2923 117.391 79.4116 116.889 79.5844C116.372 79.7622 115.767 80.0156 115.108 80.3219C113.789 80.935 112.228 81.7734 110.686 82.6822C109.144 83.5911 107.611 84.5755 106.351 85.4827C105.109 86.3768 104.078 87.2327 103.589 87.8851L104.389 88.4851C104.775 87.9697 105.687 87.1927 106.935 86.2943C108.165 85.4088 109.671 84.441 111.194 83.5437C112.717 82.6462 114.248 81.8244 115.529 81.2287C116.171 80.9306 116.742 80.6925 117.214 80.5299C117.701 80.3624 118.034 80.2923 118.22 80.2923V79.2923ZM103.297 95.9816C105.381 95.8213 107.383 94.4186 109.283 92.5643C111.197 90.6973 113.098 88.2783 114.961 85.9426L114.18 85.3189C112.301 87.6739 110.443 90.0351 108.585 91.8486C106.714 93.6748 104.931 94.853 103.22 94.9846L103.297 95.9816ZM114.995 85.8958L118.644 80.0573L117.796 79.5273L114.147 85.3658L114.995 85.8958ZM102.655 73.343C104.061 72.9763 105.523 72.3857 106.846 71.8082C108.189 71.2219 109.36 70.6635 110.255 70.3212L109.898 69.3872C108.976 69.7398 107.739 70.3275 106.446 70.8917C105.133 71.4648 103.73 72.0293 102.403 72.3754L102.655 73.343ZM110.255 70.3212C112.078 69.6239 113.722 69.4867 114.871 69.8244C115.439 69.9912 115.87 70.2685 116.161 70.6357C116.448 70.9999 116.625 71.4878 116.625 72.1294H117.625C117.625 71.2944 117.391 70.5797 116.945 70.0156C116.502 69.4545 115.877 69.0777 115.153 68.8649C113.718 68.4434 111.838 68.6452 109.898 69.3872L110.255 70.3212ZM116.625 72.1294C116.625 72.9853 116.457 73.6131 116.184 74.106C115.91 74.6003 115.511 74.9937 114.996 75.3517C114.475 75.7139 113.856 76.0269 113.147 76.3731C112.448 76.7145 111.669 77.085 110.881 77.5497L111.389 78.4112C112.136 77.9708 112.874 77.6194 113.586 77.2716C114.288 76.9285 114.974 76.5849 115.567 76.1727C116.166 75.7562 116.689 75.2571 117.058 74.5907C117.428 73.9229 117.625 73.1216 117.625 72.1294H116.625ZM110.881 77.5497C107.852 79.3346 104.289 80.5238 98.8774 86.3863L99.6122 87.0646C104.895 81.3413 108.275 80.2462 111.389 78.4112L110.881 77.5497ZM106.098 96.9889C108.186 95.5433 111.13 92.3921 113.669 89.2885C114.945 87.729 116.13 86.167 117.067 84.8152C117.995 83.4762 118.707 82.3069 119.006 81.5447L118.075 81.1794C117.823 81.8217 117.174 82.9062 116.245 84.2454C115.326 85.5718 114.157 87.1125 112.895 88.6553C110.358 91.7563 107.49 94.8085 105.528 96.1667L106.098 96.9889ZM119.006 81.5447C119.06 81.4075 119.199 81.152 119.406 80.8069C119.607 80.4726 119.852 80.0858 120.099 79.6991C120.344 79.3151 120.592 78.9296 120.792 78.6072C120.984 78.2986 121.159 78.0055 121.235 77.8234L120.313 77.4367C120.274 77.5303 120.147 77.7506 119.943 78.0798C119.747 78.3951 119.505 78.7717 119.256 79.1608C119.009 79.5472 118.757 79.9446 118.549 80.2921C118.346 80.6288 118.164 80.9528 118.075 81.1794L119.006 81.5447ZM114.206 65.0612C112.183 65.0612 109.572 65.7735 107.34 66.379L107.602 67.3441C109.881 66.7258 112.346 66.0612 114.206 66.0612V65.0612ZM107.34 66.379C106.31 66.6584 105.357 66.9167 104.548 67.0878C103.719 67.2629 103.116 67.3285 102.756 67.2714C102.673 67.2582 102.618 67.2405 102.583 67.2246C102.566 67.217 102.556 67.2104 102.55 67.2061C102.547 67.204 102.545 67.2024 102.544 67.2013C102.543 67.2004 102.543 67.1998 102.543 67.1998C102.543 67.1998 102.543 67.2 102.543 67.2005C102.543 67.2007 102.543 67.2008 102.543 67.201C102.543 67.2011 102.543 67.2012 102.543 67.2012C102.543 67.2012 102.543 67.201 102.543 67.2007C102.543 67.2004 102.543 67.1999 102.543 67.1992C102.542 67.1977 102.541 67.1952 102.541 67.1915C102.537 67.1761 102.532 67.138 102.543 67.0677C102.565 66.9203 102.644 66.6904 102.83 66.3562C103.012 66.0275 103.282 65.6242 103.656 65.1351L102.862 64.5277C102.47 65.0394 102.169 65.485 101.955 65.8711C101.744 66.2519 101.601 66.6028 101.554 66.9204C101.505 67.2485 101.554 67.5853 101.786 67.8533C102.004 68.1059 102.313 68.2136 102.6 68.259C103.162 68.3483 103.93 68.2403 104.754 68.0662C105.598 67.888 106.58 67.6213 107.602 67.3441L107.34 66.379ZM103.656 65.1351C107.401 60.2382 110.449 57.874 111.898 56.7499L111.285 55.9598C109.801 57.1111 106.679 59.5356 102.862 64.5277L103.656 65.1351ZM111.898 56.7499C112.257 56.4713 112.558 56.2387 112.735 56.0624L112.028 55.3553C111.908 55.4752 111.673 55.659 111.285 55.9598L111.898 56.7499ZM103.22 94.9846C102.172 95.0652 101.694 94.8678 101.492 94.6612C101.309 94.4737 101.221 94.1364 101.361 93.5404C101.497 92.9562 101.826 92.2487 102.276 91.4884C102.722 90.7344 103.269 89.9571 103.817 89.2382L103.022 88.6321C102.46 89.369 101.888 90.1801 101.416 90.9792C100.947 91.772 100.558 92.5822 100.387 93.3129C100.219 94.0318 100.235 94.8065 100.777 95.3603C101.3 95.8951 102.168 96.0684 103.297 95.9816L103.22 94.9846ZM103.817 89.2382C104.015 88.9788 104.208 88.726 104.389 88.4851L103.589 87.8851C103.411 88.1223 103.22 88.372 103.022 88.6321L103.817 89.2382Z" fill="#140000"/>
</svg>
