<svg width="142" height="148" viewBox="0 0 142 148" fill="none" xmlns="http://www.w3.org/2000/svg">
<rect width="142" height="148" fill="black"/>
<path fill-rule="evenodd" clip-rule="evenodd" d="M31.5252 60.8824C28.9709 58.693 21.4833 59.4411 16.5206 69.0744C11.558 78.7078 15.1427 82.6166 16.9671 84.4411C19.6237 87.0977 21.926 87.6799 27.955 73.4941C29.3543 70.2015 30.2934 68.1422 31.436 65.9743C32.2347 64.4588 33.1189 62.9581 33.7759 62.0383C35.7024 59.3412 34.5226 63.9648 32.6811 73.5974C31.2829 80.9111 31.3449 89.7918 31.4641 93.2478C31.9506 94.9507 35.3782 99.4127 36.0877 95.9449C36.718 92.8647 36.7044 77.9174 37.69 71.2639C38.4198 65.5471 42.6042 53.6994 46.1056 47.3968C48.0321 43.9291 47.6468 42.0026 42.699 40.076C41.0967 39.4521 40.7725 42.7732 39.0111 46.1718C37.0804 49.8972 35.2122 53.5616 31.5252 60.8824ZM21.3868 71.2639C24.0141 65.1336 28.0358 62.8712 29.7387 62.5063C30.0306 63.3821 28.4007 66.2769 27.5493 67.6149C25.6032 71.1423 22.2217 79.2188 21.346 80.3864C20.2513 81.846 18.1027 78.9268 21.3868 71.2639Z" fill="white"/>
<path d="M31.5252 60.8824L31.1998 61.262L31.6846 61.6775L31.9718 61.1073L31.5252 60.8824ZM16.9671 84.4411L16.6136 84.7946L16.6136 84.7946L16.9671 84.4411ZM27.955 73.4941L27.4948 73.2985L27.4948 73.2985L27.955 73.4941ZM33.7759 62.0383L33.3691 61.7477L33.3691 61.7477L33.7759 62.0383ZM31.4641 93.2478L30.9644 93.265L30.9665 93.3263L30.9833 93.3852L31.4641 93.2478ZM36.0877 95.9449L36.5776 96.0452L36.0877 95.9449ZM37.69 71.2639L38.1847 71.3372L38.186 71.3272L37.69 71.2639ZM46.1056 47.3968L46.5427 47.6396L46.1056 47.3968ZM42.699 40.076L42.8805 39.6101L42.699 40.076ZM29.7387 62.5063L30.213 62.3482L30.0715 61.9236L29.6339 62.0174L29.7387 62.5063ZM21.3868 71.2639L20.9272 71.067L21.3868 71.2639ZM21.346 80.3864L20.946 80.0864L21.346 80.3864ZM27.5493 67.6149L27.1275 67.3465L27.1191 67.3597L27.1115 67.3734L27.5493 67.6149ZM31.436 65.9743L31.8783 66.2074L31.436 65.9743ZM32.6811 73.5974L33.1722 73.6913L32.6811 73.5974ZM39.0111 46.1718L39.455 46.4018L39.0111 46.1718ZM31.8506 60.5028C30.3839 59.2456 27.6567 58.9215 24.7414 60.0802C21.7978 61.2502 18.6021 63.9421 16.0762 68.8455L16.9651 69.3034C19.4018 64.5734 22.4313 62.0745 25.1107 61.0095C27.8185 59.9332 30.1122 60.3298 31.1998 61.262L31.8506 60.5028ZM16.0762 68.8455C13.5609 73.728 13.1748 77.2325 13.7093 79.7885C14.2441 82.3458 15.6846 83.8656 16.6136 84.7946L17.3207 84.0875C16.4252 83.1921 15.1611 81.8453 14.6881 79.5837C14.2149 77.3209 14.5177 74.0542 16.9651 69.3034L16.0762 68.8455ZM16.6136 84.7946C17.2807 85.4617 17.9989 86.0792 18.8123 86.3249C19.6805 86.5872 20.5713 86.4051 21.5039 85.6778C22.4106 84.9706 23.3853 83.7301 24.5003 81.8143C25.6204 79.8899 26.904 77.2452 28.4151 73.6896L27.4948 73.2985C25.9914 76.8359 24.7264 79.438 23.6361 81.3112C22.5408 83.193 21.6434 84.3008 20.8889 84.8892C20.1602 85.4575 19.6005 85.5183 19.1015 85.3676C18.5477 85.2003 17.9819 84.7487 17.3207 84.0875L16.6136 84.7946ZM30.9833 93.3852C31.1254 93.8823 31.4625 94.53 31.8755 95.1519C32.2926 95.78 32.8159 96.4251 33.3601 96.909C33.6321 97.1509 33.9219 97.3637 34.2176 97.5116C34.5103 97.658 34.8424 97.7575 35.184 97.7235C35.9538 97.6467 36.3876 96.9738 36.5776 96.0452L35.5979 95.8447C35.4331 96.65 35.1725 96.7197 35.0848 96.7284C34.9976 96.7371 34.8603 96.715 34.6649 96.6173C34.4726 96.5211 34.2557 96.3672 34.0246 96.1617C33.5623 95.7507 33.0931 95.1778 32.7086 94.5987C32.3199 94.0134 32.0461 93.4647 31.9449 93.1105L30.9833 93.3852ZM36.5776 96.0452C36.7441 95.2312 36.8625 93.6792 36.9647 91.7511C37.0677 89.8085 37.156 87.4385 37.2552 84.9644C37.4542 80.001 37.6966 74.6315 38.1846 71.3372L37.1954 71.1907C36.6978 74.5498 36.4542 79.9806 36.256 84.9243C36.1566 87.4038 36.0686 89.764 35.9661 91.6982C35.8628 93.647 35.7465 95.1185 35.5979 95.8447L36.5776 96.0452ZM38.186 71.3272C38.544 68.5227 39.7581 64.1718 41.33 59.7164C42.8999 55.2663 44.8107 50.7573 46.5427 47.6396L45.6685 47.154C43.8991 50.3389 41.967 54.9051 40.3869 59.3837C38.8088 63.857 37.5658 68.2884 37.1941 71.2006L38.186 71.3272ZM46.5427 47.6396C47.5116 45.8956 48.0122 44.3574 47.4428 42.9688C46.8826 41.6026 45.3614 40.5761 42.8805 39.6101L42.5176 40.542C44.9845 41.5025 46.1298 42.4026 46.5176 43.3482C46.8961 44.2714 46.6261 45.4303 45.6685 47.154L46.5427 47.6396ZM29.6339 62.0174C27.7448 62.4222 23.6064 64.8155 20.9272 71.067L21.8464 71.4609C24.4217 65.4517 28.3268 63.3202 29.8435 62.9952L29.6339 62.0174ZM20.9272 71.067C19.2668 74.9413 18.9446 77.6917 19.2318 79.3323C19.3716 80.131 19.6774 80.7775 20.1656 81.0796C20.4275 81.2416 20.7329 81.2952 21.0361 81.2086C21.3271 81.1254 21.5644 80.9286 21.746 80.6864L20.946 80.0864C20.8539 80.2092 20.7846 80.2404 20.7613 80.2471C20.7504 80.2502 20.734 80.2553 20.6918 80.2292C20.5719 80.155 20.3405 79.8665 20.2168 79.1599C19.9771 77.7901 20.2227 75.2495 21.8464 71.4609L20.9272 71.067ZM21.746 80.6864C22.0008 80.3466 22.3989 79.5711 22.8615 78.6114C23.3344 77.6299 23.9021 76.3962 24.5005 75.0944C25.7023 72.4804 27.0251 69.6001 27.9871 67.8565L27.1115 67.3734C26.1274 69.1571 24.7863 72.0787 23.592 74.6767C22.9923 75.981 22.4288 77.2057 21.9606 78.1773C21.482 79.1705 21.129 79.8424 20.946 80.0864L21.746 80.6864ZM27.9711 67.8834C28.4041 67.2029 29.0354 66.1265 29.524 65.1026C29.7677 64.5919 29.9827 64.0802 30.1183 63.6299C30.186 63.4048 30.2376 63.1832 30.2603 62.9773C30.2824 62.7777 30.2819 62.5549 30.213 62.3482L29.2644 62.6644C29.2684 62.6766 29.2809 62.7359 29.2664 62.8675C29.2525 62.9927 29.218 63.1514 29.1607 63.3417C29.0461 63.7224 28.8552 64.1823 28.6215 64.6719C28.1553 65.6489 27.5459 66.689 27.1275 67.3465L27.9711 67.8834ZM28.4151 73.6896C29.8124 70.402 30.7452 68.3574 31.8783 66.2074L30.9937 65.7411C29.8416 67.9271 28.8963 70.0009 27.4948 73.2985L28.4151 73.6896ZM31.8783 66.2074C32.6726 64.7002 33.5448 63.2221 34.1828 62.3289L33.3691 61.7477C32.6931 62.694 31.7968 64.2173 30.9937 65.7411L31.8783 66.2074ZM34.1828 62.3289C34.4214 61.9948 34.5767 61.827 34.6601 61.7636C34.7067 61.7281 34.6688 61.7737 34.5676 61.7776C34.4117 61.7837 34.3002 61.6911 34.2559 61.6223C34.23 61.582 34.2406 61.5736 34.2511 61.651C34.2602 61.7182 34.2652 61.8184 34.2618 61.9585C34.2551 62.2382 34.2166 62.6252 34.1464 63.1246C33.8643 65.1313 33.1146 68.6668 32.19 73.5035L33.1722 73.6913C34.0891 68.8954 34.85 65.3028 35.1366 63.2638C35.2086 62.7518 35.2534 62.32 35.2615 61.9826C35.2656 61.8141 35.2609 61.6562 35.242 61.5168C35.2246 61.3877 35.1889 61.2243 35.0972 61.0817C34.9872 60.9104 34.7904 60.7682 34.5286 60.7784C34.3214 60.7865 34.1569 60.89 34.055 60.9674C33.8414 61.1298 33.612 61.4075 33.3691 61.7477L34.1828 62.3289ZM32.19 73.5035C30.781 80.8741 30.8449 89.8004 30.9644 93.265L31.9638 93.2306C31.8449 89.7831 31.7849 80.9481 33.1722 73.6913L32.19 73.5035ZM42.8805 39.6101C42.6049 39.5028 42.322 39.4681 42.0417 39.5319C41.7643 39.5951 41.5345 39.7446 41.3451 39.9297C40.9836 40.2828 40.7058 40.8301 40.4547 41.4195C39.9231 42.6671 39.4404 44.2567 38.5672 45.9417L39.455 46.4018C40.3431 44.6882 40.9032 42.918 41.3747 41.8114C41.6251 41.2237 41.8388 40.8453 42.0439 40.645C42.1377 40.5534 42.2099 40.5192 42.2638 40.5069C42.3148 40.4953 42.3926 40.4933 42.5176 40.542L42.8805 39.6101ZM38.5672 45.9417C36.6352 49.6696 34.766 53.336 31.0786 60.6575L31.9718 61.1073C35.6584 53.7873 37.5256 50.1248 39.455 46.4018L38.5672 45.9417Z" fill="white"/>
<path d="M50.7671 86.2656C45.2206 83.6383 45.3481 68.7504 48.9426 60.7226C57.2809 58.5332 53.7408 72.0345 54.1057 80.0624C54.3977 86.4846 58.3629 80.7922 60.3091 77.1432L60.674 80.0624C57.3899 88.4551 52.5187 87.4333 50.7671 86.2656Z" fill="white"/>
<path d="M50.7671 50.5054C52.1233 50.2621 54.6166 50.5054 53.7408 53.4246C52.6461 57.0736 49.253 53.4246 50.7671 50.5054Z" fill="white"/>
<path d="M50.7671 86.2656C45.2206 83.6383 45.3481 68.7504 48.9426 60.7226C57.2809 58.5332 53.7408 72.0345 54.1057 80.0624C54.3977 86.4846 58.3629 80.7922 60.3091 77.1432L60.674 80.0624C57.3899 88.4551 52.5187 87.4333 50.7671 86.2656Z" stroke="white" stroke-linecap="round" stroke-linejoin="round"/>
<path d="M50.7671 50.5054C52.1233 50.2621 54.6166 50.5054 53.7408 53.4246C52.6461 57.0736 49.253 53.4246 50.7671 50.5054Z" stroke="white" stroke-linecap="round" stroke-linejoin="round"/>
<path fill-rule="evenodd" clip-rule="evenodd" d="M65.4175 65.1016C73.4427 57.3218 78.2434 59.628 79.3381 61.4525C79.6726 62.5419 79.9773 62.171 80.5283 61.5006C81.2692 60.5991 82.4553 59.1559 84.7573 59.993C88.7712 61.4526 87.3116 65.4665 86.5818 67.291C85.852 69.1155 82.5679 77.5082 86.5818 75.3188C90.5957 73.1294 92.0553 73.4943 93.15 74.589C94.2447 75.6837 93.5149 76.4135 89.501 77.5082C85.4871 78.6029 82.9328 81.5221 81.8381 88.8202C80.7434 96.1182 78.5948 107.43 76.4053 113.998C74.2159 120.567 65.4175 122.756 63.9579 109.984C62.7902 99.7672 73.2021 87.2389 78.554 82.2519C80.4401 78.2102 80.5355 76.1581 80.7503 71.5411C80.8263 69.9055 80.9174 67.9482 81.1083 65.4665C79.527 66.5612 72.3507 74.2241 68.3367 79.3327C62.1012 87.2687 55.2547 74.9538 65.4175 65.1016ZM75.6347 64.3718C74.4184 65.1016 71.2559 67.364 68.3367 70.5751C64.6877 74.589 65.4175 77.1025 70.5261 72.7237C75.6347 68.3449 77.8241 65.4665 78.9189 64.0069C80.0136 62.5473 77.8241 62.847 75.6347 64.3718ZM74.4992 109.62C75.9588 106.7 79.2838 94.0504 80.0136 88.0904C76.7294 90.2798 66.1473 104.511 67.9718 112.539C69.7963 120.567 72.6747 113.269 74.4992 109.62Z" fill="white"/>
<path d="M79.3381 61.4525L79.8161 61.3058L79.7982 61.2475L79.7669 61.1953L79.3381 61.4525ZM65.4175 65.1016L65.0695 64.7426L65.0695 64.7426L65.4175 65.1016ZM68.3367 79.3327L67.9436 79.0238L67.9436 79.0238L68.3367 79.3327ZM81.1083 65.4665L81.6068 65.5048C81.6216 65.3125 81.5244 65.1289 81.3571 65.0328C81.1898 64.9368 80.9822 64.9456 80.8236 65.0554L81.1083 65.4665ZM78.554 82.2519L78.8948 82.6177L78.9659 82.5515L79.007 82.4634L78.554 82.2519ZM63.9579 109.984L64.4547 109.928L63.9579 109.984ZM84.7573 59.993L84.9281 59.5231L84.7573 59.993ZM75.6347 64.3718L75.892 64.8005L75.9066 64.7918L75.9205 64.7821L75.6347 64.3718ZM68.3367 70.5751L68.7067 70.9114L68.7067 70.9114L68.3367 70.5751ZM80.0136 88.0904L80.5098 88.1511L80.6422 87.0703L79.7362 87.6743L80.0136 88.0904ZM80.7503 71.5411L81.2497 71.5643L81.2497 71.5643L80.7503 71.5411ZM80.5283 61.5006L80.9146 61.8181L80.9146 61.8181L80.5283 61.5006ZM79.7669 61.1953C79.1105 60.1014 77.4446 58.9971 74.941 59.1767C72.4397 59.3561 69.1284 60.8078 65.0695 64.7426L65.7655 65.4606C69.7318 61.6156 72.8334 60.3304 75.0125 60.1741C77.1892 60.018 78.471 60.9792 78.9094 61.7098L79.7669 61.1953ZM65.0695 64.7426C59.8781 69.7753 58.9553 75.518 60.2585 79.0604C60.9074 80.8244 62.1467 82.1106 63.7508 82.3377C65.3591 82.5653 67.1145 81.6976 68.7299 79.6417L67.9436 79.0238C66.4412 80.9359 65.0025 81.5048 63.8909 81.3475C62.7751 81.1896 61.7688 80.2693 61.197 78.7151C60.0587 75.621 60.794 70.2802 65.7655 65.4606L65.0695 64.7426ZM68.7299 79.6417C70.7255 77.1019 73.5132 73.9199 76.0015 71.2342C77.2451 69.892 78.4109 68.6771 79.3626 67.7311C80.3268 66.7727 81.0405 66.1216 81.3929 65.8776L80.8236 65.0554C80.3854 65.3588 79.6091 66.076 78.6576 67.0219C77.6935 67.9803 76.5179 69.2056 75.268 70.5546C72.7694 73.2512 69.962 76.455 67.9436 79.0238L68.7299 79.6417ZM78.2131 81.8861C75.5102 84.4047 71.5393 88.8171 68.3864 93.893C65.2437 98.9525 62.8576 104.76 63.4612 110.041L64.4547 109.928C63.8905 104.991 66.1266 99.4264 69.2358 94.4207C72.3349 89.4314 76.2458 85.0862 78.8948 82.6177L78.2131 81.8861ZM63.4612 110.041C64.1987 116.495 66.8366 119.482 69.8652 119.742C72.827 119.996 75.7391 117.578 76.8797 114.156L75.931 113.84C74.8822 116.987 72.3004 118.947 69.9507 118.746C67.6679 118.55 65.1767 116.246 64.4547 109.928L63.4612 110.041ZM76.8797 114.156C79.0835 107.545 81.2371 96.1972 82.3325 88.8943L81.3436 88.746C80.2496 96.0392 78.106 107.315 75.931 113.84L76.8797 114.156ZM82.3325 88.8943C82.874 85.2844 83.7688 82.818 84.981 81.1296C86.1816 79.4572 87.7194 78.5124 89.6325 77.9906L89.3694 77.0258C87.2687 77.5988 85.5223 78.6609 84.1687 80.5463C82.8266 82.4157 81.8968 85.0579 81.3436 88.746L82.3325 88.8943ZM89.6325 77.9906C90.6435 77.7149 91.4606 77.4587 92.0997 77.2102C92.7307 76.9648 93.2246 76.7133 93.5613 76.4327C93.9068 76.1448 94.1481 75.7698 94.1039 75.3056C94.064 74.8872 93.7991 74.531 93.5035 74.2355L92.7964 74.9426C93.0482 75.1944 93.1026 75.3399 93.1084 75.4004C93.1098 75.4152 93.123 75.4963 92.9211 75.6645C92.7105 75.8401 92.3377 76.0447 91.7372 76.2782C91.1447 76.5086 90.3654 76.7542 89.3694 77.0258L89.6325 77.9906ZM93.5035 74.2355C92.8788 73.6107 92.11 73.1696 90.9379 73.2229C89.8176 73.2738 88.3671 73.7755 86.3423 74.8799L86.8212 75.7578C88.8103 74.6728 90.0966 74.2622 90.9833 74.2219C91.8181 74.1839 92.3265 74.4726 92.7964 74.9426L93.5035 74.2355ZM86.3423 74.8799C85.8711 75.1369 85.5877 75.1908 85.4394 75.1789C85.3432 75.1712 85.2904 75.1398 85.236 75.0272C85.1644 74.879 85.1167 74.6208 85.1253 74.2331C85.1337 73.8561 85.1937 73.4056 85.2932 72.9082C85.6934 70.9072 86.6793 68.3935 87.046 67.4767L86.1175 67.1053C85.7545 68.013 84.7334 70.608 84.3126 72.7121C84.2068 73.241 84.1357 73.754 84.1255 74.2109C84.1156 74.657 84.162 75.103 84.3356 75.4622C84.5263 75.857 84.8698 76.1364 85.3594 76.1757C85.7969 76.2108 86.289 76.0481 86.8212 75.7578L86.3423 74.8799ZM87.046 67.4767C87.4092 66.5687 87.9975 65.0197 87.9481 63.489C87.9231 62.7125 87.7339 61.918 87.2514 61.2107C86.7668 60.5004 86.0132 59.9177 84.9281 59.5231L84.5864 60.4629C85.5083 60.7981 86.0775 61.2644 86.4253 61.7743C86.7752 62.2871 86.9281 62.8838 86.9487 63.5213C86.9905 64.8186 86.4841 66.1888 86.1175 67.1053L87.046 67.4767ZM75.3775 63.943C74.123 64.6957 70.9216 66.9884 67.9668 70.2388L68.7067 70.9114C71.5903 67.7395 74.7138 65.5074 75.892 64.8005L75.3775 63.943ZM67.9668 70.2388C67.0348 71.2639 66.3653 72.2114 65.9736 72.9968C65.7783 73.3883 65.6428 73.758 65.5861 74.089C65.5312 74.4092 65.5382 74.7661 65.7235 75.062C65.9282 75.389 66.2705 75.5203 66.6174 75.5264C66.9475 75.5323 67.3199 75.4302 67.7151 75.2583C68.5118 74.9118 69.5594 74.2109 70.8515 73.1033L70.2007 72.3441C68.9385 73.426 67.9792 74.0529 67.3163 74.3413C66.9817 74.4868 66.7611 74.5288 66.6351 74.5266C66.5259 74.5247 66.5489 74.4958 66.5711 74.5313C66.574 74.5359 66.5353 74.4703 66.5717 74.2579C66.6062 74.0563 66.6988 73.7833 66.8684 73.4431C67.2065 72.7652 67.8141 71.8933 68.7067 70.9114L67.9668 70.2388ZM70.8515 73.1033C75.9941 68.6954 78.2078 65.7882 79.3189 64.3069L78.5189 63.7069C77.4405 65.1448 75.2754 67.9944 70.2007 72.3441L70.8515 73.1033ZM79.3189 64.3069C79.473 64.1013 79.5943 63.895 79.6586 63.6917C79.7228 63.4884 79.7462 63.2306 79.6121 62.9902C79.4772 62.7484 79.247 62.6383 79.0536 62.5924C78.8611 62.5467 78.6507 62.5492 78.4481 62.5738C77.6509 62.6706 76.4781 63.1752 75.349 63.9615L75.9205 64.7821C76.9808 64.0436 77.9974 63.6359 78.5686 63.5666C78.7081 63.5496 78.7885 63.5573 78.8226 63.5654C78.8558 63.5732 78.7881 63.5657 78.7388 63.4773C78.6902 63.3902 78.7221 63.3365 78.7051 63.3903C78.6881 63.444 78.6383 63.5476 78.5189 63.7069L79.3189 64.3069ZM79.5173 88.0296C79.1564 90.9763 78.1494 95.6034 77.046 99.8701C75.9382 104.154 74.7539 107.992 74.052 109.396L74.9465 109.843C75.7042 108.328 76.9121 104.382 78.0141 100.12C79.1205 95.8424 80.1409 91.1644 80.5098 88.1511L79.5173 88.0296ZM74.052 109.396C73.5806 110.339 73.0796 111.437 72.5222 112.514C71.968 113.585 71.406 114.535 70.8677 115.119C70.5973 115.413 70.3709 115.572 70.1951 115.632C70.0513 115.682 69.9333 115.672 69.7912 115.573C69.6196 115.453 69.397 115.187 69.156 114.66C68.9187 114.141 68.6833 113.413 68.4594 112.428L67.4843 112.65C67.7165 113.671 67.9702 114.471 68.2466 115.076C68.5194 115.672 68.8352 116.125 69.2185 116.392C69.6314 116.681 70.0848 116.728 70.5206 116.578C70.9244 116.439 71.2859 116.141 71.6034 115.797C72.2408 115.104 72.8546 114.047 73.4102 112.974C73.9626 111.907 74.5057 110.725 74.9465 109.843L74.052 109.396ZM68.4594 112.428C68.0314 110.545 68.3239 108.249 69.0987 105.79C69.8709 103.339 71.1066 100.774 72.5086 98.3776C73.9096 95.9823 75.4689 93.7677 76.8792 92.019C78.3013 90.2556 79.5382 89.0082 80.2909 88.5064L79.7362 87.6743C78.8469 88.2672 77.5294 89.6198 76.1008 91.3913C74.6602 93.1775 73.0723 95.433 71.6454 97.8727C70.2193 100.311 68.9464 102.946 68.1449 105.49C67.3461 108.025 67 110.519 67.4843 112.65L68.4594 112.428ZM80.6097 65.4282C80.4182 67.918 80.3269 69.8819 80.2508 71.5178L81.2497 71.5643C81.3258 69.9292 81.4165 67.9784 81.6068 65.5048L80.6097 65.4282ZM80.2508 71.5178C80.143 73.8355 80.0663 75.4673 79.7868 77.0239C79.5096 78.5676 79.03 80.0494 78.1009 82.0405L79.007 82.4634C79.964 80.4127 80.4753 78.8476 80.771 77.2006C81.0645 75.5664 81.1428 73.8636 81.2497 71.5643L80.2508 71.5178ZM84.9281 59.5231C83.6453 59.0566 82.6237 59.2168 81.8181 59.6558C81.0438 60.0777 80.5056 60.7407 80.142 61.1831L80.9146 61.8181C81.2919 61.359 81.7172 60.8496 82.2966 60.5339C82.8448 60.2351 83.5673 60.0923 84.5864 60.4629L84.9281 59.5231ZM80.142 61.1831C79.9992 61.357 79.8933 61.4851 79.8022 61.5768C79.7581 61.6211 79.7288 61.6453 79.7118 61.6571C79.6935 61.6699 79.7066 61.6564 79.7465 61.6478C79.7962 61.637 79.8606 61.6399 79.921 61.667C79.9731 61.6904 79.9908 61.7177 79.9819 61.7064C79.9729 61.6948 79.9507 61.6615 79.9193 61.5911C79.8886 61.5223 79.854 61.4292 79.8161 61.3058L78.8601 61.5993C78.9476 61.8843 79.0507 62.1385 79.1935 62.3214C79.2688 62.418 79.3719 62.5167 79.5118 62.5795C79.6599 62.6459 79.8144 62.6561 79.9575 62.6252C80.2055 62.5717 80.3949 62.3991 80.5117 62.2815C80.6432 62.1491 80.782 61.9795 80.9146 61.8181L80.142 61.1831Z" fill="white"/>
<path fill-rule="evenodd" clip-rule="evenodd" d="M103.732 53.7897C100.935 55.9791 94.9017 60.9417 93.1501 63.2771C90.9607 66.1963 89.1362 76.0486 97.529 73.8592C100.261 73.1464 103.26 71.5491 105.076 70.8542C108.84 69.4149 112.125 70.1763 112.125 73.1294C112.125 76.8254 109.206 77.1704 106.135 78.9804C103.064 80.7904 99.592 81.9325 94.2448 87.7255C85.4872 97.2129 96.0693 100.862 100.813 97.5778C104.863 94.774 112.438 85.1712 113.54 82.362C113.826 81.6344 115.543 79.1815 115.774 78.63C118.143 77.5353 119.238 76.8055 123.437 76.0757C124.567 75.8792 125.772 73.7133 123.437 73.1294C121.102 72.5456 116.382 73.3727 115.044 73.8592C114.436 71.4266 113.585 66.5612 109.206 66.5612C107.265 66.5612 104.727 67.2497 102.471 67.8615C98.3669 68.9749 95.1974 69.8347 98.2587 65.8314C102.04 60.8869 105.125 58.4926 106.592 57.3548C106.965 57.0652 107.233 56.857 107.381 56.7089C108.111 55.9791 109.936 53.7897 103.732 53.7897ZM98.9885 89.1851C100.74 86.8497 111.03 80.7923 113.22 80.7923L109.571 86.6308C105.828 91.3215 102.054 96.1912 98.2588 96.4831C93.9036 96.8181 96.2004 92.847 98.4197 89.9351C98.6177 89.6754 98.8092 89.4241 98.9885 89.1851Z" fill="white"/>
<path d="M103.732 53.7897V53.2897C103.621 53.2897 103.512 53.3271 103.424 53.3959L103.732 53.7897ZM93.1501 63.2771L93.5501 63.5771L93.1501 63.2771ZM97.529 73.8592L97.6552 74.343L97.6552 74.343L97.529 73.8592ZM94.2448 87.7255L94.6122 88.0646L94.2448 87.7255ZM100.813 97.5778L101.098 97.9889L101.098 97.9889L100.813 97.5778ZM115.774 78.63L115.564 78.1761L115.388 78.2576L115.313 78.4367L115.774 78.63ZM123.437 76.0757L123.523 76.5683L123.437 76.0757ZM115.044 73.8592L114.559 73.9805L114.694 74.5187L115.215 74.3291L115.044 73.8592ZM98.2587 65.8314L97.8616 65.5277L97.8616 65.5277L98.2587 65.8314ZM107.381 56.7089L107.028 56.3553L107.028 56.3553L107.381 56.7089ZM113.22 80.7923L113.644 81.0573C113.74 80.9032 113.745 80.7089 113.657 80.55C113.569 80.391 113.401 80.2923 113.22 80.2923V80.7923ZM98.9885 89.1851L99.3885 89.4851L98.9885 89.1851ZM98.2588 96.4831L98.2971 96.9816L98.2971 96.9816L98.2588 96.4831ZM109.571 86.6308L109.961 86.9426L109.979 86.9201L109.995 86.8958L109.571 86.6308ZM105.076 70.8542L105.255 71.3212L105.255 71.3212L105.076 70.8542ZM113.54 82.362L113.075 82.1794L113.54 82.362ZM102.471 67.8615L102.602 68.3441L102.602 68.3441L102.471 67.8615ZM106.592 57.3548L106.285 56.9598L106.285 56.9598L106.592 57.3548ZM98.4197 89.9351L98.0221 89.6321L98.0221 89.6321L98.4197 89.9351ZM103.424 53.3959C102.02 54.4948 99.8055 56.2884 97.7208 58.1014C95.6505 59.9019 93.663 61.76 92.7501 62.9771L93.5501 63.5771C94.3888 62.4589 96.2936 60.6679 98.3771 58.8559C100.446 57.0564 102.647 55.2739 104.04 54.1834L103.424 53.3959ZM92.7501 62.9771C92.1523 63.7742 91.6055 65.0023 91.2474 66.3408C90.8883 67.683 90.7052 69.187 90.8751 70.5459C91.0447 71.9023 91.5771 73.1815 92.7155 73.9537C93.8554 74.727 95.4818 74.91 97.6552 74.343L97.4027 73.3754C95.3798 73.9032 94.087 73.6757 93.2769 73.1262C92.4654 72.5756 92.0171 71.6198 91.8674 70.4219C91.718 69.2265 91.877 67.8569 92.2135 66.5992C92.551 65.3377 93.0533 64.2396 93.5501 63.5771L92.7501 62.9771ZM93.8774 87.3863C91.6518 89.7973 90.5927 91.9017 90.4119 93.6786C90.2279 95.487 90.961 96.8926 92.1566 97.8338C93.3335 98.7603 94.9408 99.2279 96.5446 99.2579C98.1499 99.288 99.8091 98.881 101.098 97.9889L100.528 97.1667C99.4451 97.9167 98.0026 98.2851 96.5633 98.2581C95.1224 98.2311 93.7421 97.8093 92.7752 97.0481C91.827 96.3016 91.2601 95.2213 91.4068 93.7798C91.5567 92.3068 92.4589 90.3973 94.6122 88.0646L93.8774 87.3863ZM115.984 79.0839C117.195 78.5242 118.023 78.0861 119.095 77.6842C120.152 77.2875 121.444 76.9295 123.523 76.5683L123.351 75.5831C121.23 75.9517 119.875 76.3235 118.743 76.7479C117.626 77.167 116.722 77.6411 115.564 78.1761L115.984 79.0839ZM123.523 76.5683C123.935 76.4966 124.312 76.257 124.599 75.9649C124.889 75.67 125.124 75.2838 125.223 74.8625C125.324 74.4338 125.286 73.9516 124.993 73.5256C124.705 73.1056 124.218 72.8093 123.558 72.6444L123.316 73.6145C123.824 73.7415 124.061 73.9348 124.169 74.0914C124.272 74.2417 124.3 74.4228 124.25 74.6331C124.199 74.8509 124.067 75.0795 123.885 75.2643C123.701 75.4518 123.504 75.5566 123.351 75.5831L123.523 76.5683ZM123.558 72.6444C122.296 72.3287 120.453 72.401 118.808 72.5964C117.154 72.7928 115.595 73.1267 114.873 73.3893L115.215 74.3291C115.831 74.1052 117.301 73.7823 118.925 73.5894C120.558 73.3956 122.243 73.3463 123.316 73.6145L123.558 72.6444ZM115.529 73.738C115.234 72.5578 114.853 70.6495 113.977 69.057C113.084 67.4326 111.633 66.0612 109.206 66.0612V67.0612C111.157 67.0612 112.322 68.1224 113.101 69.5389C113.897 70.9873 114.246 72.728 114.559 73.9805L115.529 73.738ZM107.735 57.0624C107.927 56.8702 108.215 56.5595 108.425 56.1938C108.628 55.8392 108.815 55.3327 108.628 54.8074C108.436 54.2723 107.925 53.9027 107.172 53.6661C106.411 53.4273 105.304 53.2897 103.732 53.2897V54.2897C105.262 54.2897 106.253 54.4257 106.872 54.6202C107.499 54.817 107.649 55.0403 107.686 55.1438C107.726 55.2571 107.708 55.4347 107.558 55.6959C107.414 55.946 107.2 56.1826 107.028 56.3553L107.735 57.0624ZM113.22 80.2923C112.858 80.2923 112.391 80.4116 111.889 80.5844C111.372 80.7622 110.767 81.0156 110.108 81.3219C108.789 81.935 107.228 82.7734 105.686 83.6822C104.144 84.5911 102.611 85.5755 101.351 86.4827C100.109 87.3768 99.0778 88.2327 98.5885 88.8851L99.3885 89.4851C99.775 88.9697 100.687 88.1927 101.935 87.2943C103.165 86.4088 104.671 85.441 106.194 84.5437C107.717 83.6462 109.248 82.8244 110.529 82.2287C111.171 81.9306 111.742 81.6925 112.214 81.5299C112.701 81.3624 113.034 81.2923 113.22 81.2923V80.2923ZM98.2971 96.9816C100.381 96.8213 102.383 95.4186 104.283 93.5643C106.197 91.6973 108.098 89.2783 109.961 86.9426L109.18 86.3189C107.301 88.6739 105.443 91.0351 103.585 92.8486C101.714 94.6748 99.9313 95.8529 98.2204 95.9846L98.2971 96.9816ZM109.995 86.8958L113.644 81.0573L112.796 80.5273L109.147 86.3658L109.995 86.8958ZM97.6552 74.343C99.0608 73.9763 100.523 73.3857 101.846 72.8082C103.189 72.2219 104.36 71.6635 105.255 71.3212L104.898 70.3872C103.976 70.7398 102.739 71.3275 101.446 71.8917C100.133 72.4648 98.7296 73.0293 97.4027 73.3754L97.6552 74.343ZM105.255 71.3212C107.078 70.6239 108.722 70.4867 109.871 70.8244C110.439 70.9912 110.87 71.2685 111.161 71.6357C111.448 71.9999 111.625 72.4878 111.625 73.1294H112.625C112.625 72.2944 112.391 71.5797 111.945 71.0156C111.502 70.4545 110.877 70.0777 110.153 69.8649C108.718 69.4434 106.838 69.6452 104.898 70.3872L105.255 71.3212ZM111.625 73.1294C111.625 73.9853 111.457 74.6131 111.184 75.106C110.91 75.6003 110.511 75.9937 109.996 76.3517C109.475 76.7139 108.856 77.0269 108.147 77.3731C107.448 77.7145 106.669 78.085 105.881 78.5497L106.389 79.4112C107.136 78.9708 107.874 78.6194 108.586 78.2716C109.288 77.9285 109.974 77.5849 110.567 77.1727C111.166 76.7562 111.689 76.2571 112.058 75.5907C112.428 74.9229 112.625 74.1216 112.625 73.1294H111.625ZM105.881 78.5497C102.852 80.3346 99.2889 81.5238 93.8774 87.3863L94.6122 88.0646C99.8952 82.3413 103.275 81.2462 106.389 79.4112L105.881 78.5497ZM101.098 97.9889C103.186 96.5433 106.13 93.3921 108.669 90.2885C109.945 88.729 111.13 87.167 112.067 85.8152C112.995 84.4762 113.707 83.3069 114.006 82.5447L113.075 82.1794C112.823 82.8217 112.174 83.9062 111.245 85.2454C110.326 86.5718 109.157 88.1125 107.895 89.6553C105.358 92.7563 102.49 95.8085 100.528 97.1667L101.098 97.9889ZM114.006 82.5447C114.06 82.4075 114.199 82.152 114.406 81.8069C114.607 81.4726 114.852 81.0858 115.099 80.6991C115.344 80.3151 115.592 79.9296 115.792 79.6072C115.984 79.2986 116.159 79.0055 116.235 78.8234L115.313 78.4367C115.274 78.5303 115.147 78.7506 114.943 79.0798C114.747 79.395 114.505 79.7717 114.256 80.1608C114.009 80.5472 113.757 80.9446 113.549 81.2921C113.346 81.6288 113.164 81.9528 113.075 82.1794L114.006 82.5447ZM109.206 66.0612C107.183 66.0612 104.572 66.7735 102.34 67.379L102.602 68.3441C104.881 67.7258 107.346 67.0612 109.206 67.0612V66.0612ZM102.34 67.379C101.31 67.6584 100.357 67.9167 99.5476 68.0878C98.7187 68.2629 98.1162 68.3285 97.7561 68.2714C97.6731 68.2582 97.6178 68.2405 97.5832 68.2246C97.5665 68.217 97.556 68.2104 97.5501 68.2061C97.5471 68.204 97.5452 68.2024 97.5441 68.2013C97.543 68.2004 97.5425 68.1998 97.5425 68.1998C97.5425 68.1998 97.5427 68.2 97.543 68.2005C97.5431 68.2007 97.5432 68.2008 97.5433 68.201C97.5434 68.2011 97.5435 68.2012 97.5435 68.2012C97.5434 68.2012 97.5434 68.201 97.5432 68.2007C97.5431 68.2004 97.5429 68.1999 97.5427 68.1992C97.5421 68.1977 97.5414 68.1952 97.5405 68.1915C97.5371 68.1761 97.5323 68.138 97.5428 68.0677C97.5647 67.9203 97.6443 67.6904 97.8297 67.3562C98.0121 67.0275 98.2819 66.6242 98.6559 66.1351L97.8616 65.5277C97.4702 66.0394 97.1694 66.485 96.9552 66.8711C96.744 67.2519 96.601 67.6028 96.5537 67.9204C96.5049 68.2485 96.5542 68.5853 96.7856 68.8533C97.0037 69.1059 97.3132 69.2136 97.5996 69.259C98.1622 69.3483 98.9303 69.2403 99.7544 69.0662C100.598 68.888 101.58 68.6213 102.602 68.3441L102.34 67.379ZM98.6559 66.1351C102.401 61.2382 105.449 58.874 106.898 57.7499L106.285 56.9598C104.801 58.1111 101.679 60.5356 97.8616 65.5277L98.6559 66.1351ZM106.898 57.7499C107.257 57.4713 107.558 57.2387 107.735 57.0624L107.028 56.3553C106.908 56.4752 106.673 56.659 106.285 56.9598L106.898 57.7499ZM98.2204 95.9846C97.1717 96.0652 96.694 95.8678 96.492 95.6612C96.3087 95.4737 96.2214 95.1364 96.3607 94.5404C96.4972 93.9562 96.8264 93.2487 97.2762 92.4884C97.7222 91.7344 98.2695 90.9572 98.8174 90.2382L98.0221 89.6321C97.4604 90.369 96.8883 91.1801 96.4155 91.9792C95.9466 92.772 95.5577 93.5822 95.3869 94.3129C95.2189 95.0318 95.2354 95.8065 95.777 96.3603C96.2998 96.8951 97.1683 97.0684 98.2971 96.9816L98.2204 95.9846ZM98.8174 90.2382C99.0151 89.9788 99.2078 89.726 99.3885 89.4851L98.5885 88.8851C98.4106 89.1223 98.2203 89.372 98.0221 89.6321L98.8174 90.2382Z" fill="white"/>
</svg>
