<svg width="142" height="148" viewBox="0 0 142 148" fill="none" xmlns="http://www.w3.org/2000/svg">
<rect width="142" height="148" fill="white"/>
<path fill-rule="evenodd" clip-rule="evenodd" d="M30.5252 60.8824C27.9709 58.693 20.4833 59.4411 15.5206 69.0744C10.558 78.7078 14.1427 82.6166 15.9671 84.4411C18.6237 87.0977 20.926 87.6799 26.955 73.4941C28.3543 70.2015 29.2934 68.1422 30.436 65.9743C31.2347 64.4588 32.1189 62.9581 32.7759 62.0383C34.7024 59.3412 33.5226 63.9648 31.6811 73.5974C30.2829 80.9111 30.3449 89.7918 30.4641 93.2478C30.9506 94.9507 34.3782 99.4127 35.0877 95.9449C35.718 92.8647 35.7044 77.9174 36.69 71.2639C37.4198 65.5471 41.6042 53.6994 45.1056 47.3968C47.0321 43.9291 46.6468 42.0026 41.699 40.076C40.0967 39.4521 39.7725 42.7732 38.0111 46.1718C36.0804 49.8972 34.2122 53.5616 30.5252 60.8824ZM20.3868 71.2639C23.0141 65.1336 27.0358 62.8712 28.7387 62.5063C29.0306 63.3821 27.4007 66.2769 26.5493 67.6149C24.6032 71.1423 21.2217 79.2188 20.346 80.3864C19.2513 81.8461 17.1027 78.9268 20.3868 71.2639Z" fill="#94A8AC"/>
<path d="M30.5252 60.8824L30.1998 61.262L30.6846 61.6775L30.9718 61.1073L30.5252 60.8824ZM15.9671 84.4411L15.6136 84.7946L15.9671 84.4411ZM26.955 73.4941L26.4948 73.2985L26.955 73.4941ZM32.7759 62.0383L32.3691 61.7477L32.7759 62.0383ZM30.4641 93.2478L29.9644 93.265L29.9665 93.3263L29.9833 93.3852L30.4641 93.2478ZM35.0877 95.9449L35.5776 96.0452L35.0877 95.9449ZM36.69 71.2639L37.1847 71.3372L37.186 71.3272L36.69 71.2639ZM45.1056 47.3968L45.5427 47.6396L45.1056 47.3968ZM41.699 40.076L41.8805 39.6101L41.699 40.076ZM28.7387 62.5063L29.213 62.3482L29.0715 61.9236L28.6339 62.0174L28.7387 62.5063ZM20.3868 71.2639L19.9272 71.067L20.3868 71.2639ZM20.346 80.3864L19.946 80.0864L20.346 80.3864ZM26.5493 67.6149L26.1275 67.3465L26.1191 67.3597L26.1115 67.3734L26.5493 67.6149ZM30.436 65.9743L30.8783 66.2074L30.436 65.9743ZM31.6811 73.5974L32.1722 73.6913L31.6811 73.5974ZM38.0111 46.1718L38.455 46.4018L38.0111 46.1718ZM30.8506 60.5028C29.3839 59.2456 26.6567 58.9215 23.7414 60.0802C20.7978 61.2502 17.6021 63.9421 15.0762 68.8455L15.9651 69.3034C18.4018 64.5734 21.4313 62.0745 24.1107 61.0095C26.8185 59.9332 29.1122 60.3298 30.1998 61.262L30.8506 60.5028ZM15.0762 68.8455C12.5609 73.728 12.1748 77.2325 12.7093 79.7885C13.2441 82.3458 14.6846 83.8656 15.6136 84.7946L16.3207 84.0875C15.4252 83.1921 14.1611 81.8453 13.6881 79.5837C13.2149 77.3209 13.5177 74.0542 15.9651 69.3034L15.0762 68.8455ZM15.6136 84.7946C16.2807 85.4617 16.9989 86.0792 17.8123 86.3249C18.6805 86.5872 19.5713 86.4051 20.5039 85.6778C21.4106 84.9706 22.3853 83.7301 23.5003 81.8143C24.6204 79.8899 25.904 77.2452 27.4151 73.6896L26.4948 73.2985C24.9914 76.8359 23.7264 79.438 22.6361 81.3112C21.5408 83.193 20.6434 84.3008 19.8889 84.8892C19.1602 85.4575 18.6005 85.5183 18.1015 85.3676C17.5477 85.2003 16.9819 84.7487 16.3207 84.0875L15.6136 84.7946ZM29.9833 93.3852C30.1254 93.8823 30.4625 94.53 30.8755 95.1519C31.2926 95.78 31.8159 96.4251 32.3601 96.909C32.6321 97.1509 32.9219 97.3637 33.2176 97.5116C33.5103 97.658 33.8424 97.7575 34.184 97.7235C34.9538 97.6467 35.3876 96.9738 35.5776 96.0452L34.5979 95.8447C34.4331 96.65 34.1725 96.7197 34.0848 96.7284C33.9976 96.7371 33.8603 96.715 33.6649 96.6173C33.4726 96.5211 33.2557 96.3672 33.0246 96.1617C32.5623 95.7507 32.0931 95.1778 31.7086 94.5987C31.3199 94.0134 31.0461 93.4647 30.9449 93.1105L29.9833 93.3852ZM35.5776 96.0452C35.7441 95.2312 35.8625 93.6792 35.9647 91.7511C36.0677 89.8085 36.156 87.4385 36.2552 84.9644C36.4542 80.001 36.6966 74.6315 37.1846 71.3372L36.1954 71.1907C35.6978 74.5498 35.4542 79.9806 35.256 84.9243C35.1566 87.4038 35.0686 89.764 34.9661 91.6982C34.8628 93.647 34.7465 95.1185 34.5979 95.8447L35.5776 96.0452ZM37.186 71.3272C37.544 68.5227 38.7581 64.1718 40.33 59.7164C41.8999 55.2663 43.8107 50.7573 45.5427 47.6396L44.6685 47.154C42.8991 50.3389 40.967 54.9051 39.3869 59.3837C37.8088 63.857 36.5658 68.2884 36.1941 71.2006L37.186 71.3272ZM45.5427 47.6396C46.5116 45.8956 47.0122 44.3574 46.4428 42.9688C45.8826 41.6026 44.3614 40.5761 41.8805 39.6101L41.5176 40.542C43.9845 41.5025 45.1298 42.4026 45.5176 43.3482C45.8961 44.2714 45.6261 45.4303 44.6685 47.154L45.5427 47.6396ZM28.6339 62.0174C26.7448 62.4222 22.6064 64.8155 19.9272 71.067L20.8464 71.4609C23.4217 65.4517 27.3268 63.3202 28.8435 62.9952L28.6339 62.0174ZM19.9272 71.067C18.2668 74.9413 17.9446 77.6917 18.2318 79.3323C18.3716 80.131 18.6774 80.7775 19.1656 81.0796C19.4275 81.2416 19.7329 81.2952 20.0361 81.2086C20.3271 81.1254 20.5644 80.9286 20.746 80.6864L19.946 80.0864C19.8539 80.2092 19.7846 80.2404 19.7613 80.2471C19.7504 80.2502 19.734 80.2553 19.6918 80.2292C19.5719 80.155 19.3405 79.8665 19.2168 79.1599C18.9771 77.7901 19.2227 75.2495 20.8464 71.4609L19.9272 71.067ZM20.746 80.6864C21.0008 80.3466 21.3989 79.5711 21.8615 78.6114C22.3344 77.6299 22.9021 76.3962 23.5005 75.0944C24.7023 72.4804 26.0251 69.6001 26.9871 67.8565L26.1115 67.3734C25.1274 69.1571 23.7863 72.0788 22.592 74.6767C21.9923 75.981 21.4288 77.2057 20.9606 78.1773C20.482 79.1705 20.129 79.8424 19.946 80.0864L20.746 80.6864ZM26.9711 67.8834C27.4041 67.2029 28.0354 66.1265 28.524 65.1026C28.7677 64.5919 28.9827 64.0802 29.1183 63.6299C29.186 63.4048 29.2376 63.1832 29.2603 62.9773C29.2824 62.7777 29.2819 62.5549 29.213 62.3482L28.2644 62.6644C28.2684 62.6766 28.2809 62.7359 28.2664 62.8675C28.2525 62.9927 28.218 63.1514 28.1607 63.3417C28.0461 63.7224 27.8552 64.1823 27.6215 64.6719C27.1553 65.6489 26.5459 66.689 26.1275 67.3465L26.9711 67.8834ZM27.4151 73.6896C28.8124 70.402 29.7452 68.3574 30.8783 66.2074L29.9937 65.7411C28.8416 67.9271 27.8963 70.0009 26.4948 73.2985L27.4151 73.6896ZM30.8783 66.2074C31.6726 64.7002 32.5448 63.2221 33.1828 62.3289L32.3691 61.7477C31.6931 62.694 30.7968 64.2173 29.9937 65.7411L30.8783 66.2074ZM33.1828 62.3289C33.4214 61.9948 33.5767 61.827 33.6601 61.7636C33.7067 61.7281 33.6688 61.7737 33.5676 61.7776C33.4117 61.7837 33.3002 61.6911 33.2559 61.6223C33.23 61.582 33.2406 61.5736 33.2511 61.651C33.2602 61.7182 33.2652 61.8184 33.2618 61.9585C33.2551 62.2382 33.2166 62.6252 33.1464 63.1246C32.8643 65.1313 32.1146 68.6668 31.19 73.5035L32.1722 73.6913C33.0891 68.8954 33.85 65.3028 34.1366 63.2638C34.2086 62.7518 34.2534 62.32 34.2615 61.9826C34.2656 61.8141 34.2609 61.6562 34.242 61.5168C34.2246 61.3877 34.1889 61.2243 34.0972 61.0817C33.9872 60.9104 33.7904 60.7682 33.5286 60.7784C33.3214 60.7865 33.1569 60.89 33.055 60.9674C32.8414 61.1298 32.612 61.4075 32.3691 61.7477L33.1828 62.3289ZM31.19 73.5035C29.781 80.8741 29.8449 89.8004 29.9644 93.265L30.9638 93.2306C30.8449 89.7831 30.7849 80.9481 32.1722 73.6913L31.19 73.5035ZM41.8805 39.6101C41.6049 39.5028 41.322 39.4681 41.0417 39.5319C40.7643 39.5951 40.5345 39.7446 40.3451 39.9297C39.9836 40.2828 39.7058 40.8301 39.4547 41.4195C38.9231 42.6671 38.4404 44.2567 37.5672 45.9417L38.455 46.4018C39.3431 44.6882 39.9032 42.918 40.3747 41.8114C40.6251 41.2237 40.8388 40.8453 41.0439 40.645C41.1377 40.5534 41.2099 40.5192 41.2638 40.5069C41.3148 40.4953 41.3926 40.4933 41.5176 40.542L41.8805 39.6101ZM37.5672 45.9417C35.6352 49.6696 33.766 53.336 30.0786 60.6575L30.9718 61.1073C34.6584 53.7873 36.5256 50.1248 38.455 46.4018L37.5672 45.9417Z" fill="#93A7AB"/>
<path d="M49.7671 86.2656C44.2206 83.6383 44.3481 68.7504 47.9426 60.7226C56.2809 58.5332 52.7408 72.0345 53.1057 80.0624C53.3977 86.4846 57.3629 80.7922 59.3091 77.1432L59.674 80.0624C56.3899 88.4551 51.5187 87.4333 49.7671 86.2656Z" fill="#94A8AC"/>
<path d="M49.7671 50.5054C51.1233 50.2621 53.6166 50.5054 52.7408 53.4246C51.6461 57.0736 48.253 53.4246 49.7671 50.5054Z" fill="#94A8AC"/>
<path d="M49.7671 86.2656C44.2206 83.6383 44.3481 68.7504 47.9426 60.7226C56.2809 58.5332 52.7408 72.0345 53.1057 80.0624C53.3977 86.4846 57.3629 80.7922 59.3091 77.1432L59.674 80.0624C56.3899 88.4551 51.5187 87.4333 49.7671 86.2656Z" stroke="#93A7AB" stroke-linecap="round" stroke-linejoin="round"/>
<path d="M49.7671 50.5054C51.1233 50.2621 53.6166 50.5054 52.7408 53.4246C51.6461 57.0736 48.253 53.4246 49.7671 50.5054Z" stroke="#93A7AB" stroke-linecap="round" stroke-linejoin="round"/>
<path fill-rule="evenodd" clip-rule="evenodd" d="M64.4175 65.1016C72.4427 57.3218 77.2434 59.628 78.3381 61.4525C78.6726 62.5419 78.9773 62.171 79.5283 61.5006C80.2692 60.5991 81.4553 59.1559 83.7573 59.993C87.7712 61.4526 86.3116 65.4665 85.5818 67.291C84.852 69.1155 81.5679 77.5082 85.5818 75.3188C89.5957 73.1294 91.0553 73.4943 92.15 74.589C93.2447 75.6837 92.5149 76.4135 88.501 77.5082C84.4871 78.6029 81.9328 81.5221 80.8381 88.8202C79.7434 96.1182 77.5948 107.43 75.4053 113.998C73.2159 120.567 64.4175 122.756 62.9579 109.984C61.7902 99.7672 72.2021 87.2389 77.554 82.2519C79.4401 78.2102 79.5355 76.1581 79.7503 71.5411C79.8263 69.9055 79.9174 67.9482 80.1083 65.4665C78.527 66.5612 71.3507 74.2241 67.3367 79.3327C61.1012 87.2687 54.2547 74.9538 64.4175 65.1016ZM74.6347 64.3718C73.4184 65.1016 70.2559 67.364 67.3367 70.5751C63.6877 74.589 64.4175 77.1025 69.5261 72.7237C74.6347 68.3449 76.8241 65.4665 77.9189 64.0069C79.0136 62.5473 76.8242 62.847 74.6347 64.3718ZM73.4992 109.62C74.9588 106.7 78.2838 94.0504 79.0136 88.0904C75.7294 90.2798 65.1473 104.511 66.9718 112.539C68.7963 120.567 71.6747 113.269 73.4992 109.62Z" fill="#94A8AC"/>
<path d="M78.3381 61.4525L78.8161 61.3058L78.7982 61.2475L78.7669 61.1953L78.3381 61.4525ZM64.4175 65.1016L64.0695 64.7426L64.4175 65.1016ZM67.3367 79.3327L66.9436 79.0238L67.3367 79.3327ZM80.1083 65.4665L80.6068 65.5048C80.6216 65.3125 80.5244 65.1289 80.3571 65.0328C80.1898 64.9368 79.9822 64.9456 79.8237 65.0554L80.1083 65.4665ZM77.554 82.2519L77.8948 82.6177L77.9659 82.5515L78.007 82.4634L77.554 82.2519ZM62.9579 109.984L63.4547 109.928L62.9579 109.984ZM83.7573 59.993L83.9281 59.5231L83.7573 59.993ZM74.6347 64.3718L74.892 64.8005L74.9066 64.7918L74.9205 64.7821L74.6347 64.3718ZM67.3367 70.5751L67.7067 70.9114L67.3367 70.5751ZM79.0136 88.0904L79.5098 88.1511L79.6422 87.0703L78.7362 87.6743L79.0136 88.0904ZM79.7503 71.5411L80.2497 71.5643L79.7503 71.5411ZM79.5283 61.5006L79.9146 61.8181V61.8181L79.5283 61.5006ZM78.7669 61.1953C78.1105 60.1014 76.4446 58.9971 73.941 59.1767C71.4397 59.3561 68.1284 60.8078 64.0695 64.7426L64.7655 65.4606C68.7318 61.6156 71.8334 60.3304 74.0125 60.1741C76.1892 60.018 77.471 60.9792 77.9094 61.7098L78.7669 61.1953ZM64.0695 64.7426C58.8781 69.7753 57.9553 75.518 59.2585 79.0604C59.9074 80.8244 61.1467 82.1106 62.7508 82.3377C64.3591 82.5653 66.1145 81.6976 67.7299 79.6417L66.9436 79.0238C65.4412 80.9359 64.0025 81.5049 62.8909 81.3475C61.7751 81.1896 60.7688 80.2693 60.197 78.7151C59.0587 75.621 59.794 70.2802 64.7655 65.4606L64.0695 64.7426ZM67.7299 79.6417C69.7255 77.1019 72.5132 73.9199 75.0015 71.2342C76.2451 69.892 77.4109 68.6771 78.3626 67.7311C79.3268 66.7727 80.0405 66.1216 80.3929 65.8776L79.8237 65.0554C79.3854 65.3588 78.6091 66.076 77.6576 67.0219C76.6935 67.9803 75.5179 69.2056 74.268 70.5546C71.7694 73.2512 68.962 76.455 66.9436 79.0238L67.7299 79.6417ZM77.2131 81.8861C74.5102 84.4047 70.5393 88.8171 67.3864 93.893C64.2437 98.9525 61.8576 104.76 62.4612 110.041L63.4547 109.928C62.8905 104.991 65.1266 99.4264 68.2358 94.4207C71.3349 89.4314 75.2458 85.0862 77.8948 82.6177L77.2131 81.8861ZM62.4612 110.041C63.1987 116.495 65.8366 119.482 68.8652 119.742C71.827 119.996 74.7391 117.578 75.8797 114.156L74.931 113.84C73.8822 116.987 71.3004 118.947 68.9507 118.746C66.6679 118.55 64.1767 116.246 63.4547 109.928L62.4612 110.041ZM75.8797 114.156C78.0835 107.545 80.2371 96.1972 81.3325 88.8943L80.3436 88.746C79.2496 96.0392 77.106 107.315 74.931 113.84L75.8797 114.156ZM81.3325 88.8943C81.874 85.2844 82.7688 82.818 83.981 81.1296C85.1816 79.4572 86.7194 78.5124 88.6325 77.9906L88.3694 77.0258C86.2687 77.5988 84.5223 78.6609 83.1687 80.5463C81.8266 82.4157 80.8968 85.0579 80.3436 88.746L81.3325 88.8943ZM88.6325 77.9906C89.6435 77.7149 90.4606 77.4587 91.0997 77.2102C91.7307 76.9648 92.2246 76.7133 92.5613 76.4327C92.9068 76.1448 93.1481 75.7698 93.1039 75.3056C93.064 74.8872 92.7991 74.531 92.5035 74.2355L91.7964 74.9426C92.0482 75.1944 92.1026 75.3399 92.1084 75.4004C92.1098 75.4152 92.123 75.4963 91.9211 75.6645C91.7105 75.8401 91.3377 76.0447 90.7372 76.2782C90.1447 76.5086 89.3654 76.7542 88.3694 77.0258L88.6325 77.9906ZM92.5035 74.2355C91.8788 73.6107 91.11 73.1696 89.9379 73.2229C88.8176 73.2738 87.3671 73.7755 85.3423 74.8799L85.8212 75.7578C87.8103 74.6728 89.0966 74.2622 89.9833 74.2219C90.8181 74.1839 91.3265 74.4726 91.7964 74.9426L92.5035 74.2355ZM85.3423 74.8799C84.8711 75.1369 84.5877 75.1908 84.4394 75.1789C84.3432 75.1712 84.2904 75.1398 84.236 75.0272C84.1644 74.879 84.1167 74.6208 84.1253 74.2331C84.1337 73.8561 84.1937 73.4056 84.2932 72.9082C84.6934 70.9072 85.6793 68.3935 86.046 67.4767L85.1175 67.1053C84.7545 68.013 83.7334 70.608 83.3126 72.7121C83.2068 73.241 83.1357 73.754 83.1255 74.2109C83.1156 74.657 83.162 75.103 83.3356 75.4622C83.5263 75.857 83.8698 76.1364 84.3594 76.1757C84.7969 76.2108 85.289 76.0481 85.8212 75.7578L85.3423 74.8799ZM86.046 67.4767C86.4092 66.5687 86.9975 65.0197 86.9481 63.489C86.9231 62.7125 86.7339 61.918 86.2514 61.2107C85.7668 60.5004 85.0132 59.9177 83.9281 59.5231L83.5864 60.4629C84.5083 60.7981 85.0775 61.2644 85.4253 61.7743C85.7752 62.2871 85.9281 62.8838 85.9487 63.5213C85.9905 64.8186 85.4841 66.1888 85.1175 67.1053L86.046 67.4767ZM74.3775 63.943C73.123 64.6957 69.9216 66.9884 66.9668 70.2388L67.7067 70.9114C70.5903 67.7395 73.7138 65.5074 74.892 64.8005L74.3775 63.943ZM66.9668 70.2388C66.0348 71.2639 65.3653 72.2114 64.9736 72.9968C64.7783 73.3883 64.6428 73.758 64.5861 74.089C64.5312 74.4092 64.5382 74.7661 64.7235 75.062C64.9282 75.389 65.2705 75.5203 65.6174 75.5264C65.9475 75.5323 66.3199 75.4302 66.7151 75.2583C67.5118 74.9118 68.5594 74.2109 69.8515 73.1033L69.2007 72.3441C67.9385 73.426 66.9792 74.0529 66.3163 74.3413C65.9817 74.4868 65.7611 74.5288 65.6351 74.5266C65.5259 74.5247 65.5489 74.4958 65.5711 74.5313C65.574 74.5359 65.5353 74.4703 65.5717 74.2579C65.6062 74.0563 65.6988 73.7833 65.8684 73.4431C66.2065 72.7652 66.8141 71.8933 67.7067 70.9114L66.9668 70.2388ZM69.8515 73.1033C74.9941 68.6954 77.2078 65.7882 78.3189 64.3069L77.5189 63.7069C76.4405 65.1448 74.2754 67.9944 69.2007 72.3441L69.8515 73.1033ZM78.3189 64.3069C78.473 64.1013 78.5943 63.895 78.6586 63.6917C78.7228 63.4884 78.7462 63.2306 78.6121 62.9902C78.4772 62.7484 78.247 62.6383 78.0536 62.5924C77.8611 62.5467 77.6507 62.5492 77.4481 62.5738C76.6509 62.6706 75.4781 63.1752 74.349 63.9615L74.9205 64.7821C75.9808 64.0436 76.9974 63.6359 77.5686 63.5666C77.7081 63.5496 77.7885 63.5573 77.8226 63.5654C77.8558 63.5732 77.7881 63.5657 77.7388 63.4773C77.6902 63.3902 77.7221 63.3365 77.7051 63.3903C77.6881 63.444 77.6383 63.5476 77.5189 63.7069L78.3189 64.3069ZM78.5173 88.0296C78.1564 90.9763 77.1494 95.6034 76.046 99.8701C74.9382 104.154 73.7539 107.992 73.052 109.396L73.9465 109.843C74.7042 108.328 75.9121 104.382 77.0141 100.12C78.1205 95.8424 79.1409 91.1644 79.5098 88.1511L78.5173 88.0296ZM73.052 109.396C72.5806 110.339 72.0796 111.437 71.5222 112.514C70.9679 113.585 70.406 114.535 69.8677 115.119C69.5973 115.413 69.3709 115.572 69.1951 115.632C69.0513 115.682 68.9333 115.672 68.7912 115.573C68.6196 115.453 68.3969 115.187 68.156 114.66C67.9187 114.141 67.6833 113.413 67.4594 112.428L66.4843 112.65C66.7165 113.671 66.9702 114.471 67.2466 115.076C67.5194 115.672 67.8352 116.125 68.2185 116.392C68.6314 116.681 69.0848 116.728 69.5206 116.578C69.9244 116.439 70.2859 116.141 70.6034 115.797C71.2408 115.104 71.8546 114.047 72.4102 112.974C72.9626 111.907 73.5057 110.725 73.9465 109.843L73.052 109.396ZM67.4594 112.428C67.0314 110.545 67.3239 108.249 68.0987 105.79C68.8709 103.339 70.1066 100.774 71.5086 98.3776C72.9096 95.9823 74.4689 93.7677 75.8792 92.019C77.3013 90.2556 78.5382 89.0082 79.2909 88.5064L78.7362 87.6743C77.8469 88.2672 76.5294 89.6198 75.1008 91.3913C73.6602 93.1775 72.0723 95.433 70.6454 97.8727C69.2193 100.311 67.9464 102.946 67.1449 105.49C66.3461 108.025 66 110.519 66.4843 112.65L67.4594 112.428ZM79.6097 65.4282C79.4182 67.918 79.3269 69.8819 79.2508 71.5178L80.2497 71.5643C80.3258 69.9292 80.4165 67.9784 80.6068 65.5048L79.6097 65.4282ZM79.2508 71.5178C79.143 73.8355 79.0663 75.4673 78.7868 77.0239C78.5096 78.5676 78.03 80.0494 77.1009 82.0405L78.007 82.4634C78.964 80.4127 79.4753 78.8476 79.771 77.2006C80.0645 75.5664 80.1428 73.8637 80.2497 71.5643L79.2508 71.5178ZM83.9281 59.5231C82.6453 59.0566 81.6237 59.2168 80.8181 59.6558C80.0438 60.0777 79.5056 60.7407 79.142 61.1831L79.9146 61.8181C80.2919 61.359 80.7172 60.8496 81.2966 60.5339C81.8448 60.2351 82.5673 60.0923 83.5864 60.4629L83.9281 59.5231ZM79.142 61.1831C78.9992 61.357 78.8933 61.4851 78.8022 61.5768C78.7581 61.6211 78.7288 61.6453 78.7118 61.6571C78.6935 61.6699 78.7066 61.6564 78.7465 61.6478C78.7962 61.637 78.8606 61.6399 78.921 61.667C78.9731 61.6904 78.9908 61.7177 78.9819 61.7064C78.9729 61.6948 78.9507 61.6615 78.9193 61.5911C78.8886 61.5223 78.854 61.4292 78.8161 61.3058L77.8601 61.5993C77.9476 61.8843 78.0507 62.1385 78.1935 62.3214C78.2688 62.418 78.3719 62.5167 78.5118 62.5795C78.6599 62.6459 78.8144 62.6561 78.9575 62.6252C79.2055 62.5717 79.3949 62.3991 79.5117 62.2815C79.6432 62.1491 79.782 61.9795 79.9146 61.8181L79.142 61.1831Z" fill="#93A7AB"/>
<path fill-rule="evenodd" clip-rule="evenodd" d="M102.732 53.7897C99.9347 55.9791 93.9017 60.9417 92.1501 63.2771C89.9607 66.1963 88.1362 76.0486 96.529 73.8592C99.2614 73.1464 102.26 71.5491 104.076 70.8542C107.84 69.4149 111.125 70.1763 111.125 73.1294C111.125 76.8254 108.206 77.1704 105.135 78.9804C102.064 80.7904 98.592 81.9325 93.2448 87.7255C84.4872 97.2129 95.0693 100.862 99.813 97.5778C103.863 94.774 111.438 85.1712 112.54 82.362C112.826 81.6344 114.543 79.1815 114.774 78.63C117.143 77.5353 118.238 76.8055 122.437 76.0757C123.567 75.8792 124.772 73.7133 122.437 73.1294C120.102 72.5456 115.382 73.3727 114.044 73.8592C113.436 71.4266 112.585 66.5612 108.206 66.5612C106.265 66.5612 103.727 67.2497 101.471 67.8615C97.3669 68.9749 94.1974 69.8347 97.2587 65.8314C101.04 60.8869 104.125 58.4926 105.592 57.3548C105.965 57.0652 106.233 56.857 106.381 56.7089C107.111 55.9791 108.936 53.7897 102.732 53.7897ZM97.9885 89.1851C99.74 86.8497 110.03 80.7923 112.22 80.7923L108.571 86.6308C104.828 91.3215 101.054 96.1912 97.2588 96.4831C92.9036 96.8181 95.2004 92.847 97.4197 89.9351C97.6177 89.6754 97.8092 89.4241 97.9885 89.1851Z" fill="#94A8AC"/>
<path d="M102.732 53.7897V53.2897C102.621 53.2897 102.512 53.3271 102.424 53.3959L102.732 53.7897ZM92.1501 63.2771L92.5501 63.5771L92.1501 63.2771ZM96.529 73.8592L96.6552 74.343L96.529 73.8592ZM93.2448 87.7255L93.6122 88.0646L93.2448 87.7255ZM99.813 97.5778L100.098 97.9889L99.813 97.5778ZM114.774 78.63L114.564 78.1761L114.388 78.2576L114.313 78.4367L114.774 78.63ZM122.437 76.0757L122.523 76.5683L122.437 76.0757ZM114.044 73.8592L113.559 73.9805L113.694 74.5187L114.215 74.3291L114.044 73.8592ZM97.2587 65.8314L96.8616 65.5277L97.2587 65.8314ZM106.381 56.7089L106.028 56.3553V56.3553L106.381 56.7089ZM112.22 80.7923L112.644 81.0573C112.74 80.9032 112.745 80.7089 112.657 80.55C112.569 80.391 112.401 80.2923 112.22 80.2923V80.7923ZM97.9885 89.1851L98.3885 89.4851L97.9885 89.1851ZM97.2588 96.4831L97.2971 96.9816H97.2971L97.2588 96.4831ZM108.571 86.6308L108.961 86.9426L108.979 86.9201L108.995 86.8958L108.571 86.6308ZM104.076 70.8542L104.255 71.3212L104.076 70.8542ZM112.54 82.362L112.075 82.1794L112.54 82.362ZM101.471 67.8615L101.602 68.3441L101.471 67.8615ZM105.592 57.3548L105.285 56.9598V56.9598L105.592 57.3548ZM97.4197 89.9351L97.0221 89.6321L97.4197 89.9351ZM102.424 53.3959C101.02 54.4948 98.8055 56.2884 96.7208 58.1014C94.6505 59.9019 92.663 61.76 91.7501 62.9771L92.5501 63.5771C93.3888 62.4589 95.2936 60.6679 97.3771 58.8559C99.4462 57.0564 101.647 55.2739 103.04 54.1834L102.424 53.3959ZM91.7501 62.9771C91.1523 63.7742 90.6055 65.0023 90.2474 66.3408C89.8883 67.683 89.7052 69.187 89.8751 70.5459C90.0447 71.9023 90.5771 73.1815 91.7155 73.9537C92.8554 74.727 94.4818 74.91 96.6552 74.343L96.4027 73.3754C94.3798 73.9032 93.087 73.6757 92.2769 73.1262C91.4654 72.5756 91.0171 71.6198 90.8674 70.4219C90.718 69.2265 90.877 67.8569 91.2135 66.5992C91.551 65.3377 92.0533 64.2396 92.5501 63.5771L91.7501 62.9771ZM92.8774 87.3863C90.6518 89.7973 89.5927 91.9017 89.4119 93.6786C89.2279 95.487 89.961 96.8926 91.1566 97.8338C92.3335 98.7603 93.9408 99.2279 95.5446 99.2579C97.1499 99.288 98.8091 98.881 100.098 97.9889L99.5284 97.1667C98.4451 97.9167 97.0026 98.2851 95.5633 98.2581C94.1224 98.2311 92.7421 97.8093 91.7752 97.0481C90.827 96.3016 90.2601 95.2213 90.4068 93.7798C90.5567 92.3068 91.4589 90.3973 93.6122 88.0646L92.8774 87.3863ZM114.984 79.0839C116.195 78.5242 117.023 78.0861 118.095 77.6842C119.152 77.2875 120.444 76.9295 122.523 76.5683L122.351 75.5831C120.23 75.9517 118.875 76.3235 117.743 76.7479C116.626 77.167 115.722 77.6411 114.564 78.1761L114.984 79.0839ZM122.523 76.5683C122.935 76.4966 123.312 76.257 123.599 75.9649C123.889 75.67 124.124 75.2838 124.223 74.8625C124.324 74.4338 124.286 73.9516 123.993 73.5256C123.705 73.1056 123.218 72.8093 122.558 72.6444L122.316 73.6145C122.824 73.7415 123.061 73.9348 123.169 74.0914C123.272 74.2417 123.3 74.4228 123.25 74.6331C123.199 74.8509 123.067 75.0795 122.885 75.2643C122.701 75.4518 122.504 75.5566 122.351 75.5831L122.523 76.5683ZM122.558 72.6444C121.296 72.3287 119.453 72.401 117.808 72.5964C116.154 72.7928 114.595 73.1267 113.873 73.3893L114.215 74.3291C114.831 74.1052 116.301 73.7823 117.925 73.5894C119.558 73.3956 121.243 73.3463 122.316 73.6145L122.558 72.6444ZM114.529 73.738C114.234 72.5578 113.853 70.6495 112.977 69.057C112.084 67.4326 110.633 66.0612 108.206 66.0612V67.0612C110.157 67.0612 111.322 68.1224 112.101 69.5389C112.897 70.9873 113.246 72.728 113.559 73.9805L114.529 73.738ZM106.735 57.0624C106.927 56.8702 107.215 56.5595 107.425 56.1938C107.628 55.8392 107.815 55.3327 107.628 54.8074C107.436 54.2723 106.925 53.9027 106.172 53.6661C105.411 53.4273 104.304 53.2897 102.732 53.2897V54.2897C104.262 54.2897 105.253 54.4257 105.872 54.6202C106.499 54.817 106.649 55.0403 106.686 55.1438C106.726 55.2571 106.708 55.4347 106.558 55.6959C106.414 55.946 106.2 56.1826 106.028 56.3553L106.735 57.0624ZM112.22 80.2923C111.858 80.2923 111.391 80.4116 110.889 80.5844C110.372 80.7622 109.767 81.0156 109.108 81.3219C107.789 81.935 106.228 82.7734 104.686 83.6822C103.144 84.5911 101.611 85.5755 100.351 86.4827C99.1088 87.3768 98.0778 88.2327 97.5885 88.8851L98.3885 89.4851C98.775 88.9697 99.6871 88.1927 100.935 87.2943C102.165 86.4088 103.671 85.441 105.194 84.5437C106.717 83.6462 108.248 82.8244 109.529 82.2287C110.171 81.9306 110.742 81.6925 111.214 81.5299C111.701 81.3624 112.034 81.2923 112.22 81.2923V80.2923ZM97.2971 96.9816C99.3812 96.8213 101.383 95.4186 103.283 93.5643C105.197 91.6973 107.098 89.2783 108.961 86.9426L108.18 86.3189C106.301 88.6739 104.443 91.0351 102.585 92.8486C100.714 94.6748 98.9313 95.853 97.2204 95.9846L97.2971 96.9816ZM108.995 86.8958L112.644 81.0573L111.796 80.5273L108.147 86.3658L108.995 86.8958ZM96.6552 74.343C98.0608 73.9763 99.5228 73.3857 100.846 72.8082C102.189 72.2219 103.36 71.6635 104.255 71.3212L103.898 70.3872C102.976 70.7398 101.739 71.3275 100.446 71.8917C99.1329 72.4648 97.7296 73.0293 96.4027 73.3754L96.6552 74.343ZM104.255 71.3212C106.078 70.6239 107.722 70.4867 108.871 70.8244C109.439 70.9912 109.87 71.2685 110.161 71.6357C110.448 71.9999 110.625 72.4878 110.625 73.1294H111.625C111.625 72.2944 111.391 71.5797 110.945 71.0156C110.502 70.4545 109.877 70.0777 109.153 69.8649C107.718 69.4434 105.838 69.6452 103.898 70.3872L104.255 71.3212ZM110.625 73.1294C110.625 73.9853 110.457 74.6131 110.184 75.106C109.91 75.6003 109.511 75.9937 108.996 76.3517C108.475 76.7139 107.856 77.0269 107.147 77.3731C106.448 77.7145 105.669 78.085 104.881 78.5497L105.389 79.4112C106.136 78.9708 106.874 78.6194 107.586 78.2716C108.288 77.9285 108.974 77.5849 109.567 77.1727C110.166 76.7562 110.689 76.2571 111.058 75.5907C111.428 74.9229 111.625 74.1216 111.625 73.1294H110.625ZM104.881 78.5497C101.852 80.3346 98.2889 81.5238 92.8774 87.3863L93.6122 88.0646C98.8952 82.3413 102.275 81.2462 105.389 79.4112L104.881 78.5497ZM100.098 97.9889C102.186 96.5433 105.13 93.3921 107.669 90.2885C108.945 88.729 110.13 87.167 111.067 85.8152C111.995 84.4762 112.707 83.3069 113.006 82.5447L112.075 82.1794C111.823 82.8217 111.174 83.9062 110.245 85.2454C109.326 86.5718 108.157 88.1125 106.895 89.6553C104.358 92.7563 101.49 95.8085 99.5284 97.1667L100.098 97.9889ZM113.006 82.5447C113.06 82.4075 113.199 82.152 113.406 81.8069C113.607 81.4726 113.852 81.0858 114.099 80.6991C114.344 80.3151 114.592 79.9296 114.792 79.6072C114.984 79.2986 115.159 79.0055 115.235 78.8234L114.313 78.4367C114.274 78.5303 114.147 78.7506 113.943 79.0798C113.747 79.3951 113.505 79.7717 113.256 80.1608C113.009 80.5472 112.757 80.9446 112.549 81.2921C112.346 81.6288 112.164 81.9528 112.075 82.1794L113.006 82.5447ZM108.206 66.0612C106.183 66.0612 103.572 66.7735 101.34 67.379L101.602 68.3441C103.881 67.7258 106.346 67.0612 108.206 67.0612V66.0612ZM101.34 67.379C100.31 67.6584 99.3573 67.9167 98.5476 68.0878C97.7187 68.2629 97.1162 68.3285 96.7561 68.2714C96.6731 68.2582 96.6178 68.2405 96.5832 68.2246C96.5665 68.217 96.556 68.2104 96.5501 68.2061C96.5471 68.204 96.5452 68.2024 96.5441 68.2013C96.543 68.2004 96.5425 68.1998 96.5425 68.1998C96.5425 68.1998 96.5427 68.2 96.543 68.2005C96.5431 68.2007 96.5432 68.2008 96.5433 68.201C96.5434 68.2011 96.5435 68.2012 96.5435 68.2012C96.5434 68.2012 96.5434 68.201 96.5432 68.2007C96.5431 68.2004 96.5429 68.1999 96.5427 68.1992C96.5421 68.1977 96.5414 68.1952 96.5405 68.1915C96.5371 68.1761 96.5323 68.138 96.5428 68.0677C96.5647 67.9203 96.6443 67.6904 96.8297 67.3562C97.0121 67.0275 97.2819 66.6242 97.6559 66.1351L96.8616 65.5277C96.4702 66.0394 96.1694 66.485 95.9552 66.8711C95.744 67.2519 95.601 67.6028 95.5537 67.9204C95.5049 68.2485 95.5542 68.5853 95.7856 68.8533C96.0037 69.1059 96.3132 69.2136 96.5996 69.259C97.1622 69.3483 97.9303 69.2403 98.7544 69.0662C99.5976 68.888 100.58 68.6213 101.602 68.3441L101.34 67.379ZM97.6559 66.1351C101.401 61.2382 104.449 58.874 105.898 57.7499L105.285 56.9598C103.801 58.1111 100.679 60.5356 96.8616 65.5277L97.6559 66.1351ZM105.898 57.7499C106.257 57.4713 106.558 57.2387 106.735 57.0624L106.028 56.3553C105.908 56.4752 105.673 56.659 105.285 56.9598L105.898 57.7499ZM97.2204 95.9846C96.1717 96.0652 95.694 95.8678 95.492 95.6612C95.3087 95.4737 95.2214 95.1364 95.3607 94.5404C95.4972 93.9562 95.8264 93.2487 96.2762 92.4884C96.7222 91.7344 97.2695 90.9571 97.8174 90.2382L97.0221 89.6321C96.4604 90.369 95.8883 91.1801 95.4155 91.9792C94.9466 92.772 94.5577 93.5822 94.3869 94.3129C94.2189 95.0318 94.2354 95.8065 94.777 96.3603C95.2998 96.8951 96.1683 97.0684 97.2971 96.9816L97.2204 95.9846ZM97.8174 90.2382C98.0151 89.9788 98.2078 89.726 98.3885 89.4851L97.5885 88.8851C97.4106 89.1223 97.2203 89.372 97.0221 89.6321L97.8174 90.2382Z" fill="#93A7AB"/>
</svg>
