<svg width="142" height="148" viewBox="0 0 142 148" fill="none" xmlns="http://www.w3.org/2000/svg">
<rect width="142" height="148" fill="#424B54"/>
<path fill-rule="evenodd" clip-rule="evenodd" d="M32.5252 60.8824C29.9709 58.693 22.4833 59.4411 17.5206 69.0744C12.558 78.7078 16.1427 82.6166 17.9671 84.4411C20.6237 87.0977 22.926 87.6799 28.955 73.4941C30.3543 70.2015 31.2934 68.1422 32.436 65.9743C33.2347 64.4588 34.1189 62.9581 34.7759 62.0383C36.7024 59.3412 35.5226 63.9648 33.6811 73.5974C32.2829 80.9111 32.3449 89.7918 32.4641 93.2478C32.9506 94.9507 36.3782 99.4127 37.0877 95.9449C37.718 92.8647 37.7044 77.9174 38.69 71.2639C39.4198 65.5471 43.6042 53.6994 47.1056 47.3968C49.0321 43.9291 48.6468 42.0026 43.699 40.076C42.0967 39.4521 41.7725 42.7732 40.0111 46.1718C38.0804 49.8972 36.2122 53.5616 32.5252 60.8824ZM22.3868 71.2639C25.0141 65.1336 29.0358 62.8712 30.7387 62.5063C31.0306 63.3821 29.4007 66.2769 28.5493 67.6149C26.6032 71.1423 23.2217 79.2188 22.346 80.3864C21.2513 81.8461 19.1027 78.9268 22.3868 71.2639Z" fill="#93A8AC"/>
<path d="M32.5252 60.8824L32.1998 61.262L32.6846 61.6775L32.9718 61.1073L32.5252 60.8824ZM17.9671 84.4411L17.6136 84.7946L17.9671 84.4411ZM28.955 73.4941L28.4948 73.2985L28.955 73.4941ZM34.7759 62.0383L34.3691 61.7477L34.7759 62.0383ZM32.4641 93.2478L31.9644 93.265L31.9665 93.3263L31.9833 93.3852L32.4641 93.2478ZM37.0877 95.9449L37.5776 96.0452L37.0877 95.9449ZM38.69 71.2639L39.1847 71.3372L39.186 71.3272L38.69 71.2639ZM47.1056 47.3968L47.5427 47.6396L47.1056 47.3968ZM43.699 40.076L43.8805 39.6101L43.699 40.076ZM30.7387 62.5063L31.213 62.3482L31.0715 61.9236L30.6339 62.0174L30.7387 62.5063ZM22.3868 71.2639L21.9272 71.067L22.3868 71.2639ZM22.346 80.3864L21.946 80.0864L22.346 80.3864ZM28.5493 67.6149L28.1275 67.3465L28.1191 67.3597L28.1115 67.3734L28.5493 67.6149ZM32.436 65.9743L32.8783 66.2074L32.436 65.9743ZM33.6811 73.5974L34.1722 73.6913L33.6811 73.5974ZM40.0111 46.1718L40.455 46.4018L40.0111 46.1718ZM32.8506 60.5028C31.3839 59.2456 28.6567 58.9215 25.7414 60.0802C22.7978 61.2502 19.6021 63.9421 17.0762 68.8455L17.9651 69.3034C20.4018 64.5734 23.4313 62.0745 26.1107 61.0095C28.8185 59.9332 31.1122 60.3298 32.1998 61.262L32.8506 60.5028ZM17.0762 68.8455C14.5609 73.728 14.1748 77.2325 14.7093 79.7885C15.2441 82.3458 16.6846 83.8656 17.6136 84.7946L18.3207 84.0875C17.4252 83.1921 16.1611 81.8453 15.6881 79.5837C15.2149 77.3209 15.5177 74.0542 17.9651 69.3034L17.0762 68.8455ZM17.6136 84.7946C18.2807 85.4617 18.9989 86.0792 19.8123 86.3249C20.6805 86.5872 21.5713 86.4051 22.5039 85.6778C23.4106 84.9706 24.3853 83.7301 25.5003 81.8143C26.6204 79.8899 27.904 77.2452 29.4151 73.6896L28.4948 73.2985C26.9914 76.8359 25.7264 79.438 24.6361 81.3112C23.5408 83.193 22.6434 84.3008 21.8889 84.8892C21.1602 85.4575 20.6005 85.5183 20.1015 85.3676C19.5477 85.2003 18.9819 84.7487 18.3207 84.0875L17.6136 84.7946ZM31.9833 93.3852C32.1254 93.8823 32.4625 94.53 32.8755 95.1519C33.2926 95.78 33.8159 96.4251 34.3601 96.909C34.6321 97.1509 34.9219 97.3637 35.2176 97.5116C35.5103 97.658 35.8424 97.7575 36.184 97.7235C36.9538 97.6467 37.3876 96.9738 37.5776 96.0452L36.5979 95.8447C36.4331 96.65 36.1725 96.7197 36.0848 96.7284C35.9976 96.7371 35.8603 96.715 35.6649 96.6173C35.4726 96.5211 35.2557 96.3672 35.0246 96.1617C34.5623 95.7507 34.0931 95.1778 33.7086 94.5987C33.3199 94.0134 33.0461 93.4647 32.9449 93.1105L31.9833 93.3852ZM37.5776 96.0452C37.7441 95.2312 37.8625 93.6792 37.9647 91.7511C38.0677 89.8085 38.156 87.4385 38.2552 84.9644C38.4542 80.001 38.6966 74.6315 39.1846 71.3372L38.1954 71.1907C37.6978 74.5498 37.4542 79.9806 37.256 84.9243C37.1566 87.4038 37.0686 89.764 36.9661 91.6982C36.8628 93.647 36.7465 95.1185 36.5979 95.8447L37.5776 96.0452ZM39.186 71.3272C39.544 68.5227 40.7581 64.1718 42.33 59.7164C43.8999 55.2663 45.8107 50.7573 47.5427 47.6396L46.6685 47.154C44.8991 50.3389 42.967 54.9051 41.3869 59.3837C39.8088 63.857 38.5658 68.2884 38.1941 71.2006L39.186 71.3272ZM47.5427 47.6396C48.5116 45.8956 49.0122 44.3574 48.4428 42.9688C47.8826 41.6026 46.3614 40.5761 43.8805 39.6101L43.5176 40.542C45.9845 41.5025 47.1298 42.4026 47.5176 43.3482C47.8961 44.2714 47.6261 45.4303 46.6685 47.154L47.5427 47.6396ZM30.6339 62.0174C28.7448 62.4222 24.6064 64.8155 21.9272 71.067L22.8464 71.4609C25.4217 65.4517 29.3268 63.3202 30.8435 62.9952L30.6339 62.0174ZM21.9272 71.067C20.2668 74.9413 19.9446 77.6917 20.2318 79.3323C20.3716 80.131 20.6774 80.7775 21.1656 81.0796C21.4275 81.2416 21.7329 81.2952 22.0361 81.2086C22.3271 81.1254 22.5644 80.9286 22.746 80.6864L21.946 80.0864C21.8539 80.2092 21.7846 80.2404 21.7613 80.2471C21.7504 80.2502 21.734 80.2553 21.6918 80.2292C21.5719 80.155 21.3405 79.8665 21.2168 79.1599C20.9771 77.7901 21.2227 75.2495 22.8464 71.4609L21.9272 71.067ZM22.746 80.6864C23.0008 80.3466 23.3989 79.5711 23.8615 78.6114C24.3344 77.6299 24.9021 76.3962 25.5005 75.0944C26.7023 72.4804 28.0251 69.6001 28.9871 67.8565L28.1115 67.3734C27.1274 69.1571 25.7863 72.0788 24.592 74.6767C23.9923 75.981 23.4288 77.2057 22.9606 78.1773C22.482 79.1705 22.129 79.8424 21.946 80.0864L22.746 80.6864ZM28.9711 67.8834C29.4041 67.2029 30.0354 66.1265 30.524 65.1026C30.7677 64.5919 30.9827 64.0802 31.1183 63.6299C31.186 63.4048 31.2376 63.1832 31.2603 62.9773C31.2824 62.7777 31.2819 62.5549 31.213 62.3482L30.2644 62.6644C30.2684 62.6766 30.2809 62.7359 30.2664 62.8675C30.2525 62.9927 30.218 63.1514 30.1607 63.3417C30.0461 63.7224 29.8552 64.1823 29.6215 64.6719C29.1553 65.6489 28.5459 66.689 28.1275 67.3465L28.9711 67.8834ZM29.4151 73.6896C30.8124 70.402 31.7452 68.3574 32.8783 66.2074L31.9937 65.7411C30.8416 67.9271 29.8963 70.0009 28.4948 73.2985L29.4151 73.6896ZM32.8783 66.2074C33.6726 64.7002 34.5448 63.2221 35.1828 62.3289L34.3691 61.7477C33.6931 62.694 32.7968 64.2173 31.9937 65.7411L32.8783 66.2074ZM35.1828 62.3289C35.4214 61.9948 35.5767 61.827 35.6601 61.7636C35.7067 61.7281 35.6688 61.7737 35.5676 61.7776C35.4117 61.7837 35.3002 61.6911 35.2559 61.6223C35.23 61.582 35.2406 61.5736 35.2511 61.651C35.2602 61.7182 35.2652 61.8184 35.2618 61.9585C35.2551 62.2382 35.2166 62.6252 35.1464 63.1246C34.8643 65.1313 34.1146 68.6668 33.19 73.5035L34.1722 73.6913C35.0891 68.8954 35.85 65.3028 36.1366 63.2638C36.2086 62.7518 36.2534 62.32 36.2615 61.9826C36.2656 61.8141 36.2609 61.6562 36.242 61.5168C36.2246 61.3877 36.1889 61.2243 36.0972 61.0817C35.9872 60.9104 35.7904 60.7682 35.5286 60.7784C35.3214 60.7865 35.1569 60.89 35.055 60.9674C34.8414 61.1298 34.612 61.4075 34.3691 61.7477L35.1828 62.3289ZM33.19 73.5035C31.781 80.8741 31.8449 89.8004 31.9644 93.265L32.9638 93.2306C32.8449 89.7831 32.7849 80.9481 34.1722 73.6913L33.19 73.5035ZM43.8805 39.6101C43.6049 39.5028 43.322 39.4681 43.0417 39.5319C42.7643 39.5951 42.5345 39.7446 42.3451 39.9297C41.9836 40.2828 41.7058 40.8301 41.4547 41.4195C40.9231 42.6671 40.4404 44.2567 39.5672 45.9417L40.455 46.4018C41.3431 44.6882 41.9032 42.918 42.3747 41.8114C42.6251 41.2237 42.8388 40.8453 43.0439 40.645C43.1377 40.5534 43.2099 40.5192 43.2638 40.5069C43.3148 40.4953 43.3926 40.4933 43.5176 40.542L43.8805 39.6101ZM39.5672 45.9417C37.6352 49.6696 35.766 53.336 32.0786 60.6575L32.9718 61.1073C36.6584 53.7873 38.5256 50.1248 40.455 46.4018L39.5672 45.9417Z" fill="#93A8AC"/>
<path d="M51.7672 86.2656C46.2207 83.6383 46.3481 68.7504 49.9427 60.7226C58.2809 58.5332 54.7409 72.0345 55.1058 80.0624C55.3977 86.4846 59.363 80.7922 61.3091 77.1432L61.674 80.0624C58.3899 88.4551 53.5187 87.4333 51.7672 86.2656Z" fill="#93A8AC"/>
<path d="M51.7672 50.5054C53.1233 50.2621 55.6167 50.5054 54.7409 53.4246C53.6462 57.0736 50.2531 53.4246 51.7672 50.5054Z" fill="#93A8AC"/>
<path d="M51.7672 86.2656C46.2207 83.6383 46.3481 68.7504 49.9427 60.7226C58.2809 58.5332 54.7409 72.0345 55.1058 80.0624C55.3977 86.4846 59.363 80.7922 61.3091 77.1432L61.674 80.0624C58.3899 88.4551 53.5187 87.4333 51.7672 86.2656Z" stroke="#93A8AC" stroke-linecap="round" stroke-linejoin="round"/>
<path d="M51.7672 50.5054C53.1233 50.2621 55.6167 50.5054 54.7409 53.4246C53.6462 57.0736 50.2531 53.4246 51.7672 50.5054Z" stroke="#93A8AC" stroke-linecap="round" stroke-linejoin="round"/>
<path fill-rule="evenodd" clip-rule="evenodd" d="M66.4175 65.1016C74.4426 57.3218 79.2433 59.628 80.3381 61.4525C80.6725 62.5419 80.9773 62.171 81.5283 61.5006C82.2692 60.5991 83.4552 59.1559 85.7572 59.993C89.7711 61.4526 88.3115 65.4665 87.5817 67.291C86.8519 69.1155 83.5678 77.5082 87.5817 75.3188C91.5956 73.1294 93.0552 73.4943 94.1499 74.589C95.2446 75.6837 94.5148 76.4135 90.5009 77.5082C86.487 78.6029 83.9327 81.5221 82.838 88.8202C81.7433 96.1182 79.5947 107.43 77.4053 113.998C75.2159 120.567 66.4175 122.756 64.9579 109.984C63.7902 99.7672 74.202 87.2389 79.5539 82.2519C81.4401 78.2102 81.5355 76.1581 81.7502 71.5411C81.8263 69.9055 81.9173 67.9482 82.1082 65.4665C80.527 66.5612 73.3506 74.2241 69.3367 79.3327C63.1012 87.2687 56.2546 74.9538 66.4175 65.1016ZM76.6347 64.3718C75.4184 65.1016 72.2559 67.364 69.3367 70.5751C65.6877 74.589 66.4175 77.1025 71.5261 72.7237C76.6347 68.3449 78.8241 65.4665 79.9188 64.0069C81.0135 62.5473 78.8241 62.847 76.6347 64.3718ZM75.4992 109.62C76.9588 106.7 80.2837 94.0504 81.0135 88.0904C77.7294 90.2798 67.1473 104.511 68.9718 112.539C70.7963 120.567 73.6747 113.269 75.4992 109.62Z" fill="#93A8AC"/>
<path d="M80.3381 61.4525L80.816 61.3058L80.7981 61.2475L80.7668 61.1953L80.3381 61.4525ZM66.4175 65.1016L66.0694 64.7426L66.4175 65.1016ZM69.3367 79.3327L68.9435 79.0238L69.3367 79.3327ZM82.1082 65.4665L82.6067 65.5048C82.6215 65.3125 82.5244 65.1289 82.3571 65.0328C82.1898 64.9368 81.9822 64.9456 81.8236 65.0554L82.1082 65.4665ZM79.5539 82.2519L79.8948 82.6177L79.9659 82.5515L80.007 82.4634L79.5539 82.2519ZM64.9579 109.984L65.4546 109.928L64.9579 109.984ZM85.7572 59.993L85.9281 59.5231L85.7572 59.993ZM76.6347 64.3718L76.8919 64.8005L76.9065 64.7918L76.9204 64.7821L76.6347 64.3718ZM69.3367 70.5751L69.7066 70.9114L69.3367 70.5751ZM81.0135 88.0904L81.5098 88.1511L81.6421 87.0703L80.7361 87.6743L81.0135 88.0904ZM81.7502 71.5411L82.2497 71.5643L81.7502 71.5411ZM81.5283 61.5006L81.9145 61.8181V61.8181L81.5283 61.5006ZM80.7668 61.1953C80.1105 60.1014 78.4445 58.9971 75.9409 59.1767C73.4397 59.3561 70.1284 60.8078 66.0694 64.7426L66.7655 65.4606C70.7317 61.6156 73.8334 60.3304 76.0124 60.1741C78.1891 60.018 79.4709 60.9792 79.9093 61.7098L80.7668 61.1953ZM66.0694 64.7426C60.8781 69.7753 59.9552 75.518 61.2584 79.0604C61.9074 80.8244 63.1466 82.1106 64.7507 82.3377C66.359 82.5653 68.1145 81.6976 69.7298 79.6417L68.9435 79.0238C67.4411 80.9359 66.0025 81.5049 64.8909 81.3475C63.7751 81.1896 62.7687 80.2693 62.1969 78.7151C61.0587 75.621 61.794 70.2802 66.7655 65.4606L66.0694 64.7426ZM69.7298 79.6417C71.7254 77.1019 74.5131 73.9199 77.0015 71.2342C78.2451 69.892 79.4109 68.6771 80.3625 67.7311C81.3267 66.7727 82.0404 66.1216 82.3928 65.8776L81.8236 65.0554C81.3854 65.3588 80.6091 66.076 79.6575 67.0219C78.6935 67.9803 77.5178 69.2056 76.2679 70.5546C73.7693 73.2512 70.9619 76.455 68.9435 79.0238L69.7298 79.6417ZM79.213 81.8861C76.5102 84.4047 72.5392 88.8171 69.3863 93.893C66.2436 98.9525 63.8576 104.76 64.4611 110.041L65.4546 109.928C64.8905 104.991 67.1265 99.4264 70.2358 94.4207C73.3348 89.4314 77.2457 85.0862 79.8948 82.6177L79.213 81.8861ZM64.4611 110.041C65.1986 116.495 67.8365 119.482 70.8651 119.742C73.8269 119.996 76.739 117.578 77.8796 114.156L76.9309 113.84C75.8821 116.987 73.3003 118.947 70.9507 118.746C68.6678 118.55 66.1767 116.246 65.4546 109.928L64.4611 110.041ZM77.8796 114.156C80.0835 107.545 82.237 96.1972 83.3325 88.8943L82.3435 88.746C81.2495 96.0392 79.1059 107.315 76.9309 113.84L77.8796 114.156ZM83.3325 88.8943C83.874 85.2844 84.7687 82.818 85.9809 81.1296C87.1816 79.4572 88.7193 78.5124 90.6325 77.9906L90.3694 77.0258C88.2686 77.5988 86.5222 78.6609 85.1686 80.5463C83.8265 82.4157 82.8967 85.0579 82.3435 88.746L83.3325 88.8943ZM90.6325 77.9906C91.6435 77.7149 92.4606 77.4587 93.0996 77.2102C93.7306 76.9648 94.2245 76.7133 94.5612 76.4327C94.9067 76.1448 95.148 75.7698 95.1038 75.3056C95.0639 74.8872 94.799 74.531 94.5035 74.2355L93.7964 74.9426C94.0482 75.1944 94.1025 75.3399 94.1083 75.4004C94.1097 75.4152 94.1229 75.4963 93.9211 75.6645C93.7104 75.8401 93.3377 76.0447 92.7372 76.2782C92.1447 76.5086 91.3653 76.7542 90.3694 77.0258L90.6325 77.9906ZM94.5035 74.2355C93.8787 73.6107 93.1099 73.1696 91.9378 73.2229C90.8176 73.2738 89.3671 73.7755 87.3423 74.8799L87.8211 75.7578C89.8103 74.6728 91.0965 74.2622 91.9832 74.2219C92.8181 74.1839 93.3264 74.4726 93.7964 74.9426L94.5035 74.2355ZM87.3423 74.8799C86.871 75.1369 86.5877 75.1908 86.4394 75.1789C86.3431 75.1712 86.2903 75.1398 86.2359 75.0272C86.1643 74.879 86.1166 74.6208 86.1252 74.2331C86.1336 73.8561 86.1936 73.4056 86.2931 72.9082C86.6933 70.9072 87.6792 68.3935 88.0459 67.4767L87.1175 67.1053C86.7544 68.013 85.7333 70.608 85.3125 72.7121C85.2067 73.241 85.1356 73.754 85.1255 74.2109C85.1156 74.657 85.1619 75.103 85.3355 75.4622C85.5262 75.857 85.8697 76.1364 86.3593 76.1757C86.7969 76.2108 87.2889 76.0481 87.8211 75.7578L87.3423 74.8799ZM88.0459 67.4767C88.4092 66.5687 88.9975 65.0197 88.9481 63.489C88.923 62.7125 88.7339 61.918 88.2513 61.2107C87.7667 60.5004 87.0132 59.9177 85.9281 59.5231L85.5863 60.4629C86.5082 60.7981 87.0774 61.2644 87.4252 61.7743C87.7751 62.2871 87.928 62.8838 87.9486 63.5213C87.9905 64.8186 87.4841 66.1888 87.1175 67.1053L88.0459 67.4767ZM76.3774 63.943C75.1229 64.6957 71.9216 66.9884 68.9667 70.2388L69.7066 70.9114C72.5902 67.7395 75.7138 65.5074 76.8919 64.8005L76.3774 63.943ZM68.9667 70.2388C68.0348 71.2639 67.3652 72.2114 66.9735 72.9968C66.7782 73.3883 66.6427 73.758 66.586 74.089C66.5312 74.4092 66.5382 74.7661 66.7235 75.062C66.9282 75.389 67.2704 75.5203 67.6174 75.5264C67.9475 75.5323 68.3198 75.4302 68.7151 75.2583C69.5118 74.9118 70.5594 74.2109 71.8515 73.1033L71.2007 72.3441C69.9385 73.426 68.9791 74.0529 68.3162 74.3413C67.9817 74.4868 67.7611 74.5288 67.635 74.5266C67.5259 74.5247 67.5488 74.4958 67.571 74.5313C67.5739 74.5359 67.5353 74.4703 67.5717 74.2579C67.6062 74.0563 67.6987 73.7833 67.8684 73.4431C68.2065 72.7652 68.8141 71.8933 69.7066 70.9114L68.9667 70.2388ZM71.8515 73.1033C76.994 68.6954 79.2078 65.7882 80.3188 64.3069L79.5188 63.7069C78.4404 65.1448 76.2753 67.9944 71.2007 72.3441L71.8515 73.1033ZM80.3188 64.3069C80.473 64.1013 80.5942 63.895 80.6585 63.6917C80.7228 63.4884 80.7461 63.2306 80.612 62.9902C80.4772 62.7484 80.247 62.6383 80.0535 62.5924C79.861 62.5467 79.6506 62.5492 79.448 62.5738C78.6508 62.6706 77.478 63.1752 76.3489 63.9615L76.9204 64.7821C77.9808 64.0436 78.9974 63.6359 79.5685 63.5666C79.708 63.5496 79.7884 63.5573 79.8225 63.5654C79.8557 63.5732 79.788 63.5657 79.7387 63.4773C79.6901 63.3902 79.722 63.3365 79.705 63.3903C79.6881 63.444 79.6383 63.5476 79.5188 63.7069L80.3188 64.3069ZM80.5172 88.0296C80.1564 90.9763 79.1494 95.6034 78.0459 99.8701C76.9381 104.154 75.7538 107.992 75.052 109.396L75.9464 109.843C76.7041 108.328 77.9121 104.382 79.0141 100.12C80.1205 95.8424 81.1408 91.1644 81.5098 88.1511L80.5172 88.0296ZM75.052 109.396C74.5805 110.339 74.0795 111.437 73.5221 112.514C72.9679 113.585 72.4059 114.535 71.8676 115.119C71.5972 115.413 71.3709 115.572 71.195 115.632C71.0512 115.682 70.9332 115.672 70.7912 115.573C70.6196 115.453 70.3969 115.187 70.1559 114.66C69.9186 114.141 69.6833 113.413 69.4593 112.428L68.4842 112.65C68.7164 113.671 68.9701 114.471 69.2465 115.076C69.5194 115.672 69.8351 116.125 70.2185 116.392C70.6314 116.681 71.0847 116.728 71.5206 116.578C71.9244 116.439 72.2859 116.141 72.6033 115.797C73.2407 115.104 73.8545 114.047 74.4102 112.974C74.9626 111.907 75.5056 110.725 75.9464 109.843L75.052 109.396ZM69.4593 112.428C69.0314 110.545 69.3239 108.249 70.0986 105.79C70.8708 103.339 72.1066 100.774 73.5085 98.3776C74.9095 95.9823 76.4689 93.7677 77.8791 92.019C79.3013 90.2556 80.5381 89.0082 81.2908 88.5064L80.7361 87.6743C79.8468 88.2672 78.5293 89.6198 77.1007 91.3913C75.6602 93.1775 74.0723 95.433 72.6453 97.8727C71.2192 100.311 69.9463 102.946 69.1449 105.49C68.346 108.025 67.9999 110.519 68.4842 112.65L69.4593 112.428ZM81.6097 65.4282C81.4181 67.918 81.3268 69.8819 81.2507 71.5178L82.2497 71.5643C82.3257 69.9292 82.4165 67.9784 82.6067 65.5048L81.6097 65.4282ZM81.2507 71.5178C81.143 73.8355 81.0662 75.4673 80.7867 77.0239C80.5095 78.5676 80.03 80.0494 79.1008 82.0405L80.007 82.4634C80.964 80.4127 81.4752 78.8476 81.771 77.2006C82.0644 75.5664 82.1427 73.8637 82.2497 71.5643L81.2507 71.5178ZM85.9281 59.5231C84.6452 59.0566 83.6236 59.2168 82.8181 59.6558C82.0437 60.0777 81.5056 60.7407 81.142 61.1831L81.9145 61.8181C82.2918 61.359 82.7172 60.8496 83.2966 60.5339C83.8448 60.2351 84.5672 60.0923 85.5863 60.4629L85.9281 59.5231ZM81.142 61.1831C80.9991 61.357 80.8932 61.4851 80.8021 61.5768C80.7581 61.6211 80.7287 61.6453 80.7117 61.6571C80.6934 61.6699 80.7065 61.6564 80.7464 61.6478C80.7962 61.637 80.8606 61.6399 80.9209 61.667C80.9731 61.6904 80.9908 61.7177 80.9819 61.7064C80.9729 61.6948 80.9506 61.6615 80.9192 61.5911C80.8885 61.5223 80.8539 61.4292 80.816 61.3058L79.8601 61.5993C79.9476 61.8843 80.0506 62.1385 80.1934 62.3214C80.2687 62.418 80.3719 62.5167 80.5117 62.5795C80.6599 62.6459 80.8143 62.6561 80.9575 62.6252C81.2054 62.5717 81.3948 62.3991 81.5116 62.2815C81.6431 62.1491 81.7819 61.9795 81.9145 61.8181L81.142 61.1831Z" fill="#93A8AC"/>
<path fill-rule="evenodd" clip-rule="evenodd" d="M104.732 53.7897C101.935 55.9791 95.9017 60.9417 94.1502 63.2771C91.9608 66.1963 90.1363 76.0486 98.529 73.8592C101.261 73.1464 104.26 71.5491 106.076 70.8542C109.84 69.4149 113.125 70.1763 113.125 73.1294C113.125 76.8254 110.206 77.1704 107.135 78.9804C104.064 80.7904 100.592 81.9325 95.2448 87.7255C86.4872 97.2129 97.0693 100.862 101.813 97.5778C105.863 94.774 113.438 85.1712 114.54 82.362C114.826 81.6344 116.543 79.1815 116.774 78.63C119.143 77.5353 120.238 76.8055 124.437 76.0757C125.567 75.8792 126.772 73.7133 124.437 73.1294C122.102 72.5456 117.382 73.3727 116.044 73.8592C115.436 71.4266 114.585 66.5612 110.206 66.5612C108.265 66.5612 105.727 67.2497 103.471 67.8615C99.367 68.9749 96.1974 69.8347 99.2588 65.8314C103.04 60.8869 106.125 58.4926 107.592 57.3548C107.965 57.0652 108.233 56.857 108.381 56.7089C109.111 55.9791 110.936 53.7897 104.732 53.7897ZM99.9886 89.1851C101.74 86.8497 112.03 80.7923 114.22 80.7923L110.571 86.6308C106.828 91.3215 103.054 96.1912 99.2588 96.4831C94.9036 96.8181 97.2005 92.847 99.4198 89.9351C99.6178 89.6754 99.8093 89.4241 99.9886 89.1851Z" fill="#93A8AC"/>
<path d="M104.732 53.7897V53.2897C104.621 53.2897 104.512 53.3271 104.424 53.3959L104.732 53.7897ZM94.1502 63.2771L94.5502 63.5771L94.1502 63.2771ZM98.529 73.8592L98.6552 74.343L98.529 73.8592ZM95.2448 87.7255L95.6122 88.0646L95.2448 87.7255ZM101.813 97.5778L102.098 97.9889L101.813 97.5778ZM116.774 78.63L116.564 78.1761L116.388 78.2576L116.313 78.4367L116.774 78.63ZM124.437 76.0757L124.523 76.5683L124.437 76.0757ZM116.044 73.8592L115.559 73.9805L115.694 74.5187L116.215 74.3291L116.044 73.8592ZM99.2588 65.8314L98.8616 65.5277L99.2588 65.8314ZM108.381 56.7089L108.028 56.3553V56.3553L108.381 56.7089ZM114.22 80.7923L114.644 81.0573C114.74 80.9032 114.745 80.7089 114.657 80.55C114.569 80.391 114.401 80.2923 114.22 80.2923V80.7923ZM99.9886 89.1851L100.389 89.4851L99.9886 89.1851ZM99.2588 96.4831L99.2972 96.9816H99.2972L99.2588 96.4831ZM110.571 86.6308L110.962 86.9426L110.979 86.9201L110.995 86.8958L110.571 86.6308ZM106.076 70.8542L106.255 71.3212L106.076 70.8542ZM114.54 82.362L114.075 82.1794L114.54 82.362ZM103.471 67.8615L103.602 68.3441L103.471 67.8615ZM107.592 57.3548L107.285 56.9598V56.9598L107.592 57.3548ZM99.4198 89.9351L99.0221 89.6321L99.4198 89.9351ZM104.424 53.3959C103.02 54.4948 100.806 56.2884 98.7209 58.1014C96.6506 59.9019 94.663 61.76 93.7502 62.9771L94.5502 63.5771C95.3889 62.4589 97.2936 60.6679 99.3771 58.8559C101.446 57.0564 103.647 55.2739 105.04 54.1834L104.424 53.3959ZM93.7502 62.9771C93.1523 63.7742 92.6056 65.0023 92.2475 66.3408C91.8884 67.683 91.7053 69.187 91.8752 70.5459C92.0447 71.9023 92.5772 73.1815 93.7156 73.9537C94.8554 74.727 96.4819 74.91 98.6552 74.343L98.4028 73.3754C96.3798 73.9032 95.087 73.6757 94.277 73.1262C93.4654 72.5756 93.0172 71.6198 92.8675 70.4219C92.718 69.2265 92.877 67.8569 93.2135 66.5992C93.551 65.3377 94.0534 64.2396 94.5502 63.5771L93.7502 62.9771ZM94.8774 87.3863C92.6519 89.7973 91.5928 91.9017 91.412 93.6786C91.228 95.487 91.9611 96.8926 93.1567 97.8338C94.3336 98.7603 95.9409 99.2279 97.5446 99.2579C99.15 99.288 100.809 98.881 102.098 97.9889L101.528 97.1667C100.445 97.9167 99.0027 98.2851 97.5634 98.2581C96.1225 98.2311 94.7421 97.8093 93.7752 97.0481C92.8271 96.3016 92.2602 95.2213 92.4069 93.7798C92.5567 92.3068 93.459 90.3973 95.6122 88.0646L94.8774 87.3863ZM116.984 79.0839C118.195 78.5242 119.023 78.0861 120.095 77.6842C121.152 77.2875 122.444 76.9295 124.523 76.5683L124.351 75.5831C122.23 75.9517 120.875 76.3235 119.743 76.7479C118.626 77.167 117.722 77.6411 116.564 78.1761L116.984 79.0839ZM124.523 76.5683C124.935 76.4966 125.312 76.257 125.599 75.9649C125.889 75.67 126.124 75.2838 126.223 74.8625C126.324 74.4338 126.286 73.9516 125.993 73.5256C125.705 73.1056 125.218 72.8093 124.558 72.6444L124.316 73.6145C124.824 73.7415 125.061 73.9348 125.169 74.0914C125.272 74.2417 125.3 74.4228 125.25 74.6331C125.199 74.8509 125.067 75.0795 124.886 75.2643C124.701 75.4518 124.504 75.5566 124.351 75.5831L124.523 76.5683ZM124.558 72.6444C123.296 72.3287 121.453 72.401 119.808 72.5964C118.154 72.7928 116.595 73.1267 115.873 73.3893L116.215 74.3291C116.831 74.1052 118.301 73.7823 119.926 73.5894C121.558 73.3956 123.243 73.3463 124.316 73.6145L124.558 72.6444ZM116.529 73.738C116.234 72.5578 115.853 70.6495 114.977 69.057C114.084 67.4326 112.633 66.0612 110.206 66.0612V67.0612C112.157 67.0612 113.322 68.1224 114.101 69.5389C114.897 70.9873 115.246 72.728 115.559 73.9805L116.529 73.738ZM108.735 57.0624C108.927 56.8702 109.215 56.5595 109.425 56.1938C109.629 55.8392 109.815 55.3327 109.628 54.8074C109.437 54.2723 108.925 53.9027 108.172 53.6661C107.411 53.4273 106.304 53.2897 104.732 53.2897V54.2897C106.263 54.2897 107.253 54.4257 107.872 54.6202C108.499 54.817 108.649 55.0403 108.686 55.1438C108.726 55.2571 108.708 55.4347 108.558 55.6959C108.414 55.946 108.2 56.1826 108.028 56.3553L108.735 57.0624ZM114.22 80.2923C113.858 80.2923 113.391 80.4116 112.889 80.5844C112.372 80.7622 111.767 81.0156 111.108 81.3219C109.789 81.935 108.228 82.7734 106.686 83.6822C105.144 84.5911 103.611 85.5755 102.351 86.4827C101.109 87.3768 100.078 88.2327 99.5886 88.8851L100.389 89.4851C100.775 88.9697 101.687 88.1927 102.935 87.2943C104.165 86.4088 105.671 85.441 107.194 84.5437C108.717 83.6462 110.248 82.8244 111.53 82.2287C112.171 81.9306 112.742 81.6925 113.214 81.5299C113.701 81.3624 114.034 81.2923 114.22 81.2923V80.2923ZM99.2972 96.9816C101.381 96.8213 103.383 95.4186 105.283 93.5643C107.197 91.6973 109.098 89.2783 110.962 86.9426L110.18 86.3189C108.301 88.6739 106.443 91.0351 104.585 92.8486C102.714 94.6748 100.931 95.853 99.2205 95.9846L99.2972 96.9816ZM110.995 86.8958L114.644 81.0573L113.796 80.5273L110.147 86.3658L110.995 86.8958ZM98.6552 74.343C100.061 73.9763 101.523 73.3857 102.846 72.8082C104.19 72.2219 105.36 71.6635 106.255 71.3212L105.898 70.3872C104.976 70.7398 103.739 71.3275 102.446 71.8917C101.133 72.4648 99.7297 73.0293 98.4028 73.3754L98.6552 74.343ZM106.255 71.3212C108.078 70.6239 109.722 70.4867 110.871 70.8244C111.439 70.9912 111.87 71.2685 112.161 71.6357C112.448 71.9999 112.625 72.4878 112.625 73.1294H113.625C113.625 72.2944 113.391 71.5797 112.945 71.0156C112.502 70.4545 111.877 70.0777 111.153 69.8649C109.719 69.4434 107.838 69.6452 105.898 70.3872L106.255 71.3212ZM112.625 73.1294C112.625 73.9853 112.457 74.6131 112.184 75.106C111.91 75.6003 111.511 75.9937 110.996 76.3517C110.475 76.7139 109.856 77.0269 109.147 77.3731C108.448 77.7145 107.669 78.085 106.881 78.5497L107.389 79.4112C108.136 78.9708 108.874 78.6194 109.586 78.2716C110.288 77.9285 110.974 77.5849 111.567 77.1727C112.166 76.7562 112.689 76.2571 113.058 75.5907C113.428 74.9229 113.625 74.1216 113.625 73.1294H112.625ZM106.881 78.5497C103.852 80.3346 100.289 81.5238 94.8774 87.3863L95.6122 88.0646C100.895 82.3413 104.275 81.2462 107.389 79.4112L106.881 78.5497ZM102.098 97.9889C104.186 96.5433 107.13 93.3921 109.669 90.2885C110.945 88.729 112.13 87.167 113.067 85.8152C113.995 84.4762 114.707 83.3069 115.006 82.5447L114.075 82.1794C113.823 82.8217 113.174 83.9062 112.245 85.2454C111.326 86.5718 110.157 88.1125 108.895 89.6553C106.358 92.7563 103.49 95.8085 101.528 97.1667L102.098 97.9889ZM115.006 82.5447C115.06 82.4075 115.199 82.152 115.406 81.8069C115.607 81.4726 115.852 81.0858 116.099 80.6991C116.344 80.3151 116.592 79.9296 116.792 79.6072C116.984 79.2986 117.159 79.0055 117.235 78.8234L116.313 78.4367C116.274 78.5303 116.147 78.7506 115.943 79.0798C115.747 79.3951 115.505 79.7717 115.256 80.1608C115.009 80.5472 114.757 80.9446 114.549 81.2921C114.346 81.6288 114.164 81.9528 114.075 82.1794L115.006 82.5447ZM110.206 66.0612C108.183 66.0612 105.572 66.7735 103.34 67.379L103.602 68.3441C105.881 67.7258 108.346 67.0612 110.206 67.0612V66.0612ZM103.34 67.379C102.31 67.6584 101.357 67.9167 100.548 68.0878C99.7188 68.2629 99.1163 68.3285 98.7562 68.2714C98.6732 68.2582 98.6179 68.2405 98.5833 68.2246C98.5666 68.217 98.5561 68.2104 98.5501 68.2061C98.5472 68.204 98.5453 68.2024 98.5441 68.2013C98.5431 68.2004 98.5426 68.1998 98.5426 68.1998C98.5426 68.1998 98.5428 68.2 98.5431 68.2005C98.5432 68.2007 98.5433 68.2008 98.5434 68.201C98.5435 68.2011 98.5435 68.2012 98.5435 68.2012C98.5435 68.2012 98.5434 68.201 98.5433 68.2007C98.5432 68.2004 98.543 68.1999 98.5427 68.1992C98.5422 68.1977 98.5414 68.1952 98.5406 68.1915C98.5372 68.1761 98.5324 68.138 98.5429 68.0677C98.5648 67.9203 98.6444 67.6904 98.8297 67.3562C99.0121 67.0275 99.2819 66.6242 99.656 66.1351L98.8616 65.5277C98.4703 66.0394 98.1695 66.485 97.9553 66.8711C97.7441 67.2519 97.6011 67.6028 97.5538 67.9204C97.5049 68.2485 97.5543 68.5853 97.7857 68.8533C98.0037 69.1059 98.3132 69.2136 98.5996 69.259C99.1623 69.3483 99.9304 69.2403 100.754 69.0662C101.598 68.888 102.58 68.6213 103.602 68.3441L103.34 67.379ZM99.656 66.1351C103.401 61.2382 106.449 58.874 107.898 57.7499L107.285 56.9598C105.801 58.1111 102.679 60.5356 98.8616 65.5277L99.656 66.1351ZM107.898 57.7499C108.257 57.4713 108.559 57.2387 108.735 57.0624L108.028 56.3553C107.908 56.4752 107.673 56.659 107.285 56.9598L107.898 57.7499ZM99.2205 95.9846C98.1717 96.0652 97.694 95.8678 97.492 95.6612C97.3087 95.4737 97.2215 95.1364 97.3608 94.5404C97.4973 93.9562 97.8265 93.2487 98.2763 92.4884C98.7223 91.7344 99.2695 90.9571 99.8175 90.2382L99.0221 89.6321C98.4604 90.369 97.8883 91.1801 97.4156 91.9792C96.9466 92.772 96.5577 93.5822 96.387 94.3129C96.219 95.0318 96.2355 95.8065 96.777 96.3603C97.2999 96.8951 98.1683 97.0684 99.2972 96.9816L99.2205 95.9846ZM99.8175 90.2382C100.015 89.9788 100.208 89.726 100.389 89.4851L99.5886 88.8851C99.4107 89.1223 99.2203 89.372 99.0221 89.6321L99.8175 90.2382Z" fill="#93A8AC"/>
</svg>
