<svg width="51" height="57" viewBox="0 0 51 57" fill="none" xmlns="http://www.w3.org/2000/svg">
<g clip-path="url(#clip0)">
<path d="M44.741 3.5625H5.36892C2.40371 3.5625 0 5.95494 0 8.90625V48.0938C0 51.0451 2.40371 53.4375 5.36892 53.4375H44.741C47.7062 53.4375 50.1099 51.0451 50.1099 48.0938V8.90625C50.1099 5.95494 47.7062 3.5625 44.741 3.5625ZM19.9228 29.1795C9.77915 21.8523 9.88251 21.8338 7.15856 19.7237V16.9219C7.15856 15.4462 8.36042 14.25 9.84302 14.25H40.2669C41.7495 14.25 42.9514 15.4462 42.9514 16.9219V19.7237C40.2254 21.8355 40.3302 21.8527 30.1871 29.1797C29.0126 30.0319 26.6758 32.0875 25.055 32.0624C23.4328 32.0867 21.0991 30.0332 19.9228 29.1795ZM42.9514 24.2445V40.0781C42.9514 41.5538 41.7495 42.75 40.2669 42.75H9.84302C8.36042 42.75 7.15856 41.5538 7.15856 40.0781V24.2445C8.7198 25.4462 10.8865 27.054 17.8184 32.0613C19.4025 33.2125 22.066 35.6399 25.0546 35.6249C28.062 35.6398 30.7632 33.1711 32.2937 32.0596C39.2239 27.0537 41.3901 25.446 42.9514 24.2445Z" fill="#391F2A"/>
</g>
<defs>
<clipPath id="clip0">
<rect width="50.1099" height="57" fill="white"/>
</clipPath>
</defs>
</svg>
