<svg width="526" height="227" viewBox="0 0 526 227" fill="none" xmlns="http://www.w3.org/2000/svg">
<path d="M15.1711 40C7.83773 75.3333 -3.82894 150.8 8.17106 170C23.1711 194 68.1711 195 80.1711 170M80.1711 170C89.7711 150 84.1711 82.3333 80.1711 51M80.1711 170C81.5044 183 89.3711 206.6 110.171 197M122.171 3C121.057 36.2282 119.695 90.5662 119.536 138M122.171 224C120.044 209.112 119.409 175.741 119.536 138M119.536 138C120.081 132 127.171 118.4 151.171 112C181.171 104 215.171 193 212.171 205M432.171 3C431.057 36.2282 429.695 90.5662 429.536 138M429.536 138C429.409 175.741 430.044 209.112 432.171 224M429.536 138C430.081 132 437.171 118.4 461.171 112C491.171 104 525.171 193 522.171 205M322.171 101C308.504 105 281.171 121.4 281.171 155C281.171 197 331.171 197 346.171 197C361.171 197 416.171 169 408.171 138C401.771 113.2 356.171 91.0488 322.171 101Z" stroke="#7C3840" stroke-width="6" stroke-linecap="round" stroke-linejoin="round"/>
</svg>
