<svg width="131" height="62" viewBox="0 0 131 62" fill="none" xmlns="http://www.w3.org/2000/svg">
<g id="Kathryn Gesner">
<path d="M17.4802 26.385C18.2852 26.385 19.6152 26.175 20.6652 25.615C21.4702 25.23 21.5752 24.53 21.2252 23.865L21.0152 23.445C20.6652 22.745 20.1402 22.64 19.3702 22.92C18.7752 23.2 18.2502 23.2 17.9002 23.2C16.4302 23.2 15.1702 21.835 14.0852 20.26L9.6052 14.135L17.8302 2.86501C18.3202 2.165 18.2502 1.50001 17.4452 1.50001H15.5202C14.8552 1.50001 14.3652 1.71001 13.9452 2.30501L6.0352 13.4V2.76001C6.0352 1.95501 5.5802 1.50001 4.7752 1.50001H3.5852C2.7802 1.50001 2.3252 1.95501 2.3252 2.76001V24.74C2.3252 25.545 2.7802 26 3.5852 26H4.7752C5.5802 26 6.0352 25.545 6.0352 24.74V15.08L10.6902 21.66C11.8802 23.515 13.9102 26.385 17.4802 26.385Z" fill="#391F2A"/>
<path d="M31.0911 26.385C33.4361 26.385 35.7111 25.58 37.3561 23.235V24.74C37.3561 25.545 37.8461 26 38.6511 26H39.7011C40.5061 26 40.9611 25.545 40.9611 24.74V9.72501C40.9611 8.92001 40.5061 8.46501 39.7011 8.46501H38.6511C37.8461 8.46501 37.3561 8.92001 37.3561 9.72501V11.23C35.7111 8.88501 33.4361 8.08001 31.0911 8.08001C25.8761 8.08001 22.4111 12.175 22.4111 17.215C22.4111 22.255 25.8761 26.385 31.0911 26.385ZM31.5811 23.235C28.0461 23.235 26.0161 20.505 26.0161 17.215C26.0161 13.96 28.0461 11.195 31.5811 11.195C35.0461 11.195 37.3911 13.75 37.4261 17.215C37.3911 20.68 35.0461 23.235 31.5811 23.235Z" fill="#391F2A"/>
<path d="M52.6697 26.385C56.0297 26.385 57.9197 24.46 57.9197 21.835C57.9197 21.8 57.9197 21.135 57.7797 20.54C57.7097 20.085 57.3947 19.91 56.9747 19.91H55.3647C54.8747 19.91 54.6647 20.225 54.7347 20.715C54.8047 20.995 54.8047 21.24 54.8047 21.38C54.8047 22.64 53.8247 23.27 52.7397 23.27C51.6197 23.27 50.7097 22.535 50.7097 20.645V11.265H55.5047C55.9597 11.265 56.2047 10.985 56.2047 10.53V9.165C56.2047 8.71001 55.9597 8.46501 55.5047 8.46501H50.7097V4.51001C50.7097 3.84501 50.3247 3.42501 49.6597 3.42501H48.9247C48.2947 3.42501 47.9097 3.77501 47.8047 4.44001L47.1747 8.46501H44.9697C44.5147 8.46501 44.2697 8.71001 44.2697 9.165V10.53C44.2697 10.985 44.5147 11.265 44.9697 11.265H47.1047V20.435C47.1047 24.95 49.8697 26.385 52.6697 26.385Z" fill="#391F2A"/>
<path d="M62.3245 26H63.3745C64.1795 26 64.6345 25.545 64.6345 24.74V17.775C64.6345 12.455 68.2745 11.23 70.0945 11.23C71.9495 11.23 73.5945 12.525 73.5945 16.13V24.74C73.5945 25.545 74.0495 26 74.8545 26H75.9045C76.7095 26 77.1995 25.545 77.1995 24.74V16.095C77.1995 10.6 74.3645 8.08001 70.4795 8.08001C67.6445 8.08001 65.4045 9.44501 64.6345 11.895V1.95501C64.6345 1.15001 64.1795 0.695007 63.3745 0.695007H62.3245C61.5195 0.695007 61.0295 1.15001 61.0295 1.95501V24.74C61.0295 25.545 61.5195 26 62.3245 26Z" fill="#391F2A"/>
<path d="M83.4475 26H84.4975C85.3025 26 85.7575 25.545 85.7575 24.74V19.315C85.7575 12.14 88.9075 11.51 90.1675 11.51C90.4825 11.51 90.7975 11.545 91.1125 11.615C91.7075 11.755 92.0575 11.405 92.0575 10.53V9.51501C92.0575 8.81501 91.9525 8.22001 91.2175 8.11501L90.4475 8.08001C88.3475 8.08001 86.3525 9.58501 85.7575 12.385V9.72501C85.7575 8.92001 85.3025 8.46501 84.4975 8.46501H83.4475C82.6425 8.46501 82.1525 8.92001 82.1525 9.72501V24.74C82.1525 25.545 82.6425 26 83.4475 26Z" fill="#391F2A"/>
<path d="M98.7466 33.84H99.5866C100.322 33.84 100.777 33.56 101.057 32.86L110.822 9.93501C111.207 9.02501 110.787 8.46501 109.842 8.46501H108.407C107.672 8.46501 107.147 8.78001 106.902 9.48001L102.422 21.31L97.5566 9.44501C97.3116 8.78001 96.8566 8.46501 96.1216 8.46501H94.7216C93.7766 8.46501 93.3566 9.06 93.7416 9.93501L100.462 25.335L97.7666 32.37C97.4166 33.245 97.8016 33.84 98.7466 33.84Z" fill="#391F2A"/>
<path d="M115.918 26H116.968C117.773 26 118.228 25.545 118.228 24.74V17.775C118.228 12.455 121.868 11.23 123.688 11.23C125.543 11.23 127.188 12.525 127.188 16.13V24.74C127.188 25.545 127.643 26 128.448 26H129.498C130.303 26 130.793 25.545 130.793 24.74V16.095C130.793 10.6 127.958 8.08001 124.073 8.08001C121.238 8.08001 118.998 9.44501 118.228 11.895V9.72501C118.228 8.92001 117.773 8.46501 116.968 8.46501H115.918C115.113 8.46501 114.623 8.92001 114.623 9.72501V24.74C114.623 25.545 115.113 26 115.918 26Z" fill="#391F2A"/>
<path d="M13.6302 61.385C15.8702 61.385 18.9152 60.895 21.7152 58.83C22.5202 58.2 22.8002 57.64 22.8002 56.975V49.905C22.8002 49.1 22.3452 48.645 21.5402 48.645H13.8752C13.0702 48.645 12.6152 49.1 12.6152 49.905V50.325C12.6152 51.13 13.0702 51.62 13.8752 51.62H19.4052V56.485C17.7602 57.535 15.9402 58.06 13.8052 58.06C7.5052 58.06 4.3552 53.475 4.3552 48.785C4.3552 43.57 8.3452 39.44 13.3152 39.44C15.1702 39.44 16.8502 39.475 19.5802 40.945C20.3502 41.365 20.9452 41.26 21.3302 40.49L21.6802 39.895C22.0652 39.16 21.9252 38.565 21.2602 38.145C18.8802 36.675 16.3252 36.115 13.3152 36.115C6.2452 36.115 0.575195 41.75 0.575195 48.82C0.575195 55.715 6.0352 61.385 13.6302 61.385Z" fill="#391F2A"/>
<path d="M36.0075 61.385C38.2125 61.385 40.5575 60.86 42.5875 59.215C43.3925 58.55 43.3925 57.815 42.8325 57.22L42.5875 56.94C42.0275 56.38 41.4675 56.345 40.8025 56.765C39.2975 57.78 37.7575 58.235 36.0425 58.235C32.2275 58.235 29.5325 55.855 29.6375 52.6H43.2175C44.0575 52.6 44.5475 52.145 44.4425 51.305C43.9525 45.705 39.9275 43.08 35.5175 43.08C30.0575 43.08 26.0675 47.175 26.0675 52.285C26.0675 57.29 29.8475 61.385 36.0075 61.385ZM29.9525 49.94C31.0375 46.965 33.5575 46.16 35.5875 46.16C37.5125 46.16 39.9625 46.825 40.8725 49.94H29.9525Z" fill="#391F2A"/>
<path d="M53.4613 61.385C56.8913 61.385 59.8313 59.46 59.8313 56.1C59.8313 54.21 58.9213 52.145 55.5613 51.095L53.0413 50.255C52.0263 49.94 51.0113 49.345 51.0113 48.225C51.0113 47 51.9913 46.055 53.5313 46.055C54.3013 46.055 55.0713 46.265 55.6663 46.965C56.1563 47.595 56.5763 47.91 57.3113 47.7L57.9763 47.56C58.8163 47.385 59.2363 46.755 58.7813 45.95C57.6263 43.815 55.5613 43.08 53.4263 43.08C49.9263 43.08 47.5463 45.32 47.5463 48.33C47.5463 50.815 49.2263 52.32 51.9213 53.125L54.2663 53.93C55.4913 54.35 56.4363 54.945 56.4363 56.065C56.4363 57.395 55.1763 58.375 53.4963 58.375C52.1313 58.375 50.9413 57.815 50.2413 56.94C49.7863 56.345 49.3663 56.03 48.6663 56.205L47.9313 56.415C47.0913 56.625 46.6713 57.185 47.0913 57.99C48.2813 60.23 50.7663 61.385 53.4613 61.385Z" fill="#391F2A"/>
<path d="M65.093 61H66.1431C66.9481 61 67.4031 60.545 67.4031 59.74V52.775C67.4031 47.455 71.0431 46.23 72.8631 46.23C74.7181 46.23 76.3631 47.525 76.3631 51.13V59.74C76.3631 60.545 76.8181 61 77.6231 61H78.673C79.478 61 79.968 60.545 79.968 59.74V51.095C79.968 45.6 77.1331 43.08 73.2481 43.08C70.4131 43.08 68.1731 44.445 67.4031 46.895V44.725C67.4031 43.92 66.9481 43.465 66.1431 43.465H65.093C64.288 43.465 63.798 43.92 63.798 44.725V59.74C63.798 60.545 64.288 61 65.093 61Z" fill="#391F2A"/>
<path d="M93.6345 61.385C95.8395 61.385 98.1845 60.86 100.214 59.215C101.019 58.55 101.019 57.815 100.459 57.22L100.214 56.94C99.6545 56.38 99.0945 56.345 98.4295 56.765C96.9245 57.78 95.3845 58.235 93.6695 58.235C89.8545 58.235 87.1595 55.855 87.2645 52.6H100.844C101.684 52.6 102.174 52.145 102.069 51.305C101.579 45.705 97.5545 43.08 93.1445 43.08C87.6845 43.08 83.6945 47.175 83.6945 52.285C83.6945 57.29 87.4745 61.385 93.6345 61.385ZM87.5795 49.94C88.6645 46.965 91.1845 46.16 93.2145 46.16C95.1395 46.16 97.5895 46.825 98.4995 49.94H87.5795Z" fill="#391F2A"/>
<path d="M107.168 61H108.218C109.023 61 109.478 60.545 109.478 59.74V54.315C109.478 47.14 112.628 46.51 113.888 46.51C114.203 46.51 114.518 46.545 114.833 46.615C115.428 46.755 115.778 46.405 115.778 45.53V44.515C115.778 43.815 115.673 43.22 114.938 43.115L114.168 43.08C112.068 43.08 110.073 44.585 109.478 47.385V44.725C109.478 43.92 109.023 43.465 108.218 43.465H107.168C106.363 43.465 105.873 43.92 105.873 44.725V59.74C105.873 60.545 106.363 61 107.168 61Z" fill="#391F2A"/>
</g>
</svg>
