<svg width="131" height="62" viewBox="0 0 131 62" fill="none" xmlns="http://www.w3.org/2000/svg">
<path d="M17.48 26.385C18.285 26.385 19.615 26.175 20.665 25.615C21.47 25.23 21.575 24.53 21.225 23.865L21.015 23.445C20.665 22.745 20.14 22.64 19.37 22.92C18.775 23.2 18.25 23.2 17.9 23.2C16.43 23.2 15.17 21.835 14.085 20.26L9.605 14.135L17.83 2.865C18.32 2.165 18.25 1.5 17.445 1.5H15.52C14.855 1.5 14.365 1.71 13.945 2.305L6.035 13.4V2.76C6.035 1.955 5.58 1.5 4.775 1.5H3.585C2.78 1.5 2.325 1.955 2.325 2.76V24.74C2.325 25.545 2.78 26 3.585 26H4.775C5.58 26 6.035 25.545 6.035 24.74V15.08L10.69 21.66C11.88 23.515 13.91 26.385 17.48 26.385ZM31.0909 26.385C33.4359 26.385 35.7109 25.58 37.3559 23.235V24.74C37.3559 25.545 37.8459 26 38.6509 26H39.7009C40.5059 26 40.9609 25.545 40.9609 24.74V9.725C40.9609 8.92 40.5059 8.465 39.7009 8.465H38.6509C37.8459 8.465 37.3559 8.92 37.3559 9.725V11.23C35.7109 8.885 33.4359 8.08 31.0909 8.08C25.8759 8.08 22.4109 12.175 22.4109 17.215C22.4109 22.255 25.8759 26.385 31.0909 26.385ZM31.5809 23.235C28.0459 23.235 26.0159 20.505 26.0159 17.215C26.0159 13.96 28.0459 11.195 31.5809 11.195C35.0459 11.195 37.3909 13.75 37.4259 17.215C37.3909 20.68 35.0459 23.235 31.5809 23.235ZM52.6695 26.385C56.0295 26.385 57.9195 24.46 57.9195 21.835C57.9195 21.8 57.9195 21.135 57.7795 20.54C57.7095 20.085 57.3945 19.91 56.9745 19.91H55.3645C54.8745 19.91 54.6645 20.225 54.7345 20.715C54.8045 20.995 54.8045 21.24 54.8045 21.38C54.8045 22.64 53.8245 23.27 52.7395 23.27C51.6195 23.27 50.7095 22.535 50.7095 20.645V11.265H55.5045C55.9595 11.265 56.2045 10.985 56.2045 10.53V9.165C56.2045 8.71 55.9595 8.465 55.5045 8.465H50.7095V4.51C50.7095 3.845 50.3245 3.425 49.6595 3.425H48.9245C48.2945 3.425 47.9095 3.775 47.8045 4.44L47.1745 8.465H44.9695C44.5145 8.465 44.2695 8.71 44.2695 9.165V10.53C44.2695 10.985 44.5145 11.265 44.9695 11.265H47.1045V20.435C47.1045 24.95 49.8695 26.385 52.6695 26.385ZM62.3243 26H63.3743C64.1793 26 64.6343 25.545 64.6343 24.74V17.775C64.6343 12.455 68.2743 11.23 70.0943 11.23C71.9493 11.23 73.5943 12.525 73.5943 16.13V24.74C73.5943 25.545 74.0493 26 74.8543 26H75.9043C76.7093 26 77.1993 25.545 77.1993 24.74V16.095C77.1993 10.6 74.3643 8.08 70.4793 8.08C67.6443 8.08 65.4043 9.445 64.6343 11.895V1.955C64.6343 1.15 64.1793 0.694998 63.3743 0.694998H62.3243C61.5193 0.694998 61.0293 1.15 61.0293 1.955V24.74C61.0293 25.545 61.5193 26 62.3243 26ZM83.4473 26H84.4973C85.3023 26 85.7573 25.545 85.7573 24.74V19.315C85.7573 12.14 88.9073 11.51 90.1673 11.51C90.4823 11.51 90.7973 11.545 91.1123 11.615C91.7073 11.755 92.0573 11.405 92.0573 10.53V9.515C92.0573 8.815 91.9523 8.22 91.2173 8.115L90.4473 8.08C88.3473 8.08 86.3523 9.585 85.7573 12.385V9.725C85.7573 8.92 85.3023 8.465 84.4973 8.465H83.4473C82.6423 8.465 82.1523 8.92 82.1523 9.725V24.74C82.1523 25.545 82.6423 26 83.4473 26ZM98.7464 33.84H99.5864C100.321 33.84 100.776 33.56 101.056 32.86L110.821 9.935C111.206 9.025 110.786 8.465 109.841 8.465H108.406C107.671 8.465 107.146 8.78 106.901 9.48L102.421 21.31L97.5564 9.445C97.3114 8.78 96.8564 8.465 96.1214 8.465H94.7214C93.7764 8.465 93.3564 9.06 93.7414 9.935L100.461 25.335L97.7664 32.37C97.4164 33.245 97.8014 33.84 98.7464 33.84ZM115.918 26H116.968C117.773 26 118.228 25.545 118.228 24.74V17.775C118.228 12.455 121.868 11.23 123.688 11.23C125.543 11.23 127.188 12.525 127.188 16.13V24.74C127.188 25.545 127.643 26 128.448 26H129.498C130.303 26 130.793 25.545 130.793 24.74V16.095C130.793 10.6 127.958 8.08 124.073 8.08C121.238 8.08 118.998 9.445 118.228 11.895V9.725C118.228 8.92 117.773 8.465 116.968 8.465H115.918C115.113 8.465 114.623 8.92 114.623 9.725V24.74C114.623 25.545 115.113 26 115.918 26ZM13.63 61.385C15.87 61.385 18.915 60.895 21.715 58.83C22.52 58.2 22.8 57.64 22.8 56.975V49.905C22.8 49.1 22.345 48.645 21.54 48.645H13.875C13.07 48.645 12.615 49.1 12.615 49.905V50.325C12.615 51.13 13.07 51.62 13.875 51.62H19.405V56.485C17.76 57.535 15.94 58.06 13.805 58.06C7.505 58.06 4.355 53.475 4.355 48.785C4.355 43.57 8.345 39.44 13.315 39.44C15.17 39.44 16.85 39.475 19.58 40.945C20.35 41.365 20.945 41.26 21.33 40.49L21.68 39.895C22.065 39.16 21.925 38.565 21.26 38.145C18.88 36.675 16.325 36.115 13.315 36.115C6.245 36.115 0.575 41.75 0.575 48.82C0.575 55.715 6.035 61.385 13.63 61.385ZM36.0073 61.385C38.2123 61.385 40.5573 60.86 42.5873 59.215C43.3923 58.55 43.3923 57.815 42.8323 57.22L42.5873 56.94C42.0273 56.38 41.4673 56.345 40.8023 56.765C39.2973 57.78 37.7573 58.235 36.0423 58.235C32.2273 58.235 29.5323 55.855 29.6373 52.6H43.2173C44.0573 52.6 44.5473 52.145 44.4423 51.305C43.9523 45.705 39.9273 43.08 35.5173 43.08C30.0573 43.08 26.0673 47.175 26.0673 52.285C26.0673 57.29 29.8473 61.385 36.0073 61.385ZM29.9523 49.94C31.0373 46.965 33.5573 46.16 35.5873 46.16C37.5123 46.16 39.9623 46.825 40.8723 49.94H29.9523ZM53.4611 61.385C56.8911 61.385 59.8311 59.46 59.8311 56.1C59.8311 54.21 58.9211 52.145 55.5611 51.095L53.0411 50.255C52.0261 49.94 51.0111 49.345 51.0111 48.225C51.0111 47 51.9911 46.055 53.5311 46.055C54.3011 46.055 55.0711 46.265 55.6661 46.965C56.1561 47.595 56.5761 47.91 57.3111 47.7L57.9761 47.56C58.8161 47.385 59.2361 46.755 58.7811 45.95C57.6261 43.815 55.5611 43.08 53.4261 43.08C49.9261 43.08 47.5461 45.32 47.5461 48.33C47.5461 50.815 49.2261 52.32 51.9211 53.125L54.2661 53.93C55.4911 54.35 56.4361 54.945 56.4361 56.065C56.4361 57.395 55.1761 58.375 53.4961 58.375C52.1311 58.375 50.9411 57.815 50.2411 56.94C49.7861 56.345 49.3661 56.03 48.6661 56.205L47.9311 56.415C47.0911 56.625 46.6711 57.185 47.0911 57.99C48.2811 60.23 50.7661 61.385 53.4611 61.385ZM65.0929 61H66.1429C66.9479 61 67.4029 60.545 67.4029 59.74V52.775C67.4029 47.455 71.0429 46.23 72.8629 46.23C74.7179 46.23 76.3629 47.525 76.3629 51.13V59.74C76.3629 60.545 76.8179 61 77.6229 61H78.6729C79.4779 61 79.9679 60.545 79.9679 59.74V51.095C79.9679 45.6 77.1329 43.08 73.2479 43.08C70.4129 43.08 68.1729 44.445 67.4029 46.895V44.725C67.4029 43.92 66.9479 43.465 66.1429 43.465H65.0929C64.2879 43.465 63.7979 43.92 63.7979 44.725V59.74C63.7979 60.545 64.2879 61 65.0929 61ZM93.6343 61.385C95.8393 61.385 98.1843 60.86 100.214 59.215C101.019 58.55 101.019 57.815 100.459 57.22L100.214 56.94C99.6543 56.38 99.0943 56.345 98.4293 56.765C96.9243 57.78 95.3843 58.235 93.6693 58.235C89.8543 58.235 87.1593 55.855 87.2643 52.6H100.844C101.684 52.6 102.174 52.145 102.069 51.305C101.579 45.705 97.5543 43.08 93.1443 43.08C87.6843 43.08 83.6943 47.175 83.6943 52.285C83.6943 57.29 87.4743 61.385 93.6343 61.385ZM87.5793 49.94C88.6643 46.965 91.1843 46.16 93.2143 46.16C95.1393 46.16 97.5893 46.825 98.4993 49.94H87.5793ZM107.168 61H108.218C109.023 61 109.478 60.545 109.478 59.74V54.315C109.478 47.14 112.628 46.51 113.888 46.51C114.203 46.51 114.518 46.545 114.833 46.615C115.428 46.755 115.778 46.405 115.778 45.53V44.515C115.778 43.815 115.673 43.22 114.938 43.115L114.168 43.08C112.068 43.08 110.073 44.585 109.478 47.385V44.725C109.478 43.92 109.023 43.465 108.218 43.465H107.168C106.363 43.465 105.873 43.92 105.873 44.725V59.74C105.873 60.545 106.363 61 107.168 61Z" fill="#391F2A"/>
</svg>
