<svg width="127" height="173" viewBox="0 0 127 173" fill="none" xmlns="http://www.w3.org/2000/svg">
<rect x="1.5" y="1.5" width="124" height="170" stroke="#20435D" stroke-width="3"/>
<path d="M17.7898 10.9055V119.464L37.0622 98.397M56.3345 77.3296L37.0622 98.397M37.0622 98.397C39.533 105.419 48.1314 119.464 62.7587 119.464" stroke="#20435D" stroke-width="3" stroke-linecap="round" stroke-linejoin="round"/>
<path fill-rule="evenodd" clip-rule="evenodd" d="M101.268 96.4142C101.268 107.496 92.315 116.464 81.2899 116.464C70.2648 116.464 61.3113 107.496 61.3113 96.4142C61.3113 85.332 70.2648 76.364 81.2899 76.364C92.315 76.364 101.268 85.332 101.268 96.4142ZM102.275 105.82C98.6872 113.861 90.6408 119.464 81.2899 119.464C68.5991 119.464 58.3113 109.144 58.3113 96.4142C58.3113 83.6839 68.5991 73.364 81.2899 73.364C90.6408 73.364 98.6872 78.9669 102.275 87.0085V77.3295C102.275 76.5011 102.946 75.8295 103.775 75.8295C104.603 75.8295 105.275 76.5011 105.275 77.3295V138.301C105.275 154.035 94.1955 162.465 83.0467 162.665C77.4959 162.764 71.909 160.825 67.7046 156.733C63.4849 152.626 60.7649 146.457 60.7649 138.301C60.7649 137.472 61.4365 136.801 62.2649 136.801C63.0933 136.801 63.7649 137.472 63.7649 138.301C63.7649 145.76 66.2337 151.115 69.797 154.583C73.3757 158.066 78.1663 159.752 82.9929 159.665C92.5989 159.493 102.275 152.308 102.275 138.301V105.82Z" fill="#20435D"/>
</svg>
