<svg width="160" height="218" viewBox="0 0 160 218" fill="none" xmlns="http://www.w3.org/2000/svg">
<rect x="2.5" y="2.5" width="155" height="212.276" stroke="#391F2A" stroke-width="5"/>
<path d="M22.4125 13.6965V150.039L46.6926 123.58M70.9728 97.1207L46.6926 123.58M46.6926 123.58C49.8055 132.4 60.6382 150.039 79.0662 150.039" stroke="#391F2A" stroke-width="5" stroke-linecap="round" stroke-linejoin="round"/>
<path fill-rule="evenodd" clip-rule="evenodd" d="M126.362 121.09C126.362 134.316 115.639 145.039 102.412 145.039C89.1855 145.039 78.463 134.316 78.463 121.09C78.463 107.863 89.1855 97.1401 102.412 97.1401C115.639 97.1401 126.362 107.863 126.362 121.09ZM128.239 134.182C123.46 143.591 113.689 150.039 102.412 150.039C86.4241 150.039 73.463 137.078 73.463 121.09C73.463 105.101 86.4241 92.1401 102.412 92.1401C113.689 92.1401 123.46 98.5877 128.239 107.997V97.1207C128.239 95.74 129.359 94.6207 130.739 94.6207C132.12 94.6207 133.239 95.74 133.239 97.1207V173.697C133.239 193.82 118.989 204.656 104.636 204.912C97.4981 205.04 90.2985 202.554 84.8739 197.29C79.423 192.002 75.9435 184.085 75.9435 173.697C75.9435 172.316 77.0628 171.197 78.4435 171.197C79.8243 171.197 80.9435 172.316 80.9435 173.697C80.9435 182.919 84.0011 189.477 88.3556 193.702C92.7365 197.952 98.6108 200.019 104.547 199.913C116.342 199.702 128.239 190.927 128.239 173.697V134.182Z" fill="#391F2A"/>
</svg>
