<svg width="92" height="124" viewBox="0 0 92 124" fill="none" xmlns="http://www.w3.org/2000/svg">
<rect x="1.5" y="1.5" width="88.3123" height="121" stroke="#E8C4C1" stroke-width="3"/>
<path d="M12.791 7.81641V85.6273L26.6477 70.527M40.5045 55.4267L26.6477 70.527M26.6477 70.527C28.4243 75.5605 34.6065 85.6273 45.1234 85.6273" stroke="#E8C4C1" stroke-width="3" stroke-linecap="round" stroke-linejoin="round"/>
<path fill-rule="evenodd" clip-rule="evenodd" d="M71.9688 69.106C71.9688 76.5737 65.915 82.6275 58.4473 82.6275C50.9796 82.6275 44.9258 76.5737 44.9258 69.106C44.9258 61.6383 50.9796 55.5845 58.4473 55.5845C65.915 55.5845 71.9688 61.6383 71.9688 69.106ZM73.1137 76.7197C70.3603 82.0126 64.826 85.6275 58.4473 85.6275C49.3227 85.6275 41.9258 78.2305 41.9258 69.106C41.9258 59.9814 49.3227 52.5845 58.4473 52.5845C64.826 52.5845 70.3603 56.1993 73.1137 61.4922V55.4269C73.1137 54.5984 73.7852 53.9269 74.6137 53.9269C75.4421 53.9269 76.1137 54.5984 76.1137 55.4269V99.1289C76.1137 110.656 67.9462 116.87 59.7178 117.017C55.6265 117.09 51.4983 115.665 48.3872 112.647C45.2603 109.613 43.2684 105.075 43.2684 99.1289C43.2684 98.3004 43.94 97.6289 44.7684 97.6289C45.5968 97.6289 46.2684 98.3004 46.2684 99.1289C46.2684 104.375 48.0071 108.098 50.4762 110.493C52.9611 112.904 56.2942 114.078 59.6642 114.017C66.3584 113.898 73.1137 108.92 73.1137 99.1289V76.7197Z" fill="#E8C4C1"/>
</svg>
