<svg width="49" height="57" viewBox="0 0 49 57" fill="none" xmlns="http://www.w3.org/2000/svg">
<path d="M45.5 3.5625H3.48906C1.56406 3.5625 0 5.17676 0 7.1584V49.8416C0 51.8232 1.56406 53.4375 3.48906 53.4375H45.5C47.425 53.4375 49 51.8232 49 49.8416V7.1584C49 5.17676 47.425 3.5625 45.5 3.5625ZM14.8094 46.3125H7.54688V22.5105H14.8203V46.3125H14.8094ZM11.1781 19.2598C8.84844 19.2598 6.96719 17.3338 6.96719 14.9736C6.96719 12.6135 8.84844 10.6875 11.1781 10.6875C13.4969 10.6875 15.3891 12.6135 15.3891 14.9736C15.3891 17.3449 13.5078 19.2598 11.1781 19.2598ZM42.0328 46.3125H34.7703V34.7344C34.7703 31.9734 34.7156 28.4221 30.9969 28.4221C27.2125 28.4221 26.6328 31.4279 26.6328 34.534V46.3125H19.3703V22.5105H26.3375V25.7613H26.4359C27.4094 23.891 29.7828 21.9205 33.3156 21.9205C40.6656 21.9205 42.0328 26.8523 42.0328 33.2648V46.3125Z" fill="#391F2A"/>
</svg>
