<svg width="52" height="58" viewBox="0 0 52 58" fill="none" xmlns="http://www.w3.org/2000/svg">
<g clip-path="url(#clip0)">
<path d="M51.04 9.0625V48.9375C51.04 51.9395 48.5905 54.375 45.5714 54.375H17.5906C18.7071 52.5172 20.1426 49.8438 20.7122 47.6574C21.054 46.3547 22.4553 41.0418 22.4553 41.0418C23.3667 42.775 26.0327 44.2363 28.8695 44.2363C37.3116 44.2363 43.384 36.5219 43.384 26.9383C43.384 17.7512 35.8419 10.875 26.1352 10.875C14.0588 10.875 7.656 18.9293 7.656 27.7086C7.656 31.7867 9.84343 36.8617 13.3296 38.4816C13.8651 38.7309 14.1385 38.6176 14.2639 38.1078C14.355 37.7227 14.8335 35.8309 15.0386 34.9586C15.1069 34.6754 15.0727 34.4375 14.8449 34.1656C13.6942 32.7723 12.76 30.2121 12.76 27.8219C12.76 21.682 17.4311 15.7461 25.3947 15.7461C32.2646 15.7461 37.0837 20.402 37.0837 27.0629C37.0837 34.5848 33.2671 39.7957 28.2885 39.7957C25.5428 39.7957 23.4921 37.5414 24.1415 34.766C24.9276 31.4582 26.4542 27.8898 26.4542 25.4996C26.4542 19.4957 17.8526 20.3227 17.8526 28.3316C17.8526 30.7898 18.6843 32.4664 18.6843 32.4664C15.1069 47.5102 14.5715 47.7027 15.312 54.2844L15.5626 54.375H5.46857C2.44946 54.375 0 51.9395 0 48.9375V9.0625C0 6.06055 2.44946 3.625 5.46857 3.625H45.5714C48.5905 3.625 51.04 6.06055 51.04 9.0625Z" fill="#20435D"/>
</g>
<defs>
<clipPath id="clip0">
<rect width="51.04" height="58" fill="white"/>
</clipPath>
</defs>
</svg>
