<svg width="157" height="35" viewBox="0 0 157 35" fill="none" xmlns="http://www.w3.org/2000/svg">
<rect x="0.5" y="0.5" width="156" height="34" rx="3.5" fill="#FFF8F0" fill-opacity="0.1" stroke="#E2D58B"/>
<path d="M32.5495 24.265C33.0115 24.622 33.8725 25.21 35.3005 25.21C36.9805 25.21 38.2825 24.139 38.2825 22.879C38.2825 21.346 36.8965 20.821 35.3215 20.233C34.0825 19.792 33.3265 19.393 33.3265 18.553C33.3265 17.986 33.8095 17.209 35.1325 17.209C36.0355 17.209 36.8755 17.671 37.0645 17.797C37.2115 17.881 37.3795 17.839 37.4635 17.692L37.5895 17.461C37.6735 17.314 37.6315 17.146 37.5055 17.062C37.0855 16.789 36.2455 16.39 35.1325 16.39C33.2005 16.39 32.3815 17.65 32.3815 18.574C32.3815 19.876 33.4735 20.527 34.9645 21.052C36.3715 21.577 37.3165 21.976 37.3165 22.942C37.3165 23.761 36.4975 24.433 35.3005 24.433C34.1245 24.433 33.2635 23.782 33.0535 23.614C32.9065 23.488 32.7385 23.53 32.6755 23.635L32.4655 23.971C32.4025 24.076 32.4655 24.202 32.5495 24.265ZM40.049 22.417C40.049 24.139 41.246 25.21 42.8 25.21C44.144 25.21 45.173 24.517 45.719 24.013L45.803 24.769C45.845 24.916 45.908 25 46.055 25H46.307C46.454 25 46.58 24.874 46.58 24.727V20.065C46.58 17.923 46.475 16.39 43.913 16.39C42.17 16.39 41.099 16.978 41.036 17.02C40.931 17.062 40.847 17.146 40.91 17.335L41.015 17.587C41.057 17.734 41.162 17.818 41.33 17.755C41.519 17.692 42.464 17.188 43.85 17.188C45.509 17.188 45.698 18.112 45.698 19.96C45.467 19.876 44.543 19.582 43.577 19.582C41.372 19.582 40.049 20.8 40.049 22.417ZM40.91 22.396C40.91 21.157 41.981 20.338 43.577 20.338C44.585 20.338 45.425 20.653 45.698 20.779V23.089C45.299 23.614 44.186 24.391 42.905 24.391C41.75 24.391 40.91 23.614 40.91 22.396ZM52.0559 25.021C52.1189 25.168 52.1819 25.21 52.3079 25.21H52.3919C52.4969 25.21 52.5809 25.147 52.6439 25.021L56.2979 16.915C56.3819 16.747 56.3609 16.6 56.1719 16.6H55.7099C55.6049 16.6 55.4999 16.642 55.4369 16.789L52.3709 23.719H52.3499L49.3049 16.789C49.2419 16.642 49.1369 16.6 49.0319 16.6H48.5699C48.3809 16.6 48.3599 16.747 48.4439 16.915L52.0559 25.021ZM57.6462 20.779C57.6462 23.236 59.2212 25.21 61.7832 25.21C63.0852 25.21 64.4082 24.643 64.8282 24.223C64.9542 24.097 64.9752 23.971 64.9122 23.887L64.7022 23.593C64.5972 23.446 64.5132 23.467 64.3242 23.593C63.8202 23.929 62.9592 24.37 61.8462 24.37C59.9562 24.37 58.6542 22.858 58.5702 21.052H65.2692C65.5842 21.052 65.5842 20.569 65.5842 20.233C65.5842 18.007 63.9882 16.39 61.7832 16.39C59.2212 16.39 57.6462 18.385 57.6462 20.779ZM58.5912 20.296C58.6962 18.574 59.9352 17.23 61.7832 17.23C63.6732 17.23 64.6602 18.658 64.6602 20.296H58.5912ZM71.9806 20.8C71.9806 23.341 74.0176 25.21 76.3906 25.21C78.1336 25.21 79.3726 24.097 79.6876 23.593C79.7716 23.467 79.7296 23.362 79.6246 23.257L79.3936 23.047C79.2676 22.921 79.1416 22.921 78.9946 23.089C78.7636 23.341 77.9446 24.328 76.3696 24.328C74.5006 24.328 72.9256 22.816 72.9256 20.779C72.9256 18.784 74.4796 17.293 76.3906 17.293C77.7136 17.293 78.5956 18.028 78.8056 18.259C78.9316 18.385 79.0996 18.448 79.2466 18.301L79.4566 18.091C79.5826 17.986 79.6036 17.839 79.4986 17.713C79.1206 17.23 78.0286 16.39 76.3906 16.39C74.0176 16.39 71.9806 18.28 71.9806 20.8ZM81.6193 20.779C81.6193 23.236 83.4673 25.21 85.8403 25.21C88.1923 25.21 90.0613 23.236 90.0613 20.779C90.0613 18.385 88.1923 16.39 85.8403 16.39C83.4673 16.39 81.6193 18.385 81.6193 20.779ZM82.5223 20.779C82.5223 18.847 83.9713 17.272 85.8403 17.272C87.6883 17.272 89.1373 18.847 89.1373 20.779C89.1373 22.774 87.6883 24.349 85.8403 24.349C83.9713 24.349 82.5223 22.774 82.5223 20.779ZM92.6263 24.727C92.6263 24.874 92.7103 25 92.8573 25H93.2773C93.4663 25 93.5503 24.895 93.5503 24.727V18.742C93.6133 18.616 94.4113 17.293 96.0493 17.293C96.6163 17.293 97.0363 17.503 97.1413 17.545C97.2883 17.608 97.4143 17.587 97.4773 17.44L97.6453 17.02C97.7083 16.852 97.6033 16.705 97.4143 16.642C97.2463 16.579 96.7843 16.39 96.1123 16.39C94.5373 16.39 93.6973 17.398 93.4873 17.692L93.4033 16.831C93.3823 16.684 93.2773 16.6 93.1513 16.6H92.8993C92.7523 16.6 92.6263 16.726 92.6263 16.873V24.727ZM100.338 24.349C100.569 24.559 101.451 25.21 102.837 25.21C105.315 25.21 107.079 23.278 107.079 20.8C107.079 18.343 105.357 16.39 103.026 16.39C101.493 16.39 100.527 17.188 100.275 17.398L100.212 16.81C100.191 16.663 100.107 16.6 99.9599 16.6H99.7289C99.5819 16.6 99.4349 16.705 99.4349 16.873V31.027C99.4349 31.174 99.5609 31.3 99.7079 31.3H100.065C100.212 31.3 100.338 31.174 100.338 31.027V24.349ZM100.359 23.341V18.427C100.422 18.322 101.325 17.251 102.963 17.251C104.874 17.251 106.155 18.826 106.155 20.779C106.155 22.774 104.769 24.328 102.732 24.328C101.304 24.328 100.401 23.425 100.359 23.341ZM109.269 24.265C109.731 24.622 110.592 25.21 112.02 25.21C113.7 25.21 115.002 24.139 115.002 22.879C115.002 21.346 113.616 20.821 112.041 20.233C110.802 19.792 110.046 19.393 110.046 18.553C110.046 17.986 110.529 17.209 111.852 17.209C112.755 17.209 113.595 17.671 113.784 17.797C113.931 17.881 114.099 17.839 114.183 17.692L114.309 17.461C114.393 17.314 114.351 17.146 114.225 17.062C113.805 16.789 112.965 16.39 111.852 16.39C109.92 16.39 109.101 17.65 109.101 18.574C109.101 19.876 110.193 20.527 111.684 21.052C113.091 21.577 114.036 21.976 114.036 22.942C114.036 23.761 113.217 24.433 112.02 24.433C110.844 24.433 109.983 23.782 109.773 23.614C109.626 23.488 109.458 23.53 109.395 23.635L109.185 23.971C109.122 24.076 109.185 24.202 109.269 24.265ZM116.832 20.779C116.832 23.236 118.407 25.21 120.969 25.21C122.271 25.21 123.594 24.643 124.014 24.223C124.14 24.097 124.161 23.971 124.098 23.887L123.888 23.593C123.783 23.446 123.699 23.467 123.51 23.593C123.006 23.929 122.145 24.37 121.032 24.37C119.142 24.37 117.84 22.858 117.756 21.052H124.455C124.77 21.052 124.77 20.569 124.77 20.233C124.77 18.007 123.174 16.39 120.969 16.39C118.407 16.39 116.832 18.385 116.832 20.779ZM117.777 20.296C117.882 18.574 119.121 17.23 120.969 17.23C122.859 17.23 123.846 18.658 123.846 20.296H117.777Z" fill="#E2D58B"/>
</svg>
