<svg width="61" height="42" viewBox="0 0 61 42" fill="none" xmlns="http://www.w3.org/2000/svg">
<path fill-rule="evenodd" clip-rule="evenodd" d="M30.005 10.6941C30.005 16.6002 25.2172 21.3881 19.311 21.3881C13.4048 21.3881 8.61692 16.6002 8.61692 10.6941C8.61692 4.7879 13.4048 0 19.311 0C25.2172 0 30.005 4.7879 30.005 10.6941ZM53.861 16.4523C53.861 21.9042 49.4414 26.3237 43.9896 26.3237C38.5378 26.3237 34.1182 21.9042 34.1182 16.4523C34.1182 11.0005 38.5378 6.58086 43.9896 6.58086C49.4414 6.58086 53.861 11.0005 53.861 16.4523ZM60.1129 41.9536H0.390717C0.390717 41.9536 0.390717 41.9536 0.390717 41.9536C0.390717 31.5042 8.86161 23.0333 19.311 23.0333C25.8681 23.0333 31.6462 26.3689 35.0409 31.4359C37.6166 29.7633 40.6896 28.7917 43.9896 28.7917C51.9491 28.7917 58.5885 34.444 60.1129 41.9536Z" fill="#2D2E40"/>
</svg>
