<svg width="35" height="41" viewBox="0 0 35 41" fill="none" xmlns="http://www.w3.org/2000/svg">
<path fill-rule="evenodd" clip-rule="evenodd" d="M15.6485 0.599055C16.4324 -0.199684 17.7192 -0.199686 18.5032 0.599054L33.4269 15.8041C33.7013 16.0837 33.8713 16.4058 33.9505 16.7379C34.0784 17.0015 34.1502 17.2974 34.1502 17.6101V38.0031C34.1502 39.1076 33.2548 40.0031 32.1502 40.0031H21.953V30.1968C21.953 29.0922 21.0576 28.1968 19.953 28.1968H14.1958C13.0912 28.1968 12.1958 29.0922 12.1958 30.1968V40.0031H2C0.895433 40.0031 0 39.1076 0 38.0031V17.6101C0 17.2951 0.0728215 16.9971 0.202548 16.732C0.282363 16.402 0.451971 16.0821 0.724744 15.8041L15.6485 0.599055Z" fill="#FFF8F0"/>
</svg>
