<svg width="69" height="19" viewBox="0 0 69 19" fill="none" xmlns="http://www.w3.org/2000/svg">
<path d="M0.872 2.47C1.358 2.47 1.736 2.092 1.736 1.624C1.736 1.138 1.358 0.76 0.872 0.76C0.404 0.76 0.0260001 1.138 0.0260001 1.624C0.0260001 2.092 0.404 2.47 0.872 2.47ZM0.278 12.658C0.278 12.838 0.44 13 0.62 13H1.178C1.358 13 1.52 12.838 1.52 12.658V6.142C1.52 5.962 1.358 5.8 1.178 5.8H0.62C0.44 5.8 0.278 5.962 0.278 6.142V12.658ZM4.07488 12.658C4.07488 12.838 4.23688 13 4.41688 13H4.97488C5.15488 13 5.31688 12.838 5.31688 12.658V7.852C5.31688 7.852 6.28888 6.826 7.63888 6.826C8.64688 6.826 9.25888 7.492 9.25888 8.86V12.658C9.25888 12.838 9.42088 13 9.60088 13H10.1769C10.3569 13 10.5189 12.838 10.5189 12.658V8.86C10.5189 6.988 9.81688 5.62 7.72888 5.62C6.23488 5.62 5.20888 6.574 5.20888 6.574L5.04688 6.016C5.01088 5.872 4.92088 5.8 4.75888 5.8H4.41688C4.23688 5.8 4.07488 5.962 4.07488 6.142V12.658ZM14.247 12.586C14.247 12.586 14.985 13.18 16.173 13.18C18.153 13.18 19.629 11.524 19.629 9.418C19.629 7.348 18.189 5.62 16.227 5.62C14.931 5.62 14.139 6.376 14.139 6.376L14.013 6.034C13.941 5.854 13.887 5.8 13.725 5.8H13.347C13.167 5.8 13.005 5.962 13.005 6.142V18.058C13.005 18.238 13.167 18.4 13.347 18.4H13.905C14.085 18.4 14.247 18.238 14.247 18.058V12.586ZM14.265 11.344V7.636C14.265 7.636 14.931 6.754 16.101 6.754C17.541 6.754 18.369 7.996 18.369 9.4C18.369 10.84 17.397 11.974 16.011 11.974C15.021 11.974 14.265 11.344 14.265 11.344ZM21.5806 9.922C21.5806 11.83 22.2826 13.18 24.3706 13.18C25.8646 13.18 26.7106 12.226 26.7106 12.226L26.8366 12.694C26.8906 12.874 26.9626 13 27.1606 13H27.5026C27.6826 13 27.8446 12.838 27.8446 12.658V6.142C27.8446 5.962 27.6826 5.8 27.5026 5.8H26.9446C26.7646 5.8 26.6026 5.962 26.6026 6.142C26.6026 10.138 26.6026 10.552 26.6026 10.948C26.6026 10.948 25.8286 11.974 24.4606 11.974C23.4526 11.974 22.8406 11.308 22.8406 9.94V6.142C22.8406 5.962 22.6786 5.8 22.4986 5.8H21.9226C21.7426 5.8 21.5806 5.962 21.5806 6.142V9.922ZM30.8749 11.2C30.8749 12.316 31.0909 13.18 32.5309 13.18C33.3769 13.18 34.3489 12.73 34.6009 12.568C34.7989 12.442 34.8529 12.334 34.7269 12.118L34.4569 11.668C34.3669 11.524 34.2949 11.416 34.0249 11.56C33.7909 11.686 33.1609 11.956 32.7109 11.956C32.2969 11.956 32.1169 11.812 32.1169 11.092V6.88H34.2049C34.4029 6.88 34.5469 6.718 34.5469 6.538V6.142C34.5469 5.944 34.4029 5.8 34.2049 5.8H32.1169V3.766C32.1169 3.586 31.9729 3.424 31.7929 3.424L31.2169 3.46C31.0369 3.46 30.8749 3.622 30.8749 3.802V5.8H29.9569C29.7589 5.8 29.6149 5.944 29.6149 6.142V6.538C29.6149 6.718 29.7589 6.88 29.9569 6.88H30.8749V11.2ZM41.1255 12.658C41.1255 12.838 41.2875 13 41.4675 13H42.0255C42.2055 13 42.3675 12.838 42.3675 12.658V6.88H46.2375V12.658C46.2375 12.838 46.3995 13 46.5795 13H47.1375C47.3175 13 47.4795 12.838 47.4795 12.658V6.142C47.4795 5.962 47.3175 5.8 47.1375 5.8H42.3675V3.28C42.3675 1.894 43.2135 1.336 44.0415 1.336C44.9055 1.336 45.7875 1.858 46.0215 1.984C46.2195 2.092 46.3815 2.146 46.4895 1.966L46.7775 1.48C46.8495 1.354 46.8315 1.156 46.7055 1.066C46.3815 0.831999 45.2835 0.219999 44.0595 0.219999C42.5115 0.219999 41.1255 1.192 41.1255 3.28V5.8H40.0275C39.8295 5.8 39.6855 5.944 39.6855 6.142V6.538C39.6855 6.718 39.8295 6.88 40.0275 6.88H41.1255V12.658ZM49.5197 9.4C49.5197 11.47 50.8697 13.18 53.0477 13.18C54.2897 13.18 55.2617 12.694 55.6937 12.352C55.9637 12.154 55.8917 12.046 55.7657 11.884C55.6577 11.74 55.5677 11.614 55.4597 11.47C55.3157 11.272 55.2077 11.362 54.9557 11.506C54.5417 11.758 53.9297 12.046 53.1737 12.046C51.8957 12.046 50.8337 10.912 50.7617 9.706H55.9457C56.1077 9.706 56.2517 9.58 56.2697 9.4C56.2877 9.274 56.3057 9.04 56.3057 8.914C56.3057 7.024 54.9377 5.62 53.0477 5.62C50.8697 5.62 49.5197 7.366 49.5197 9.4ZM50.7797 8.698C50.9057 7.582 51.8417 6.718 53.0477 6.718C54.1457 6.718 55.0097 7.654 55.0637 8.698H50.7797ZM58.2862 12.658C58.2862 12.838 58.4482 13 58.6282 13H59.1862C59.3662 13 59.5282 12.838 59.5282 12.658V0.741999C59.5282 0.561999 59.3662 0.399999 59.1862 0.399999H58.6282C58.4482 0.399999 58.2862 0.561999 58.2862 0.741999V12.658ZM61.5783 9.382C61.5783 11.452 63.0183 13.18 64.8543 13.18C66.2043 13.18 67.0683 12.226 67.0683 12.226L67.1763 12.712C67.2123 12.874 67.3203 13 67.4823 13H67.8603C68.0403 13 68.2023 12.838 68.2023 12.658V0.741999C68.2023 0.561999 68.0403 0.399999 67.8603 0.399999H67.3023C67.1223 0.399999 66.9603 0.561999 66.9603 0.741999V6.088C66.9603 6.088 66.2223 5.62 65.0343 5.62C62.8743 5.62 61.5783 7.276 61.5783 9.382ZM62.8383 9.4C62.8383 7.96 63.6303 6.826 65.1963 6.826C66.1863 6.826 66.9423 7.258 66.9423 7.258V10.858C66.9423 10.858 66.2763 12.046 64.9803 12.046C63.6663 12.046 62.8383 10.804 62.8383 9.4Z" fill="#FFF8F0" fill-opacity="0.7"/>
</svg>
