<svg width="455" height="495" viewBox="0 0 455 495" fill="none" xmlns="http://www.w3.org/2000/svg">
<rect width="455" height="494.722" fill="#2D2E40"/>
<path d="M65.9993 50.3365C65.9993 50.3365 65.9993 115.655 65.9993 132.801C65.9993 149.947 72.5765 146.681 78.3316 146.681M57.7778 69.9321H75.8652M99.7076 39.7222C99.7076 39.7222 99.7076 64.1059 99.7076 79.7299M99.7076 146.681C99.7076 146.681 99.7076 105.876 99.7076 79.7299M99.7076 79.7299C102.996 69.9321 114.506 64.2167 121.084 79.7299C124.199 87.0782 121.084 136.884 122.728 146.681M144.104 104.224C152.325 104.224 170.413 104.224 170.413 104.224C170.413 104.224 172.057 82.1793 166.302 73.198C162.544 67.3338 151.503 65.0332 148.215 74.831C144.547 85.7585 144.104 91.1606 144.104 104.224ZM144.104 104.224C144.104 113.152 144.104 118.158 144.104 127.086C144.104 154.03 174.524 149.131 168.769 127.086M61.0664 257.723H87.3753C87.3753 257.723 89.0196 235.678 83.2645 226.697C79.5068 220.833 68.4658 218.532 65.1772 228.33C61.5093 239.257 61.0664 244.659 61.0664 257.723ZM61.0664 257.723V280.585C61.0664 307.529 91.4861 302.63 85.731 280.585M374.307 257.723H400.616C400.616 257.723 402.26 235.678 396.505 226.697C392.747 220.833 381.706 218.532 378.418 228.33C374.75 239.257 374.307 244.659 374.307 257.723ZM374.307 257.723V280.585C374.307 307.529 404.727 302.63 398.972 280.585M284.692 412.038H311.001C311.001 412.038 312.645 389.993 306.89 381.012C303.133 375.148 292.092 372.847 288.803 382.645C285.135 393.573 284.692 398.975 284.692 412.038ZM284.692 412.038V434.9C284.692 461.844 315.112 456.945 309.357 434.9M343.065 204.652V224.247M343.065 224.247C343.065 224.247 343.065 273.236 343.065 287.117C343.065 300.997 348.82 300.997 355.397 299.364M343.065 224.247H334.844M343.065 224.247H352.931M106.285 224.247L129.305 300.997M126.839 224.247L106.285 300.997M175.346 221.798C175.346 221.798 175.161 228.765 175.043 233.229M175.346 329.574L174.524 314.877C174.524 314.877 174.524 294.465 175.259 287.117M175.043 233.229C173.615 221.798 152.325 221.798 152.325 233.229C152.325 253.317 152.325 269.154 152.325 284.667C152.325 308.345 178.634 300.997 175.259 287.117M175.043 233.229C174.485 254.273 175.817 266.072 175.259 287.117M199.188 221.798C199.188 221.798 197.544 261.608 197.544 287.117C197.544 303.446 220.564 305.079 220.564 287.117C220.564 261.608 220.564 221.798 220.564 221.798M245.229 201.386V213.633M245.229 221.798V300.997M291.269 242.21C291.269 242.21 292.214 234.653 291.269 229.963C289.625 221.798 274.004 219.348 270.716 229.963C267.977 238.801 266.951 245.183 270.716 253.641C274.672 262.53 288.016 260.384 289.625 269.97C291.269 279.768 292.092 287.933 289.625 294.465C286.692 302.233 273.182 302.63 269.893 294.465C268.089 289.985 268.249 282.218 268.249 282.218M315.934 201.386V213.633M315.934 221.798V300.997M263.316 395.709C263.316 395.709 263.978 387.66 261.672 383.462C256.739 374.48 244.407 373.664 241.118 384.278C238.38 393.116 238.176 399.499 241.94 407.956C245.897 416.845 259.505 418.089 261.672 423.469C264.961 431.634 262.494 441.432 260.028 447.964C257.094 455.732 245.229 456.128 241.94 447.964C240.136 443.484 240.296 435.716 240.296 435.716M84.0867 397.342C85.7311 390.81 84.588 387.743 83.2646 381.829C81.6203 374.48 65.1773 373.118 63.5328 383.462C61.0665 398.975 61.8886 423.469 63.5328 444.698C64.6121 458.633 84.9088 456.945 84.9088 445.514C84.9088 442.007 84.9088 436.533 84.9088 436.533M153.97 374.48C153.97 374.48 153.97 379.954 153.97 383.462M153.97 454.496C153.97 454.496 153.97 411.202 153.97 383.462M153.97 383.462C155.614 376.113 173.702 372.847 175.346 383.462C175.639 385.352 175.346 388.36 175.346 388.36M193.433 376.113C193.433 376.113 193.532 382.582 193.595 386.727M195.077 483.889C195.077 483.889 194.721 460.5 194.492 445.514M193.595 386.727C195.9 375.297 213.887 374.603 215.631 386.727C218.92 409.589 218.098 435.716 215.631 445.514C213.433 454.247 198.366 459.394 194.492 445.514M193.595 386.727C193.945 409.685 194.142 422.557 194.492 445.514M108.751 385.094C105.437 408.137 107.107 423.469 108.751 443.065C109.98 457.711 130.949 457.761 130.949 443.065C130.949 419.786 132.594 407.14 128.483 383.462C126.755 373.509 110.396 373.664 108.751 385.094Z" stroke="#FFF8F0" stroke-width="3" stroke-linecap="round" stroke-linejoin="round"/>
<path d="M250.817 187.756L202.222 151.129L202.222 39.7222L250.817 82.4537M250.817 187.756L300.273 151.129M250.817 187.756L250.817 82.4537M300.273 151.129L353.889 183.178L353.889 74.8231L300.273 39.7222M300.273 151.129L300.273 39.7222M300.273 39.7222L250.817 82.4537" stroke="#E2D58B" stroke-width="3" stroke-linecap="round" stroke-linejoin="round"/>
</svg>
