<svg width="126" height="137" viewBox="0 0 126 137" fill="none" xmlns="http://www.w3.org/2000/svg">
<rect width="126" height="137" fill="#2D2E40"/>
<path d="M69.457 48.994L56 38.8512L56 8L69.457 19.8333M69.457 48.994L83.1526 38.8512M69.457 48.994L69.457 19.8333M83.1526 38.8512L98 47.7262L98 17.7202L83.1526 8M83.1526 38.8512L83.1526 8M83.1526 8L69.457 19.8333" stroke="#FFF8F0" stroke-linecap="round" stroke-linejoin="round"/>
<path d="M18.2767 10.9393C18.2767 10.9393 18.2767 29.0276 18.2767 33.7757C18.2767 38.5239 20.0981 37.6195 21.6918 37.6195M16 16.3658H21.0088M27.6113 8C27.6113 8 27.6113 14.7524 27.6113 19.079M27.6113 37.6195C27.6113 37.6195 27.6113 26.3195 27.6113 19.079M27.6113 19.079C28.522 16.3658 31.7095 14.7831 33.5308 19.079C34.3936 21.114 33.5308 34.9063 33.9862 37.6195M39.9057 25.8621C42.1824 25.8621 47.1912 25.8621 47.1912 25.8621C47.1912 25.8621 47.6466 19.7574 46.0529 17.2702C45.0123 15.6463 41.9548 15.0092 41.0441 17.7224C40.0284 20.7485 39.9057 22.2445 39.9057 25.8621ZM39.9057 25.8621C39.9057 28.3345 39.9057 29.7207 39.9057 32.193C39.9057 39.6544 48.3296 38.2978 46.7359 32.193M16.9107 68.3695H24.1962C24.1962 68.3695 24.6516 62.2647 23.0579 59.7776C22.0173 58.1536 18.9598 57.5165 18.0491 60.2298C17.0334 63.2559 16.9107 64.7518 16.9107 68.3695ZM16.9107 68.3695V74.7004C16.9107 82.1618 25.3346 80.8051 23.7409 74.7004M103.654 68.3695H110.94C110.94 68.3695 111.395 62.2647 109.801 59.7776C108.761 58.1536 105.703 57.5165 104.793 60.2298C103.777 63.2559 103.654 64.7518 103.654 68.3695ZM103.654 68.3695V74.7004C103.654 82.1618 112.078 80.8051 110.484 74.7004M78.8378 111.103H86.1234C86.1234 111.103 86.5787 104.998 84.985 102.511C83.9444 100.887 80.8869 100.25 79.9762 102.963C78.9605 105.989 78.8378 107.485 78.8378 111.103ZM78.8378 111.103V117.434C78.8378 124.895 87.2618 123.539 85.668 117.434M95.0027 53.6728V59.0993M95.0027 59.0993C95.0027 59.0993 95.0027 72.6654 95.0027 76.5092C95.0027 80.3529 96.5964 80.3529 98.4178 79.9007M95.0027 59.0993H92.7259M95.0027 59.0993H97.7347M29.4327 59.0993L35.8076 80.3529M35.1246 59.0993L29.4327 80.3529M48.5573 58.421C48.5573 58.421 48.5062 60.3502 48.4734 61.5864M48.5573 88.2665L48.3296 84.1967C48.3296 84.1967 48.3296 78.5441 48.5333 76.5092M48.4734 61.5864C48.078 58.421 42.1824 58.421 42.1824 61.5864C42.1824 67.1492 42.1824 71.5349 42.1824 75.8309C42.1824 82.3879 49.468 80.3529 48.5333 76.5092M48.4734 61.5864C48.319 67.4141 48.6877 70.6815 48.5333 76.5092M55.1598 58.421C55.1598 58.421 54.7045 69.4453 54.7045 76.5092C54.7045 81.0313 61.0793 81.4835 61.0793 76.5092C61.0793 69.4453 61.0793 58.421 61.0793 58.421M67.9095 52.7684V56.1599M67.9095 58.421V80.3529M80.6592 64.0735C80.6592 64.0735 80.9208 61.9807 80.6592 60.682C80.2039 58.421 75.8781 57.7426 74.9674 60.682C74.2091 63.1294 73.925 64.8969 74.9674 67.239C76.063 69.7005 79.7584 69.1063 80.2039 71.761C80.6592 74.4743 80.8869 76.7353 80.2039 78.5441C79.3916 80.6953 75.6504 80.8051 74.7397 78.5441C74.24 77.3035 74.2844 75.1526 74.2844 75.1526M87.4894 52.7684V56.1599M87.4894 58.421V80.3529M72.9183 106.581C72.9183 106.581 73.1016 104.352 72.463 103.189C71.097 100.702 67.6819 100.476 66.7712 103.415C66.0129 105.863 65.9564 107.63 66.9988 109.972C68.0944 112.434 71.8629 112.779 72.463 114.268C73.3737 116.529 72.6907 119.243 72.0077 121.051C71.1954 123.203 67.9095 123.313 66.9988 121.051C66.4991 119.811 66.5435 117.66 66.5435 117.66M23.2855 107.033C23.7409 105.224 23.4244 104.375 23.0579 102.737C22.6026 100.702 18.0491 100.325 17.5937 103.189C16.9107 107.485 17.1384 114.268 17.5937 120.147C17.8926 124.006 23.5132 123.539 23.5132 120.373C23.5132 119.402 23.5132 117.886 23.5132 117.886M42.6378 100.702C42.6378 100.702 42.6378 102.218 42.6378 103.189M42.6378 122.86C42.6378 122.86 42.6378 110.871 42.6378 103.189M42.6378 103.189C43.0932 101.154 48.102 100.25 48.5573 103.189C48.6384 103.713 48.5573 104.546 48.5573 104.546M53.5661 101.154C53.5661 101.154 53.5934 102.946 53.6109 104.094M54.0214 131C54.0214 131 53.9226 124.523 53.8593 120.373M53.6109 104.094C54.2491 100.928 59.2303 100.736 59.7133 104.094C60.624 110.425 60.3963 117.66 59.7133 120.373C59.1045 122.791 54.9322 124.217 53.8593 120.373M53.6109 104.094C53.7079 110.451 53.7623 114.016 53.8593 120.373M30.1157 103.642C29.1978 110.023 29.6604 114.268 30.1157 119.695C30.4561 123.751 36.2629 123.765 36.2629 119.695C36.2629 113.248 36.7183 109.746 35.5799 103.189C35.1015 100.433 30.5711 100.476 30.1157 103.642Z" stroke="#FFF8F0" stroke-linecap="round" stroke-linejoin="round"/>
</svg>
