<svg width="126" height="137" viewBox="0 0 126 137" fill="none" xmlns="http://www.w3.org/2000/svg">
<rect width="126" height="137" fill="#FFF8F0"/>
<path d="M69.457 47.994L56 37.8512L56 7L69.457 18.8333M69.457 47.994L83.1526 37.8512M69.457 47.994L69.457 18.8333M83.1526 37.8512L98 46.7262L98 16.7202L83.1526 7M83.1526 37.8512L83.1526 7M83.1526 7L69.457 18.8333" stroke="#2D2E40" stroke-linecap="round" stroke-linejoin="round"/>
<path d="M18.2767 9.93934C18.2767 9.93934 18.2767 28.0276 18.2767 32.7757C18.2767 37.5239 20.0981 36.6195 21.6918 36.6195M16 15.3658H21.0088M27.6113 7C27.6113 7 27.6113 13.7524 27.6113 18.079M27.6113 36.6195C27.6113 36.6195 27.6113 25.3195 27.6113 18.079M27.6113 18.079C28.522 15.3658 31.7095 13.7831 33.5308 18.079C34.3936 20.114 33.5308 33.9063 33.9862 36.6195M39.9057 24.8621C42.1824 24.8621 47.1912 24.8621 47.1912 24.8621C47.1912 24.8621 47.6466 18.7574 46.0529 16.2702C45.0123 14.6463 41.9548 14.0092 41.0441 16.7224C40.0284 19.7485 39.9057 21.2445 39.9057 24.8621ZM39.9057 24.8621C39.9057 27.3345 39.9057 28.7207 39.9057 31.193C39.9057 38.6544 48.3296 37.2978 46.7359 31.193M16.9107 67.3695H24.1962C24.1962 67.3695 24.6516 61.2647 23.0579 58.7776C22.0173 57.1536 18.9598 56.5165 18.0491 59.2298C17.0334 62.2559 16.9107 63.7518 16.9107 67.3695ZM16.9107 67.3695V73.7004C16.9107 81.1618 25.3346 79.8051 23.7409 73.7004M103.654 67.3695H110.94C110.94 67.3695 111.395 61.2647 109.801 58.7776C108.761 57.1536 105.703 56.5165 104.793 59.2298C103.777 62.2559 103.654 63.7518 103.654 67.3695ZM103.654 67.3695V73.7004C103.654 81.1618 112.078 79.8051 110.484 73.7004M78.8378 110.103H86.1234C86.1234 110.103 86.5787 103.998 84.985 101.511C83.9444 99.8871 80.8869 99.25 79.9762 101.963C78.9605 104.989 78.8378 106.485 78.8378 110.103ZM78.8378 110.103V116.434C78.8378 123.895 87.2618 122.539 85.668 116.434M95.0027 52.6728V58.0993M95.0027 58.0993C95.0027 58.0993 95.0027 71.6654 95.0027 75.5092C95.0027 79.3529 96.5964 79.3529 98.4178 78.9007M95.0027 58.0993H92.7259M95.0027 58.0993H97.7347M29.4327 58.0993L35.8076 79.3529M35.1246 58.0993L29.4327 79.3529M48.5573 57.421C48.5573 57.421 48.5062 59.3502 48.4734 60.5864M48.5573 87.2665L48.3296 83.1967C48.3296 83.1967 48.3296 77.5441 48.5333 75.5092M48.4734 60.5864C48.078 57.421 42.1824 57.421 42.1824 60.5864C42.1824 66.1492 42.1824 70.5349 42.1824 74.8309C42.1824 81.3879 49.468 79.3529 48.5333 75.5092M48.4734 60.5864C48.319 66.4141 48.6877 69.6815 48.5333 75.5092M55.1598 57.421C55.1598 57.421 54.7045 68.4453 54.7045 75.5092C54.7045 80.0313 61.0793 80.4835 61.0793 75.5092C61.0793 68.4453 61.0793 57.421 61.0793 57.421M67.9095 51.7684V55.1599M67.9095 57.421V79.3529M80.6592 63.0735C80.6592 63.0735 80.9208 60.9807 80.6592 59.682C80.2039 57.421 75.8781 56.7426 74.9674 59.682C74.2091 62.1294 73.925 63.8969 74.9674 66.239C76.063 68.7005 79.7584 68.1063 80.2039 70.761C80.6592 73.4743 80.8869 75.7353 80.2039 77.5441C79.3916 79.6953 75.6504 79.8051 74.7397 77.5441C74.24 76.3035 74.2844 74.1526 74.2844 74.1526M87.4894 51.7684V55.1599M87.4894 57.421V79.3529M72.9183 105.581C72.9183 105.581 73.1016 103.352 72.463 102.189C71.097 99.7022 67.6819 99.4761 66.7712 102.415C66.0129 104.863 65.9564 106.63 66.9988 108.972C68.0944 111.434 71.8629 111.779 72.463 113.268C73.3737 115.529 72.6907 118.243 72.0077 120.051C71.1954 122.203 67.9095 122.313 66.9988 120.051C66.4991 118.811 66.5435 116.66 66.5435 116.66M23.2855 106.033C23.7409 104.224 23.4244 103.375 23.0579 101.737C22.6026 99.7022 18.0491 99.3251 17.5937 102.189C16.9107 106.485 17.1384 113.268 17.5937 119.147C17.8926 123.006 23.5132 122.539 23.5132 119.373C23.5132 118.402 23.5132 116.886 23.5132 116.886M42.6378 99.7022C42.6378 99.7022 42.6378 101.218 42.6378 102.189M42.6378 121.86C42.6378 121.86 42.6378 109.871 42.6378 102.189M42.6378 102.189C43.0932 100.154 48.102 99.25 48.5573 102.189C48.6384 102.713 48.5573 103.546 48.5573 103.546M53.5661 100.154C53.5661 100.154 53.5934 101.946 53.6109 103.094M54.0214 130C54.0214 130 53.9226 123.523 53.8593 119.373M53.6109 103.094C54.2491 99.9283 59.2303 99.7363 59.7133 103.094C60.624 109.425 60.3963 116.66 59.7133 119.373C59.1045 121.791 54.9322 123.217 53.8593 119.373M53.6109 103.094C53.7079 109.451 53.7623 113.016 53.8593 119.373M30.1157 102.642C29.1978 109.023 29.6604 113.268 30.1157 118.695C30.4561 122.751 36.2629 122.765 36.2629 118.695C36.2629 112.248 36.7183 108.746 35.5799 102.189C35.1015 99.4333 30.5711 99.4761 30.1157 102.642Z" stroke="#2D2E40" stroke-linecap="round" stroke-linejoin="round"/>
</svg>
