<svg width="126" height="137" viewBox="0 0 126 137" fill="none" xmlns="http://www.w3.org/2000/svg">
<rect width="126" height="137" fill="#2D2E40"/>
<path d="M18.2767 13.9393C18.2767 13.9393 18.2767 32.0276 18.2767 36.7757C18.2767 41.5239 20.0981 40.6195 21.6918 40.6195M16 19.3658H21.0088M27.6113 11C27.6113 11 27.6113 17.7524 27.6113 22.079M27.6113 40.6195C27.6113 40.6195 27.6113 29.3195 27.6113 22.079M27.6113 22.079C28.522 19.3658 31.7095 17.7831 33.5308 22.079C34.3936 24.114 33.5308 37.9063 33.9862 40.6195M39.9057 28.8621C42.1824 28.8621 47.1912 28.8621 47.1912 28.8621C47.1912 28.8621 47.6466 22.7574 46.0529 20.2702C45.0123 18.6463 41.9548 18.0092 41.0441 20.7224C40.0284 23.7485 39.9057 25.2445 39.9057 28.8621ZM39.9057 28.8621C39.9057 31.3345 39.9057 32.7207 39.9057 35.193C39.9057 42.6544 48.3296 41.2978 46.7359 35.193M16.9107 71.3695H24.1962C24.1962 71.3695 24.6516 65.2647 23.0579 62.7776C22.0173 61.1536 18.9598 60.5165 18.0491 63.2298C17.0334 66.2559 16.9107 67.7518 16.9107 71.3695ZM16.9107 71.3695V77.7004C16.9107 85.1618 25.3346 83.8051 23.7409 77.7004M103.654 71.3695H110.94C110.94 71.3695 111.395 65.2647 109.801 62.7776C108.761 61.1536 105.703 60.5165 104.793 63.2298C103.777 66.2559 103.654 67.7518 103.654 71.3695ZM103.654 71.3695V77.7004C103.654 85.1618 112.078 83.8051 110.484 77.7004M78.8378 114.103H86.1234C86.1234 114.103 86.5787 107.998 84.985 105.511C83.9444 103.887 80.8869 103.25 79.9762 105.963C78.9605 108.989 78.8378 110.485 78.8378 114.103ZM78.8378 114.103V120.434C78.8378 127.895 87.2618 126.539 85.668 120.434M95.0027 56.6728V62.0993M95.0027 62.0993C95.0027 62.0993 95.0027 75.6654 95.0027 79.5092C95.0027 83.3529 96.5964 83.3529 98.4178 82.9007M95.0027 62.0993H92.7259M95.0027 62.0993H97.7347M29.4327 62.0993L35.8076 83.3529M35.1246 62.0993L29.4327 83.3529M48.5573 61.421C48.5573 61.421 48.5062 63.3502 48.4734 64.5864M48.5573 91.2665L48.3296 87.1967C48.3296 87.1967 48.3296 81.5441 48.5333 79.5092M48.4734 64.5864C48.078 61.421 42.1824 61.421 42.1824 64.5864C42.1824 70.1492 42.1824 74.5349 42.1824 78.8309C42.1824 85.3879 49.468 83.3529 48.5333 79.5092M48.4734 64.5864C48.319 70.4141 48.6877 73.6815 48.5333 79.5092M55.1598 61.421C55.1598 61.421 54.7045 72.4453 54.7045 79.5092C54.7045 84.0313 61.0793 84.4835 61.0793 79.5092C61.0793 72.4453 61.0793 61.421 61.0793 61.421M67.9095 55.7684V59.1599M67.9095 61.421V83.3529M80.6592 67.0735C80.6592 67.0735 80.9208 64.9807 80.6592 63.682C80.2039 61.421 75.8781 60.7426 74.9674 63.682C74.2091 66.1294 73.925 67.8969 74.9674 70.239C76.063 72.7005 79.7584 72.1063 80.2039 74.761C80.6592 77.4743 80.8869 79.7353 80.2039 81.5441C79.3916 83.6953 75.6504 83.8051 74.7397 81.5441C74.24 80.3035 74.2844 78.1526 74.2844 78.1526M87.4894 55.7684V59.1599M87.4894 61.421V83.3529M72.9183 109.581C72.9183 109.581 73.1016 107.352 72.463 106.189C71.097 103.702 67.6819 103.476 66.7712 106.415C66.0129 108.863 65.9564 110.63 66.9988 112.972C68.0944 115.434 71.8629 115.779 72.463 117.268C73.3737 119.529 72.6907 122.243 72.0077 124.051C71.1954 126.203 67.9095 126.313 66.9988 124.051C66.4991 122.811 66.5435 120.66 66.5435 120.66M23.2855 110.033C23.7409 108.224 23.4244 107.375 23.0579 105.737C22.6026 103.702 18.0491 103.325 17.5937 106.189C16.9107 110.485 17.1384 117.268 17.5937 123.147C17.8926 127.006 23.5132 126.539 23.5132 123.373C23.5132 122.402 23.5132 120.886 23.5132 120.886M42.6378 103.702C42.6378 103.702 42.6378 105.218 42.6378 106.189M42.6378 125.86C42.6378 125.86 42.6378 113.871 42.6378 106.189M42.6378 106.189C43.0932 104.154 48.102 103.25 48.5573 106.189C48.6384 106.713 48.5573 107.546 48.5573 107.546M53.5661 104.154C53.5661 104.154 53.5934 105.946 53.6109 107.094M54.0214 134C54.0214 134 53.9226 127.523 53.8593 123.373M53.6109 107.094C54.2491 103.928 59.2303 103.736 59.7133 107.094C60.624 113.425 60.3963 120.66 59.7133 123.373C59.1045 125.791 54.9322 127.217 53.8593 123.373M53.6109 107.094C53.7079 113.451 53.7623 117.016 53.8593 123.373M30.1157 106.642C29.1978 113.023 29.6604 117.268 30.1157 122.695C30.4561 126.751 36.2629 126.765 36.2629 122.695C36.2629 116.248 36.7183 112.746 35.5799 106.189C35.1015 103.433 30.5711 103.476 30.1157 106.642Z" stroke="#FFF8F0" stroke-linecap="round" stroke-linejoin="round"/>
<path d="M69.457 51.994L56 41.8512L56 11L69.457 22.8333M69.457 51.994L83.1526 41.8512M69.457 51.994L69.457 22.8333M83.1526 41.8512L98 50.7262L98 20.7202L83.1526 11M83.1526 41.8512L83.1526 11M83.1526 11L69.457 22.8333" stroke="#E2D58B" stroke-linecap="round" stroke-linejoin="round"/>
</svg>
