<svg width="210" height="117" viewBox="0 0 210 117" fill="none" xmlns="http://www.w3.org/2000/svg">
<rect width="210" height="116.932" fill="#2D2E40"/>
<mask id="mask0" mask-type="alpha" maskUnits="userSpaceOnUse" x="2" y="-1" width="205" height="78">
<rect x="2.38635" y="-6.10352e-05" width="204.311" height="76.5777" fill="#C4C4C4"/>
</mask>
<g mask="url(#mask0)">
<path d="M6.34389 59.9498C1.25296 69.9045 10.5804 115.551 11.8458 141.53C12.1998 148.799 15.527 150.76 17.2964 147.224C17.2964 147.224 16.0946 117.161 16.0946 113.951C16.0946 110.741 17.2964 88.6753 18.3912 81.4537C19.2671 75.6764 18.0263 64.7105 17.2964 59.9498L6.34389 59.9498Z" fill="#FFF8F0" fill-opacity="0.1" stroke="#FFF8F0" stroke-width="0.75" stroke-linecap="round" stroke-linejoin="round"/>
<path d="M21.3031 22.0758C25.3089 28.0938 22.5048 37.7226 19.5303 43.925L17.2972 43.925L13.6919 43.925L10.4189 43.925L7.98122 43.925L6.3447 43.925C-1.99378 28.3243 7.45941 15.8586 17.3024 8.85722C17.632 8.54568 18.0281 8.26947 18.499 8.03368C15.4647 10.9551 17.0268 15.6514 21.3031 22.0758Z" fill="#E2D58B"/>
<path d="M18.499 8.03368C15.4647 10.9551 17.0268 15.6514 21.3031 22.0758C25.3089 28.0938 22.5048 37.7226 19.5303 43.925L17.2972 43.925M18.499 8.03368C8.25421 14.8541 -2.33145 27.6926 6.3447 43.925L7.98122 43.925M18.499 8.03368C11.4589 14.4529 10.5592 16.0371 9.68609 17.2613C5.68024 22.8782 4.07791 32.507 5.54353 37.7226C6.71602 41.8952 7.6572 43.5961 7.98122 43.925M18.499 8.03368C11.4487 13.49 13.692 22.8782 15.2943 29.2974C16.2864 33.2722 15.6949 37.7226 13.6919 43.925M18.499 8.03368C12.0896 11.2433 19.522 21.9433 20.3314 27.2914C21.3031 33.7106 18.7859 40.2528 17.2972 43.925M17.2972 43.925L13.6919 43.925M13.6919 43.925L10.4189 43.925M10.4189 43.925C10.4189 43.5961 11.2442 41.8125 10.4189 37.7226C9.28551 32.1058 8.88496 28.8962 9.28551 23.6806M10.4189 43.925L7.98122 43.925" stroke="#FFF8F0" stroke-width="0.75" stroke-linecap="round" stroke-linejoin="round"/>
<path d="M19.5295 43.9249C22.5041 37.7225 25.3082 28.0936 21.3023 22.0756C17.026 15.6512 15.464 10.9549 18.4982 8.03349M19.5295 43.9249L17.2965 43.9249M19.5295 43.9249L19.5295 46.0393M18.4982 8.03349C8.25345 14.854 -2.33221 27.6924 6.34394 43.9249M18.4982 8.03349C17.2363 9.40608 18.3605 7.70307 16.6449 10.0395C15.6731 11.3241 9.73135 17.8653 9.28476 23.6804C8.8842 28.896 9.28476 32.1056 10.4182 37.7225C11.2434 41.8123 10.4182 43.596 10.4182 43.9249M18.4982 8.03349C11.4581 14.4528 10.5585 16.0369 9.68533 17.2611C5.67948 22.878 4.07715 32.5068 5.54277 37.7225C6.71527 41.895 7.65644 43.596 7.98046 43.9249M18.4982 8.03349C11.4479 13.4898 13.6912 22.878 15.2935 29.2972C16.2857 33.272 15.6941 37.7225 13.6912 43.9249M18.4982 8.03349C12.0889 11.2431 19.5212 21.9431 20.3307 27.2912C21.3023 33.7105 18.7852 40.2526 17.2965 43.9249M6.34394 43.9249L6.34394 46.0393M6.34394 43.9249L7.98046 43.9249M19.5295 59.9496C24.6205 68.6904 18.3913 102.439 18.3913 141.044C18.3913 143.861 17.9502 145.918 17.2964 147.224M19.5295 59.9496L19.5295 57.7826M19.5295 59.9496L17.2965 59.9496M6.34394 59.9496C1.25301 69.9043 10.5805 115.551 11.8458 141.53C12.1999 148.799 15.527 150.76 17.2964 147.224M6.34394 59.9496L6.34394 57.7826M6.34394 59.9496L17.2965 59.9496M17.2965 43.9249L13.6912 43.9249M19.5295 57.7826L6.34394 57.7826M19.5295 57.7826L19.5295 55.7766M6.34394 57.7826L6.34394 55.7766M19.5295 55.7766L6.34394 55.7766M19.5295 55.7766L19.5295 48.1537M6.34394 55.7766L6.34394 48.1537M19.5295 48.1537L6.34394 48.1537M19.5295 48.1537L19.5295 46.0393M6.34394 48.1537L6.34394 46.0393M19.5295 46.0393L6.34394 46.0393M17.2965 59.9496C18.0263 64.7104 19.2672 75.6762 18.3913 81.4535C17.2965 88.6752 16.0947 110.741 16.0947 113.951C16.0947 117.161 17.2964 147.224 17.2964 147.224M13.6912 43.9249L10.4182 43.9249M10.4182 43.9249L7.98046 43.9249" stroke="#FFF8F0" stroke-width="0.75" stroke-linecap="round" stroke-linejoin="round"/>
<path d="M18.3917 141.045C18.3917 102.44 24.6209 68.6905 19.53 59.9497L17.2969 59.9497C18.0268 64.7105 19.2676 75.6764 18.3917 81.4537C17.2969 88.6753 16.0952 110.741 16.0952 113.951C16.0952 117.161 17.2969 147.224 17.2969 147.224C17.9506 145.918 18.3917 143.861 18.3917 141.045Z" fill="#2D2E40" stroke="#FFF8F0" stroke-width="0.75" stroke-linecap="round" stroke-linejoin="round"/>
<path d="M60.8168 29.7202L60.8168 115.671M60.8168 29.7202C60.8168 29.7202 58.6744 23.283 57.3017 19.1584M60.8168 29.7202C60.8168 29.7202 59.0842 33.3349 56.5005 29.7202M46.0289 29.7202L46.0289 115.671M46.0289 29.7202C46.0289 29.7202 48.393 23.283 49.9077 19.1584M46.0289 29.7202C46.0289 29.7202 48.2684 33.3349 50.8641 29.7202M60.8168 131.696L60.8168 147.235L46.0289 147.235L46.0289 131.696M60.8168 131.696L46.0289 131.696M60.8168 131.696L60.8168 130.025M46.0289 131.696L46.0289 130.025M46.0289 115.671L50.8641 115.671M46.0289 115.671L46.0289 117.186M60.8168 115.671L56.5005 115.671M60.8168 115.671L60.8168 117.186M49.9077 19.1584C51.4225 15.0338 53.7865 8.59666 53.7865 8.59666C53.7865 8.59666 55.9289 15.0338 57.3017 19.1584M49.9077 19.1584C52.6748 20.4964 54.2772 20.4964 57.3017 19.1584M56.5005 115.671C56.5005 115.671 56.5005 63.286 56.5005 29.7202M56.5005 115.671L50.8641 115.671M56.5005 29.7202C54.6778 32.5325 51.8737 32.1313 50.8641 29.7202M50.8641 115.671C50.8641 115.671 50.8641 63.286 50.8641 29.7202M60.8168 130.025L46.0289 130.025M60.8168 130.025L60.8168 128.019M46.0289 130.025L46.0289 128.019M60.8168 128.019L46.0289 128.019M60.8168 128.019L60.8168 123.605L60.8168 119.192M46.0289 128.019L46.0289 119.192M60.8168 117.186L46.0289 117.186M60.8168 117.186L60.8168 119.192M46.0289 117.186L46.0289 119.192M60.8168 119.192L46.0289 119.192M59.0842 124.408C59.3054 124.186 59.3054 123.827 59.0842 123.605C58.8629 123.384 58.5042 123.384 58.283 123.605C58.0618 123.827 58.0618 124.186 58.283 124.408C58.5042 124.629 58.8629 124.629 59.0842 124.408ZM55.8795 124.408C56.1007 124.186 56.1007 123.827 55.8795 123.605C55.6583 123.384 55.2996 123.384 55.0783 123.605C54.8571 123.827 54.8571 124.186 55.0783 124.408C55.2996 124.629 55.6583 124.629 55.8795 124.408ZM51.8736 124.408C52.0949 124.186 52.0949 123.827 51.8736 123.605C51.6524 123.384 51.2937 123.384 51.0725 123.605C50.8512 123.827 50.8512 124.186 51.0725 124.408C51.2937 124.629 51.6524 124.629 51.8736 124.408ZM48.669 124.408C48.8902 124.186 48.8902 123.827 48.669 123.605C48.4477 123.384 48.089 123.384 47.8678 123.605C47.6466 123.827 47.6466 124.186 47.8678 124.408C48.089 124.629 48.4477 124.629 48.669 124.408Z" stroke="#FFF8F0" stroke-width="0.75"/>
<path d="M46.0295 115.671L46.0295 29.7201C46.0295 29.7201 48.269 33.3348 50.8647 29.7201C51.8742 32.1312 54.6783 32.5324 56.5011 29.7201C59.0848 33.3348 60.8174 29.7201 60.8174 29.7201L60.8174 115.671L56.501 115.671L50.8647 115.671L46.0295 115.671Z" fill="#E2D58B"/>
<path d="M46.0295 29.7201L46.3482 29.5226C46.26 29.3801 46.088 29.3135 45.9268 29.3594C45.7656 29.4053 45.6545 29.5525 45.6545 29.7201L46.0295 29.7201ZM46.0295 115.671L45.6545 115.671L45.6545 116.046L46.0295 116.046L46.0295 115.671ZM60.8174 115.671L60.8174 116.046L61.1924 116.046L61.1924 115.671L60.8174 115.671ZM60.8174 29.7201L61.1924 29.7201L60.4792 29.558L60.8174 29.7201ZM56.5011 29.7201L56.8061 29.502L56.4859 29.054L56.1864 29.5161L56.5011 29.7201ZM50.8647 29.7201L51.2106 29.5753L50.9514 28.9563L50.5601 29.5014L50.8647 29.7201ZM45.6545 29.7201L45.6545 115.671L46.4045 115.671L46.4045 29.7201L45.6545 29.7201ZM61.1924 115.671L61.1924 29.7201L60.4424 29.7201L60.4424 115.671L61.1924 115.671ZM56.501 116.046L60.8174 116.046L60.8174 115.296L56.5011 115.296L56.501 116.046ZM60.8174 29.7201C60.4792 29.558 60.4793 29.5579 60.4794 29.5577C60.4794 29.5577 60.4794 29.5576 60.4795 29.5575C60.4795 29.5574 60.4795 29.5574 60.4795 29.5574C60.4795 29.5574 60.4794 29.5576 60.4792 29.558C60.4788 29.5588 60.478 29.5605 60.4768 29.5629C60.4743 29.5678 60.4703 29.5758 60.4647 29.5867C60.4534 29.6083 60.4359 29.6411 60.4123 29.6824C60.365 29.7652 60.2941 29.881 60.2017 30.0097C60.0134 30.2718 59.7516 30.565 59.4357 30.7537C59.1305 30.9361 58.7834 31.018 58.3805 30.8881C57.9615 30.7531 57.4278 30.3717 56.8061 29.502L56.196 29.9381C56.8662 30.8758 57.518 31.3982 58.1505 31.602C58.7991 31.811 59.3696 31.6669 59.8205 31.3975C60.2607 31.1344 60.5936 30.7498 60.8109 30.4472C60.9213 30.2934 61.006 30.1551 61.0635 30.0543C61.0924 30.0038 61.1146 29.9625 61.1299 29.9329C61.1376 29.9182 61.1436 29.9063 61.1479 29.8978C61.15 29.8935 61.1517 29.89 61.153 29.8874C61.1537 29.8861 61.1542 29.885 61.1546 29.8841C61.1548 29.8837 61.155 29.8833 61.1552 29.883C61.1552 29.8828 61.1553 29.8826 61.1554 29.8825C61.1555 29.8823 61.1556 29.8822 60.8174 29.7201ZM56.876 115.671L56.8761 29.7201L56.1261 29.7201L56.126 115.671L56.876 115.671ZM46.0295 116.046L50.8647 116.046L50.8647 115.296L46.0295 115.296L46.0295 116.046ZM50.8647 116.046L56.501 116.046L56.5011 115.296L50.8647 115.296L50.8647 116.046ZM56.1864 29.5161C55.326 30.8437 54.2821 31.3465 53.3957 31.3043C52.5102 31.2622 51.6698 30.6722 51.2106 29.5753L50.5188 29.8649C51.069 31.1792 52.1355 31.9953 53.3601 32.0535C54.5839 32.1116 55.8534 31.4089 56.8157 29.924L56.1864 29.5161ZM50.5601 29.5014C49.9411 30.3634 49.3769 30.7472 48.9081 30.8854C48.4463 31.0215 48.0227 30.935 47.6443 30.7417C47.2596 30.5451 46.9345 30.2433 46.7005 29.9796C46.585 29.8493 46.4951 29.7323 46.4347 29.6487C46.4046 29.607 46.382 29.5739 46.3674 29.552C46.3601 29.541 46.3548 29.5329 46.3516 29.5279C46.35 29.5254 46.3489 29.5236 46.3483 29.5227C46.3481 29.5223 46.3479 29.5221 46.3479 29.522C46.3479 29.522 46.3479 29.5221 46.348 29.5221C46.348 29.5222 46.3481 29.5223 46.3481 29.5223C46.3482 29.5225 46.3482 29.5226 46.0295 29.7201C45.7107 29.9176 45.7108 29.9177 45.7109 29.9179C45.7109 29.918 45.7111 29.9182 45.7112 29.9183C45.7114 29.9187 45.7116 29.919 45.7118 29.9195C45.7124 29.9203 45.713 29.9214 45.7138 29.9226C45.7155 29.9252 45.7176 29.9286 45.7203 29.9328C45.7257 29.9413 45.7333 29.953 45.7431 29.9676C45.7625 29.9968 45.7906 30.0379 45.8268 30.088C45.899 30.1879 46.0044 30.3251 46.1394 30.4773C46.4064 30.7783 46.8035 31.1543 47.3031 31.4096C47.809 31.668 48.432 31.8076 49.1201 31.6048C49.8013 31.404 50.4904 30.8842 51.1693 29.9388L50.5601 29.5014ZM51.2397 115.671L51.2397 29.7201L50.4897 29.7201L50.4897 115.671L51.2397 115.671Z" fill="#FFF8F0"/>
<path d="M49.908 19.1583L53.7868 8.59657L57.3019 19.1583C54.2774 20.4963 52.6751 20.4963 49.908 19.1583Z" fill="#2D2E40" stroke="#FFF8F0" stroke-width="0.75"/>
<path d="M104.513 31.0501L108.391 31.0501L108.391 39.3053L108.391 45.4454L108.391 48.2538L108.391 52.667L108.391 55.4754L108.391 113.65L108.391 116.859L108.391 121.273L108.391 124.482L108.391 130.355L108.391 142.98L88.5127 142.98L88.5127 130.355L88.5127 124.482L88.5127 121.273L88.5127 116.859L88.5127 113.65L88.5127 55.4754L88.5127 52.667L88.5127 48.2538L88.5127 45.4454L88.5127 39.3053L88.5127 31.0501L91.9066 31.0501L95.7854 8.4698L100.634 8.4698L104.513 31.0501Z" fill="#FFF8F0" fill-opacity="0.1"/>
<path d="M88.5127 39.3053L88.5127 31.0501L91.9066 31.0501L95.7854 8.4698L100.634 8.4698L104.513 31.0501L108.391 31.0501L108.391 39.3053M88.5127 39.3053L108.391 39.3053M88.5127 39.3053L88.5127 45.4454M108.391 39.3053L108.391 45.4454M108.391 130.355L108.391 142.98L88.5127 142.98L88.5127 130.355M108.391 130.355L88.5127 130.355M108.391 130.355L108.391 124.482M88.5127 130.355L88.5127 124.482M108.391 45.4454L88.5127 45.4454M108.391 45.4454L108.391 48.2538M88.5127 45.4454L88.5127 48.2538M88.5127 48.2538L108.391 48.2538M88.5127 48.2538L88.5127 52.667M108.391 48.2538L108.391 52.667M108.391 52.667L88.5127 52.667M108.391 52.667L108.391 55.4754M88.5127 52.667L88.5127 55.4754M88.5127 55.4754L108.391 55.4754M88.5127 55.4754L88.5127 113.65M108.391 55.4754L108.391 113.65M108.391 124.482L88.5127 124.482M108.391 124.482L108.391 121.273M88.5127 124.482L88.5127 121.273M88.5127 121.273L108.391 121.273M88.5127 121.273L88.5127 116.859M108.391 121.273L108.391 116.859M108.391 116.859L88.5127 116.859M108.391 116.859L108.391 113.65M88.5127 116.859L88.5127 113.65M88.5127 113.65L108.391 113.65" stroke="#FFF8F0" stroke-width="0.75"/>
<path d="M88.5134 45.4456L108.392 45.4456L108.392 48.254L88.5134 48.254L88.5134 45.4456Z" fill="#2D2E40" stroke="#FFF8F0" stroke-width="0.75"/>
<path d="M88.5134 52.667L108.392 52.667L108.392 55.4754L88.5134 55.4754L88.5134 52.667Z" fill="#2D2E40" stroke="#FFF8F0" stroke-width="0.75"/>
<path d="M104.513 31.0501L108.392 31.0501L108.392 39.3053L88.5134 39.3053L88.5134 31.0501L91.9073 31.0501L95.7861 8.46985L100.635 8.46985L104.513 31.0501Z" fill="#E2D58B" stroke="#FFF8F0" stroke-width="0.75"/>
<path d="M160.95 35.6699L165.314 35.6699L165.314 44.5755L165.314 48.9888L165.314 130.032L165.314 134.846L165.314 143.715L160.465 143.715L160.465 148.086L144.465 148.086L144.465 143.715L139.374 143.715L139.374 134.846L139.374 130.032L139.374 48.9887L139.374 44.5755L139.374 35.6699L143.496 35.6699L160.95 35.6699Z" fill="#FFF8F0" fill-opacity="0.1"/>
<path d="M160.95 35.6699L165.314 35.6699L165.314 44.5755M160.95 35.6699C162.243 30.3283 160.465 14.5464 152.708 7.99082C144.465 13.5752 142.72 26.5406 143.496 35.6699M160.95 35.6699L143.496 35.6699M143.496 35.6699L139.374 35.6699L139.374 44.5755M144.465 143.715L139.374 143.715L139.374 134.846M144.465 143.715L144.465 148.086L160.465 148.086L160.465 143.715M144.465 143.715L160.465 143.715M160.465 143.715L165.314 143.715L165.314 134.846M165.314 44.5755L139.374 44.5755M165.314 44.5755L165.314 48.9888M139.374 44.5755L139.374 48.9887M139.374 48.9887L165.314 48.9888M139.374 48.9887L139.374 130.032M165.314 48.9888L165.314 130.032M165.314 134.846L139.374 134.846M165.314 134.846L165.314 130.032M139.374 134.846L139.374 130.032M139.374 130.032L165.314 130.032" stroke="#FFF8F0" stroke-width="0.75"/>
<path d="M139.372 48.9935L165.312 48.9935L165.312 44.179L139.372 44.179L139.372 48.9935Z" fill="#FFF8F0" stroke="#FFF8F0" stroke-width="0.75"/>
<path d="M152.706 7.99562C160.463 14.5512 162.241 30.3331 160.948 35.6747L143.494 35.6747C142.718 26.5454 144.463 13.58 152.706 7.99562Z" fill="#FFF8F0" stroke="#FFF8F0" stroke-width="0.75"/>
<rect x="190.785" y="9.64413" width="14.6391" height="15.2991" fill="#FFF8F0" fill-opacity="0.7"/>
<path d="M190.887 126.874L190.887 40.9235M190.887 126.874C190.887 126.874 193.03 133.311 194.403 137.436M190.887 126.874C190.887 126.874 192.62 123.26 195.204 126.874M205.675 126.874L205.675 40.9235M205.675 126.874C205.675 126.874 203.311 133.311 201.796 137.436M205.675 126.874C205.675 126.874 203.436 123.26 200.84 126.874M190.887 24.8988L190.887 9.35966L205.675 9.35966L205.675 24.8988M190.887 24.8988L205.675 24.8988M190.887 24.8988L190.887 26.5698M205.675 24.8988L205.675 26.5698M205.675 40.9235L200.84 40.9235M205.675 40.9235L205.675 39.4083M190.887 40.9235L195.204 40.9235M190.887 40.9235L190.887 39.4083M201.796 137.436C200.282 141.561 197.918 147.998 197.918 147.998C197.918 147.998 195.775 141.561 194.403 137.436M201.796 137.436C199.029 136.098 197.427 136.098 194.403 137.436M195.204 40.9235C195.204 40.9235 195.204 93.3084 195.204 126.874M195.204 40.9235L200.84 40.9235M195.204 126.874C197.026 124.062 199.831 124.463 200.84 126.874M200.84 40.9235C200.84 40.9235 200.84 93.3084 200.84 126.874M190.887 26.5698L205.675 26.5698M190.887 26.5698L190.887 28.5758M205.675 26.5698L205.675 28.5758M190.887 28.5758L205.675 28.5758M190.887 28.5758L190.887 32.989L190.887 37.4023M205.675 28.5758L205.675 37.4023M190.887 39.4083L205.675 39.4083M190.887 39.4083L190.887 37.4023M205.675 39.4083L205.675 37.4023M190.887 37.4023L205.675 37.4023M192.62 32.1866C192.399 32.4082 192.399 32.7675 192.62 32.989C192.841 33.2106 193.2 33.2106 193.421 32.989C193.642 32.7675 193.642 32.4082 193.421 32.1866C193.2 31.9651 192.841 31.9651 192.62 32.1866ZM195.825 32.1866C195.603 32.4082 195.603 32.7675 195.825 32.989C196.046 33.2106 196.405 33.2106 196.626 32.989C196.847 32.7675 196.847 32.4082 196.626 32.1866C196.405 31.9651 196.046 31.9651 195.825 32.1866ZM199.831 32.1866C199.609 32.4082 199.609 32.7675 199.831 32.989C200.052 33.2106 200.41 33.2106 200.632 32.989C200.853 32.7675 200.853 32.4082 200.632 32.1866C200.41 31.9651 200.052 31.9651 199.831 32.1866ZM203.035 32.1866C202.814 32.4082 202.814 32.7675 203.035 32.989C203.256 33.2106 203.615 33.2106 203.836 32.989C204.058 32.7675 204.058 32.4082 203.836 32.1866C203.615 31.9651 203.256 31.9651 203.035 32.1866Z" stroke="#FFF8F0" stroke-width="0.75"/>
<path d="M205.677 40.9236L205.677 126.874C205.677 126.874 203.438 123.26 200.842 126.874C199.833 124.463 197.029 124.062 195.206 126.874C192.622 123.26 190.889 126.874 190.889 126.874L190.889 40.9236L195.206 40.9236L200.842 40.9236L205.677 40.9236Z" fill="#E2D58B"/>
<path d="M205.677 126.874L205.359 127.072C205.447 127.214 205.619 127.281 205.78 127.235C205.941 127.189 206.052 127.042 206.052 126.874L205.677 126.874ZM205.677 40.9236L206.052 40.9236L206.052 40.5486L205.677 40.5486L205.677 40.9236ZM190.889 40.9236L190.889 40.5486L190.514 40.5486L190.514 40.9236L190.889 40.9236ZM190.889 126.874L190.514 126.874L191.228 127.036L190.889 126.874ZM195.206 126.874L194.901 127.092L195.221 127.54L195.521 127.078L195.206 126.874ZM200.842 126.874L200.496 127.019L200.755 127.638L201.147 127.093L200.842 126.874ZM206.052 126.874L206.052 40.9236L205.302 40.9236L205.302 126.874L206.052 126.874ZM190.514 40.9236L190.514 126.874L191.264 126.874L191.264 40.9236L190.514 40.9236ZM195.206 40.5486L190.889 40.5486L190.889 41.2986L195.206 41.2986L195.206 40.5486ZM190.889 126.874C191.228 127.036 191.228 127.037 191.228 127.037C191.228 127.037 191.227 127.037 191.227 127.037C191.227 127.037 191.227 127.037 191.227 127.037C191.227 127.037 191.227 127.037 191.228 127.036C191.228 127.036 191.229 127.034 191.23 127.032C191.233 127.027 191.237 127.019 191.242 127.008C191.253 126.986 191.271 126.953 191.295 126.912C191.342 126.829 191.413 126.713 191.505 126.585C191.693 126.323 191.955 126.029 192.271 125.841C192.576 125.658 192.923 125.576 193.326 125.706C193.745 125.841 194.279 126.223 194.901 127.092L195.511 126.656C194.841 125.719 194.189 125.196 193.556 124.992C192.908 124.783 192.337 124.927 191.886 125.197C191.446 125.46 191.113 125.845 190.896 126.147C190.786 126.301 190.701 126.439 190.643 126.54C190.615 126.591 190.592 126.632 190.577 126.661C190.569 126.676 190.563 126.688 190.559 126.697C190.557 126.701 190.555 126.704 190.554 126.707C190.553 126.708 190.553 126.709 190.552 126.71C190.552 126.711 190.552 126.711 190.552 126.711C190.552 126.712 190.552 126.712 190.552 126.712C190.551 126.712 190.551 126.712 190.889 126.874ZM194.831 40.9236L194.831 126.874L195.581 126.874L195.581 40.9236L194.831 40.9236ZM205.677 40.5486L200.842 40.5486L200.842 41.2986L205.677 41.2986L205.677 40.5486ZM200.842 40.5486L195.206 40.5486L195.206 41.2986L200.842 41.2986L200.842 40.5486ZM195.521 127.078C196.381 125.751 197.425 125.248 198.311 125.29C199.197 125.332 200.037 125.922 200.496 127.019L201.188 126.73C200.638 125.415 199.571 124.599 198.347 124.541C197.123 124.483 195.853 125.186 194.891 126.67L195.521 127.078ZM201.147 127.093C201.766 126.231 202.33 125.847 202.799 125.709C203.261 125.573 203.684 125.659 204.063 125.853C204.447 126.049 204.772 126.351 205.006 126.615C205.122 126.745 205.212 126.862 205.272 126.946C205.302 126.987 205.325 127.02 205.339 127.042C205.347 127.053 205.352 127.062 205.355 127.067C205.357 127.069 205.358 127.071 205.359 127.072C205.359 127.072 205.359 127.072 205.359 127.072C205.359 127.072 205.359 127.072 205.359 127.072C205.359 127.072 205.359 127.072 205.359 127.072C205.359 127.072 205.359 127.072 205.677 126.874C205.996 126.677 205.996 126.677 205.996 126.677C205.996 126.676 205.996 126.676 205.996 126.676C205.996 126.676 205.995 126.675 205.995 126.675C205.994 126.674 205.994 126.673 205.993 126.672C205.991 126.669 205.989 126.666 205.987 126.662C205.981 126.653 205.974 126.641 205.964 126.627C205.944 126.598 205.916 126.557 205.88 126.506C205.808 126.407 205.702 126.269 205.567 126.117C205.3 125.816 204.903 125.44 204.404 125.185C203.898 124.926 203.275 124.787 202.587 124.99C201.906 125.19 201.216 125.71 200.538 126.656L201.147 127.093ZM200.467 40.9236L200.467 126.874L201.217 126.874L201.217 40.9236L200.467 40.9236Z" fill="#FFF8F0"/>
</g>
<path d="M121.909 100.801C121.909 94.0356 127.385 88.5522 134.138 88.5522C140.892 88.5522 146.368 94.0356 146.368 100.801C146.368 107.567 140.892 113.051 134.138 113.051C127.385 113.051 121.909 107.567 121.909 100.801Z" fill="#FF0000" stroke="#FFF8F0"/>
<path d="M151.823 100.801C151.823 94.0356 157.299 88.5522 164.053 88.5522C170.806 88.5522 176.283 94.0356 176.283 100.801C176.283 107.567 170.806 113.051 164.053 113.051C157.299 113.051 151.823 107.567 151.823 100.801Z" fill="black" stroke="#FFF8F0"/>
<path d="M181.738 100.801C181.738 94.0356 187.214 88.5522 193.968 88.5522C200.721 88.5522 206.197 94.0356 206.197 100.801C206.197 107.567 200.721 113.051 193.968 113.051C187.214 113.051 181.738 107.567 181.738 100.801Z" fill="white" stroke="#FFF8F0"/>
<path d="M91.9939 100.801C91.9939 94.0356 97.47 88.5522 104.224 88.5522C110.977 88.5522 116.453 94.0356 116.453 100.801C116.453 107.567 110.977 113.051 104.224 113.051C97.47 113.051 91.9939 107.567 91.9939 100.801Z" fill="#FF7A00" stroke="#FFF8F0"/>
<path d="M62.7157 100.801C62.7157 94.0356 68.1918 88.5521 74.9454 88.5521C81.6989 88.5521 87.175 94.0356 87.175 100.801C87.175 107.567 81.6989 113.051 74.9454 113.051C68.1918 113.051 62.7157 107.567 62.7157 100.801Z" fill="#FFE600" stroke="#FFF8F0"/>
<path d="M32.801 100.801C32.801 94.0356 38.2771 88.5522 45.0306 88.5522C51.7842 88.5522 57.2603 94.0356 57.2603 100.801C57.2603 107.567 51.7842 113.051 45.0306 113.051C38.2771 113.051 32.801 107.567 32.801 100.801Z" fill="#00FF38" stroke="#FFF8F0"/>
<path d="M2.88637 100.801C2.88638 94.0356 8.3625 88.5521 15.116 88.5521C21.8695 88.5521 27.3457 94.0356 27.3457 100.801C27.3457 107.567 21.8695 113.051 15.116 113.051C8.3625 113.051 2.88637 107.567 2.88637 100.801Z" fill="#0083FB" stroke="#FFF8F0"/>
</svg>
