<svg width="43" height="36" viewBox="0 0 43 36" fill="none" xmlns="http://www.w3.org/2000/svg">
<path fill-rule="evenodd" clip-rule="evenodd" d="M36.7686 35.7326C40.4602 31.9516 42.7351 26.7811 42.7351 21.0794C42.7351 9.49418 33.3435 0.102539 21.7583 0.102539C10.1731 0.102539 0.781464 9.49418 0.781464 21.0794C0.781464 26.394 2.75788 31.247 6.01581 34.9434C7.21051 27.558 13.616 21.9184 21.3387 21.9184C29.3343 21.9184 35.918 27.9635 36.7686 35.7326ZM29.3099 11.8496C29.3099 16.0202 25.9289 19.4012 21.7583 19.4012C17.5876 19.4012 14.2066 16.0202 14.2066 11.8496C14.2066 7.67889 17.5876 4.2979 21.7583 4.2979C25.9289 4.2979 29.3099 7.67889 29.3099 11.8496Z" fill="#2D2E40"/>
</svg>
