<svg width="120" height="120" viewBox="0 0 120 120" fill="none" xmlns="http://www.w3.org/2000/svg">
<circle cx="60" cy="60" r="60" fill="#130000"/>
<path d="M12.6 60.86L13.56 55.94H17.22L16.26 60.86H12.6ZM8.97 68H11.25L12.18 63.11H15.84L14.91 68H17.19L18.12 63.11H21.06V60.86H18.54L19.5 55.94H22.02V53.69H19.92L20.85 48.8H18.57L17.64 53.69H13.98L14.91 48.8H12.63L11.7 53.69H8.94V55.94H11.28L10.32 60.86H7.98V63.11H9.9L8.97 68ZM24.69 68H36.27V65.51H32.73V48.8H31.38L24.06 52.97V55.97L29.91 52.67V65.51H24.69V68ZM46.11 68H48.93V63.59H52.23V61.16H48.93V48.8H47.58L37.95 61.64V63.59H46.11V68ZM40.62 61.16L46.11 53.9V61.16H40.62ZM60 68.3C64.53 68.3 66.78 65.12 66.78 58.97V57.83C66.78 51.68 64.53 48.5 60 48.5C55.47 48.5 53.22 51.68 53.22 57.83V58.97C53.22 65.12 55.47 68.3 60 68.3ZM56.01 59.75C55.98 59.45 55.98 59.15 55.98 58.85V57.95C55.98 53.24 57.24 51.02 60 51.02C61.95 51.02 63.15 52.13 63.69 54.44L56.01 59.75ZM60 65.78C58.05 65.78 56.85 64.67 56.31 62.36L63.99 57.05C64.02 57.35 64.02 57.65 64.02 57.95V58.85C64.02 63.56 62.76 65.78 60 65.78ZM75 68.3C79.53 68.3 81.78 65.12 81.78 58.97V57.83C81.78 51.68 79.53 48.5 75 48.5C70.47 48.5 68.22 51.68 68.22 57.83V58.97C68.22 65.12 70.47 68.3 75 68.3ZM71.01 59.75C70.98 59.45 70.98 59.15 70.98 58.85V57.95C70.98 53.24 72.24 51.02 75 51.02C76.95 51.02 78.15 52.13 78.69 54.44L71.01 59.75ZM75 65.78C73.05 65.78 71.85 64.67 71.31 62.36L78.99 57.05C79.02 57.35 79.02 57.65 79.02 57.95V58.85C79.02 63.56 77.76 65.78 75 65.78ZM90 68.3C94.53 68.3 96.78 65.12 96.78 58.97V57.83C96.78 51.68 94.53 48.5 90 48.5C85.47 48.5 83.22 51.68 83.22 57.83V58.97C83.22 65.12 85.47 68.3 90 68.3ZM86.01 59.75C85.98 59.45 85.98 59.15 85.98 58.85V57.95C85.98 53.24 87.24 51.02 90 51.02C91.95 51.02 93.15 52.13 93.69 54.44L86.01 59.75ZM90 65.78C88.05 65.78 86.85 64.67 86.31 62.36L93.99 57.05C94.02 57.35 94.02 57.65 94.02 57.95V58.85C94.02 63.56 92.76 65.78 90 65.78ZM105 68.3C109.53 68.3 111.78 65.12 111.78 58.97V57.83C111.78 51.68 109.53 48.5 105 48.5C100.47 48.5 98.22 51.68 98.22 57.83V58.97C98.22 65.12 100.47 68.3 105 68.3ZM101.01 59.75C100.98 59.45 100.98 59.15 100.98 58.85V57.95C100.98 53.24 102.24 51.02 105 51.02C106.95 51.02 108.15 52.13 108.69 54.44L101.01 59.75ZM105 65.78C103.05 65.78 101.85 64.67 101.31 62.36L108.99 57.05C109.02 57.35 109.02 57.65 109.02 57.95V58.85C109.02 63.56 107.76 65.78 105 65.78Z" fill="#F4F2F3"/>
</svg>
