<svg width="120" height="120" viewBox="0 0 120 120" fill="none" xmlns="http://www.w3.org/2000/svg">
<circle cx="60" cy="60" r="60" fill="#424B54"/>
<path d="M12.6 60.86L13.56 55.94H17.22L16.26 60.86H12.6ZM8.97 68H11.25L12.18 63.11H15.84L14.91 68H17.19L18.12 63.11H21.06V60.86H18.54L19.5 55.94H22.02V53.69H19.92L20.85 48.8H18.57L17.64 53.69H13.98L14.91 48.8H12.63L11.7 53.69H8.94V55.94H11.28L10.32 60.86H7.98V63.11H9.9L8.97 68ZM31.11 68H33.93V63.59H37.23V61.16H33.93V48.8H32.58L22.95 61.64V63.59H31.11V68ZM25.62 61.16L31.11 53.9V61.16H25.62ZM39.45 68H51.42V65.51H43.29C48.45 60.26 50.85 57.65 50.85 54.17C50.85 50.72 48.6 48.5 44.94 48.5C42.48 48.5 40.86 49.16 39.51 50.45V53.42C40.83 52.1 42.48 51.02 44.79 51.02C46.86 51.02 48.09 52.28 48.09 54.32C48.09 57.62 44.58 60.62 39.45 65.99V68ZM61.11 68H63.93V63.59H67.23V61.16H63.93V48.8H62.58L52.95 61.64V63.59H61.11V68ZM55.62 61.16L61.11 53.9V61.16H55.62ZM69 68H76.26C79.59 68 81.99 66.05 81.99 62.84C81.99 60.68 80.97 58.85 78.6 58.04C80.43 57.11 80.97 55.37 80.97 53.78C80.97 50.63 78.51 48.8 75.21 48.8H69V68ZM71.91 57.29V51.41H74.85C76.83 51.41 78.03 52.46 78.03 54.35C78.03 56.12 77.04 57.29 75.12 57.29H71.91ZM71.91 65.39V59.66H75.84C77.88 59.66 79.05 60.71 79.05 62.48C79.05 64.34 77.97 65.39 75.93 65.39H71.91ZM89.55 68.3C93.69 68.3 96.21 66.17 96.21 62.69C96.21 58.91 93.84 56.96 89.94 56.96H87.33V51.29H95.46V48.8H84.69V59.42H89.28C92.16 59.42 93.45 60.71 93.45 62.93C93.45 64.91 91.62 65.84 89.49 65.84C87.63 65.84 85.62 65.21 84.18 63.83V66.65C85.38 67.79 87.36 68.3 89.55 68.3ZM106.11 68H108.93V63.59H112.23V61.16H108.93V48.8H107.58L97.95 61.64V63.59H106.11V68ZM100.62 61.16L106.11 53.9V61.16H100.62Z" fill="white"/>
</svg>
