<svg width="120" height="120" viewBox="0 0 120 120" fill="none" xmlns="http://www.w3.org/2000/svg">
<circle cx="60" cy="60" r="60" fill="#94A8AC"/>
<path d="M12.6 60.86L13.56 55.94H17.22L16.26 60.86H12.6ZM8.97 68H11.25L12.18 63.11H15.84L14.91 68H17.19L18.12 63.11H21.06V60.86H18.54L19.5 55.94H22.02V53.69H19.92L20.85 48.8H18.57L17.64 53.69H13.98L14.91 48.8H12.63L11.7 53.69H8.94V55.94H11.28L10.32 60.86H7.98V63.11H9.9L8.97 68ZM29.97 58.01C27.9 58.01 25.98 57.14 25.98 54.44C25.98 52.64 27.21 51.02 29.58 51.02C32.25 51.02 33.42 53.24 33.54 57.11C32.55 57.65 31.23 58.01 29.97 58.01ZM29.07 68.3C33.63 68.24 36.39 65 36.39 58.94V57.92C36.39 51.92 34.23 48.5 29.43 48.5C25.44 48.5 23.19 51.29 23.19 54.62C23.19 58.85 26.25 60.53 29.37 60.53C30.87 60.53 32.37 60.14 33.57 59.45C33.39 64.34 31.44 65.78 28.77 65.78C26.91 65.78 24.72 64.94 23.73 64.16V67.01C25.35 67.91 27.12 68.3 29.07 68.3ZM44.52 68.3C48.66 68.3 51.18 66.17 51.18 62.69C51.18 60.62 50.13 58.76 47.94 57.95C49.71 56.9 50.43 55.34 50.43 53.63C50.43 50.66 48.03 48.5 44.55 48.5C42.09 48.5 40.53 49.16 39.18 50.45V53.42C40.47 52.13 42.06 51.02 44.28 51.02C46.65 51.02 47.67 52.31 47.67 54.11C47.67 55.94 46.41 57.2 44.49 57.2H42.57V59.72H45.21C47.43 59.72 48.42 60.92 48.42 62.93C48.42 64.91 46.59 65.84 44.46 65.84C42.6 65.84 40.59 65.21 39.15 63.83V66.65C40.35 67.79 42.33 68.3 44.52 68.3ZM57.42 61.25L60 51.95L62.58 61.25H57.42ZM52.65 68H55.53L56.76 63.59H63.24L64.47 68H67.35L61.41 48.8H58.59L52.65 68ZM75 68.3C78.99 68.3 81.48 66.29 81.48 62.9C81.48 60.83 80.37 58.97 78.09 58.1C79.95 57.05 80.7 55.37 80.7 53.66C80.7 50.81 78.39 48.5 75 48.5C71.61 48.5 69.33 50.81 69.33 53.66C69.33 55.37 70.08 57.05 71.94 58.1C69.66 58.97 68.55 60.83 68.55 62.9C68.55 66.26 70.98 68.3 75 68.3ZM75 57.26C73.29 57.26 72.21 55.82 72.21 54.14C72.21 52.55 73.02 50.96 75 50.96C76.98 50.96 77.79 52.55 77.79 54.14C77.79 55.82 76.71 57.26 75 57.26ZM75 65.9C72.96 65.9 71.4 64.88 71.4 62.99C71.4 61.07 72.69 59.75 75 59.75C77.31 59.75 78.6 61.07 78.6 62.99C78.6 64.88 77.04 65.9 75 65.9ZM87.42 61.25L90 51.95L92.58 61.25H87.42ZM82.65 68H85.53L86.76 63.59H93.24L94.47 68H97.35L91.41 48.8H88.59L82.65 68ZM106.35 68.3C108.81 68.3 110.4 67.79 111.48 67.31V64.55C110.64 65.06 108.87 65.63 106.89 65.63C104.34 65.63 101.76 64.01 101.76 58.91V57.77C101.76 53.12 103.59 51.29 106.92 51.29C108.3 51.29 109.77 51.65 111.15 52.31V49.46C109.86 48.83 108.24 48.5 106.59 48.5C102.78 48.5 98.85 50.84 98.85 57.65V59.06C98.85 66.71 103.23 68.3 106.35 68.3Z" fill="white"/>
</svg>
