<svg width="327" height="45" viewBox="0 0 327 45" fill="none" xmlns="http://www.w3.org/2000/svg">
<rect width="327" height="45" rx="22.5" fill="#D3FC61"/>
<path d="M102.43 13.5H99.7141L93.1341 31H95.5981L97.2501 26.408H104.838L106.49 31H108.926L102.43 13.5ZM104.054 24.252H98.0341L101.058 15.964L104.054 24.252ZM113.356 31V11.764L111.06 12.128V31H113.356ZM118.806 24.868C118.806 24.868 127.402 24.812 127.43 24.812C127.598 24.252 127.71 23.468 127.71 22.768C127.71 19.716 125.918 17.756 122.81 17.756C119.226 17.756 116.482 20.584 116.482 24.728C116.482 28.648 119.114 31.42 122.978 31.42C124.602 31.42 126.142 31.056 127.29 30.356L126.87 28.228C125.834 28.928 124.378 29.292 123.034 29.292C120.57 29.292 118.89 27.5 118.806 24.98V24.868ZM118.918 23.188C119.114 21.508 120.402 19.772 122.586 19.772C124.602 19.772 125.498 21.032 125.498 22.936V23.132L118.918 23.188ZM133.071 22.628C134.023 20.864 135.199 19.968 136.431 19.968C137.075 19.968 137.775 20.136 138.475 20.556L139.063 18.4C138.391 17.98 137.523 17.756 136.655 17.756C135.031 17.756 133.967 18.596 133.071 20.024V17.756L130.775 18.12V31H133.071V22.628ZM148.461 30.86C148.461 30.86 148.069 28.844 148.041 28.844C147.285 29.124 146.501 29.32 145.717 29.32C144.569 29.32 144.009 28.704 144.037 27.5L144.233 20.248H148.237L148.321 18.176H144.317L144.401 15.236H142.189L142.133 18.008L140.005 18.652L139.921 20.108L142.049 20.248L141.853 27.416C141.769 30.216 143.085 31.42 145.577 31.42C146.529 31.42 147.509 31.224 148.461 30.86ZM166.7 21.984C168.66 21.256 169.696 19.94 169.696 18.148C169.696 15.404 167.82 13.5 163.592 13.5H157.796V31H163.76C168.268 31 170.256 29.012 170.256 26.044C170.256 24.084 169.024 22.572 166.7 21.984ZM167.316 18.344C167.316 20.052 165.944 21.172 163.424 21.172C163.424 21.172 160.204 21.172 160.176 21.172V15.684H163.788C166.084 15.684 167.316 16.664 167.316 18.344ZM167.876 26.072C167.876 27.892 166.588 28.816 163.984 28.816H160.176V23.328H163.62C166.084 23.328 167.876 24.056 167.876 26.072ZM173.319 18.176V26.996C173.319 29.768 174.859 31.42 177.323 31.42C178.947 31.42 180.459 30.72 181.635 29.544C181.635 29.684 181.635 31.42 181.635 31.42L183.931 31.056V18.176H181.635V27.808C180.907 28.508 179.619 29.208 178.135 29.208C176.455 29.208 175.615 28.452 175.615 26.24V18.176H173.319ZM194.644 30.86C194.644 30.86 194.252 28.844 194.224 28.844C193.468 29.124 192.684 29.32 191.9 29.32C190.752 29.32 190.192 28.704 190.22 27.5L190.416 20.248H194.42L194.504 18.176H190.5L190.584 15.236H188.372L188.316 18.008L186.188 18.652L186.104 20.108L188.232 20.248L188.036 27.416C187.952 30.216 189.268 31.42 191.76 31.42C192.712 31.42 193.692 31.224 194.644 30.86ZM204.132 30.86C204.132 30.86 203.74 28.844 203.712 28.844C202.956 29.124 202.172 29.32 201.388 29.32C200.24 29.32 199.68 28.704 199.708 27.5L199.904 20.248H203.908L203.992 18.176H199.988L200.072 15.236H197.86L197.804 18.008L195.676 18.652L195.592 20.108L197.72 20.248L197.524 27.416C197.44 30.216 198.756 31.42 201.248 31.42C202.2 31.42 203.18 31.224 204.132 30.86ZM218.384 24.588C218.384 20.444 215.892 17.728 212.224 17.728C208.528 17.728 205.896 20.472 205.896 24.588C205.896 28.732 208.444 31.42 212.084 31.42C215.696 31.42 218.384 28.704 218.384 24.588ZM216.116 24.616C216.116 27.388 214.716 29.348 212.168 29.348C209.648 29.348 208.164 27.304 208.164 24.56C208.164 21.788 209.564 19.8 212.112 19.8C214.632 19.8 216.116 21.872 216.116 24.616ZM232.141 31V22.18C232.141 19.408 230.601 17.756 227.997 17.756C226.513 17.756 225.001 18.512 223.825 19.688V17.756L221.529 18.12V31H223.825V21.368C224.553 20.668 225.841 19.968 227.185 19.968C229.005 19.968 229.845 20.724 229.845 22.936V31H232.141Z" fill="#424B54"/>
</svg>
