<svg width="149" height="150" viewBox="0 0 149 150" fill="none" xmlns="http://www.w3.org/2000/svg">
<mask id="path-1-inside-1" fill="white">
<path fill-rule="evenodd" clip-rule="evenodd" d="M70.0807 5.98047C70.0807 3.21904 67.8421 0.980469 65.0806 0.980469H5C2.23858 0.980469 0 3.21904 0 5.98047V66.061C0 68.8224 2.23858 71.061 5.00001 71.061H65.0807C67.8421 71.061 70.0807 68.8224 70.0807 66.061V5.98047ZM149 5.98047C149 3.21904 146.761 0.980469 144 0.980469H83.9193C81.1579 0.980469 78.9193 3.21904 78.9193 5.98047V66.061C78.9193 68.8224 81.1579 71.061 83.9193 71.061H144C146.761 71.061 149 68.8224 149 66.061V5.98047ZM0 84.8999C0 82.1385 2.23858 79.8999 5.00001 79.8999H65.0807C67.8421 79.8999 70.0807 82.1385 70.0807 84.8999V144.98C70.0807 147.742 67.8421 149.98 65.0806 149.98H5C2.23858 149.98 0 147.742 0 144.98V84.8999ZM149 84.8999C149 82.1385 146.762 79.8999 144 79.8999H83.9194C81.158 79.8999 78.9194 82.1385 78.9194 84.8999V144.98C78.9194 147.742 81.158 149.98 83.9194 149.98H144C146.762 149.98 149 147.742 149 144.98V84.8999Z"/>
</mask>
<path fill-rule="evenodd" clip-rule="evenodd" d="M70.0807 5.98047C70.0807 3.21904 67.8421 0.980469 65.0806 0.980469H5C2.23858 0.980469 0 3.21904 0 5.98047V66.061C0 68.8224 2.23858 71.061 5.00001 71.061H65.0807C67.8421 71.061 70.0807 68.8224 70.0807 66.061V5.98047ZM149 5.98047C149 3.21904 146.761 0.980469 144 0.980469H83.9193C81.1579 0.980469 78.9193 3.21904 78.9193 5.98047V66.061C78.9193 68.8224 81.1579 71.061 83.9193 71.061H144C146.761 71.061 149 68.8224 149 66.061V5.98047ZM0 84.8999C0 82.1385 2.23858 79.8999 5.00001 79.8999H65.0807C67.8421 79.8999 70.0807 82.1385 70.0807 84.8999V144.98C70.0807 147.742 67.8421 149.98 65.0806 149.98H5C2.23858 149.98 0 147.742 0 144.98V84.8999ZM149 84.8999C149 82.1385 146.762 79.8999 144 79.8999H83.9194C81.158 79.8999 78.9194 82.1385 78.9194 84.8999V144.98C78.9194 147.742 81.158 149.98 83.9194 149.98H144C146.762 149.98 149 147.742 149 144.98V84.8999Z" fill="white" fill-opacity="0.75"/>
<path d="M5 3.98047H65.0806V-2.01953H5V3.98047ZM3 66.061V5.98047H-3V66.061H3ZM65.0807 68.061H5.00001V74.061H65.0807V68.061ZM67.0807 5.98047V66.061H73.0807V5.98047H67.0807ZM83.9193 3.98047H144V-2.01953H83.9193V3.98047ZM81.9193 66.061V5.98047H75.9193V66.061H81.9193ZM144 68.061H83.9193V74.061H144V68.061ZM146 5.98047V66.061H152V5.98047H146ZM65.0807 76.8999H5.00001V82.8999H65.0807V76.8999ZM73.0807 144.98V84.8999H67.0807V144.98H73.0807ZM5 152.98H65.0806V146.98H5V152.98ZM-3 84.8999V144.98H3V84.8999H-3ZM83.9194 82.8999H144V76.8999H83.9194V82.8999ZM81.9194 144.98V84.8999H75.9194V144.98H81.9194ZM144 146.98H83.9194V152.98H144V146.98ZM146 84.8999V144.98H152V84.8999H146ZM144 152.98C148.418 152.98 152 149.399 152 144.98H146C146 146.085 145.105 146.98 144 146.98V152.98ZM75.9194 144.98C75.9194 149.399 79.5012 152.98 83.9194 152.98V146.98C82.8149 146.98 81.9194 146.085 81.9194 144.98H75.9194ZM144 82.8999C145.105 82.8999 146 83.7953 146 84.8999H152C152 80.4816 148.418 76.8999 144 76.8999V82.8999ZM83.9194 76.8999C79.5012 76.8999 75.9194 80.4816 75.9194 84.8999H81.9194C81.9194 83.7953 82.8149 82.8999 83.9194 82.8999V76.8999ZM5 146.98C3.89543 146.98 3 146.085 3 144.98H-3C-3 149.399 0.581725 152.98 5 152.98V146.98ZM67.0807 144.98C67.0807 146.085 66.1852 146.98 65.0806 146.98V152.98C69.4989 152.98 73.0807 149.399 73.0807 144.98H67.0807ZM5.00001 76.8999C0.581733 76.8999 -3 80.4816 -3 84.8999H3C3 83.7953 3.89543 82.8999 5.00001 82.8999V76.8999ZM65.0807 82.8999C66.1852 82.8999 67.0807 83.7953 67.0807 84.8999H73.0807C73.0807 80.4816 69.4989 76.8999 65.0807 76.8999V82.8999ZM144 74.061C148.418 74.061 152 70.4793 152 66.061H146C146 67.1656 145.105 68.061 144 68.061V74.061ZM75.9193 66.061C75.9193 70.4793 79.501 74.061 83.9193 74.061V68.061C82.8147 68.061 81.9193 67.1655 81.9193 66.061H75.9193ZM144 3.98047C145.105 3.98047 146 4.8759 146 5.98047H152C152 1.56218 148.418 -2.01953 144 -2.01953V3.98047ZM83.9193 -2.01953C79.501 -2.01953 75.9193 1.56218 75.9193 5.98047H81.9193C81.9193 4.8759 82.8147 3.98047 83.9193 3.98047V-2.01953ZM65.0807 74.061C69.4989 74.061 73.0807 70.4793 73.0807 66.061H67.0807C67.0807 67.1656 66.1852 68.061 65.0807 68.061V74.061ZM-3 66.061C-3 70.4793 0.581734 74.061 5.00001 74.061V68.061C3.89543 68.061 3 67.1655 3 66.061H-3ZM65.0806 3.98047C66.1852 3.98047 67.0807 4.8759 67.0807 5.98047H73.0807C73.0807 1.56219 69.4989 -2.01953 65.0806 -2.01953V3.98047ZM5 -2.01953C0.581725 -2.01953 -3 1.56218 -3 5.98047H3C3 4.8759 3.89543 3.98047 5 3.98047V-2.01953Z" fill="#94A8AC" mask="url(#path-1-inside-1)"/>
</svg>
