<svg width="120" height="120" viewBox="0 0 120 120" fill="none" xmlns="http://www.w3.org/2000/svg">
<circle cx="60" cy="60" r="60" fill="#D3FC61"/>
<path d="M12.6 60.86L13.56 55.94H17.22L16.26 60.86H12.6ZM8.97 68H11.25L12.18 63.11H15.84L14.91 68H17.19L18.12 63.11H21.06V60.86H18.54L19.5 55.94H22.02V53.69H19.92L20.85 48.8H18.57L17.64 53.69H13.98L14.91 48.8H12.63L11.7 53.69H8.94V55.94H11.28L10.32 60.86H7.98V63.11H9.9L8.97 68ZM24 68H28.56C33.66 68 36.69 64.46 36.69 58.58V58.22C36.69 52.34 33.6 48.8 28.5 48.8H24V68ZM26.91 65.33V51.47H28.47C32.01 51.47 33.78 54.05 33.78 58.34V58.46C33.78 62.75 32.07 65.33 28.53 65.33H26.91ZM44.52 68.3C48.66 68.3 51.18 66.17 51.18 62.69C51.18 60.62 50.13 58.76 47.94 57.95C49.71 56.9 50.43 55.34 50.43 53.63C50.43 50.66 48.03 48.5 44.55 48.5C42.09 48.5 40.53 49.16 39.18 50.45V53.42C40.47 52.13 42.06 51.02 44.28 51.02C46.65 51.02 47.67 52.31 47.67 54.11C47.67 55.94 46.41 57.2 44.49 57.2H42.57V59.72H45.21C47.43 59.72 48.42 60.92 48.42 62.93C48.42 64.91 46.59 65.84 44.46 65.84C42.6 65.84 40.59 65.21 39.15 63.83V66.65C40.35 67.79 42.33 68.3 44.52 68.3ZM54.06 68H56.97V59.72H65.01V57.11H56.97V51.41H65.7V48.8H54.06V68ZM76.35 68.3C78.81 68.3 80.4 67.79 81.48 67.31V64.55C80.64 65.06 78.87 65.63 76.89 65.63C74.34 65.63 71.76 64.01 71.76 58.91V57.77C71.76 53.12 73.59 51.29 76.92 51.29C78.3 51.29 79.77 51.65 81.15 52.31V49.46C79.86 48.83 78.24 48.5 76.59 48.5C72.78 48.5 68.85 50.84 68.85 57.65V59.06C68.85 66.71 73.23 68.3 76.35 68.3ZM90.57 68.3C94.56 68.3 96.81 65.51 96.81 62.18C96.81 57.95 93.75 56.27 90.63 56.27C89.13 56.27 87.63 56.66 86.43 57.35C86.61 52.46 88.56 51.02 91.23 51.02C93.09 51.02 95.28 51.86 96.27 52.64V49.79C94.65 48.89 92.88 48.5 90.93 48.5C86.37 48.5 83.61 51.8 83.61 57.86V58.88C83.61 64.88 85.77 68.3 90.57 68.3ZM90.42 65.78C87.75 65.78 86.58 63.56 86.46 59.69C87.45 59.15 88.77 58.79 90.03 58.79C92.1 58.79 94.02 59.66 94.02 62.36C94.02 64.16 92.79 65.78 90.42 65.78ZM99.69 68H111.27V65.51H107.73V48.8H106.38L99.06 52.97V55.97L104.91 52.67V65.51H99.69V68Z" fill="#140000"/>
</svg>
