<svg width="246" height="45" viewBox="0 0 246 45" fill="none" xmlns="http://www.w3.org/2000/svg">
<rect x="1" y="1" width="244" height="43" rx="21.5" fill="white" stroke="#94A8AC" stroke-width="2"/>
<path d="M62.9622 22.075C62.9622 17.425 59.8622 14.375 54.6872 14.375C53.4372 14.375 49.9872 14.375 49.9872 14.375V30C49.9872 30 53.3372 30 54.5872 30C59.9622 30 62.9622 26.9 62.9622 22.075ZM60.8372 22.225C60.8372 26.05 58.4122 28.025 54.6872 28.025H52.1122V16.35H54.5872C58.5372 16.35 60.8372 18.375 60.8372 22.225ZM67.201 24.525C67.201 24.525 74.876 24.475 74.901 24.475C75.051 23.975 75.151 23.275 75.151 22.65C75.151 19.925 73.551 18.175 70.776 18.175C67.576 18.175 65.126 20.7 65.126 24.4C65.126 27.9 67.476 30.375 70.926 30.375C72.376 30.375 73.751 30.05 74.776 29.425L74.401 27.525C73.476 28.15 72.176 28.475 70.976 28.475C68.776 28.475 67.276 26.875 67.201 24.625V24.525ZM67.301 23.025C67.476 21.525 68.626 19.975 70.576 19.975C72.376 19.975 73.176 21.1 73.176 22.8V22.975L67.301 23.025ZM84.3877 13.15C83.8377 12.9 82.9377 12.6 82.0877 12.6C79.8377 12.6 78.3627 13.775 78.3127 16.975L78.2877 18.425L76.4127 18.975L76.3127 20.275L78.3127 20.425V30H80.3627V20.4H83.9127L83.9877 18.55H80.3627V16.95C80.3627 15.225 80.9127 14.525 82.0627 14.525C82.6377 14.525 83.3627 14.8 83.8877 15.025C83.8877 15.075 84.3877 13.2 84.3877 13.15ZM91.6729 27.4C91.0229 28.1 90.0979 28.625 89.0479 28.625C87.7979 28.625 87.0229 27.875 87.0229 26.85C87.0229 25.45 88.2729 24.75 91.6729 24.3V27.4ZM91.7479 28.775C92.0479 29.775 92.8729 30.425 94.7229 30.275L94.8479 28.55C93.8479 28.55 93.7229 28.375 93.7229 27.425V22.625C93.7729 19.5 92.3979 18.175 89.2979 18.175C87.6729 18.175 85.9979 18.8 84.9979 19.5L85.3979 21.35C86.4729 20.625 87.9229 20.075 89.0979 20.075C90.9479 20.075 91.6729 20.825 91.6729 22.675V23C86.3229 23.25 84.8479 25.05 84.8479 27.1C84.8479 28.95 86.3479 30.375 88.4979 30.375C89.7229 30.375 90.7729 29.8 91.6479 28.775H91.7479ZM96.9772 18.55V26.425C96.9772 28.9 98.3522 30.375 100.552 30.375C102.002 30.375 103.352 29.75 104.402 28.7C104.402 28.825 104.402 30.375 104.402 30.375L106.452 30.05V18.55H104.402V27.15C103.752 27.775 102.602 28.4 101.277 28.4C99.7772 28.4 99.0272 27.725 99.0272 25.75V18.55H96.9772ZM112.042 30V12.825L109.992 13.15V30H112.042ZM121.608 29.875C121.608 29.875 121.258 28.075 121.233 28.075C120.558 28.325 119.858 28.5 119.158 28.5C118.133 28.5 117.633 27.95 117.658 26.875L117.833 20.4H121.408L121.483 18.55H117.908L117.983 15.925H116.008L115.958 18.4L114.058 18.975L113.983 20.275L115.883 20.4L115.708 26.8C115.633 29.3 116.808 30.375 119.033 30.375C119.883 30.375 120.758 30.2 121.608 29.875ZM137.893 21.95C139.643 21.3 140.568 20.125 140.568 18.525C140.568 16.075 138.893 14.375 135.118 14.375H129.943V30H135.268C139.293 30 141.068 28.225 141.068 25.575C141.068 23.825 139.968 22.475 137.893 21.95ZM138.443 18.7C138.443 20.225 137.218 21.225 134.968 21.225C134.968 21.225 132.093 21.225 132.068 21.225V16.325H135.293C137.343 16.325 138.443 17.2 138.443 18.7ZM138.943 25.6C138.943 27.225 137.793 28.05 135.468 28.05H132.068V23.15H135.143C137.343 23.15 138.943 23.8 138.943 25.6ZM143.803 18.55V26.425C143.803 28.9 145.178 30.375 147.378 30.375C148.828 30.375 150.178 29.75 151.228 28.7C151.228 28.825 151.228 30.375 151.228 30.375L153.278 30.05V18.55H151.228V27.15C150.578 27.775 149.428 28.4 148.103 28.4C146.603 28.4 145.853 27.725 145.853 25.75V18.55H143.803ZM162.843 29.875C162.843 29.875 162.493 28.075 162.468 28.075C161.793 28.325 161.093 28.5 160.393 28.5C159.368 28.5 158.868 27.95 158.893 26.875L159.068 20.4H162.643L162.718 18.55H159.143L159.218 15.925H157.243L157.193 18.4L155.293 18.975L155.218 20.275L157.118 20.4L156.943 26.8C156.868 29.3 158.043 30.375 160.268 30.375C161.118 30.375 161.993 30.2 162.843 29.875ZM171.315 29.875C171.315 29.875 170.965 28.075 170.94 28.075C170.265 28.325 169.565 28.5 168.865 28.5C167.84 28.5 167.34 27.95 167.365 26.875L167.54 20.4H171.115L171.19 18.55H167.615L167.69 15.925H165.715L165.665 18.4L163.765 18.975L163.69 20.275L165.59 20.4L165.415 26.8C165.34 29.3 166.515 30.375 168.74 30.375C169.59 30.375 170.465 30.2 171.315 29.875ZM184.04 24.275C184.04 20.575 181.815 18.15 178.54 18.15C175.24 18.15 172.89 20.6 172.89 24.275C172.89 27.975 175.165 30.375 178.415 30.375C181.64 30.375 184.04 27.95 184.04 24.275ZM182.015 24.3C182.015 26.775 180.765 28.525 178.49 28.525C176.24 28.525 174.915 26.7 174.915 24.25C174.915 21.775 176.165 20 178.44 20C180.69 20 182.015 21.85 182.015 24.3ZM196.323 30V22.125C196.323 19.65 194.948 18.175 192.623 18.175C191.298 18.175 189.948 18.85 188.898 19.9V18.175L186.848 18.5V30H188.898V21.4C189.548 20.775 190.698 20.15 191.898 20.15C193.523 20.15 194.273 20.825 194.273 22.8V30H196.323Z" fill="#94A8AC"/>
</svg>
