<svg width="142" height="148" viewBox="0 0 142 148" fill="none" xmlns="http://www.w3.org/2000/svg">
<rect width="142" height="148" fill="white"/>
<path fill-rule="evenodd" clip-rule="evenodd" d="M30.5252 60.8824C27.9709 58.693 20.4833 59.4411 15.5206 69.0744C10.558 78.7078 14.1427 82.6166 15.9671 84.4411C18.6237 87.0977 20.926 87.6799 26.955 73.4941C28.3543 70.2015 29.2934 68.1422 30.436 65.9743C31.2347 64.4588 32.1189 62.9581 32.7759 62.0383C34.7024 59.3412 33.5226 63.9648 31.6811 73.5974C30.2829 80.9111 30.3449 89.7918 30.4641 93.2478C30.9506 94.9507 34.3782 99.4127 35.0877 95.9449C35.718 92.8647 35.7044 77.9174 36.69 71.2639C37.4198 65.5471 41.6042 53.6994 45.1056 47.3968C47.0321 43.9291 46.6468 42.0026 41.699 40.076C40.0967 39.4521 39.7725 42.7732 38.0111 46.1718C36.0804 49.8972 34.2122 53.5616 30.5252 60.8824ZM20.3868 71.2639C23.0141 65.1336 27.0358 62.8712 28.7387 62.5063C29.0306 63.3821 27.4007 66.2769 26.5493 67.6149C24.6032 71.1423 21.2217 79.2188 20.346 80.3864C19.2513 81.8461 17.1027 78.9268 20.3868 71.2639Z" fill="#94A8AC"/>
<path d="M30.5252 60.8824L30.1998 61.262L30.6846 61.6775L30.9718 61.1073L30.5252 60.8824ZM15.9671 84.4411L15.6136 84.7946L15.9671 84.4411ZM26.955 73.4941L26.4948 73.2985L26.955 73.4941ZM32.7759 62.0383L32.3691 61.7477L32.7759 62.0383ZM30.4641 93.2478L29.9644 93.265L29.9665 93.3263L29.9833 93.3852L30.4641 93.2478ZM35.0877 95.9449L35.5776 96.0452L35.0877 95.9449ZM36.69 71.2639L37.1847 71.3372L37.186 71.3272L36.69 71.2639ZM45.1056 47.3968L45.5427 47.6396L45.1056 47.3968ZM41.699 40.076L41.8805 39.6101L41.699 40.076ZM28.7387 62.5063L29.213 62.3482L29.0715 61.9236L28.6339 62.0174L28.7387 62.5063ZM20.3868 71.2639L19.9272 71.067L20.3868 71.2639ZM20.346 80.3864L19.946 80.0864L20.346 80.3864ZM26.5493 67.6149L26.1275 67.3465L26.1191 67.3597L26.1115 67.3734L26.5493 67.6149ZM30.436 65.9743L30.8783 66.2074L30.436 65.9743ZM31.6811 73.5974L32.1722 73.6913L31.6811 73.5974ZM38.0111 46.1718L38.455 46.4018L38.0111 46.1718ZM30.8506 60.5028C29.3839 59.2456 26.6567 58.9215 23.7414 60.0802C20.7978 61.2502 17.6021 63.9421 15.0762 68.8455L15.9651 69.3034C18.4018 64.5734 21.4313 62.0745 24.1107 61.0095C26.8185 59.9332 29.1122 60.3298 30.1998 61.262L30.8506 60.5028ZM15.0762 68.8455C12.5609 73.728 12.1748 77.2325 12.7093 79.7885C13.2441 82.3458 14.6846 83.8656 15.6136 84.7946L16.3207 84.0875C15.4252 83.1921 14.1611 81.8453 13.6881 79.5837C13.2149 77.3209 13.5177 74.0542 15.9651 69.3034L15.0762 68.8455ZM15.6136 84.7946C16.2807 85.4617 16.9989 86.0792 17.8123 86.3249C18.6805 86.5872 19.5713 86.4051 20.5039 85.6778C21.4106 84.9706 22.3853 83.7301 23.5003 81.8143C24.6204 79.8899 25.904 77.2452 27.4151 73.6896L26.4948 73.2985C24.9914 76.8359 23.7264 79.438 22.6361 81.3112C21.5408 83.193 20.6434 84.3008 19.8889 84.8892C19.1602 85.4575 18.6005 85.5183 18.1015 85.3676C17.5477 85.2003 16.9819 84.7487 16.3207 84.0875L15.6136 84.7946ZM29.9833 93.3852C30.1254 93.8823 30.4625 94.53 30.8755 95.1519C31.2926 95.78 31.8159 96.4251 32.3601 96.909C32.6321 97.1509 32.9219 97.3637 33.2176 97.5116C33.5103 97.658 33.8424 97.7575 34.184 97.7235C34.9538 97.6467 35.3876 96.9738 35.5776 96.0452L34.5979 95.8447C34.4331 96.65 34.1725 96.7197 34.0848 96.7284C33.9976 96.7371 33.8603 96.715 33.6649 96.6173C33.4726 96.5211 33.2557 96.3672 33.0246 96.1617C32.5623 95.7507 32.0931 95.1778 31.7086 94.5987C31.3199 94.0134 31.0461 93.4647 30.9449 93.1105L29.9833 93.3852ZM35.5776 96.0452C35.7441 95.2312 35.8625 93.6792 35.9647 91.7511C36.0677 89.8085 36.156 87.4385 36.2552 84.9644C36.4542 80.001 36.6966 74.6315 37.1846 71.3372L36.1954 71.1907C35.6978 74.5498 35.4542 79.9806 35.256 84.9243C35.1566 87.4038 35.0686 89.764 34.9661 91.6982C34.8628 93.647 34.7465 95.1185 34.5979 95.8447L35.5776 96.0452ZM37.186 71.3272C37.544 68.5227 38.7581 64.1718 40.33 59.7164C41.8999 55.2663 43.8107 50.7573 45.5427 47.6396L44.6685 47.154C42.8991 50.3389 40.967 54.9051 39.3869 59.3837C37.8088 63.857 36.5658 68.2884 36.1941 71.2006L37.186 71.3272ZM45.5427 47.6396C46.5116 45.8956 47.0122 44.3574 46.4428 42.9688C45.8826 41.6026 44.3614 40.5761 41.8805 39.6101L41.5176 40.542C43.9845 41.5025 45.1298 42.4026 45.5176 43.3482C45.8961 44.2714 45.6261 45.4303 44.6685 47.154L45.5427 47.6396ZM28.6339 62.0174C26.7448 62.4222 22.6064 64.8155 19.9272 71.067L20.8464 71.4609C23.4217 65.4517 27.3268 63.3202 28.8435 62.9952L28.6339 62.0174ZM19.9272 71.067C18.2668 74.9413 17.9446 77.6917 18.2318 79.3323C18.3716 80.131 18.6774 80.7775 19.1656 81.0796C19.4275 81.2416 19.7329 81.2952 20.0361 81.2086C20.3271 81.1254 20.5644 80.9286 20.746 80.6864L19.946 80.0864C19.8539 80.2092 19.7846 80.2404 19.7613 80.2471C19.7504 80.2502 19.734 80.2553 19.6918 80.2292C19.5719 80.155 19.3405 79.8665 19.2168 79.1599C18.9771 77.7901 19.2227 75.2495 20.8464 71.4609L19.9272 71.067ZM20.746 80.6864C21.0008 80.3466 21.3989 79.5711 21.8615 78.6114C22.3344 77.6299 22.9021 76.3962 23.5005 75.0944C24.7023 72.4804 26.0251 69.6001 26.9871 67.8565L26.1115 67.3734C25.1274 69.1571 23.7863 72.0788 22.592 74.6767C21.9923 75.981 21.4288 77.2057 20.9606 78.1773C20.482 79.1705 20.129 79.8424 19.946 80.0864L20.746 80.6864ZM26.9711 67.8834C27.4041 67.2029 28.0354 66.1265 28.524 65.1026C28.7677 64.5919 28.9827 64.0802 29.1183 63.6299C29.186 63.4048 29.2376 63.1832 29.2603 62.9773C29.2824 62.7777 29.2819 62.5549 29.213 62.3482L28.2644 62.6644C28.2684 62.6766 28.2809 62.7359 28.2664 62.8675C28.2525 62.9927 28.218 63.1514 28.1607 63.3417C28.0461 63.7224 27.8552 64.1823 27.6215 64.6719C27.1553 65.6489 26.5459 66.689 26.1275 67.3465L26.9711 67.8834ZM27.4151 73.6896C28.8124 70.402 29.7452 68.3574 30.8783 66.2074L29.9937 65.7411C28.8416 67.9271 27.8963 70.0009 26.4948 73.2985L27.4151 73.6896ZM30.8783 66.2074C31.6726 64.7002 32.5448 63.2221 33.1828 62.3289L32.3691 61.7477C31.6931 62.694 30.7968 64.2173 29.9937 65.7411L30.8783 66.2074ZM33.1828 62.3289C33.4214 61.9948 33.5767 61.827 33.6601 61.7636C33.7067 61.7281 33.6688 61.7737 33.5676 61.7776C33.4117 61.7837 33.3002 61.6911 33.2559 61.6223C33.23 61.582 33.2406 61.5736 33.2511 61.651C33.2602 61.7182 33.2652 61.8184 33.2618 61.9585C33.2551 62.2382 33.2166 62.6252 33.1464 63.1246C32.8643 65.1313 32.1146 68.6668 31.19 73.5035L32.1722 73.6913C33.0891 68.8954 33.85 65.3028 34.1366 63.2638C34.2086 62.7518 34.2534 62.32 34.2615 61.9826C34.2656 61.8141 34.2609 61.6562 34.242 61.5168C34.2246 61.3877 34.1889 61.2243 34.0972 61.0817C33.9872 60.9104 33.7904 60.7682 33.5286 60.7784C33.3214 60.7865 33.1569 60.89 33.055 60.9674C32.8414 61.1298 32.612 61.4075 32.3691 61.7477L33.1828 62.3289ZM31.19 73.5035C29.781 80.8741 29.8449 89.8004 29.9644 93.265L30.9638 93.2306C30.8449 89.7831 30.7849 80.9481 32.1722 73.6913L31.19 73.5035ZM41.8805 39.6101C41.6049 39.5028 41.322 39.4681 41.0417 39.5319C40.7643 39.5951 40.5345 39.7446 40.3451 39.9297C39.9836 40.2828 39.7058 40.8301 39.4547 41.4195C38.9231 42.6671 38.4404 44.2567 37.5672 45.9417L38.455 46.4018C39.3431 44.6882 39.9032 42.918 40.3747 41.8114C40.6251 41.2237 40.8388 40.8453 41.0439 40.645C41.1377 40.5534 41.2099 40.5192 41.2638 40.5069C41.3148 40.4953 41.3926 40.4933 41.5176 40.542L41.8805 39.6101ZM37.5672 45.9417C35.6352 49.6696 33.766 53.336 30.0786 60.6575L30.9718 61.1073C34.6584 53.7873 36.5256 50.1248 38.455 46.4018L37.5672 45.9417Z" fill="#93A7AB"/>
<path d="M49.7672 86.2656C44.2207 83.6383 44.3481 68.7504 47.9427 60.7226C56.2809 58.5332 52.7409 72.0345 53.1058 80.0624C53.3977 86.4846 57.363 80.7922 59.3091 77.1432L59.674 80.0624C56.3899 88.4551 51.5187 87.4333 49.7672 86.2656Z" fill="#94A8AC"/>
<path d="M49.7672 50.5054C51.1233 50.2621 53.6167 50.5054 52.7409 53.4246C51.6462 57.0736 48.2531 53.4246 49.7672 50.5054Z" fill="#94A8AC"/>
<path d="M49.7672 86.2656C44.2207 83.6383 44.3481 68.7504 47.9427 60.7226C56.2809 58.5332 52.7409 72.0345 53.1058 80.0624C53.3977 86.4846 57.363 80.7922 59.3091 77.1432L59.674 80.0624C56.3899 88.4551 51.5187 87.4333 49.7672 86.2656Z" stroke="#93A7AB" stroke-linecap="round" stroke-linejoin="round"/>
<path d="M49.7672 50.5054C51.1233 50.2621 53.6167 50.5054 52.7409 53.4246C51.6462 57.0736 48.2531 53.4246 49.7672 50.5054Z" stroke="#93A7AB" stroke-linecap="round" stroke-linejoin="round"/>
<path fill-rule="evenodd" clip-rule="evenodd" d="M64.4175 65.1015C72.4426 57.3216 77.2433 59.6279 78.3381 61.4524C78.6725 62.5418 78.9773 62.1709 79.5283 61.5005C80.2692 60.599 81.4552 59.1558 83.7572 59.9929C87.7711 61.4525 86.3115 65.4664 85.5817 67.2909C84.8519 69.1154 81.5678 77.5081 85.5817 75.3187C89.5956 73.1293 91.0552 73.4942 92.1499 74.5889C93.2446 75.6836 92.5148 76.4134 88.5009 77.5081C84.487 78.6028 81.9327 81.522 80.838 88.82C79.7433 96.1181 77.5947 107.43 75.4053 113.998C73.2159 120.566 64.4175 122.756 62.9579 109.984C61.7902 99.7671 72.202 87.2388 77.5539 82.2518C79.4401 78.21 79.5355 76.158 79.7502 71.5409C79.8263 69.9054 79.9173 67.9481 80.1082 65.4664C78.527 66.5611 71.3506 74.224 67.3367 79.3326C61.1012 87.2686 54.2546 74.9537 64.4175 65.1015ZM74.6347 64.3717C73.4184 65.1015 70.2559 67.3639 67.3367 70.575C63.6877 74.5889 64.4175 77.1024 69.5261 72.7236C74.6347 68.3448 76.8241 65.4664 77.9188 64.0068C79.0135 62.5472 76.8241 62.8469 74.6347 64.3717ZM73.4992 109.619C74.9588 106.7 78.2837 94.0503 79.0135 88.0902C75.7294 90.2796 65.1473 104.511 66.9718 112.539C68.7963 120.566 71.6747 113.268 73.4992 109.619Z" fill="#94A8AC"/>
<path d="M78.3381 61.4524L78.816 61.3057L78.7981 61.2474L78.7668 61.1952L78.3381 61.4524ZM64.4175 65.1015L64.0694 64.7425L64.4175 65.1015ZM67.3367 79.3326L66.9435 79.0237L67.3367 79.3326ZM80.1082 65.4664L80.6067 65.5047C80.6215 65.3124 80.5244 65.1287 80.3571 65.0327C80.1898 64.9367 79.9822 64.9455 79.8236 65.0553L80.1082 65.4664ZM77.5539 82.2518L77.8948 82.6176L77.9659 82.5514L78.007 82.4633L77.5539 82.2518ZM62.9579 109.984L63.4546 109.928L62.9579 109.984ZM83.7572 59.9929L83.9281 59.523L83.7572 59.9929ZM74.6347 64.3717L74.8919 64.8004L74.9065 64.7917L74.9204 64.782L74.6347 64.3717ZM67.3367 70.575L67.7066 70.9113L67.3367 70.575ZM79.0135 88.0902L79.5098 88.151L79.6421 87.0702L78.7361 87.6742L79.0135 88.0902ZM79.7502 71.5409L80.2497 71.5642L79.7502 71.5409ZM79.5283 61.5005L79.9145 61.818V61.818L79.5283 61.5005ZM78.7668 61.1952C78.1105 60.1013 76.4445 58.997 73.9409 59.1766C71.4397 59.356 68.1284 60.8076 64.0694 64.7425L64.7655 65.4605C68.7317 61.6155 71.8334 60.3303 74.0124 60.174C76.1891 60.0179 77.4709 60.979 77.9093 61.7096L78.7668 61.1952ZM64.0694 64.7425C58.8781 69.7752 57.9552 75.5179 59.2584 79.0603C59.9074 80.8243 61.1466 82.1105 62.7507 82.3375C64.359 82.5652 66.1145 81.6974 67.7298 79.6415L66.9435 79.0237C65.4411 80.9358 64.0025 81.5047 62.8909 81.3474C61.7751 81.1895 60.7687 80.2692 60.1969 78.715C59.0587 75.6209 59.794 70.28 64.7655 65.4605L64.0694 64.7425ZM67.7298 79.6415C69.7254 77.1018 72.5131 73.9197 75.0015 71.2341C76.2451 69.8919 77.4109 68.677 78.3625 67.731C79.3267 66.7726 80.0404 66.1214 80.3928 65.8775L79.8236 65.0553C79.3854 65.3587 78.6091 66.0759 77.6575 67.0218C76.6935 67.9801 75.5178 69.2055 74.2679 70.5545C71.7693 73.2511 68.9619 76.4549 66.9435 79.0237L67.7298 79.6415ZM77.213 81.886C74.5102 84.4046 70.5392 88.8169 67.3863 93.8929C64.2436 98.9524 61.8576 104.76 62.4611 110.041L63.4546 109.928C62.8905 104.991 65.1265 99.4262 68.2358 94.4205C71.3348 89.4313 75.2457 85.086 77.8948 82.6176L77.213 81.886ZM62.4611 110.041C63.1986 116.495 65.8365 119.482 68.8651 119.742C71.8269 119.996 74.739 117.578 75.8796 114.156L74.9309 113.84C73.8821 116.987 71.3003 118.947 68.9507 118.745C66.6678 118.549 64.1767 116.246 63.4546 109.928L62.4611 110.041ZM75.8796 114.156C78.0835 107.545 80.237 96.197 81.3325 88.8942L80.3435 88.7459C79.2495 96.0391 77.1059 107.315 74.9309 113.84L75.8796 114.156ZM81.3325 88.8942C81.874 85.2843 82.7687 82.8179 83.9809 81.1294C85.1816 79.4571 86.7193 78.5123 88.6325 77.9905L88.3694 77.0257C86.2686 77.5987 84.5222 78.6608 83.1686 80.5462C81.8265 82.4156 80.8967 85.0578 80.3435 88.7459L81.3325 88.8942ZM88.6325 77.9905C89.6435 77.7148 90.4606 77.4586 91.0996 77.2101C91.7306 76.9647 92.2245 76.7132 92.5612 76.4326C92.9067 76.1447 93.148 75.7696 93.1038 75.3055C93.0639 74.8871 92.799 74.5309 92.5035 74.2353L91.7964 74.9425C92.0482 75.1942 92.1025 75.3398 92.1083 75.4003C92.1097 75.4151 92.1229 75.4962 91.9211 75.6644C91.7104 75.8399 91.3377 76.0446 90.7372 76.2781C90.1447 76.5085 89.3653 76.7541 88.3694 77.0257L88.6325 77.9905ZM92.5035 74.2353C91.8787 73.6106 91.1099 73.1695 89.9378 73.2228C88.8176 73.2737 87.3671 73.7753 85.3423 74.8798L85.8211 75.7577C87.8103 74.6727 89.0965 74.2621 89.9832 74.2217C90.8181 74.1838 91.3264 74.4725 91.7964 74.9425L92.5035 74.2353ZM85.3423 74.8798C84.871 75.1368 84.5877 75.1907 84.4394 75.1788C84.3431 75.1711 84.2903 75.1397 84.2359 75.0271C84.1643 74.8789 84.1166 74.6207 84.1252 74.233C84.1336 73.856 84.1936 73.4055 84.2931 72.9081C84.6933 70.907 85.6792 68.3934 86.0459 67.4766L85.1175 67.1052C84.7544 68.0129 83.7333 70.6078 83.3125 72.712C83.2067 73.2408 83.1356 73.7539 83.1255 74.2108C83.1156 74.6569 83.1619 75.1028 83.3355 75.4621C83.5262 75.8569 83.8697 76.1363 84.3593 76.1756C84.7969 76.2107 85.2889 76.048 85.8211 75.7577L85.3423 74.8798ZM86.0459 67.4766C86.4092 66.5685 86.9975 65.0196 86.9481 63.4889C86.923 62.7124 86.7339 61.9179 86.2513 61.2106C85.7667 60.5003 85.0132 59.9175 83.9281 59.523L83.5863 60.4628C84.5082 60.798 85.0774 61.2643 85.4252 61.7742C85.7751 62.287 85.928 62.8837 85.9486 63.5212C85.9905 64.8184 85.4841 66.1887 85.1175 67.1052L86.0459 67.4766ZM74.3774 63.9429C73.1229 64.6956 69.9216 66.9883 66.9667 70.2387L67.7066 70.9113C70.5902 67.7394 73.7138 65.5073 74.8919 64.8004L74.3774 63.9429ZM66.9667 70.2387C66.0348 71.2638 65.3652 72.2113 64.9735 72.9967C64.7782 73.3882 64.6427 73.7578 64.586 74.0889C64.5312 74.4091 64.5382 74.766 64.7235 75.0619C64.9282 75.3888 65.2704 75.5202 65.6174 75.5263C65.9475 75.5321 66.3198 75.4301 66.7151 75.2582C67.5118 74.9116 68.5594 74.2107 69.8515 73.1032L69.2007 72.344C67.9385 73.4259 66.9791 74.0528 66.3162 74.3411C65.9817 74.4866 65.7611 74.5287 65.635 74.5265C65.5259 74.5246 65.5488 74.4957 65.571 74.5312C65.5739 74.5358 65.5353 74.4701 65.5717 74.2577C65.6062 74.0562 65.6987 73.7832 65.8684 73.443C66.2065 72.7651 66.8141 71.8931 67.7066 70.9113L66.9667 70.2387ZM69.8515 73.1032C74.994 68.6953 77.2078 65.7881 78.3188 64.3068L77.5188 63.7068C76.4404 65.1446 74.2753 67.9943 69.2007 72.344L69.8515 73.1032ZM78.3188 64.3068C78.473 64.1012 78.5942 63.8949 78.6585 63.6915C78.7228 63.4882 78.7461 63.2305 78.612 62.99C78.4772 62.7482 78.247 62.6382 78.0535 62.5923C77.861 62.5466 77.6506 62.5491 77.448 62.5737C76.6508 62.6705 75.478 63.175 74.3489 63.9614L74.9204 64.782C75.9808 64.0435 76.9974 63.6358 77.5685 63.5664C77.708 63.5495 77.7884 63.5571 77.8225 63.5652C77.8557 63.5731 77.788 63.5656 77.7387 63.4772C77.6901 63.39 77.722 63.3364 77.705 63.3901C77.6881 63.4438 77.6383 63.5474 77.5188 63.7068L78.3188 64.3068ZM78.5172 88.0295C78.1564 90.9762 77.1494 95.6032 76.0459 99.8699C74.9381 104.154 73.7538 107.992 73.052 109.396L73.9464 109.843C74.7041 108.328 75.9121 104.381 77.0141 100.12C78.1205 95.8423 79.1408 91.1643 79.5098 88.151L78.5172 88.0295ZM73.052 109.396C72.5805 110.339 72.0795 111.437 71.5221 112.514C70.9679 113.584 70.4059 114.534 69.8676 115.119C69.5972 115.413 69.3709 115.572 69.195 115.632C69.0512 115.682 68.9332 115.672 68.7912 115.572C68.6196 115.453 68.3969 115.187 68.1559 114.66C67.9186 114.141 67.6833 113.413 67.4593 112.428L66.4842 112.649C66.7164 113.671 66.9701 114.471 67.2465 115.076C67.5194 115.672 67.8351 116.124 68.2185 116.392C68.6314 116.681 69.0847 116.728 69.5206 116.578C69.9244 116.439 70.2859 116.141 70.6033 115.796C71.2407 115.104 71.8545 114.047 72.4102 112.974C72.9626 111.907 73.5056 110.725 73.9464 109.843L73.052 109.396ZM67.4593 112.428C67.0314 110.545 67.3239 108.249 68.0986 105.79C68.8708 103.339 70.1066 100.774 71.5085 98.3775C72.9095 95.9822 74.4689 93.7676 75.8791 92.0189C77.3013 90.2554 78.5381 89.0081 79.2908 88.5063L78.7361 87.6742C77.8468 88.2671 76.5293 89.6197 75.1007 91.3912C73.6602 93.1774 72.0723 95.4329 70.6453 97.8726C69.2192 100.311 67.9463 102.946 67.1449 105.489C66.346 108.025 65.9999 110.519 66.4842 112.649L67.4593 112.428ZM79.6097 65.428C79.4181 67.9179 79.3268 69.8817 79.2507 71.5177L80.2497 71.5642C80.3257 69.9291 80.4165 67.9783 80.6067 65.5047L79.6097 65.428ZM79.2507 71.5177C79.143 73.8354 79.0662 75.4672 78.7867 77.0237C78.5095 78.5675 78.03 80.0493 77.1008 82.0404L78.007 82.4633C78.964 80.4125 79.4752 78.8474 79.771 77.2005C80.0644 75.5663 80.1427 73.8635 80.2497 71.5642L79.2507 71.5177ZM83.9281 59.523C82.6452 59.0565 81.6236 59.2167 80.8181 59.6557C80.0437 60.0776 79.5056 60.7406 79.142 61.183L79.9145 61.818C80.2918 61.3589 80.7172 60.8495 81.2966 60.5337C81.8448 60.235 82.5672 60.0922 83.5863 60.4628L83.9281 59.523ZM79.142 61.183C78.9991 61.3569 78.8932 61.485 78.8021 61.5766C78.7581 61.621 78.7287 61.6452 78.7117 61.657C78.6934 61.6698 78.7065 61.6563 78.7464 61.6476C78.7962 61.6369 78.8606 61.6398 78.9209 61.6669C78.9731 61.6903 78.9908 61.7176 78.9819 61.7062C78.9729 61.6947 78.9506 61.6614 78.9192 61.591C78.8885 61.5221 78.8539 61.4291 78.816 61.3057L77.8601 61.5991C77.9476 61.8842 78.0506 62.1383 78.1934 62.3213C78.2687 62.4179 78.3719 62.5166 78.5117 62.5793C78.6599 62.6458 78.8143 62.656 78.9575 62.6251C79.2054 62.5716 79.3948 62.3989 79.5116 62.2814C79.6431 62.149 79.7819 61.9793 79.9145 61.818L79.142 61.183Z" fill="#93A7AB"/>
<path fill-rule="evenodd" clip-rule="evenodd" d="M102.732 53.7896C99.9348 55.979 93.9017 60.9416 92.1502 63.277C89.9608 66.1962 88.1363 76.0485 96.529 73.8591C99.2615 73.1463 102.26 71.5489 104.076 70.8541C107.84 69.4148 111.125 70.1761 111.125 73.1293C111.125 76.8253 108.206 77.1703 105.135 78.9803C102.064 80.7903 98.5921 81.9324 93.2448 87.7253C84.4872 97.2128 95.0693 100.862 99.8131 97.5777C103.863 94.7739 111.438 85.171 112.54 82.3619C112.826 81.6343 114.543 79.1814 114.774 78.6299C117.143 77.5352 118.238 76.8054 122.437 76.0756C123.567 75.8791 124.772 73.7131 122.437 73.1293C120.102 72.5455 115.382 73.3726 114.044 73.8591C113.436 71.4264 112.585 66.5611 108.206 66.5611C106.265 66.5611 103.727 67.2495 101.471 67.8614C97.367 68.9748 94.1974 69.8346 97.2588 65.8313C101.04 60.8868 104.125 58.4924 105.592 57.3547C105.965 57.0651 106.233 56.8569 106.381 56.7088C107.111 55.979 108.936 53.7896 102.732 53.7896ZM97.9886 89.1849C99.7401 86.8496 110.03 80.7922 112.22 80.7922L108.571 86.6306C104.828 91.3213 101.054 96.191 97.2588 96.483C92.9036 96.818 95.2005 92.8468 97.4198 89.935C97.6178 89.6753 97.8093 89.424 97.9886 89.1849Z" fill="#94A8AC"/>
<path d="M102.732 53.7896V53.2896C102.621 53.2896 102.512 53.327 102.424 53.3958L102.732 53.7896ZM92.1502 63.277L92.5502 63.577L92.1502 63.277ZM96.529 73.8591L96.6552 74.3429L96.529 73.8591ZM93.2448 87.7253L93.6122 88.0645L93.2448 87.7253ZM99.8131 97.5777L100.098 97.9888L99.8131 97.5777ZM114.774 78.6299L114.564 78.176L114.388 78.2575L114.313 78.4365L114.774 78.6299ZM122.437 76.0756L122.523 76.5682L122.437 76.0756ZM114.044 73.8591L113.559 73.9804L113.694 74.5186L114.215 74.329L114.044 73.8591ZM97.2588 65.8313L96.8616 65.5276L97.2588 65.8313ZM106.381 56.7088L106.028 56.3552V56.3552L106.381 56.7088ZM112.22 80.7922L112.644 81.0572C112.74 80.9031 112.745 80.7088 112.657 80.5498C112.569 80.3909 112.401 80.2922 112.22 80.2922V80.7922ZM97.9886 89.1849L98.3886 89.4849L97.9886 89.1849ZM97.2588 96.483L97.2972 96.9815H97.2972L97.2588 96.483ZM108.571 86.6306L108.962 86.9425L108.979 86.92L108.995 86.8956L108.571 86.6306ZM104.076 70.8541L104.255 71.3211L104.076 70.8541ZM112.54 82.3619L112.075 82.1792L112.54 82.3619ZM101.471 67.8614L101.602 68.344L101.471 67.8614ZM105.592 57.3547L105.285 56.9597V56.9597L105.592 57.3547ZM97.4198 89.935L97.0221 89.6319L97.4198 89.935ZM102.424 53.3958C101.02 54.4947 98.8055 56.2882 96.7209 58.1012C94.6506 59.9018 92.663 61.7598 91.7502 62.977L92.5502 63.577C93.3889 62.4587 95.2936 60.6678 97.3771 58.8558C99.4462 57.0563 101.647 55.2738 103.04 54.1833L102.424 53.3958ZM91.7502 62.977C91.1523 63.7741 90.6056 65.0022 90.2475 66.3406C89.8884 67.6829 89.7053 69.1869 89.8752 70.5458C90.0447 71.9022 90.5772 73.1813 91.7156 73.9536C92.8554 74.7268 94.4819 74.9099 96.6552 74.3429L96.4028 73.3753C94.3798 73.903 93.087 73.6756 92.277 73.126C91.4654 72.5755 91.0172 71.6197 90.8675 70.4218C90.718 69.2264 90.877 67.8568 91.2135 66.5991C91.551 65.3376 92.0534 64.2394 92.5502 63.577L91.7502 62.977ZM92.8774 87.3862C90.6519 89.7972 89.5928 91.9016 89.412 93.6785C89.228 95.4869 89.9611 96.8925 91.1567 97.8337C92.3336 98.7602 93.9409 99.2278 95.5446 99.2578C97.15 99.2879 98.8091 98.8808 100.098 97.9888L99.5285 97.1666C98.4452 97.9165 97.0027 98.2849 95.5634 98.258C94.1225 98.231 92.7421 97.8091 91.7752 97.048C90.8271 96.3015 90.2602 95.2212 90.4069 93.7797C90.5567 92.3067 91.459 90.3972 93.6122 88.0645L92.8774 87.3862ZM114.984 79.0838C116.195 78.5241 117.023 78.0859 118.095 77.6841C119.152 77.2874 120.444 76.9294 122.523 76.5682L122.351 75.583C120.23 75.9516 118.875 76.3234 117.743 76.7477C116.626 77.1669 115.722 77.641 114.564 78.176L114.984 79.0838ZM122.523 76.5682C122.935 76.4965 123.312 76.2568 123.599 75.9647C123.889 75.6699 124.124 75.2837 124.223 74.8624C124.324 74.4337 124.286 73.9515 123.993 73.5254C123.705 73.1055 123.218 72.8092 122.558 72.6442L122.316 73.6144C122.824 73.7413 123.061 73.9347 123.169 74.0912C123.272 74.2416 123.3 74.4227 123.25 74.633C123.199 74.8507 123.067 75.0794 122.886 75.2642C122.701 75.4517 122.504 75.5565 122.351 75.583L122.523 76.5682ZM122.558 72.6442C121.296 72.3286 119.453 72.4009 117.808 72.5963C116.154 72.7927 114.595 73.1266 113.873 73.3892L114.215 74.329C114.831 74.1051 116.301 73.7822 117.926 73.5893C119.558 73.3955 121.243 73.3462 122.316 73.6144L122.558 72.6442ZM114.529 73.7378C114.234 72.5576 113.853 70.6494 112.977 69.0569C112.084 67.4325 110.633 66.0611 108.206 66.0611V67.0611C110.157 67.0611 111.322 68.1223 112.101 69.5388C112.897 70.9871 113.246 72.7279 113.559 73.9804L114.529 73.7378ZM106.735 57.0623C106.927 56.8701 107.215 56.5593 107.425 56.1937C107.629 55.8391 107.815 55.3325 107.628 54.8073C107.437 54.2722 106.925 53.9025 106.172 53.666C105.411 53.4272 104.304 53.2896 102.732 53.2896V54.2896C104.263 54.2896 105.253 54.4256 105.872 54.6201C106.499 54.8169 106.649 55.0402 106.686 55.1436C106.726 55.257 106.708 55.4346 106.558 55.6958C106.414 55.9459 106.2 56.1825 106.028 56.3552L106.735 57.0623ZM112.22 80.2922C111.858 80.2922 111.391 80.4115 110.889 80.5843C110.372 80.7621 109.767 81.0155 109.108 81.3218C107.789 81.9348 106.228 82.7733 104.686 83.682C103.144 84.591 101.611 85.5754 100.351 86.4825C99.1088 87.3767 98.0778 88.2326 97.5886 88.8849L98.3886 89.4849C98.7751 88.9696 99.6872 88.1925 100.935 87.2942C102.165 86.4087 103.671 85.4409 105.194 84.5436C106.717 83.6461 108.248 82.8242 109.53 82.2286C110.171 81.9305 110.742 81.6924 111.214 81.5298C111.701 81.3622 112.034 81.2922 112.22 81.2922V80.2922ZM97.2972 96.9815C99.3812 96.8212 101.383 95.4185 103.283 93.5642C105.197 91.6972 107.098 89.2782 108.962 86.9425L108.18 86.3188C106.301 88.6738 104.443 91.035 102.585 92.8485C100.714 94.6747 98.9313 95.8528 97.2205 95.9844L97.2972 96.9815ZM108.995 86.8956L112.644 81.0572L111.796 80.5272L108.147 86.3656L108.995 86.8956ZM96.6552 74.3429C98.0609 73.9762 99.5228 73.3856 100.846 72.8081C102.19 72.2218 103.36 71.6634 104.255 71.3211L103.898 70.3871C102.976 70.7397 101.739 71.3273 100.446 71.8916C99.133 72.4647 97.7297 73.0292 96.4028 73.3753L96.6552 74.3429ZM104.255 71.3211C106.078 70.6238 107.722 70.4866 108.871 70.8242C109.439 70.9911 109.87 71.2684 110.161 71.6355C110.448 71.9998 110.625 72.4877 110.625 73.1293H111.625C111.625 72.2943 111.391 71.5796 110.945 71.0155C110.502 70.4543 109.877 70.0775 109.153 69.8648C107.719 69.4433 105.838 69.6451 103.898 70.3871L104.255 71.3211ZM110.625 73.1293C110.625 73.9852 110.457 74.613 110.184 75.1059C109.91 75.6002 109.511 75.9935 108.996 76.3516C108.475 76.7138 107.856 77.0268 107.147 77.373C106.448 77.7144 105.669 78.0849 104.881 78.5495L105.389 79.411C106.136 78.9707 106.874 78.6193 107.586 78.2715C108.288 77.9284 108.974 77.5848 109.567 77.1725C110.166 76.7561 110.689 76.257 111.058 75.5906C111.428 74.9228 111.625 74.1215 111.625 73.1293H110.625ZM104.881 78.5495C101.852 80.3345 98.289 81.5237 92.8774 87.3862L93.6122 88.0645C98.8953 82.3412 102.275 81.2461 105.389 79.411L104.881 78.5495ZM100.098 97.9888C102.186 96.5431 105.13 93.392 107.669 90.2884C108.945 88.7289 110.13 87.1669 111.067 85.8151C111.995 84.4761 112.707 83.3068 113.006 82.5446L112.075 82.1792C111.823 82.8216 111.174 83.906 110.245 85.2453C109.326 86.5717 108.157 88.1124 106.895 89.6552C104.358 92.7562 101.49 95.8084 99.5285 97.1666L100.098 97.9888ZM113.006 82.5446C113.06 82.4074 113.199 82.1519 113.406 81.8068C113.607 81.4725 113.852 81.0857 114.099 80.699C114.344 80.315 114.592 79.9295 114.792 79.607C114.984 79.2985 115.159 79.0054 115.235 78.8233L114.313 78.4365C114.274 78.5302 114.147 78.7505 113.943 79.0797C113.747 79.3949 113.505 79.7716 113.256 80.1607C113.009 80.5471 112.757 80.9444 112.549 81.2919C112.346 81.6287 112.164 81.9526 112.075 82.1792L113.006 82.5446ZM108.206 66.0611C106.183 66.0611 103.572 66.7734 101.34 67.3788L101.602 68.344C103.881 67.7257 106.346 67.0611 108.206 67.0611V66.0611ZM101.34 67.3788C100.31 67.6583 99.3574 67.9166 98.5477 68.0877C97.7188 68.2628 97.1163 68.3283 96.7562 68.2713C96.6732 68.2581 96.6179 68.2403 96.5833 68.2245C96.5666 68.2168 96.5561 68.2103 96.5501 68.206C96.5472 68.2039 96.5453 68.2022 96.5441 68.2012C96.5431 68.2002 96.5426 68.1997 96.5426 68.1997C96.5426 68.1997 96.5428 68.1999 96.5431 68.2003C96.5432 68.2005 96.5433 68.2007 96.5434 68.2009C96.5435 68.201 96.5435 68.2011 96.5435 68.2011C96.5435 68.2011 96.5434 68.2009 96.5433 68.2006C96.5432 68.2003 96.543 68.1998 96.5427 68.1991C96.5422 68.1976 96.5414 68.1951 96.5406 68.1913C96.5372 68.176 96.5324 68.1379 96.5429 68.0676C96.5648 67.9202 96.6444 67.6903 96.8297 67.3561C97.0121 67.0274 97.2819 66.6241 97.656 66.135L96.8616 65.5276C96.4703 66.0393 96.1695 66.4849 95.9553 66.871C95.7441 67.2517 95.6011 67.6027 95.5538 67.9203C95.5049 68.2484 95.5543 68.5852 95.7857 68.8532C96.0037 69.1058 96.3132 69.2135 96.5996 69.2589C97.1623 69.3481 97.9304 69.2402 98.7544 69.0661C99.5977 68.8879 100.58 68.6212 101.602 68.344L101.34 67.3788ZM97.656 66.135C101.401 61.2381 104.449 58.8739 105.898 57.7497L105.285 56.9597C103.801 58.111 100.679 60.5355 96.8616 65.5276L97.656 66.135ZM105.898 57.7497C106.257 57.4712 106.559 57.2386 106.735 57.0623L106.028 56.3552C105.908 56.4751 105.673 56.6589 105.285 56.9597L105.898 57.7497ZM97.2205 95.9844C96.1717 96.0651 95.694 95.8677 95.492 95.6611C95.3087 95.4736 95.2215 95.1363 95.3608 94.5403C95.4973 93.9561 95.8265 93.2485 96.2763 92.4882C96.7223 91.7343 97.2695 90.957 97.8175 90.2381L97.0221 89.6319C96.4604 90.3689 95.8883 91.18 95.4156 91.9791C94.9466 92.7719 94.5577 93.5821 94.387 94.3128C94.219 95.0317 94.2355 95.8063 94.777 96.3602C95.2999 96.895 96.1683 97.0683 97.2972 96.9815L97.2205 95.9844ZM97.8175 90.2381C98.0152 89.9787 98.2079 89.7258 98.3886 89.4849L97.5886 88.8849C97.4107 89.1222 97.2203 89.3719 97.0221 89.6319L97.8175 90.2381Z" fill="#93A7AB"/>
</svg>
