<svg width="142" height="148" viewBox="0 0 142 148" fill="none" xmlns="http://www.w3.org/2000/svg">
<rect width="142" height="148" fill="#424B54"/>
<path fill-rule="evenodd" clip-rule="evenodd" d="M32.5252 60.8824C29.9709 58.693 22.4833 59.4411 17.5206 69.0744C12.558 78.7078 16.1427 82.6166 17.9671 84.4411C20.6237 87.0977 22.926 87.6799 28.955 73.4941C30.3543 70.2015 31.2934 68.1422 32.436 65.9743C33.2347 64.4588 34.1189 62.9581 34.7759 62.0383C36.7024 59.3412 35.5226 63.9648 33.6811 73.5974C32.2829 80.9111 32.3449 89.7918 32.4641 93.2478C32.9506 94.9507 36.3782 99.4127 37.0877 95.9449C37.718 92.8647 37.7044 77.9174 38.69 71.2639C39.4198 65.5471 43.6042 53.6994 47.1056 47.3968C49.0321 43.9291 48.6468 42.0026 43.699 40.076C42.0967 39.4521 41.7725 42.7732 40.0111 46.1718C38.0804 49.8972 36.2122 53.5616 32.5252 60.8824ZM22.3868 71.2639C25.0141 65.1336 29.0358 62.8712 30.7387 62.5063C31.0306 63.3821 29.4007 66.2769 28.5493 67.6149C26.6032 71.1423 23.2217 79.2188 22.346 80.3864C21.2513 81.8461 19.1027 78.9268 22.3868 71.2639Z" fill="#93A8AC"/>
<path d="M32.5252 60.8824L32.1998 61.262L32.6846 61.6775L32.9718 61.1073L32.5252 60.8824ZM17.9671 84.4411L17.6136 84.7946L17.9671 84.4411ZM28.955 73.4941L28.4948 73.2985L28.955 73.4941ZM34.7759 62.0383L34.3691 61.7477L34.7759 62.0383ZM32.4641 93.2478L31.9644 93.265L31.9665 93.3263L31.9833 93.3852L32.4641 93.2478ZM37.0877 95.9449L37.5776 96.0452L37.0877 95.9449ZM38.69 71.2639L39.1847 71.3372L39.186 71.3272L38.69 71.2639ZM47.1056 47.3968L47.5427 47.6396L47.1056 47.3968ZM43.699 40.076L43.8805 39.6101L43.699 40.076ZM30.7387 62.5063L31.213 62.3482L31.0715 61.9236L30.6339 62.0174L30.7387 62.5063ZM22.3868 71.2639L21.9272 71.067L22.3868 71.2639ZM22.346 80.3864L21.946 80.0864L22.346 80.3864ZM28.5493 67.6149L28.1275 67.3465L28.1191 67.3597L28.1115 67.3734L28.5493 67.6149ZM32.436 65.9743L32.8783 66.2074L32.436 65.9743ZM33.6811 73.5974L34.1722 73.6913L33.6811 73.5974ZM40.0111 46.1718L40.455 46.4018L40.0111 46.1718ZM32.8506 60.5028C31.3839 59.2456 28.6567 58.9215 25.7414 60.0802C22.7978 61.2502 19.6021 63.9421 17.0762 68.8455L17.9651 69.3034C20.4018 64.5734 23.4313 62.0745 26.1107 61.0095C28.8185 59.9332 31.1122 60.3298 32.1998 61.262L32.8506 60.5028ZM17.0762 68.8455C14.5609 73.728 14.1748 77.2325 14.7093 79.7885C15.2441 82.3458 16.6846 83.8656 17.6136 84.7946L18.3207 84.0875C17.4252 83.1921 16.1611 81.8453 15.6881 79.5837C15.2149 77.3209 15.5177 74.0542 17.9651 69.3034L17.0762 68.8455ZM17.6136 84.7946C18.2807 85.4617 18.9989 86.0792 19.8123 86.3249C20.6805 86.5872 21.5713 86.4051 22.5039 85.6778C23.4106 84.9706 24.3853 83.7301 25.5003 81.8143C26.6204 79.8899 27.904 77.2452 29.4151 73.6896L28.4948 73.2985C26.9914 76.8359 25.7264 79.438 24.6361 81.3112C23.5408 83.193 22.6434 84.3008 21.8889 84.8892C21.1602 85.4575 20.6005 85.5183 20.1015 85.3676C19.5477 85.2003 18.9819 84.7487 18.3207 84.0875L17.6136 84.7946ZM31.9833 93.3852C32.1254 93.8823 32.4625 94.53 32.8755 95.1519C33.2926 95.78 33.8159 96.4251 34.3601 96.909C34.6321 97.1509 34.9219 97.3637 35.2176 97.5116C35.5103 97.658 35.8424 97.7575 36.184 97.7235C36.9538 97.6467 37.3876 96.9738 37.5776 96.0452L36.5979 95.8447C36.4331 96.65 36.1725 96.7197 36.0848 96.7284C35.9976 96.7371 35.8603 96.715 35.6649 96.6173C35.4726 96.5211 35.2557 96.3672 35.0246 96.1617C34.5623 95.7507 34.0931 95.1778 33.7086 94.5987C33.3199 94.0134 33.0461 93.4647 32.9449 93.1105L31.9833 93.3852ZM37.5776 96.0452C37.7441 95.2312 37.8625 93.6792 37.9647 91.7511C38.0677 89.8085 38.156 87.4385 38.2552 84.9644C38.4542 80.001 38.6966 74.6315 39.1846 71.3372L38.1954 71.1907C37.6978 74.5498 37.4542 79.9806 37.256 84.9243C37.1566 87.4038 37.0686 89.764 36.9661 91.6982C36.8628 93.647 36.7465 95.1185 36.5979 95.8447L37.5776 96.0452ZM39.186 71.3272C39.544 68.5227 40.7581 64.1718 42.33 59.7164C43.8999 55.2663 45.8107 50.7573 47.5427 47.6396L46.6685 47.154C44.8991 50.3389 42.967 54.9051 41.3869 59.3837C39.8088 63.857 38.5658 68.2884 38.1941 71.2006L39.186 71.3272ZM47.5427 47.6396C48.5116 45.8956 49.0122 44.3574 48.4428 42.9688C47.8826 41.6026 46.3614 40.5761 43.8805 39.6101L43.5176 40.542C45.9845 41.5025 47.1298 42.4026 47.5176 43.3482C47.8961 44.2714 47.6261 45.4303 46.6685 47.154L47.5427 47.6396ZM30.6339 62.0174C28.7448 62.4222 24.6064 64.8155 21.9272 71.067L22.8464 71.4609C25.4217 65.4517 29.3268 63.3202 30.8435 62.9952L30.6339 62.0174ZM21.9272 71.067C20.2668 74.9413 19.9446 77.6917 20.2318 79.3323C20.3716 80.131 20.6774 80.7775 21.1656 81.0796C21.4275 81.2416 21.7329 81.2952 22.0361 81.2086C22.3271 81.1254 22.5644 80.9286 22.746 80.6864L21.946 80.0864C21.8539 80.2092 21.7846 80.2404 21.7613 80.2471C21.7504 80.2502 21.734 80.2553 21.6918 80.2292C21.5719 80.155 21.3405 79.8665 21.2168 79.1599C20.9771 77.7901 21.2227 75.2495 22.8464 71.4609L21.9272 71.067ZM22.746 80.6864C23.0008 80.3466 23.3989 79.5711 23.8615 78.6114C24.3344 77.6299 24.9021 76.3962 25.5005 75.0944C26.7023 72.4804 28.0251 69.6001 28.9871 67.8565L28.1115 67.3734C27.1274 69.1571 25.7863 72.0788 24.592 74.6767C23.9923 75.981 23.4288 77.2057 22.9606 78.1773C22.482 79.1705 22.129 79.8424 21.946 80.0864L22.746 80.6864ZM28.9711 67.8834C29.4041 67.2029 30.0354 66.1265 30.524 65.1026C30.7677 64.5919 30.9827 64.0802 31.1183 63.6299C31.186 63.4048 31.2376 63.1832 31.2603 62.9773C31.2824 62.7777 31.2819 62.5549 31.213 62.3482L30.2644 62.6644C30.2684 62.6766 30.2809 62.7359 30.2664 62.8675C30.2525 62.9927 30.218 63.1514 30.1607 63.3417C30.0461 63.7224 29.8552 64.1823 29.6215 64.6719C29.1553 65.6489 28.5459 66.689 28.1275 67.3465L28.9711 67.8834ZM29.4151 73.6896C30.8124 70.402 31.7452 68.3574 32.8783 66.2074L31.9937 65.7411C30.8416 67.9271 29.8963 70.0009 28.4948 73.2985L29.4151 73.6896ZM32.8783 66.2074C33.6726 64.7002 34.5448 63.2221 35.1828 62.3289L34.3691 61.7477C33.6931 62.694 32.7968 64.2173 31.9937 65.7411L32.8783 66.2074ZM35.1828 62.3289C35.4214 61.9948 35.5767 61.827 35.6601 61.7636C35.7067 61.7281 35.6688 61.7737 35.5676 61.7776C35.4117 61.7837 35.3002 61.6911 35.2559 61.6223C35.23 61.582 35.2406 61.5736 35.2511 61.651C35.2602 61.7182 35.2652 61.8184 35.2618 61.9585C35.2551 62.2382 35.2166 62.6252 35.1464 63.1246C34.8643 65.1313 34.1146 68.6668 33.19 73.5035L34.1722 73.6913C35.0891 68.8954 35.85 65.3028 36.1366 63.2638C36.2086 62.7518 36.2534 62.32 36.2615 61.9826C36.2656 61.8141 36.2609 61.6562 36.242 61.5168C36.2246 61.3877 36.1889 61.2243 36.0972 61.0817C35.9872 60.9104 35.7904 60.7682 35.5286 60.7784C35.3214 60.7865 35.1569 60.89 35.055 60.9674C34.8414 61.1298 34.612 61.4075 34.3691 61.7477L35.1828 62.3289ZM33.19 73.5035C31.781 80.8741 31.8449 89.8004 31.9644 93.265L32.9638 93.2306C32.8449 89.7831 32.7849 80.9481 34.1722 73.6913L33.19 73.5035ZM43.8805 39.6101C43.6049 39.5028 43.322 39.4681 43.0417 39.5319C42.7643 39.5951 42.5345 39.7446 42.3451 39.9297C41.9836 40.2828 41.7058 40.8301 41.4547 41.4195C40.9231 42.6671 40.4404 44.2567 39.5672 45.9417L40.455 46.4018C41.3431 44.6882 41.9032 42.918 42.3747 41.8114C42.6251 41.2237 42.8388 40.8453 43.0439 40.645C43.1377 40.5534 43.2099 40.5192 43.2638 40.5069C43.3148 40.4953 43.3926 40.4933 43.5176 40.542L43.8805 39.6101ZM39.5672 45.9417C37.6352 49.6696 35.766 53.336 32.0786 60.6575L32.9718 61.1073C36.6584 53.7873 38.5256 50.1248 40.455 46.4018L39.5672 45.9417Z" fill="#93A8AC"/>
<path d="M51.7671 86.2656C46.2206 83.6383 46.3481 68.7504 49.9426 60.7226C58.2809 58.5332 54.7408 72.0345 55.1057 80.0624C55.3977 86.4846 59.3629 80.7922 61.3091 77.1432L61.674 80.0624C58.3899 88.4551 53.5187 87.4333 51.7671 86.2656Z" fill="#93A8AC"/>
<path d="M51.7671 50.5054C53.1233 50.2621 55.6166 50.5054 54.7408 53.4246C53.6461 57.0736 50.253 53.4246 51.7671 50.5054Z" fill="#93A8AC"/>
<path d="M51.7671 86.2656C46.2206 83.6383 46.3481 68.7504 49.9426 60.7226C58.2809 58.5332 54.7408 72.0345 55.1057 80.0624C55.3977 86.4846 59.3629 80.7922 61.3091 77.1432L61.674 80.0624C58.3899 88.4551 53.5187 87.4333 51.7671 86.2656Z" stroke="#93A8AC" stroke-linecap="round" stroke-linejoin="round"/>
<path d="M51.7671 50.5054C53.1233 50.2621 55.6166 50.5054 54.7408 53.4246C53.6461 57.0736 50.253 53.4246 51.7671 50.5054Z" stroke="#93A8AC" stroke-linecap="round" stroke-linejoin="round"/>
<path fill-rule="evenodd" clip-rule="evenodd" d="M66.4175 65.1015C74.4427 57.3216 79.2434 59.6279 80.3381 61.4524C80.6726 62.5418 80.9773 62.1709 81.5283 61.5005C82.2692 60.599 83.4553 59.1558 85.7573 59.9929C89.7712 61.4525 88.3116 65.4664 87.5818 67.2909C86.852 69.1154 83.5679 77.5081 87.5818 75.3187C91.5957 73.1293 93.0553 73.4942 94.15 74.5889C95.2447 75.6836 94.5149 76.4134 90.501 77.5081C86.4871 78.6028 83.9328 81.522 82.8381 88.82C81.7434 96.1181 79.5948 107.43 77.4053 113.998C75.2159 120.566 66.4175 122.756 64.9579 109.984C63.7902 99.7671 74.2021 87.2388 79.554 82.2518C81.4401 78.21 81.5355 76.158 81.7503 71.5409C81.8263 69.9054 81.9174 67.9481 82.1083 65.4664C80.527 66.5611 73.3507 74.224 69.3367 79.3326C63.1012 87.2686 56.2547 74.9537 66.4175 65.1015ZM76.6347 64.3717C75.4184 65.1015 72.2559 67.3639 69.3367 70.575C65.6877 74.5889 66.4175 77.1024 71.5261 72.7236C76.6347 68.3448 78.8241 65.4664 79.9189 64.0068C81.0136 62.5472 78.8242 62.8469 76.6347 64.3717ZM75.4992 109.619C76.9588 106.7 80.2838 94.0503 81.0136 88.0902C77.7294 90.2796 67.1473 104.511 68.9718 112.539C70.7963 120.566 73.6747 113.268 75.4992 109.619Z" fill="#93A8AC"/>
<path d="M80.3381 61.4524L80.8161 61.3057L80.7982 61.2474L80.7669 61.1952L80.3381 61.4524ZM66.4175 65.1015L66.0695 64.7425L66.4175 65.1015ZM69.3367 79.3326L68.9436 79.0237L69.3367 79.3326ZM82.1083 65.4664L82.6068 65.5047C82.6216 65.3124 82.5244 65.1287 82.3571 65.0327C82.1898 64.9367 81.9822 64.9455 81.8237 65.0553L82.1083 65.4664ZM79.554 82.2518L79.8948 82.6176L79.9659 82.5514L80.007 82.4633L79.554 82.2518ZM64.9579 109.984L65.4547 109.928L64.9579 109.984ZM85.7573 59.9929L85.9281 59.523L85.7573 59.9929ZM76.6347 64.3717L76.892 64.8004L76.9066 64.7917L76.9205 64.782L76.6347 64.3717ZM69.3367 70.575L69.7067 70.9113L69.3367 70.575ZM81.0136 88.0902L81.5098 88.151L81.6422 87.0702L80.7362 87.6742L81.0136 88.0902ZM81.7503 71.5409L82.2497 71.5642L81.7503 71.5409ZM81.5283 61.5005L81.9146 61.818V61.818L81.5283 61.5005ZM80.7669 61.1952C80.1105 60.1013 78.4446 58.997 75.941 59.1766C73.4397 59.356 70.1284 60.8076 66.0695 64.7425L66.7655 65.4605C70.7318 61.6155 73.8334 60.3303 76.0125 60.174C78.1892 60.0179 79.471 60.979 79.9094 61.7096L80.7669 61.1952ZM66.0695 64.7425C60.8781 69.7752 59.9553 75.5179 61.2585 79.0603C61.9074 80.8243 63.1467 82.1105 64.7508 82.3375C66.3591 82.5652 68.1145 81.6974 69.7299 79.6415L68.9436 79.0237C67.4412 80.9358 66.0025 81.5047 64.8909 81.3474C63.7751 81.1895 62.7688 80.2692 62.197 78.715C61.0587 75.6209 61.794 70.28 66.7655 65.4605L66.0695 64.7425ZM69.7299 79.6415C71.7255 77.1018 74.5132 73.9197 77.0015 71.2341C78.2451 69.8919 79.4109 68.677 80.3626 67.731C81.3268 66.7726 82.0405 66.1214 82.3929 65.8775L81.8237 65.0553C81.3854 65.3587 80.6091 66.0759 79.6576 67.0218C78.6935 67.9801 77.5179 69.2055 76.268 70.5545C73.7694 73.2511 70.962 76.4549 68.9436 79.0237L69.7299 79.6415ZM79.2131 81.886C76.5102 84.4046 72.5393 88.8169 69.3864 93.8929C66.2437 98.9524 63.8576 104.76 64.4612 110.041L65.4547 109.928C64.8905 104.991 67.1266 99.4262 70.2358 94.4205C73.3349 89.4313 77.2458 85.086 79.8948 82.6176L79.2131 81.886ZM64.4612 110.041C65.1987 116.495 67.8366 119.482 70.8652 119.742C73.827 119.996 76.7391 117.578 77.8797 114.156L76.931 113.84C75.8822 116.987 73.3004 118.947 70.9507 118.745C68.6679 118.549 66.1767 116.246 65.4547 109.928L64.4612 110.041ZM77.8797 114.156C80.0835 107.545 82.2371 96.197 83.3325 88.8942L82.3436 88.7459C81.2496 96.0391 79.106 107.315 76.931 113.84L77.8797 114.156ZM83.3325 88.8942C83.874 85.2843 84.7688 82.8179 85.981 81.1294C87.1816 79.4571 88.7194 78.5123 90.6325 77.9905L90.3694 77.0257C88.2687 77.5987 86.5223 78.6608 85.1687 80.5462C83.8266 82.4156 82.8968 85.0578 82.3436 88.7459L83.3325 88.8942ZM90.6325 77.9905C91.6435 77.7148 92.4606 77.4586 93.0997 77.2101C93.7307 76.9647 94.2246 76.7132 94.5613 76.4326C94.9068 76.1447 95.1481 75.7696 95.1039 75.3055C95.064 74.8871 94.7991 74.5309 94.5035 74.2353L93.7964 74.9425C94.0482 75.1942 94.1026 75.3398 94.1084 75.4003C94.1098 75.4151 94.123 75.4962 93.9211 75.6644C93.7105 75.8399 93.3377 76.0446 92.7372 76.2781C92.1447 76.5085 91.3654 76.7541 90.3694 77.0257L90.6325 77.9905ZM94.5035 74.2353C93.8788 73.6106 93.11 73.1695 91.9379 73.2228C90.8176 73.2737 89.3671 73.7753 87.3423 74.8798L87.8212 75.7577C89.8103 74.6727 91.0966 74.2621 91.9833 74.2217C92.8181 74.1838 93.3265 74.4725 93.7964 74.9425L94.5035 74.2353ZM87.3423 74.8798C86.8711 75.1368 86.5877 75.1907 86.4394 75.1788C86.3432 75.1711 86.2904 75.1397 86.236 75.0271C86.1644 74.8789 86.1167 74.6207 86.1253 74.233C86.1337 73.856 86.1937 73.4055 86.2932 72.9081C86.6934 70.907 87.6793 68.3934 88.046 67.4766L87.1175 67.1052C86.7545 68.0129 85.7334 70.6078 85.3126 72.712C85.2068 73.2408 85.1357 73.7539 85.1255 74.2108C85.1156 74.6569 85.162 75.1028 85.3356 75.4621C85.5263 75.8569 85.8698 76.1363 86.3594 76.1756C86.7969 76.2107 87.289 76.048 87.8212 75.7577L87.3423 74.8798ZM88.046 67.4766C88.4092 66.5685 88.9975 65.0196 88.9481 63.4889C88.9231 62.7124 88.7339 61.9179 88.2514 61.2106C87.7668 60.5003 87.0132 59.9175 85.9281 59.523L85.5864 60.4628C86.5083 60.798 87.0775 61.2643 87.4253 61.7742C87.7752 62.287 87.9281 62.8837 87.9487 63.5212C87.9905 64.8184 87.4841 66.1887 87.1175 67.1052L88.046 67.4766ZM76.3775 63.9429C75.123 64.6956 71.9216 66.9883 68.9668 70.2387L69.7067 70.9113C72.5903 67.7394 75.7138 65.5073 76.892 64.8004L76.3775 63.9429ZM68.9668 70.2387C68.0348 71.2638 67.3653 72.2113 66.9736 72.9967C66.7783 73.3882 66.6428 73.7578 66.5861 74.0889C66.5312 74.4091 66.5382 74.766 66.7235 75.0619C66.9282 75.3888 67.2705 75.5202 67.6174 75.5263C67.9475 75.5321 68.3199 75.4301 68.7151 75.2582C69.5118 74.9116 70.5594 74.2107 71.8515 73.1032L71.2007 72.344C69.9385 73.4259 68.9792 74.0528 68.3163 74.3411C67.9817 74.4866 67.7611 74.5287 67.6351 74.5265C67.5259 74.5246 67.5489 74.4957 67.5711 74.5312C67.574 74.5358 67.5353 74.4701 67.5717 74.2577C67.6062 74.0562 67.6988 73.7832 67.8684 73.443C68.2065 72.7651 68.8141 71.8931 69.7067 70.9113L68.9668 70.2387ZM71.8515 73.1032C76.9941 68.6953 79.2078 65.7881 80.3189 64.3068L79.5189 63.7068C78.4405 65.1446 76.2754 67.9943 71.2007 72.344L71.8515 73.1032ZM80.3189 64.3068C80.473 64.1012 80.5943 63.8949 80.6586 63.6915C80.7228 63.4882 80.7462 63.2305 80.6121 62.99C80.4772 62.7482 80.247 62.6382 80.0536 62.5923C79.8611 62.5466 79.6507 62.5491 79.4481 62.5737C78.6509 62.6705 77.4781 63.175 76.349 63.9614L76.9205 64.782C77.9808 64.0435 78.9974 63.6358 79.5686 63.5664C79.7081 63.5495 79.7885 63.5571 79.8226 63.5652C79.8558 63.5731 79.7881 63.5656 79.7388 63.4772C79.6902 63.39 79.7221 63.3364 79.7051 63.3901C79.6881 63.4438 79.6383 63.5474 79.5189 63.7068L80.3189 64.3068ZM80.5173 88.0295C80.1564 90.9762 79.1494 95.6032 78.046 99.8699C76.9382 104.154 75.7539 107.992 75.052 109.396L75.9465 109.843C76.7042 108.328 77.9121 104.381 79.0141 100.12C80.1205 95.8423 81.1409 91.1643 81.5098 88.151L80.5173 88.0295ZM75.052 109.396C74.5806 110.339 74.0796 111.437 73.5222 112.514C72.9679 113.584 72.406 114.534 71.8677 115.119C71.5973 115.413 71.3709 115.572 71.1951 115.632C71.0513 115.682 70.9333 115.672 70.7912 115.572C70.6196 115.453 70.3969 115.187 70.156 114.66C69.9187 114.141 69.6833 113.413 69.4594 112.428L68.4843 112.649C68.7165 113.671 68.9702 114.471 69.2466 115.076C69.5194 115.672 69.8352 116.124 70.2185 116.392C70.6314 116.681 71.0848 116.728 71.5206 116.578C71.9244 116.439 72.2859 116.141 72.6034 115.796C73.2408 115.104 73.8546 114.047 74.4102 112.974C74.9626 111.907 75.5057 110.725 75.9465 109.843L75.052 109.396ZM69.4594 112.428C69.0314 110.545 69.3239 108.249 70.0987 105.79C70.8709 103.339 72.1066 100.774 73.5086 98.3775C74.9096 95.9822 76.4689 93.7676 77.8792 92.0189C79.3013 90.2554 80.5382 89.0081 81.2909 88.5063L80.7362 87.6742C79.8469 88.2671 78.5294 89.6197 77.1008 91.3912C75.6602 93.1774 74.0723 95.4329 72.6454 97.8726C71.2193 100.311 69.9464 102.946 69.1449 105.489C68.3461 108.025 68 110.519 68.4843 112.649L69.4594 112.428ZM81.6097 65.428C81.4182 67.9179 81.3269 69.8817 81.2508 71.5177L82.2497 71.5642C82.3258 69.9291 82.4165 67.9783 82.6068 65.5047L81.6097 65.428ZM81.2508 71.5177C81.143 73.8354 81.0663 75.4672 80.7868 77.0237C80.5096 78.5675 80.03 80.0493 79.1009 82.0404L80.007 82.4633C80.964 80.4125 81.4753 78.8474 81.771 77.2005C82.0645 75.5663 82.1428 73.8635 82.2497 71.5642L81.2508 71.5177ZM85.9281 59.523C84.6453 59.0565 83.6237 59.2167 82.8181 59.6557C82.0438 60.0776 81.5056 60.7406 81.142 61.183L81.9146 61.818C82.2919 61.3589 82.7172 60.8495 83.2966 60.5337C83.8448 60.235 84.5673 60.0922 85.5864 60.4628L85.9281 59.523ZM81.142 61.183C80.9992 61.3569 80.8933 61.485 80.8022 61.5766C80.7581 61.621 80.7288 61.6452 80.7118 61.657C80.6935 61.6698 80.7066 61.6563 80.7465 61.6476C80.7962 61.6369 80.8606 61.6398 80.921 61.6669C80.9731 61.6903 80.9908 61.7176 80.9819 61.7062C80.9729 61.6947 80.9507 61.6614 80.9193 61.591C80.8886 61.5221 80.854 61.4291 80.8161 61.3057L79.8601 61.5991C79.9476 61.8842 80.0507 62.1383 80.1935 62.3213C80.2688 62.4179 80.3719 62.5166 80.5118 62.5793C80.6599 62.6458 80.8144 62.656 80.9575 62.6251C81.2055 62.5716 81.3949 62.3989 81.5117 62.2814C81.6432 62.149 81.782 61.9793 81.9146 61.818L81.142 61.183Z" fill="#93A8AC"/>
<path fill-rule="evenodd" clip-rule="evenodd" d="M104.732 53.7896C101.935 55.979 95.9017 60.9416 94.1501 63.277C91.9607 66.1962 90.1362 76.0485 98.529 73.8591C101.261 73.1463 104.26 71.5489 106.076 70.8541C109.84 69.4148 113.125 70.1761 113.125 73.1293C113.125 76.8253 110.206 77.1703 107.135 78.9803C104.064 80.7903 100.592 81.9324 95.2448 87.7253C86.4872 97.2128 97.0693 100.862 101.813 97.5777C105.863 94.7739 113.438 85.171 114.54 82.3619C114.826 81.6343 116.543 79.1814 116.774 78.6299C119.143 77.5352 120.238 76.8054 124.437 76.0756C125.567 75.8791 126.772 73.7131 124.437 73.1293C122.102 72.5455 117.382 73.3726 116.044 73.8591C115.436 71.4264 114.585 66.5611 110.206 66.5611C108.265 66.5611 105.727 67.2495 103.471 67.8614C99.3669 68.9748 96.1974 69.8346 99.2587 65.8313C103.04 60.8868 106.125 58.4924 107.592 57.3547C107.965 57.0651 108.233 56.8569 108.381 56.7088C109.111 55.979 110.936 53.7896 104.732 53.7896ZM99.9885 89.1849C101.74 86.8496 112.03 80.7922 114.22 80.7922L110.571 86.6306C106.828 91.3213 103.054 96.191 99.2588 96.483C94.9036 96.818 97.2004 92.8468 99.4197 89.935C99.6177 89.6753 99.8092 89.424 99.9885 89.1849Z" fill="#93A8AC"/>
<path d="M104.732 53.7896V53.2896C104.621 53.2896 104.512 53.327 104.424 53.3958L104.732 53.7896ZM94.1501 63.277L94.5501 63.577L94.1501 63.277ZM98.529 73.8591L98.6552 74.3429L98.529 73.8591ZM95.2448 87.7253L95.6122 88.0645L95.2448 87.7253ZM101.813 97.5777L102.098 97.9888L101.813 97.5777ZM116.774 78.6299L116.564 78.176L116.388 78.2575L116.313 78.4365L116.774 78.6299ZM124.437 76.0756L124.523 76.5682L124.437 76.0756ZM116.044 73.8591L115.559 73.9804L115.694 74.5186L116.215 74.329L116.044 73.8591ZM99.2587 65.8313L98.8616 65.5276L99.2587 65.8313ZM108.381 56.7088L108.028 56.3552V56.3552L108.381 56.7088ZM114.22 80.7922L114.644 81.0572C114.74 80.9031 114.745 80.7088 114.657 80.5498C114.569 80.3909 114.401 80.2922 114.22 80.2922V80.7922ZM99.9885 89.1849L100.389 89.4849L99.9885 89.1849ZM99.2588 96.483L99.2971 96.9815H99.2971L99.2588 96.483ZM110.571 86.6306L110.961 86.9425L110.979 86.92L110.995 86.8956L110.571 86.6306ZM106.076 70.8541L106.255 71.3211L106.076 70.8541ZM114.54 82.3619L114.075 82.1792L114.54 82.3619ZM103.471 67.8614L103.602 68.344L103.471 67.8614ZM107.592 57.3547L107.285 56.9597V56.9597L107.592 57.3547ZM99.4197 89.935L99.0221 89.6319L99.4197 89.935ZM104.424 53.3958C103.02 54.4947 100.805 56.2882 98.7208 58.1012C96.6505 59.9018 94.663 61.7598 93.7501 62.977L94.5501 63.577C95.3888 62.4587 97.2936 60.6678 99.3771 58.8558C101.446 57.0563 103.647 55.2738 105.04 54.1833L104.424 53.3958ZM93.7501 62.977C93.1523 63.7741 92.6055 65.0022 92.2474 66.3406C91.8883 67.6829 91.7052 69.1869 91.8751 70.5458C92.0447 71.9022 92.5771 73.1813 93.7155 73.9536C94.8554 74.7268 96.4818 74.9099 98.6552 74.3429L98.4027 73.3753C96.3798 73.903 95.087 73.6756 94.2769 73.126C93.4654 72.5755 93.0171 71.6197 92.8674 70.4218C92.718 69.2264 92.877 67.8568 93.2135 66.5991C93.551 65.3376 94.0533 64.2394 94.5501 63.577L93.7501 62.977ZM94.8774 87.3862C92.6518 89.7972 91.5927 91.9016 91.4119 93.6785C91.2279 95.4869 91.961 96.8925 93.1566 97.8337C94.3335 98.7602 95.9408 99.2278 97.5446 99.2578C99.1499 99.2879 100.809 98.8808 102.098 97.9888L101.528 97.1666C100.445 97.9165 99.0026 98.2849 97.5633 98.258C96.1224 98.231 94.7421 97.8091 93.7752 97.048C92.827 96.3015 92.2601 95.2212 92.4068 93.7797C92.5567 92.3067 93.4589 90.3972 95.6122 88.0645L94.8774 87.3862ZM116.984 79.0838C118.195 78.5241 119.023 78.0859 120.095 77.6841C121.152 77.2874 122.444 76.9294 124.523 76.5682L124.351 75.583C122.23 75.9516 120.875 76.3234 119.743 76.7477C118.626 77.1669 117.722 77.641 116.564 78.176L116.984 79.0838ZM124.523 76.5682C124.935 76.4965 125.312 76.2568 125.599 75.9647C125.889 75.6699 126.124 75.2837 126.223 74.8624C126.324 74.4337 126.286 73.9515 125.993 73.5254C125.705 73.1055 125.218 72.8092 124.558 72.6442L124.316 73.6144C124.824 73.7413 125.061 73.9347 125.169 74.0912C125.272 74.2416 125.3 74.4227 125.25 74.633C125.199 74.8507 125.067 75.0794 124.885 75.2642C124.701 75.4517 124.504 75.5565 124.351 75.583L124.523 76.5682ZM124.558 72.6442C123.296 72.3286 121.453 72.4009 119.808 72.5963C118.154 72.7927 116.595 73.1266 115.873 73.3892L116.215 74.329C116.831 74.1051 118.301 73.7822 119.925 73.5893C121.558 73.3955 123.243 73.3462 124.316 73.6144L124.558 72.6442ZM116.529 73.7378C116.234 72.5576 115.853 70.6494 114.977 69.0569C114.084 67.4325 112.633 66.0611 110.206 66.0611V67.0611C112.157 67.0611 113.322 68.1223 114.101 69.5388C114.897 70.9871 115.246 72.7279 115.559 73.9804L116.529 73.7378ZM108.735 57.0623C108.927 56.8701 109.215 56.5593 109.425 56.1937C109.628 55.8391 109.815 55.3325 109.628 54.8073C109.436 54.2722 108.925 53.9025 108.172 53.666C107.411 53.4272 106.304 53.2896 104.732 53.2896V54.2896C106.262 54.2896 107.253 54.4256 107.872 54.6201C108.499 54.8169 108.649 55.0402 108.686 55.1436C108.726 55.257 108.708 55.4346 108.558 55.6958C108.414 55.9459 108.2 56.1825 108.028 56.3552L108.735 57.0623ZM114.22 80.2922C113.858 80.2922 113.391 80.4115 112.889 80.5843C112.372 80.7621 111.767 81.0155 111.108 81.3218C109.789 81.9348 108.228 82.7733 106.686 83.682C105.144 84.591 103.611 85.5754 102.351 86.4825C101.109 87.3767 100.078 88.2326 99.5885 88.8849L100.389 89.4849C100.775 88.9696 101.687 88.1925 102.935 87.2942C104.165 86.4087 105.671 85.4409 107.194 84.5436C108.717 83.6461 110.248 82.8242 111.529 82.2286C112.171 81.9305 112.742 81.6924 113.214 81.5298C113.701 81.3622 114.034 81.2922 114.22 81.2922V80.2922ZM99.2971 96.9815C101.381 96.8212 103.383 95.4185 105.283 93.5642C107.197 91.6972 109.098 89.2782 110.961 86.9425L110.18 86.3188C108.301 88.6738 106.443 91.035 104.585 92.8485C102.714 94.6747 100.931 95.8528 99.2204 95.9844L99.2971 96.9815ZM110.995 86.8956L114.644 81.0572L113.796 80.5272L110.147 86.3656L110.995 86.8956ZM98.6552 74.3429C100.061 73.9762 101.523 73.3856 102.846 72.8081C104.189 72.2218 105.36 71.6634 106.255 71.3211L105.898 70.3871C104.976 70.7397 103.739 71.3273 102.446 71.8916C101.133 72.4647 99.7296 73.0292 98.4027 73.3753L98.6552 74.3429ZM106.255 71.3211C108.078 70.6238 109.722 70.4866 110.871 70.8242C111.439 70.9911 111.87 71.2684 112.161 71.6355C112.448 71.9998 112.625 72.4877 112.625 73.1293H113.625C113.625 72.2943 113.391 71.5796 112.945 71.0155C112.502 70.4543 111.877 70.0775 111.153 69.8648C109.718 69.4433 107.838 69.6451 105.898 70.3871L106.255 71.3211ZM112.625 73.1293C112.625 73.9852 112.457 74.613 112.184 75.1059C111.91 75.6002 111.511 75.9935 110.996 76.3516C110.475 76.7138 109.856 77.0268 109.147 77.373C108.448 77.7144 107.669 78.0849 106.881 78.5495L107.389 79.411C108.136 78.9707 108.874 78.6193 109.586 78.2715C110.288 77.9284 110.974 77.5848 111.567 77.1725C112.166 76.7561 112.689 76.257 113.058 75.5906C113.428 74.9228 113.625 74.1215 113.625 73.1293H112.625ZM106.881 78.5495C103.852 80.3345 100.289 81.5237 94.8774 87.3862L95.6122 88.0645C100.895 82.3412 104.275 81.2461 107.389 79.411L106.881 78.5495ZM102.098 97.9888C104.186 96.5431 107.13 93.392 109.669 90.2884C110.945 88.7289 112.13 87.1669 113.067 85.8151C113.995 84.4761 114.707 83.3068 115.006 82.5446L114.075 82.1792C113.823 82.8216 113.174 83.906 112.245 85.2453C111.326 86.5717 110.157 88.1124 108.895 89.6552C106.358 92.7562 103.49 95.8084 101.528 97.1666L102.098 97.9888ZM115.006 82.5446C115.06 82.4074 115.199 82.1519 115.406 81.8068C115.607 81.4725 115.852 81.0857 116.099 80.699C116.344 80.315 116.592 79.9295 116.792 79.607C116.984 79.2985 117.159 79.0054 117.235 78.8233L116.313 78.4365C116.274 78.5302 116.147 78.7505 115.943 79.0797C115.747 79.3949 115.505 79.7716 115.256 80.1607C115.009 80.5471 114.757 80.9444 114.549 81.2919C114.346 81.6287 114.164 81.9526 114.075 82.1792L115.006 82.5446ZM110.206 66.0611C108.183 66.0611 105.572 66.7734 103.34 67.3788L103.602 68.344C105.881 67.7257 108.346 67.0611 110.206 67.0611V66.0611ZM103.34 67.3788C102.31 67.6583 101.357 67.9166 100.548 68.0877C99.7187 68.2628 99.1162 68.3283 98.7561 68.2713C98.6731 68.2581 98.6178 68.2403 98.5832 68.2245C98.5665 68.2168 98.556 68.2103 98.5501 68.206C98.5471 68.2039 98.5452 68.2022 98.5441 68.2012C98.543 68.2002 98.5425 68.1997 98.5425 68.1997C98.5425 68.1997 98.5427 68.1999 98.543 68.2003C98.5431 68.2005 98.5432 68.2007 98.5433 68.2009C98.5434 68.201 98.5435 68.2011 98.5435 68.2011C98.5434 68.2011 98.5434 68.2009 98.5432 68.2006C98.5431 68.2003 98.5429 68.1998 98.5427 68.1991C98.5421 68.1976 98.5414 68.1951 98.5405 68.1913C98.5371 68.176 98.5323 68.1379 98.5428 68.0676C98.5647 67.9202 98.6443 67.6903 98.8297 67.3561C99.0121 67.0274 99.2819 66.6241 99.6559 66.135L98.8616 65.5276C98.4702 66.0393 98.1694 66.4849 97.9552 66.871C97.744 67.2517 97.601 67.6027 97.5537 67.9203C97.5049 68.2484 97.5542 68.5852 97.7856 68.8532C98.0037 69.1058 98.3132 69.2135 98.5996 69.2589C99.1622 69.3481 99.9303 69.2402 100.754 69.0661C101.598 68.8879 102.58 68.6212 103.602 68.344L103.34 67.3788ZM99.6559 66.135C103.401 61.2381 106.449 58.8739 107.898 57.7497L107.285 56.9597C105.801 58.111 102.679 60.5355 98.8616 65.5276L99.6559 66.135ZM107.898 57.7497C108.257 57.4712 108.558 57.2386 108.735 57.0623L108.028 56.3552C107.908 56.4751 107.673 56.6589 107.285 56.9597L107.898 57.7497ZM99.2204 95.9844C98.1717 96.0651 97.694 95.8677 97.492 95.6611C97.3087 95.4736 97.2214 95.1363 97.3607 94.5403C97.4972 93.9561 97.8264 93.2485 98.2762 92.4882C98.7222 91.7343 99.2695 90.957 99.8174 90.2381L99.0221 89.6319C98.4604 90.3689 97.8883 91.18 97.4155 91.9791C96.9466 92.7719 96.5577 93.5821 96.3869 94.3128C96.2189 95.0317 96.2354 95.8063 96.777 96.3602C97.2998 96.895 98.1683 97.0683 99.2971 96.9815L99.2204 95.9844ZM99.8174 90.2381C100.015 89.9787 100.208 89.7258 100.389 89.4849L99.5885 88.8849C99.4106 89.1222 99.2203 89.3719 99.0221 89.6319L99.8174 90.2381Z" fill="#93A8AC"/>
</svg>
