<svg width="360" height="258" viewBox="0 0 360 258" fill="none" xmlns="http://www.w3.org/2000/svg">
<path fill-rule="evenodd" clip-rule="evenodd" d="M57.6381 68.4879C49.3832 61.4122 25.1846 63.8298 9.14624 94.9631C-6.89211 126.096 4.69287 138.729 10.5892 144.625C19.1746 153.211 26.6152 155.092 46.0998 109.246C50.6223 98.6054 53.6572 91.9504 57.3498 84.9439C59.9311 80.0461 62.7887 75.1962 64.912 72.2236C71.1382 63.507 67.3251 78.4497 61.3738 109.58C56.8552 133.217 57.0555 161.918 57.4407 173.087C59.0131 178.59 70.0904 193.01 72.3834 181.803C74.4202 171.849 74.3764 123.542 77.5617 102.039C79.9203 83.5635 93.4433 45.2739 104.759 24.9051C110.985 13.698 109.74 7.47209 93.7498 1.24576C88.5713 -0.770666 87.5235 9.96232 81.8312 20.946C75.5915 32.9858 69.5538 44.8286 57.6381 68.4879ZM24.8727 102.039C33.3636 82.227 46.3611 74.9154 51.8645 73.7361C52.8079 76.5664 47.5404 85.9221 44.7887 90.2462C38.4992 101.646 27.5711 127.748 24.7408 131.521C21.2029 136.238 14.2591 126.804 24.8727 102.039Z" fill="#414A53"/>
<path d="M57.6381 68.4879L57.3127 68.8675L57.7975 69.283L58.0847 68.7128L57.6381 68.4879ZM10.5892 144.625L10.2357 144.979L10.5892 144.625ZM46.0998 109.246L45.6396 109.051L46.0998 109.246ZM64.912 72.2236L64.5052 71.9329L64.912 72.2236ZM57.4407 173.087L56.941 173.104L56.9431 173.165L56.9599 173.224L57.4407 173.087ZM72.3834 181.803L72.8732 181.904L72.3834 181.803ZM77.5617 102.039L78.0564 102.112L78.0577 102.102L77.5617 102.039ZM104.759 24.9051L105.196 25.1479L104.759 24.9051ZM93.7498 1.24576L93.9313 0.779831L93.7498 1.24576ZM51.8645 73.7361L52.3388 73.578L52.1973 73.1534L51.7597 73.2472L51.8645 73.7361ZM24.8727 102.039L24.4131 101.842L24.8727 102.039ZM24.7408 131.521L24.3408 131.221L24.7408 131.521ZM44.7887 90.2462L44.3669 89.9777L44.3585 89.9909L44.351 90.0046L44.7887 90.2462ZM57.3498 84.9439L57.7922 85.177L57.3498 84.9439ZM61.3738 109.58L61.8649 109.674L61.3738 109.58ZM81.8312 20.946L82.2751 21.1761L81.8312 20.946ZM57.9635 68.1083C53.6465 64.4079 45.3164 63.2796 36.1263 66.9325C26.9079 70.5966 16.7656 79.0808 8.70175 94.7341L9.59073 95.1921C17.5652 79.7122 27.5414 71.4209 36.4957 67.8618C45.4782 64.2914 53.3748 65.4921 57.3127 68.8675L57.9635 68.1083ZM8.70175 94.7341C0.648641 110.367 -0.50634 121.427 1.1528 129.36C2.81223 137.295 7.27072 142.014 10.2357 144.979L10.9428 144.272C8.01138 141.34 3.72919 136.794 2.13163 129.156C0.53378 121.515 1.60548 110.693 9.59073 95.1921L8.70175 94.7341ZM10.2357 144.979C12.385 147.128 14.536 148.938 16.8751 149.645C19.2691 150.368 21.7784 149.915 24.5648 147.742C27.3254 145.589 30.389 141.728 33.9707 135.575C37.5573 129.412 41.685 120.913 46.56 109.442L45.6396 109.051C40.7723 120.503 36.6632 128.961 33.1064 135.071C29.5446 141.191 26.5581 144.919 23.9498 146.953C21.3674 148.967 19.189 149.299 17.1643 148.688C15.0848 148.06 13.0862 146.415 10.9428 144.272L10.2357 144.979ZM56.9599 173.224C57.3734 174.671 58.3922 176.654 59.6999 178.623C61.0116 180.598 62.6424 182.603 64.3096 184.085C65.1432 184.826 65.9983 185.448 66.8387 185.869C67.676 186.287 68.532 186.523 69.3519 186.441C71.0785 186.269 72.2874 184.767 72.8732 181.904L71.8935 181.703C71.3329 184.443 70.2972 185.342 69.2528 185.446C68.6872 185.502 68.026 185.344 67.286 184.974C66.5491 184.606 65.7667 184.043 64.9741 183.338C63.3888 181.928 61.8121 179.996 60.5329 178.07C59.2496 176.138 58.2941 174.254 57.9215 172.949L56.9599 173.224ZM72.8732 181.904C73.3914 179.371 73.7716 174.445 74.1031 168.191C74.4355 161.922 74.7207 154.274 75.0415 146.272C75.6837 130.253 76.4685 112.831 78.0563 102.112L77.0671 101.966C75.4697 112.75 74.6837 130.233 74.0423 146.232C73.7213 154.239 73.4364 161.877 73.1046 168.138C72.7719 174.413 72.3938 179.258 71.8935 181.703L72.8732 181.904ZM78.0577 102.102C79.2301 92.9185 83.1861 78.7674 88.273 64.3484C93.358 49.9347 99.557 35.2987 105.196 25.1479L104.322 24.6623C98.6455 34.8803 92.425 49.5735 87.33 64.0157C82.2368 78.4526 78.2519 92.6841 77.0658 101.976L78.0577 102.102ZM105.196 25.1479C108.315 19.5342 109.676 14.9863 108.048 11.0179C106.43 7.07198 101.933 3.89573 93.9313 0.779831L93.5684 1.71168C101.557 4.82211 105.677 7.87199 107.123 11.3973C108.559 14.9003 107.43 19.0689 104.322 24.6623L105.196 25.1479ZM51.7597 73.2472C46.0701 74.4664 32.9559 81.9089 24.4131 101.842L25.3322 102.236C33.7712 82.5451 46.6521 75.3644 51.9692 74.225L51.7597 73.2472ZM24.4131 101.842C19.0879 114.268 18.1322 122.922 19.0074 127.922C19.4412 130.401 20.3464 132.091 21.5132 132.813C22.1144 133.185 22.7789 133.292 23.4328 133.105C24.0744 132.922 24.6538 132.471 25.1408 131.821L24.3408 131.221C23.9433 131.751 23.5319 132.037 23.158 132.144C22.7964 132.247 22.4209 132.198 22.0394 131.962C21.2409 131.468 20.4101 130.136 19.9924 127.75C19.1646 123.021 20.0438 114.576 25.3322 102.236L24.4131 101.842ZM25.1408 131.821C25.8843 130.83 27.1206 128.439 28.6333 125.3C30.1565 122.139 31.9864 118.162 33.9218 113.952C37.7975 105.522 42.0928 96.1675 45.2265 90.4877L44.351 90.0046C41.1951 95.7246 36.8816 105.121 33.0133 113.535C31.0767 117.747 29.2508 121.715 27.7324 124.866C26.2036 128.039 25.0125 130.326 24.3408 131.221L25.1408 131.821ZM45.2106 90.5146C46.5937 88.3411 48.6094 84.903 50.1635 81.6463C50.94 80.0192 51.608 78.4233 52.0226 77.0459C52.23 76.3571 52.3776 75.7112 52.4412 75.1357C52.504 74.5665 52.4892 74.029 52.3388 73.578L51.3901 73.8942C51.4757 74.1508 51.5026 74.5247 51.4472 75.0259C51.3925 75.5206 51.2619 76.1037 51.0651 76.7576C50.6714 78.0655 50.0275 79.6096 49.261 81.2156C47.7293 84.4254 45.7355 87.8272 44.3669 89.9777L45.2106 90.5146ZM46.56 109.442C51.0803 98.806 54.109 92.1656 57.7922 85.177L56.9075 84.7108C53.2054 91.7352 50.1642 98.4048 45.6396 109.051L46.56 109.442ZM57.7922 85.177C60.3691 80.2875 63.2146 75.4602 65.3189 72.5142L64.5052 71.9329C62.3629 74.9321 59.4932 79.8046 56.9075 84.7108L57.7922 85.177ZM65.3189 72.5142C66.095 71.4276 66.6794 70.7627 67.0942 70.4473C67.3066 70.2859 67.41 70.2668 67.427 70.2662C67.4279 70.2661 67.423 70.2664 67.4143 70.2643C67.4053 70.2622 67.3966 70.2586 67.3895 70.2545C67.3749 70.2461 67.3819 70.2443 67.4021 70.2758C67.4496 70.3497 67.5118 70.5143 67.5535 70.8223C67.5938 71.12 67.6096 71.5082 67.598 71.9926C67.5746 72.9609 67.4432 74.2616 67.2143 75.8896C66.2977 82.4109 63.8623 93.9007 60.8827 109.486L61.8649 109.674C64.8367 94.1293 67.2834 82.5824 68.2046 76.0288C68.4352 74.3882 68.5729 73.0428 68.5977 72.0167C68.61 71.5039 68.5946 71.058 68.5445 70.6881C68.4958 70.3284 68.4084 69.992 68.2434 69.7352C68.06 69.4498 67.768 69.2521 67.388 69.2669C67.0626 69.2796 66.7568 69.4478 66.4891 69.6512C65.9441 70.0655 65.2856 70.8403 64.5052 71.9329L65.3189 72.5142ZM60.8827 109.486C56.3532 133.18 56.5555 161.926 56.941 173.104L57.9404 173.07C57.5555 161.909 57.3571 133.254 61.8649 109.674L60.8827 109.486ZM93.9313 0.779831C93.2087 0.498477 92.5233 0.427236 91.8733 0.575303C91.2262 0.722722 90.6595 1.07716 90.1539 1.57101C89.1603 2.54167 88.3339 4.12199 87.5232 6.02486C85.8724 9.89954 84.226 15.2384 81.3873 20.7159L82.2751 21.1761C85.1287 15.6699 86.8524 10.1504 88.4432 6.41682C89.2533 4.51553 90.0155 3.1042 90.8527 2.28632C91.2626 1.88588 91.6719 1.64682 92.0954 1.55033C92.5162 1.45448 92.9963 1.48893 93.5684 1.71168L93.9313 0.779831ZM81.3873 20.7159C75.1463 32.7582 69.1077 44.603 57.1916 68.263L58.0847 68.7128C70 45.0543 76.0367 33.2134 82.2751 21.1761L81.3873 20.7159Z" fill="#414A53"/>
<path d="M119.824 150.522C101.899 142.031 102.311 93.9159 113.928 67.9715C140.876 60.8958 129.435 104.53 130.614 130.474C131.558 151.229 144.373 132.833 150.662 121.04L151.841 130.474C141.228 157.598 125.485 154.295 119.824 150.522Z" fill="#414A53"/>
<path d="M119.824 34.9514C124.207 34.1652 132.265 34.9514 129.435 44.3858C125.897 56.1787 114.931 44.3858 119.824 34.9514Z" fill="#414A53"/>
<path d="M119.824 150.522C101.899 142.031 102.311 93.9159 113.928 67.9715C140.876 60.8958 129.435 104.53 130.614 130.474C131.558 151.229 144.373 132.833 150.662 121.04L151.841 130.474C141.228 157.598 125.485 154.295 119.824 150.522Z" stroke="#414A53" stroke-linecap="round" stroke-linejoin="round"/>
<path d="M119.824 34.9514C124.207 34.1652 132.265 34.9514 129.435 44.3858C125.897 56.1787 114.931 44.3858 119.824 34.9514Z" stroke="#414A53" stroke-linecap="round" stroke-linejoin="round"/>
<path fill-rule="evenodd" clip-rule="evenodd" d="M167.172 82.1233C193.107 56.9802 208.622 64.4336 212.16 70.3301C213.241 73.8508 214.226 72.6522 216.007 70.4855C218.401 67.572 222.234 62.9078 229.674 65.6131C242.646 70.3303 237.929 83.3025 235.57 89.199C233.212 95.0954 222.598 122.219 235.57 115.143C248.543 108.068 253.26 109.247 256.798 112.785C260.336 116.323 257.977 118.681 245.005 122.219C232.033 125.757 223.778 135.191 220.24 158.777C216.702 182.363 209.758 218.921 202.682 240.148C195.606 261.375 167.172 268.451 162.454 227.176C158.681 194.156 192.33 153.667 209.626 137.55C215.722 124.488 216.03 117.856 216.724 102.934C216.97 97.6487 217.264 91.3228 217.881 83.3025C212.771 86.8404 189.578 111.606 176.606 128.116C156.454 153.763 134.327 113.964 167.172 82.1233ZM200.192 79.7646C196.261 82.1232 186.04 89.4348 176.606 99.8126C164.813 112.785 167.172 120.908 183.682 106.756C200.192 92.605 207.268 83.3025 210.805 78.5853C214.343 73.8682 207.268 74.8368 200.192 79.7646ZM196.522 225.997C201.239 216.562 211.985 175.68 214.343 156.419C203.73 163.494 169.53 209.487 175.427 235.431C181.323 261.375 190.626 237.79 196.522 225.997Z" fill="#414A53"/>
<path d="M212.16 70.3301L212.638 70.1833L212.62 70.1251L212.589 70.0728L212.16 70.3301ZM167.172 82.1233L166.824 81.7643L167.172 82.1233ZM176.606 128.116L176.213 127.807L176.606 128.116ZM217.881 83.3025L218.38 83.3409C218.394 83.1485 218.297 82.9649 218.13 82.8688C217.963 82.7728 217.755 82.7816 217.597 82.8914L217.881 83.3025ZM209.626 137.55L209.967 137.916L210.038 137.849L210.079 137.761L209.626 137.55ZM162.454 227.176L162.951 227.119L162.454 227.176ZM229.674 65.6131L229.845 65.1432L229.674 65.6131ZM200.192 79.7646L200.449 80.1934L200.464 80.1846L200.478 80.1749L200.192 79.7646ZM176.606 99.8126L176.976 100.149L176.606 99.8126ZM214.343 156.419L214.84 156.479L214.972 155.399L214.066 156.003L214.343 156.419ZM196.522 225.997L196.969 226.22L196.522 225.997ZM216.724 102.934L217.224 102.958L216.724 102.934ZM216.007 70.4855L216.393 70.803L216.007 70.4855ZM212.589 70.0728C210.711 66.943 205.756 63.534 198.029 64.0881C190.305 64.6422 179.838 69.1478 166.824 81.7643L167.52 82.4823C180.441 69.9557 190.699 65.6165 198.101 65.0856C205.5 64.5548 210.072 67.8207 211.732 70.5873L212.589 70.0728ZM166.824 81.7643C150.291 97.7911 147.518 115.902 151.546 126.85C153.557 132.317 157.302 136.065 161.941 136.722C166.585 137.379 171.905 134.908 176.999 128.424L176.213 127.807C171.231 134.147 166.228 136.319 162.082 135.732C157.931 135.144 154.418 131.762 152.484 126.505C148.622 116.005 151.207 98.296 167.52 82.4823L166.824 81.7643ZM176.999 128.424C183.474 120.184 192.505 109.876 200.559 101.184C204.585 96.839 208.363 92.901 211.453 89.83C214.555 86.7465 216.931 84.5684 218.166 83.7136L217.597 82.8914C216.276 83.8056 213.837 86.0498 210.748 89.1208C207.646 92.2042 203.857 96.1526 199.825 100.505C191.762 109.207 182.71 119.537 176.213 127.807L176.999 128.424ZM209.285 137.184C200.61 145.268 187.844 159.453 177.714 175.76C167.595 192.052 160.051 210.551 161.958 227.233L162.951 227.119C161.084 210.781 168.478 192.526 178.564 176.288C188.639 160.067 201.346 145.949 209.967 137.916L209.285 137.184ZM161.958 227.233C164.324 247.938 172.685 256.83 181.641 257.599C190.53 258.362 199.573 251.058 203.157 240.306L202.208 239.99C198.716 250.466 190.003 257.313 181.727 256.602C173.517 255.897 165.302 247.689 162.951 227.119L161.958 227.233ZM203.157 240.306C210.247 219.036 217.196 182.442 220.734 158.851L219.745 158.703C216.208 182.284 209.269 218.806 202.208 239.99L203.157 240.306ZM220.734 158.851C222.497 147.097 225.428 138.93 229.491 133.272C233.542 127.629 238.744 124.445 245.136 122.701L244.873 121.737C238.293 123.531 232.882 126.833 228.678 132.689C224.486 138.528 221.52 146.871 219.745 158.703L220.734 158.851ZM245.136 122.701C248.387 121.815 250.985 120.999 252.999 120.216C255.004 119.436 256.465 118.676 257.413 117.886C258.369 117.089 258.865 116.205 258.77 115.207C258.679 114.254 258.058 113.338 257.151 112.431L256.444 113.138C257.307 114.001 257.717 114.706 257.774 115.301C257.826 115.851 257.585 116.441 256.772 117.118C255.951 117.802 254.611 118.516 252.636 119.284C250.67 120.049 248.109 120.854 244.873 121.737L245.136 122.701ZM257.151 112.431C255.305 110.585 253.111 109.329 249.699 109.484C246.339 109.637 241.835 111.157 235.331 114.704L235.81 115.582C242.278 112.054 246.618 110.626 249.745 110.483C252.819 110.344 254.753 111.447 256.444 113.138L257.151 112.431ZM235.331 114.704C233.74 115.572 232.591 115.868 231.789 115.804C231.039 115.743 230.544 115.365 230.216 114.686C229.871 113.972 229.718 112.928 229.748 111.61C229.777 110.302 229.983 108.776 230.312 107.134C231.628 100.552 234.854 92.3374 236.035 89.3847L235.106 89.0133C233.929 91.9569 230.668 100.253 229.331 106.938C228.996 108.612 228.779 110.2 228.748 111.587C228.717 112.964 228.869 114.196 229.316 115.121C229.78 116.082 230.566 116.709 231.709 116.8C232.801 116.888 234.158 116.483 235.81 115.582L235.331 114.704ZM236.035 89.3847C237.212 86.4407 239.022 81.6342 238.871 76.9477C238.795 74.5933 238.224 72.2463 236.813 70.1775C235.399 68.1057 233.17 66.3522 229.845 65.1432L229.503 66.083C232.665 67.2327 234.71 68.8697 235.987 70.7411C237.265 72.6155 237.8 74.7646 237.872 76.9799C238.015 81.433 236.287 86.0608 235.106 89.0133L236.035 89.3847ZM199.935 79.3359C195.965 81.7174 185.706 89.0593 176.236 99.4762L176.976 100.149C186.375 89.8104 196.556 82.5291 200.449 80.1934L199.935 79.3359ZM176.236 99.4762C173.268 102.741 171.173 105.719 169.967 108.137C169.365 109.345 168.975 110.432 168.816 111.357C168.66 112.272 168.718 113.1 169.106 113.721C169.515 114.373 170.213 114.684 171.069 114.699C171.908 114.713 172.942 114.45 174.152 113.924C176.577 112.869 179.865 110.687 184.007 107.136L183.356 106.377C179.244 109.902 176.045 112.011 173.753 113.007C172.604 113.507 171.722 113.71 171.087 113.699C170.469 113.688 170.135 113.48 169.954 113.191C169.753 112.87 169.664 112.333 169.802 111.526C169.938 110.73 170.285 109.74 170.862 108.583C172.015 106.273 174.047 103.37 176.976 100.149L176.236 99.4762ZM184.007 107.136C200.551 92.9555 207.651 83.6243 211.205 78.8853L210.405 78.2853C206.884 82.9808 199.832 92.2545 183.356 106.377L184.007 107.136ZM211.205 78.8853C211.665 78.2726 211.977 77.7204 212.132 77.2303C212.287 76.7401 212.301 76.2546 212.071 75.843C211.841 75.4301 211.429 75.2057 210.983 75.0997C210.538 74.9939 210.003 74.9908 209.418 75.0618C207.094 75.344 203.478 76.8665 199.906 79.3543L200.478 80.1749C203.981 77.735 207.441 76.3092 209.539 76.0545C210.06 75.9912 210.465 76.0045 210.752 76.0727C211.038 76.1406 211.152 76.2475 211.198 76.3301C211.245 76.4141 211.286 76.5883 211.179 76.9289C211.071 77.2694 210.83 77.7188 210.405 78.2853L211.205 78.8853ZM213.847 156.358C212.672 165.955 209.402 180.966 205.833 194.768C202.259 208.586 198.405 221.112 196.075 225.773L196.969 226.22C199.356 221.447 203.233 208.814 206.801 195.018C210.373 181.205 213.656 166.143 214.84 156.479L213.847 156.358ZM196.075 225.773C194.585 228.752 192.919 232.396 191.123 235.865C189.331 239.327 187.457 242.517 185.606 244.527C184.68 245.533 183.798 246.201 182.975 246.484C182.184 246.756 181.429 246.683 180.668 246.151C179.877 245.598 179.053 244.53 178.239 242.75C177.428 240.978 176.647 238.545 175.914 235.32L174.939 235.542C175.68 238.803 176.48 241.308 177.33 243.166C178.176 245.016 179.092 246.27 180.095 246.97C181.127 247.692 182.218 247.802 183.301 247.43C184.351 247.068 185.369 246.261 186.342 245.204C188.292 243.086 190.217 239.79 192.012 236.324C193.802 232.865 195.51 229.138 196.969 226.22L196.075 225.773ZM175.914 235.32C174.468 228.958 175.473 221.318 178.004 213.285C180.532 205.261 184.568 196.894 189.125 189.101C193.682 181.311 198.753 174.108 203.345 168.415C207.948 162.707 212.036 158.558 214.621 156.835L214.066 156.003C211.344 157.817 207.176 162.071 202.567 167.787C197.945 173.518 192.845 180.762 188.262 188.597C183.68 196.43 179.608 204.868 177.05 212.985C174.496 221.094 173.437 228.932 174.939 235.542L175.914 235.32ZM217.383 83.2642C216.765 91.2926 216.471 97.625 216.225 102.911L217.224 102.958C217.469 97.6724 217.763 91.353 218.38 83.3409L217.383 83.2642ZM216.225 102.911C215.877 110.381 215.628 115.734 214.709 120.851C213.792 125.955 212.207 130.837 209.173 137.338L210.079 137.761C213.141 131.2 214.758 126.235 215.693 121.028C216.626 115.833 216.877 110.409 217.224 102.958L216.225 102.911ZM229.845 65.1432C225.993 63.7427 223.025 64.241 220.709 65.5032C218.424 66.7484 216.811 68.7196 215.621 70.1681L216.393 70.803C217.597 69.3379 219.098 67.5203 221.188 66.3813C223.247 65.2594 225.915 64.7783 229.503 66.083L229.845 65.1432ZM215.621 70.1681C215.17 70.7159 214.791 71.1763 214.452 71.518C214.098 71.8746 213.863 72.02 213.716 72.0518C213.661 72.0636 213.625 72.0584 213.588 72.0415C213.542 72.021 213.464 71.9687 213.361 71.8368C213.148 71.563 212.905 71.0508 212.638 70.1833L211.682 70.4768C211.956 71.3697 212.242 72.028 212.573 72.4519C212.742 72.6689 212.941 72.8473 213.178 72.954C213.424 73.0643 213.679 73.0827 213.927 73.0293C214.383 72.9308 214.796 72.5904 215.161 72.2228C215.541 71.8404 215.953 71.3384 216.393 70.803L215.621 70.1681Z" fill="#414A53"/>
<path fill-rule="evenodd" clip-rule="evenodd" d="M290.998 45.5652C281.956 52.641 262.459 68.6793 256.798 76.2268C249.723 85.6611 243.826 117.502 270.95 110.426C279.781 108.123 289.47 102.96 295.341 100.715C307.504 96.063 318.121 98.5235 318.121 108.068C318.121 120.012 308.687 121.127 298.762 126.977C288.837 132.826 277.617 136.518 260.336 155.239C232.033 185.901 266.232 197.694 281.563 187.08C294.652 178.019 319.132 146.984 322.695 137.906C323.618 135.554 329.167 127.627 329.914 125.845C337.57 122.307 341.108 119.948 354.679 117.589C358.333 116.955 362.227 109.954 354.679 108.068C347.132 106.181 331.88 108.854 327.556 110.426C325.59 102.564 322.838 86.8404 308.687 86.8404C302.413 86.8404 294.212 89.0653 286.922 91.0427C273.658 94.641 263.415 97.4197 273.308 84.4818C285.528 68.5022 295.5 60.7641 300.238 57.0872C301.445 56.151 302.312 55.4782 302.791 54.9995C305.149 52.641 311.046 45.5652 290.998 45.5652ZM275.667 159.956C281.327 152.409 314.583 132.833 321.659 132.833L309.866 151.701C297.77 166.861 285.573 182.599 273.308 183.542C259.233 184.625 266.656 171.791 273.829 162.381C274.468 161.541 275.087 160.729 275.667 159.956Z" fill="#414A53"/>
<path d="M290.998 45.5652V45.0652C290.886 45.0652 290.778 45.1026 290.69 45.1715L290.998 45.5652ZM256.798 76.2268L257.198 76.5268L256.798 76.2268ZM270.95 110.426L271.076 110.91L270.95 110.426ZM260.336 155.239L260.703 155.578L260.336 155.239ZM281.563 187.08L281.848 187.491L281.563 187.08ZM329.914 125.845L329.704 125.391L329.528 125.472L329.453 125.651L329.914 125.845ZM354.679 117.589L354.765 118.082L354.679 117.589ZM327.556 110.426L327.071 110.547L327.205 111.086L327.726 110.896L327.556 110.426ZM273.308 84.4818L272.911 84.1781L273.308 84.4818ZM302.791 54.9995L302.437 54.646L302.791 54.9995ZM321.659 132.833L322.083 133.098C322.18 132.944 322.185 132.749 322.097 132.59C322.008 132.431 321.841 132.333 321.659 132.333V132.833ZM275.667 159.956L276.067 160.256L275.667 159.956ZM273.308 183.542L273.347 184.041L273.308 183.542ZM309.866 151.701L310.257 152.013L310.275 151.991L310.29 151.966L309.866 151.701ZM295.341 100.715L295.52 101.182L295.341 100.715ZM322.695 137.906L322.23 137.723L322.695 137.906ZM286.922 91.0427L287.053 91.5253L286.922 91.0427ZM300.238 57.0872L299.932 56.6921L300.238 57.0872ZM273.829 162.381L273.431 162.077L273.829 162.381ZM290.69 45.1715C286.164 48.7135 279.022 54.4976 272.302 60.3418C265.597 66.1736 259.266 72.1036 256.398 75.9268L257.198 76.5268C259.992 72.8025 266.24 66.9396 272.958 61.0964C279.663 55.2656 286.791 49.4927 291.306 45.959L290.69 45.1715ZM256.398 75.9268C254.579 78.3527 252.861 82.1766 251.727 86.4163C250.592 90.6598 250.027 95.3705 250.553 99.5798C251.079 103.787 252.706 107.56 256.02 109.808C259.336 112.057 264.22 112.699 271.076 110.91L270.824 109.942C264.118 111.692 259.568 111.006 256.581 108.981C253.594 106.954 252.051 103.504 251.545 99.4557C251.04 95.41 251.58 90.8337 252.693 86.6748C253.807 82.512 255.48 78.818 257.198 76.5268L256.398 75.9268ZM259.969 154.9C252.857 162.605 249.609 169.188 249.059 174.592C248.506 180.027 250.69 184.206 254.278 187.031C257.847 189.841 262.788 191.301 267.789 191.394C272.792 191.488 277.913 190.216 281.848 187.491L281.279 186.669C277.549 189.251 272.645 190.485 267.808 190.394C262.97 190.304 258.255 188.889 254.896 186.245C251.556 183.615 249.538 179.761 250.054 174.693C250.573 169.593 253.664 163.205 260.703 155.578L259.969 154.9ZM330.124 126.298C333.978 124.517 336.739 123.061 340.254 121.743C343.755 120.43 348 119.258 354.765 118.082L354.594 117.097C347.787 118.28 343.477 119.466 339.903 120.807C336.342 122.142 333.506 123.634 329.704 125.391L330.124 126.298ZM354.765 118.082C355.809 117.901 356.827 117.277 357.639 116.449C358.454 115.619 359.099 114.547 359.366 113.413C359.636 112.271 359.523 111.049 358.789 109.979C358.06 108.916 356.763 108.073 354.801 107.583L354.558 108.553C356.369 109.005 357.416 109.745 357.965 110.545C358.51 111.339 358.611 112.26 358.393 113.183C358.174 114.114 357.632 115.029 356.925 115.749C356.216 116.472 355.377 116.961 354.594 117.097L354.765 118.082ZM354.801 107.583C350.932 106.615 345.154 106.823 339.85 107.453C334.538 108.084 329.6 109.151 327.385 109.956L327.726 110.896C329.835 110.129 334.685 109.073 339.968 108.446C345.258 107.818 350.879 107.633 354.558 108.553L354.801 107.583ZM328.041 110.305C327.067 106.41 325.871 100.43 323.129 95.4441C320.369 90.4265 316.001 86.3404 308.687 86.3404V87.3404C315.524 87.3404 319.608 91.1163 322.253 95.926C324.916 100.768 326.079 106.58 327.071 110.547L328.041 110.305ZM303.144 55.3531C303.743 54.7537 304.591 53.8321 305.196 52.7793C305.794 51.7376 306.21 50.4676 305.767 49.2297C305.322 47.982 304.072 46.9507 301.78 46.2306C299.479 45.5082 296.03 45.0652 290.998 45.0652V46.0652C295.989 46.0652 299.321 46.5067 301.48 47.1847C303.646 47.865 304.534 48.75 304.826 49.5661C305.121 50.392 304.873 51.3331 304.329 52.2815C303.791 53.2187 303.017 54.0661 302.437 54.646L303.144 55.3531ZM321.659 132.333C320.686 132.333 319.326 132.663 317.721 133.216C316.101 133.774 314.183 134.575 312.073 135.556C307.853 137.518 302.841 140.209 297.878 143.133C292.916 146.058 287.993 149.221 283.954 152.128C279.933 155.023 276.733 157.701 275.267 159.656L276.067 160.256C277.431 158.438 280.511 155.839 284.538 152.94C288.548 150.054 293.443 146.908 298.386 143.995C303.33 141.082 308.312 138.407 312.495 136.463C314.586 135.49 316.471 134.704 318.046 134.161C319.636 133.614 320.863 133.333 321.659 133.333V132.333ZM273.347 184.041C279.666 183.555 285.891 179.272 292 173.311C298.121 167.337 304.217 159.583 310.257 152.013L309.475 151.39C303.42 158.979 297.368 166.674 291.301 172.595C285.221 178.528 279.216 182.586 273.27 183.044L273.347 184.041ZM310.29 151.966L322.083 133.098L321.235 132.568L309.442 151.436L310.29 151.966ZM271.076 110.91C275.531 109.748 280.19 107.868 284.455 106.007C288.741 104.137 292.598 102.299 295.52 101.182L295.163 100.248C292.214 101.376 288.29 103.242 284.055 105.09C279.8 106.947 275.2 108.801 270.824 109.942L271.076 110.91ZM295.52 101.182C301.543 98.8781 307.119 98.3627 311.151 99.5474C313.161 100.138 314.771 101.145 315.88 102.548C316.986 103.948 317.621 105.778 317.621 108.068H318.621C318.621 105.585 317.929 103.528 316.665 101.928C315.402 100.331 313.599 99.2243 311.433 98.588C307.116 97.3194 301.302 97.8995 295.163 100.248L295.52 101.182ZM317.621 108.068C317.621 110.986 317.046 113.208 316.055 114.996C315.063 116.786 313.636 118.175 311.878 119.397C310.114 120.624 308.038 121.67 305.754 122.785C303.481 123.896 301.01 125.072 298.508 126.546L299.016 127.408C301.476 125.957 303.907 124.8 306.193 123.684C308.47 122.571 310.613 121.495 312.449 120.218C314.291 118.938 315.842 117.443 316.929 115.481C318.017 113.518 318.621 111.122 318.621 108.068H317.621ZM298.508 126.546C288.625 132.371 277.314 136.109 259.969 154.9L260.703 155.578C277.92 136.926 289.048 133.282 299.016 127.408L298.508 126.546ZM281.848 187.491C288.455 182.917 297.886 172.843 306.088 162.816C310.196 157.795 314.007 152.77 317.017 148.43C320.017 144.102 322.246 140.418 323.161 138.088L322.23 137.723C321.363 139.933 319.196 143.532 316.195 147.86C313.203 152.175 309.408 157.178 305.314 162.183C297.114 172.208 287.76 182.182 281.279 186.669L281.848 187.491ZM323.161 138.088C323.374 137.545 323.872 136.643 324.536 135.537C325.194 134.442 325.994 133.18 326.792 131.931C327.588 130.684 328.384 129.448 329.026 128.414C329.659 127.394 330.17 126.528 330.375 126.038L329.453 125.651C329.285 126.052 328.822 126.846 328.176 127.887C327.538 128.914 326.749 130.141 325.949 131.392C325.151 132.642 324.344 133.914 323.679 135.022C323.02 136.12 322.478 137.09 322.23 137.723L323.161 138.088ZM308.687 86.3404C302.332 86.3404 294.057 88.5892 286.791 90.5602L287.053 91.5253C294.366 89.5415 302.495 87.3404 308.687 87.3404V86.3404ZM286.791 90.5602C283.471 91.4609 280.359 92.305 277.704 92.8658C275.031 93.4307 272.899 93.6898 271.509 93.4695C270.819 93.3601 270.39 93.144 270.149 92.8653C269.922 92.6022 269.793 92.2005 269.891 91.5448C269.99 90.8786 270.318 90.0003 270.946 88.8685C271.571 87.742 272.477 86.3915 273.705 84.7855L272.911 84.1781C271.666 85.8066 270.728 87.1995 270.071 88.3833C269.418 89.5618 269.026 90.5611 268.902 91.3975C268.776 92.2444 268.919 92.9707 269.392 93.5189C269.852 94.0516 270.551 94.3301 271.353 94.4572C272.945 94.7096 275.243 94.408 277.911 93.8442C280.599 93.2763 283.741 92.4237 287.053 91.5253L286.791 90.5602ZM273.705 84.7855C285.889 68.8535 295.824 61.1455 300.545 57.4822L299.932 56.6921C295.176 60.3826 285.167 68.1509 272.911 84.1781L273.705 84.7855ZM300.545 57.4822C301.737 56.5572 302.637 55.8599 303.144 55.3531L302.437 54.646C301.987 55.0964 301.153 55.7449 299.932 56.6921L300.545 57.4822ZM273.27 183.044C269.791 183.311 267.811 182.7 266.801 181.666C265.808 180.651 265.605 179.073 266.088 177.01C266.567 174.959 267.698 172.557 269.173 170.064C270.644 167.577 272.44 165.027 274.226 162.684L273.431 162.077C271.631 164.439 269.81 167.023 268.312 169.555C266.818 172.081 265.627 174.585 265.114 176.783C264.603 178.969 264.735 180.984 266.086 182.365C267.417 183.727 269.788 184.315 273.347 184.041L273.27 183.044ZM274.226 162.684C274.866 161.845 275.486 161.031 276.067 160.256L275.267 159.656C274.689 160.427 274.071 161.238 273.431 162.077L274.226 162.684Z" fill="#414A53"/>
</svg>
