<svg width="142" height="148" viewBox="0 0 142 148" fill="none" xmlns="http://www.w3.org/2000/svg">
<rect width="142" height="148" fill="white"/>
<path fill-rule="evenodd" clip-rule="evenodd" d="M36.5252 59.8824C33.9709 57.693 26.4833 58.4411 21.5206 68.0744C16.558 77.7078 20.1427 81.6166 21.9671 83.4411C24.6237 86.0977 26.926 86.6799 32.955 72.4941C34.3543 69.2015 35.2934 67.1422 36.436 64.9743C37.2347 63.4588 38.1189 61.9581 38.7759 61.0383C40.7024 58.3412 39.5226 62.9648 37.6811 72.5974C36.2829 79.9111 36.3449 88.7918 36.4641 92.2478C36.9506 93.9507 40.3782 98.4127 41.0877 94.9449C41.718 91.8647 41.7044 76.9174 42.69 70.2639C43.4198 64.5471 47.6042 52.6994 51.1056 46.3968C53.0321 42.9291 52.6468 41.0026 47.699 39.076C46.0967 38.4521 45.7725 41.7732 44.0111 45.1718C42.0804 48.8972 40.2122 52.5616 36.5252 59.8824ZM26.3868 70.2639C29.0141 64.1336 33.0358 61.8712 34.7387 61.5063C35.0306 62.3821 33.4007 65.2769 32.5493 66.6149C30.6032 70.1423 27.2217 78.2188 26.346 79.3864C25.2513 80.8461 23.1027 77.9268 26.3868 70.2639Z" fill="#140000"/>
<path d="M36.5252 59.8824L36.1998 60.262L36.6846 60.6775L36.9718 60.1073L36.5252 59.8824ZM21.9671 83.4411L21.6136 83.7946L21.9671 83.4411ZM32.955 72.4941L32.4948 72.2985L32.955 72.4941ZM38.7759 61.0383L38.3691 60.7477L38.7759 61.0383ZM36.4641 92.2478L35.9644 92.265L35.9665 92.3263L35.9833 92.3852L36.4641 92.2478ZM41.0877 94.9449L41.5776 95.0452L41.0877 94.9449ZM42.69 70.2639L43.1847 70.3372L43.186 70.3272L42.69 70.2639ZM51.1056 46.3968L51.5427 46.6396L51.1056 46.3968ZM47.699 39.076L47.8805 38.6101L47.699 39.076ZM34.7387 61.5063L35.213 61.3482L35.0715 60.9236L34.6339 61.0174L34.7387 61.5063ZM26.3868 70.2639L25.9272 70.067L26.3868 70.2639ZM26.346 79.3864L25.946 79.0864L26.346 79.3864ZM32.5493 66.6149L32.1275 66.3465L32.1191 66.3597L32.1115 66.3734L32.5493 66.6149ZM36.436 64.9743L36.8783 65.2074L36.436 64.9743ZM37.6811 72.5974L38.1722 72.6913L37.6811 72.5974ZM44.0111 45.1718L44.455 45.4018L44.0111 45.1718ZM36.8506 59.5028C35.3839 58.2456 32.6567 57.9215 29.7414 59.0802C26.7978 60.2502 23.6021 62.9421 21.0762 67.8455L21.9651 68.3034C24.4018 63.5734 27.4313 61.0745 30.1107 60.0095C32.8185 58.9332 35.1122 59.3298 36.1998 60.262L36.8506 59.5028ZM21.0762 67.8455C18.5609 72.728 18.1748 76.2325 18.7093 78.7885C19.2441 81.3458 20.6846 82.8656 21.6136 83.7946L22.3207 83.0875C21.4252 82.1921 20.1611 80.8453 19.6881 78.5837C19.2149 76.3209 19.5177 73.0542 21.9651 68.3034L21.0762 67.8455ZM21.6136 83.7946C22.2807 84.4617 22.9989 85.0792 23.8123 85.3249C24.6805 85.5872 25.5713 85.4051 26.5039 84.6778C27.4106 83.9706 28.3853 82.7301 29.5003 80.8143C30.6204 78.8899 31.904 76.2452 33.4151 72.6896L32.4948 72.2985C30.9914 75.8359 29.7264 78.438 28.6361 80.3112C27.5408 82.193 26.6434 83.3008 25.8889 83.8892C25.1602 84.4575 24.6005 84.5183 24.1015 84.3676C23.5477 84.2003 22.9819 83.7487 22.3207 83.0875L21.6136 83.7946ZM35.9833 92.3852C36.1254 92.8823 36.4625 93.53 36.8755 94.1519C37.2926 94.78 37.8159 95.4251 38.3601 95.909C38.6321 96.1509 38.9219 96.3637 39.2176 96.5116C39.5103 96.658 39.8424 96.7575 40.184 96.7235C40.9538 96.6467 41.3876 95.9738 41.5776 95.0452L40.5979 94.8447C40.4331 95.65 40.1725 95.7197 40.0848 95.7284C39.9976 95.7371 39.8603 95.715 39.6649 95.6173C39.4726 95.5211 39.2557 95.3672 39.0246 95.1617C38.5623 94.7507 38.0931 94.1778 37.7086 93.5987C37.3199 93.0134 37.0461 92.4647 36.9449 92.1105L35.9833 92.3852ZM41.5776 95.0452C41.7441 94.2312 41.8625 92.6792 41.9647 90.7511C42.0677 88.8085 42.156 86.4385 42.2552 83.9644C42.4542 79.001 42.6966 73.6315 43.1846 70.3372L42.1954 70.1907C41.6978 73.5498 41.4542 78.9806 41.256 83.9243C41.1566 86.4038 41.0686 88.764 40.9661 90.6982C40.8628 92.647 40.7465 94.1185 40.5979 94.8447L41.5776 95.0452ZM43.186 70.3272C43.544 67.5227 44.7581 63.1718 46.33 58.7164C47.8999 54.2663 49.8107 49.7573 51.5427 46.6396L50.6685 46.154C48.8991 49.3389 46.967 53.9051 45.3869 58.3837C43.8088 62.857 42.5658 67.2884 42.1941 70.2006L43.186 70.3272ZM51.5427 46.6396C52.5116 44.8956 53.0122 43.3574 52.4428 41.9688C51.8826 40.6026 50.3614 39.5761 47.8805 38.6101L47.5176 39.542C49.9845 40.5025 51.1298 41.4026 51.5176 42.3482C51.8961 43.2714 51.6261 44.4303 50.6685 46.154L51.5427 46.6396ZM34.6339 61.0174C32.7448 61.4222 28.6064 63.8155 25.9272 70.067L26.8464 70.4609C29.4217 64.4517 33.3268 62.3202 34.8435 61.9952L34.6339 61.0174ZM25.9272 70.067C24.2668 73.9413 23.9446 76.6917 24.2318 78.3323C24.3716 79.131 24.6774 79.7775 25.1656 80.0796C25.4275 80.2416 25.7329 80.2952 26.0361 80.2086C26.3271 80.1254 26.5644 79.9286 26.746 79.6864L25.946 79.0864C25.8539 79.2092 25.7846 79.2404 25.7613 79.2471C25.7504 79.2502 25.734 79.2553 25.6918 79.2292C25.5719 79.155 25.3405 78.8665 25.2168 78.1599C24.9771 76.7901 25.2227 74.2495 26.8464 70.4609L25.9272 70.067ZM26.746 79.6864C27.0008 79.3466 27.3989 78.5711 27.8615 77.6114C28.3344 76.6299 28.9021 75.3962 29.5005 74.0944C30.7023 71.4804 32.0251 68.6001 32.9871 66.8565L32.1115 66.3734C31.1274 68.1571 29.7863 71.0788 28.592 73.6767C27.9923 74.981 27.4288 76.2057 26.9606 77.1773C26.482 78.1705 26.129 78.8424 25.946 79.0864L26.746 79.6864ZM32.9711 66.8834C33.4041 66.2029 34.0354 65.1265 34.524 64.1026C34.7677 63.5919 34.9827 63.0802 35.1183 62.6299C35.186 62.4048 35.2376 62.1832 35.2603 61.9773C35.2824 61.7777 35.2819 61.5549 35.213 61.3482L34.2644 61.6644C34.2684 61.6766 34.2809 61.7359 34.2664 61.8675C34.2525 61.9927 34.218 62.1514 34.1607 62.3417C34.0461 62.7224 33.8552 63.1823 33.6215 63.6719C33.1553 64.6489 32.5459 65.689 32.1275 66.3465L32.9711 66.8834ZM33.4151 72.6896C34.8124 69.402 35.7452 67.3574 36.8783 65.2074L35.9937 64.7411C34.8416 66.9271 33.8963 69.0009 32.4948 72.2985L33.4151 72.6896ZM36.8783 65.2074C37.6726 63.7002 38.5448 62.2221 39.1828 61.3289L38.3691 60.7477C37.6931 61.694 36.7968 63.2173 35.9937 64.7411L36.8783 65.2074ZM39.1828 61.3289C39.4214 60.9948 39.5767 60.827 39.6601 60.7636C39.7067 60.7281 39.6688 60.7737 39.5676 60.7776C39.4117 60.7837 39.3002 60.6911 39.2559 60.6223C39.23 60.582 39.2406 60.5736 39.2511 60.651C39.2602 60.7182 39.2652 60.8184 39.2618 60.9585C39.2551 61.2382 39.2166 61.6252 39.1464 62.1246C38.8643 64.1313 38.1146 67.6668 37.19 72.5035L38.1722 72.6913C39.0891 67.8954 39.85 64.3028 40.1366 62.2638C40.2086 61.7518 40.2534 61.32 40.2615 60.9826C40.2656 60.8141 40.2609 60.6562 40.242 60.5168C40.2246 60.3877 40.1889 60.2243 40.0972 60.0817C39.9872 59.9104 39.7904 59.7682 39.5286 59.7784C39.3214 59.7865 39.1569 59.89 39.055 59.9674C38.8414 60.1298 38.612 60.4075 38.3691 60.7477L39.1828 61.3289ZM37.19 72.5035C35.781 79.8741 35.8449 88.8004 35.9644 92.265L36.9638 92.2306C36.8449 88.7831 36.7849 79.9481 38.1722 72.6913L37.19 72.5035ZM47.8805 38.6101C47.6049 38.5028 47.322 38.4681 47.0417 38.5319C46.7643 38.5951 46.5345 38.7446 46.3451 38.9297C45.9836 39.2828 45.7058 39.8301 45.4547 40.4195C44.9231 41.6671 44.4404 43.2567 43.5672 44.9417L44.455 45.4018C45.3431 43.6882 45.9032 41.918 46.3747 40.8114C46.6251 40.2237 46.8388 39.8453 47.0439 39.645C47.1377 39.5534 47.2099 39.5192 47.2638 39.5069C47.3148 39.4953 47.3926 39.4933 47.5176 39.542L47.8805 38.6101ZM43.5672 44.9417C41.6352 48.6696 39.766 52.336 36.0786 59.6575L36.9718 60.1073C40.6584 52.7873 42.5256 49.1248 44.455 45.4018L43.5672 44.9417Z" fill="#140000"/>
<path d="M55.7672 85.2656C50.2207 82.6383 50.3481 67.7504 53.9427 59.7226C62.2809 57.5332 58.7409 71.0345 59.1058 79.0624C59.3977 85.4846 63.363 79.7922 65.3091 76.1432L65.674 79.0624C62.3899 87.4551 57.5187 86.4333 55.7672 85.2656Z" fill="#140000"/>
<path d="M55.7672 49.5054C57.1233 49.2621 59.6167 49.5054 58.7409 52.4246C57.6462 56.0736 54.2531 52.4246 55.7672 49.5054Z" fill="#140000"/>
<path d="M55.7672 85.2656C50.2207 82.6383 50.3481 67.7504 53.9427 59.7226C62.2809 57.5332 58.7409 71.0345 59.1058 79.0624C59.3977 85.4846 63.363 79.7922 65.3091 76.1432L65.674 79.0624C62.3899 87.4551 57.5187 86.4333 55.7672 85.2656Z" stroke="#140000" stroke-linecap="round" stroke-linejoin="round"/>
<path d="M55.7672 49.5054C57.1233 49.2621 59.6167 49.5054 58.7409 52.4246C57.6462 56.0736 54.2531 52.4246 55.7672 49.5054Z" stroke="#140000" stroke-linecap="round" stroke-linejoin="round"/>
<path fill-rule="evenodd" clip-rule="evenodd" d="M70.4175 64.1015C78.4426 56.3216 83.2434 58.6279 84.3381 60.4524C84.6725 61.5418 84.9773 61.1709 85.5283 60.5005C86.2692 59.599 87.4553 58.1558 89.7572 58.9929C93.7711 60.4525 92.3115 64.4664 91.5817 66.2909C90.8519 68.1154 87.5678 76.5081 91.5817 74.3187C95.5956 72.1293 97.0553 72.4942 98.15 73.5889C99.2447 74.6836 98.5149 75.4134 94.5009 76.5081C90.487 77.6028 87.9327 80.522 86.838 87.82C85.7433 95.1181 83.5947 106.43 81.4053 112.998C79.2159 119.566 70.4175 121.756 68.9579 108.984C67.7902 98.7671 78.202 86.2388 83.5539 81.2518C85.4401 77.21 85.5355 75.158 85.7502 70.5409C85.8263 68.9054 85.9173 66.9481 86.1082 64.4664C84.527 65.5611 77.3507 73.224 73.3367 78.3326C67.1012 86.2686 60.2546 73.9537 70.4175 64.1015ZM80.6347 63.3717C79.4184 64.1015 76.2559 66.3639 73.3367 69.575C69.6877 73.5889 70.4175 76.1024 75.5261 71.7236C80.6347 67.3448 82.8241 64.4664 83.9188 63.0068C85.0135 61.5472 82.8241 61.8469 80.6347 63.3717ZM79.4992 108.619C80.9588 105.7 84.2837 93.0503 85.0135 87.0902C81.7294 89.2796 71.1473 103.511 72.9718 111.539C74.7963 119.566 77.6747 112.268 79.4992 108.619Z" fill="#140000"/>
<path d="M84.3381 60.4524L84.8161 60.3057L84.7982 60.2474L84.7668 60.1952L84.3381 60.4524ZM70.4175 64.1015L70.0695 63.7425L70.4175 64.1015ZM73.3367 78.3326L72.9435 78.0237L73.3367 78.3326ZM86.1082 64.4664L86.6068 64.5047C86.6215 64.3124 86.5244 64.1287 86.3571 64.0327C86.1898 63.9367 85.9822 63.9455 85.8236 64.0553L86.1082 64.4664ZM83.5539 81.2518L83.8948 81.6176L83.9659 81.5514L84.007 81.4633L83.5539 81.2518ZM68.9579 108.984L69.4547 108.928L68.9579 108.984ZM89.7572 58.9929L89.9281 58.523L89.7572 58.9929ZM80.6347 63.3717L80.892 63.8004L80.9065 63.7917L80.9205 63.782L80.6347 63.3717ZM73.3367 69.575L73.7067 69.9113L73.3367 69.575ZM85.0135 87.0902L85.5098 87.151L85.6422 86.0702L84.7362 86.6742L85.0135 87.0902ZM85.7502 70.5409L86.2497 70.5642L85.7502 70.5409ZM85.5283 60.5005L85.9146 60.818V60.818L85.5283 60.5005ZM84.7668 60.1952C84.1105 59.1013 82.4446 57.997 79.9409 58.1766C77.4397 58.356 74.1284 59.8076 70.0695 63.7425L70.7655 64.4605C74.7317 60.6155 77.8334 59.3303 80.0125 59.174C82.1892 59.0179 83.471 59.979 83.9093 60.7096L84.7668 60.1952ZM70.0695 63.7425C64.8781 68.7752 63.9553 74.5179 65.2585 78.0603C65.9074 79.8243 67.1467 81.1105 68.7508 81.3375C70.359 81.5652 72.1145 80.6974 73.7299 78.6415L72.9435 78.0237C71.4412 79.9358 70.0025 80.5047 68.8909 80.3474C67.7751 80.1895 66.7687 79.2692 66.197 77.715C65.0587 74.6209 65.794 69.28 70.7655 64.4605L70.0695 63.7425ZM73.7299 78.6415C75.7254 76.1018 78.5131 72.9197 81.0015 70.2341C82.2451 68.8919 83.4109 67.677 84.3626 66.731C85.3267 65.7726 86.0404 65.1214 86.3928 64.8775L85.8236 64.0553C85.3854 64.3587 84.6091 65.0759 83.6576 66.0218C82.6935 66.9801 81.5179 68.2055 80.268 69.5545C77.7694 72.2511 74.9619 75.4549 72.9435 78.0237L73.7299 78.6415ZM83.2131 80.886C80.5102 83.4046 76.5393 87.8169 73.3863 92.8929C70.2436 97.9524 67.8576 103.76 68.4611 109.041L69.4547 108.928C68.8905 103.991 71.1265 98.4262 74.2358 93.4205C77.3348 88.4313 81.2458 84.086 83.8948 81.6176L83.2131 80.886ZM68.4611 109.041C69.1987 115.495 71.8366 118.482 74.8651 118.742C77.827 118.996 80.7391 116.578 81.8797 113.156L80.931 112.84C79.8822 115.987 77.3003 117.947 74.9507 117.745C72.6678 117.549 70.1767 115.246 69.4547 108.928L68.4611 109.041ZM81.8797 113.156C84.0835 106.545 86.2371 95.197 87.3325 87.8942L86.3436 87.7459C85.2496 95.0391 83.106 106.315 80.931 112.84L81.8797 113.156ZM87.3325 87.8942C87.874 84.2843 88.7687 81.8179 89.9809 80.1294C91.1816 78.4571 92.7193 77.5123 94.6325 76.9905L94.3694 76.0257C92.2687 76.5987 90.5223 77.6608 89.1686 79.5462C87.8265 81.4156 86.8968 84.0578 86.3436 87.7459L87.3325 87.8942ZM94.6325 76.9905C95.6435 76.7148 96.4606 76.4586 97.0996 76.2101C97.7307 75.9647 98.2246 75.7132 98.5613 75.4326C98.9068 75.1447 99.148 74.7696 99.1038 74.3055C99.064 73.8871 98.7991 73.5309 98.5035 73.2353L97.7964 73.9425C98.0482 74.1942 98.1026 74.3398 98.1083 74.4003C98.1097 74.4151 98.1229 74.4962 97.9211 74.6644C97.7104 74.8399 97.3377 75.0446 96.7372 75.2781C96.1447 75.5085 95.3653 75.7541 94.3694 76.0257L94.6325 76.9905ZM98.5035 73.2353C97.8788 72.6106 97.1099 72.1695 95.9378 72.2228C94.8176 72.2737 93.3671 72.7753 91.3423 73.8798L91.8212 74.7577C93.8103 73.6727 95.0965 73.2621 95.9833 73.2217C96.8181 73.1838 97.3264 73.4725 97.7964 73.9425L98.5035 73.2353ZM91.3423 73.8798C90.8711 74.1368 90.5877 74.1907 90.4394 74.1788C90.3431 74.1711 90.2904 74.1397 90.2359 74.0271C90.1644 73.8789 90.1166 73.6207 90.1253 73.233C90.1336 72.856 90.1937 72.4055 90.2931 71.9081C90.6933 69.907 91.6792 67.3934 92.046 66.4766L91.1175 66.1052C90.7544 67.0129 89.7334 69.6078 89.3126 71.712C89.2068 72.2408 89.1357 72.7539 89.1255 73.2108C89.1156 73.6569 89.162 74.1028 89.3355 74.4621C89.5263 74.8569 89.8698 75.1363 90.3594 75.1756C90.7969 75.2107 91.2889 75.048 91.8212 74.7577L91.3423 73.8798ZM92.046 66.4766C92.4092 65.5685 92.9975 64.0196 92.9481 62.4889C92.9231 61.7124 92.7339 60.9179 92.2513 60.2106C91.7668 59.5003 91.0132 58.9175 89.9281 58.523L89.5864 59.4628C90.5082 59.798 91.0774 60.2643 91.4253 60.7742C91.7752 61.287 91.9281 61.8837 91.9486 62.5212C91.9905 63.8184 91.4841 65.1887 91.1175 66.1052L92.046 66.4766ZM80.3775 62.9429C79.123 63.6956 75.9216 65.9883 72.9667 69.2387L73.7067 69.9113C76.5902 66.7394 79.7138 64.5073 80.892 63.8004L80.3775 62.9429ZM72.9667 69.2387C72.0348 70.2638 71.3652 71.2113 70.9735 71.9967C70.7783 72.3882 70.6428 72.7578 70.5861 73.0889C70.5312 73.4091 70.5382 73.766 70.7235 74.0619C70.9282 74.3888 71.2704 74.5202 71.6174 74.5263C71.9475 74.5321 72.3198 74.4301 72.7151 74.2582C73.5118 73.9116 74.5594 73.2107 75.8515 72.1032L75.2007 71.344C73.9385 72.4259 72.9791 73.0528 72.3163 73.3411C71.9817 73.4866 71.7611 73.5287 71.635 73.5265C71.5259 73.5246 71.5488 73.4957 71.5711 73.5312C71.5739 73.5358 71.5353 73.4701 71.5717 73.2577C71.6062 73.0562 71.6988 72.7832 71.8684 72.443C72.2065 71.7651 72.8141 70.8931 73.7067 69.9113L72.9667 69.2387ZM75.8515 72.1032C80.9941 67.6953 83.2078 64.7881 84.3188 63.3068L83.5188 62.7068C82.4404 64.1446 80.2754 66.9943 75.2007 71.344L75.8515 72.1032ZM84.3188 63.3068C84.473 63.1012 84.5943 62.8949 84.6586 62.6915C84.7228 62.4882 84.7462 62.2305 84.6121 61.99C84.4772 61.7482 84.247 61.6382 84.0536 61.5923C83.861 61.5466 83.6507 61.5491 83.448 61.5737C82.6508 61.6705 81.478 62.175 80.349 62.9614L80.9205 63.782C81.9808 63.0435 82.9974 62.6358 83.5686 62.5664C83.708 62.5495 83.7884 62.5571 83.8226 62.5652C83.8558 62.5731 83.7881 62.5656 83.7387 62.4772C83.6901 62.39 83.722 62.3364 83.7051 62.3901C83.6881 62.4438 83.6383 62.5474 83.5188 62.7068L84.3188 63.3068ZM84.5172 87.0295C84.1564 89.9762 83.1494 94.6032 82.046 98.8699C80.9382 103.154 79.7539 106.992 79.052 108.396L79.9464 108.843C80.7042 107.328 81.9121 103.381 83.0141 99.1203C84.1205 94.8423 85.1408 90.1643 85.5098 87.151L84.5172 87.0295ZM79.052 108.396C78.5805 109.339 78.0796 110.437 77.5221 111.514C76.9679 112.584 76.406 113.534 75.8676 114.119C75.5972 114.413 75.3709 114.572 75.1951 114.632C75.0513 114.682 74.9332 114.672 74.7912 114.572C74.6196 114.453 74.3969 114.187 74.156 113.66C73.9186 113.141 73.6833 112.413 73.4594 111.428L72.4842 111.649C72.7164 112.671 72.9701 113.471 73.2466 114.076C73.5194 114.672 73.8352 115.124 74.2185 115.392C74.6314 115.681 75.0848 115.728 75.5206 115.578C75.9244 115.439 76.2859 115.141 76.6034 114.796C77.2408 114.104 77.8545 113.047 78.4102 111.974C78.9626 110.907 79.5056 109.725 79.9464 108.843L79.052 108.396ZM73.4594 111.428C73.0314 109.545 73.3239 107.249 74.0987 104.79C74.8708 102.339 76.1066 99.7743 77.5085 97.3775C78.9095 94.9822 80.4689 92.7676 81.8792 91.0189C83.3013 89.2554 84.5382 88.0081 85.2909 87.5063L84.7362 86.6742C83.8468 87.2671 82.5294 88.6197 81.1007 90.3912C79.6602 92.1774 78.0723 94.4329 76.6453 96.8726C75.2193 99.3107 73.9464 101.946 73.1449 104.489C72.346 107.025 71.9999 109.519 72.4842 111.649L73.4594 111.428ZM85.6097 64.428C85.4182 66.9179 85.3269 68.8817 85.2508 70.5177L86.2497 70.5642C86.3257 68.9291 86.4165 66.9783 86.6068 64.5047L85.6097 64.428ZM85.2508 70.5177C85.143 72.8354 85.0662 74.4672 84.7867 76.0237C84.5095 77.5675 84.03 79.0493 83.1008 81.0404L84.007 81.4633C84.964 79.4125 85.4753 77.8474 85.771 76.2005C86.0644 74.5663 86.1428 72.8635 86.2497 70.5642L85.2508 70.5177ZM89.9281 58.523C88.6453 58.0565 87.6237 58.2167 86.8181 58.6557C86.0438 59.0776 85.5056 59.7406 85.142 60.183L85.9146 60.818C86.2919 60.3589 86.7172 59.8495 87.2966 59.5337C87.8448 59.235 88.5672 59.0922 89.5864 59.4628L89.9281 58.523ZM85.142 60.183C84.9991 60.3569 84.8932 60.485 84.8022 60.5766C84.7581 60.621 84.7287 60.6452 84.7117 60.657C84.6935 60.6698 84.7065 60.6563 84.7465 60.6476C84.7962 60.6369 84.8606 60.6398 84.921 60.6669C84.9731 60.6903 84.9908 60.7176 84.9819 60.7062C84.9729 60.6947 84.9507 60.6614 84.9192 60.591C84.8885 60.5221 84.8539 60.4291 84.8161 60.3057L83.8601 60.5991C83.9476 60.8842 84.0507 61.1383 84.1934 61.3213C84.2688 61.4179 84.3719 61.5166 84.5117 61.5793C84.6599 61.6458 84.8143 61.656 84.9575 61.6251C85.2055 61.5716 85.3949 61.3989 85.5116 61.2814C85.6431 61.149 85.7819 60.9793 85.9146 60.818L85.142 60.183Z" fill="#140000"/>
<path fill-rule="evenodd" clip-rule="evenodd" d="M108.732 52.7896C105.935 54.979 99.9017 59.9416 98.1502 62.277C95.9608 65.1962 94.1363 75.0485 102.529 72.8591C105.261 72.1463 108.26 70.5489 110.076 69.8541C113.84 68.4148 117.125 69.1761 117.125 72.1293C117.125 75.8253 114.206 76.1703 111.135 77.9803C108.064 79.7903 104.592 80.9324 99.2448 86.7253C90.4872 96.2128 101.069 99.8618 105.813 96.5777C109.863 93.7739 117.438 84.171 118.54 81.3619C118.826 80.6343 120.543 78.1814 120.774 77.6299C123.143 76.5352 124.238 75.8054 128.437 75.0756C129.567 74.8791 130.772 72.7131 128.437 72.1293C126.102 71.5455 121.382 72.3726 120.044 72.8591C119.436 70.4264 118.585 65.5611 114.206 65.5611C112.265 65.5611 109.727 66.2495 107.471 66.8614C103.367 67.9748 100.197 68.8346 103.259 64.8313C107.04 59.8868 110.125 57.4924 111.592 56.3547C111.965 56.0651 112.233 55.8569 112.381 55.7088C113.111 54.979 114.936 52.7896 108.732 52.7896ZM103.989 88.1849C105.74 85.8496 116.03 79.7922 118.22 79.7922L114.571 85.6306C110.828 90.3213 107.054 95.191 103.259 95.483C98.9036 95.818 101.2 91.8468 103.42 88.935C103.618 88.6753 103.809 88.424 103.989 88.1849Z" fill="#140000"/>
<path d="M108.732 52.7896V52.2896C108.621 52.2896 108.512 52.327 108.424 52.3958L108.732 52.7896ZM98.1502 62.277L98.5502 62.577L98.1502 62.277ZM102.529 72.8591L102.655 73.3429L102.529 72.8591ZM99.2448 86.7253L99.6122 87.0645L99.2448 86.7253ZM105.813 96.5777L106.098 96.9888L105.813 96.5777ZM120.774 77.6299L120.564 77.176L120.388 77.2575L120.313 77.4365L120.774 77.6299ZM128.437 75.0756L128.523 75.5682L128.437 75.0756ZM120.044 72.8591L119.559 72.9804L119.694 73.5186L120.215 73.329L120.044 72.8591ZM103.259 64.8313L102.862 64.5276L103.259 64.8313ZM112.381 55.7088L112.028 55.3552V55.3552L112.381 55.7088ZM118.22 79.7922L118.644 80.0572C118.74 79.9031 118.745 79.7088 118.657 79.5498C118.569 79.3909 118.401 79.2922 118.22 79.2922V79.7922ZM103.989 88.1849L104.389 88.4849L103.989 88.1849ZM103.259 95.483L103.297 95.9815H103.297L103.259 95.483ZM114.571 85.6306L114.961 85.9425L114.979 85.92L114.995 85.8956L114.571 85.6306ZM110.076 69.8541L110.255 70.3211L110.076 69.8541ZM118.54 81.3619L118.075 81.1792L118.54 81.3619ZM107.471 66.8614L107.602 67.344L107.471 66.8614ZM111.592 56.3547L111.285 55.9597V55.9597L111.592 56.3547ZM103.42 88.935L103.022 88.6319L103.42 88.935ZM108.424 52.3958C107.02 53.4947 104.806 55.2882 102.721 57.1012C100.651 58.9018 98.663 60.7598 97.7502 61.977L98.5502 62.577C99.3889 61.4587 101.294 59.6678 103.377 57.8558C105.446 56.0563 107.647 54.2738 109.04 53.1833L108.424 52.3958ZM97.7502 61.977C97.1523 62.7741 96.6056 64.0022 96.2475 65.3406C95.8884 66.6829 95.7053 68.1869 95.8751 69.5458C96.0447 70.9022 96.5771 72.1813 97.7155 72.9536C98.8554 73.7268 100.482 73.9099 102.655 73.3429L102.403 72.3753C100.38 72.903 99.087 72.6756 98.2769 72.126C97.4654 71.5755 97.0172 70.6197 96.8674 69.4218C96.718 68.2264 96.877 66.8568 97.2135 65.5991C97.551 64.3376 98.0533 63.2394 98.5502 62.577L97.7502 61.977ZM98.8774 86.3862C96.6518 88.7972 95.5928 90.9016 95.412 92.6785C95.2279 94.4869 95.961 95.8925 97.1567 96.8337C98.3335 97.7602 99.9408 98.2278 101.545 98.2578C103.15 98.2879 104.809 97.8808 106.098 96.9888L105.528 96.1666C104.445 96.9165 103.003 97.2849 101.563 97.258C100.122 97.231 98.7421 96.8091 97.7752 96.048C96.827 95.3015 96.2602 94.2212 96.4068 92.7797C96.5567 91.3067 97.459 89.3972 99.6122 87.0645L98.8774 86.3862ZM120.984 78.0838C122.195 77.5241 123.023 77.0859 124.095 76.6841C125.152 76.2874 126.444 75.9294 128.523 75.5682L128.351 74.583C126.23 74.9516 124.875 75.3234 123.743 75.7477C122.626 76.1669 121.722 76.641 120.564 77.176L120.984 78.0838ZM128.523 75.5682C128.935 75.4965 129.312 75.2568 129.599 74.9647C129.889 74.6699 130.124 74.2837 130.223 73.8624C130.324 73.4337 130.286 72.9515 129.993 72.5254C129.705 72.1055 129.218 71.8092 128.558 71.6442L128.316 72.6144C128.824 72.7413 129.061 72.9347 129.169 73.0912C129.272 73.2416 129.3 73.4227 129.25 73.633C129.199 73.8507 129.067 74.0794 128.885 74.2642C128.701 74.4517 128.504 74.5565 128.351 74.583L128.523 75.5682ZM128.558 71.6442C127.296 71.3286 125.453 71.4009 123.808 71.5963C122.154 71.7927 120.595 72.1266 119.873 72.3892L120.215 73.329C120.831 73.1051 122.301 72.7822 123.925 72.5893C125.558 72.3955 127.243 72.3462 128.316 72.6144L128.558 71.6442ZM120.529 72.7378C120.234 71.5576 119.853 69.6494 118.977 68.0569C118.084 66.4325 116.633 65.0611 114.206 65.0611V66.0611C116.157 66.0611 117.322 67.1223 118.101 68.5388C118.897 69.9871 119.246 71.7279 119.559 72.9804L120.529 72.7378ZM112.735 56.0623C112.927 55.8701 113.215 55.5593 113.425 55.1937C113.629 54.8391 113.815 54.3325 113.628 53.8073C113.436 53.2722 112.925 52.9025 112.172 52.666C111.411 52.4272 110.304 52.2896 108.732 52.2896V53.2896C110.262 53.2896 111.253 53.4256 111.872 53.6201C112.499 53.8169 112.649 54.0402 112.686 54.1436C112.726 54.257 112.708 54.4346 112.558 54.6958C112.414 54.9459 112.2 55.1825 112.028 55.3552L112.735 56.0623ZM118.22 79.2922C117.858 79.2922 117.391 79.4115 116.889 79.5843C116.372 79.7621 115.767 80.0155 115.108 80.3218C113.789 80.9348 112.228 81.7733 110.686 82.682C109.144 83.591 107.611 84.5754 106.351 85.4825C105.109 86.3767 104.078 87.2326 103.589 87.8849L104.389 88.4849C104.775 87.9696 105.687 87.1925 106.935 86.2942C108.165 85.4087 109.671 84.4409 111.194 83.5436C112.717 82.6461 114.248 81.8242 115.53 81.2286C116.171 80.9305 116.742 80.6924 117.214 80.5298C117.701 80.3622 118.034 80.2922 118.22 80.2922V79.2922ZM103.297 95.9815C105.381 95.8212 107.383 94.4185 109.283 92.5642C111.197 90.6972 113.098 88.2782 114.961 85.9425L114.18 85.3188C112.301 87.6738 110.443 90.035 108.585 91.8485C106.714 93.6747 104.931 94.8528 103.22 94.9844L103.297 95.9815ZM114.995 85.8956L118.644 80.0572L117.796 79.5272L114.147 85.3656L114.995 85.8956ZM102.655 73.3429C104.061 72.9762 105.523 72.3856 106.846 71.8081C108.19 71.2218 109.36 70.6634 110.255 70.3211L109.898 69.3871C108.976 69.7397 107.739 70.3273 106.446 70.8916C105.133 71.4647 103.73 72.0292 102.403 72.3753L102.655 73.3429ZM110.255 70.3211C112.078 69.6238 113.722 69.4866 114.871 69.8242C115.439 69.9911 115.87 70.2684 116.161 70.6355C116.448 70.9998 116.625 71.4877 116.625 72.1293H117.625C117.625 71.2943 117.391 70.5796 116.945 70.0155C116.502 69.4543 115.877 69.0775 115.153 68.8648C113.718 68.4433 111.838 68.6451 109.898 69.3871L110.255 70.3211ZM116.625 72.1293C116.625 72.9852 116.457 73.613 116.184 74.1059C115.91 74.6002 115.511 74.9935 114.996 75.3516C114.475 75.7138 113.856 76.0268 113.147 76.373C112.448 76.7144 111.669 77.0849 110.881 77.5495L111.389 78.411C112.136 77.9707 112.874 77.6193 113.586 77.2715C114.288 76.9284 114.974 76.5848 115.567 76.1725C116.166 75.7561 116.689 75.257 117.058 74.5906C117.428 73.9228 117.625 73.1215 117.625 72.1293H116.625ZM110.881 77.5495C107.852 79.3345 104.289 80.5237 98.8774 86.3862L99.6122 87.0645C104.895 81.3412 108.275 80.2461 111.389 78.411L110.881 77.5495ZM106.098 96.9888C108.186 95.5431 111.13 92.392 113.669 89.2884C114.945 87.7289 116.13 86.1669 117.067 84.8151C117.995 83.4761 118.707 82.3068 119.006 81.5446L118.075 81.1792C117.823 81.8216 117.174 82.906 116.245 84.2453C115.326 85.5717 114.157 87.1124 112.895 88.6552C110.358 91.7562 107.49 94.8084 105.528 96.1666L106.098 96.9888ZM119.006 81.5446C119.06 81.4074 119.199 81.1519 119.406 80.8068C119.607 80.4725 119.852 80.0857 120.099 79.699C120.344 79.315 120.592 78.9295 120.792 78.607C120.984 78.2985 121.159 78.0054 121.235 77.8233L120.313 77.4365C120.274 77.5302 120.147 77.7505 119.943 78.0797C119.747 78.3949 119.505 78.7716 119.256 79.1607C119.009 79.5471 118.757 79.9444 118.549 80.2919C118.346 80.6287 118.164 80.9526 118.075 81.1792L119.006 81.5446ZM114.206 65.0611C112.183 65.0611 109.572 65.7734 107.34 66.3788L107.602 67.344C109.881 66.7257 112.346 66.0611 114.206 66.0611V65.0611ZM107.34 66.3788C106.31 66.6583 105.357 66.9166 104.548 67.0877C103.719 67.2628 103.116 67.3283 102.756 67.2713C102.673 67.2581 102.618 67.2403 102.583 67.2245C102.567 67.2168 102.556 67.2103 102.55 67.206C102.547 67.2039 102.545 67.2022 102.544 67.2012C102.543 67.2002 102.543 67.1997 102.543 67.1997C102.543 67.1997 102.543 67.1999 102.543 67.2003C102.543 67.2005 102.543 67.2007 102.543 67.2009C102.543 67.201 102.543 67.2011 102.543 67.2011C102.543 67.2011 102.543 67.2009 102.543 67.2006C102.543 67.2003 102.543 67.1998 102.543 67.1991C102.542 67.1976 102.541 67.1951 102.541 67.1913C102.537 67.176 102.532 67.1379 102.543 67.0676C102.565 66.9202 102.644 66.6903 102.83 66.3561C103.012 66.0274 103.282 65.6241 103.656 65.135L102.862 64.5276C102.47 65.0393 102.169 65.4849 101.955 65.871C101.744 66.2517 101.601 66.6027 101.554 66.9203C101.505 67.2484 101.554 67.5852 101.786 67.8532C102.004 68.1058 102.313 68.2135 102.6 68.2589C103.162 68.3481 103.93 68.2402 104.754 68.0661C105.598 67.8879 106.58 67.6212 107.602 67.344L107.34 66.3788ZM103.656 65.135C107.401 60.2381 110.449 57.8739 111.898 56.7497L111.285 55.9597C109.801 57.111 106.679 59.5355 102.862 64.5276L103.656 65.135ZM111.898 56.7497C112.257 56.4712 112.559 56.2386 112.735 56.0623L112.028 55.3552C111.908 55.4751 111.673 55.6589 111.285 55.9597L111.898 56.7497ZM103.22 94.9844C102.172 95.0651 101.694 94.8677 101.492 94.6611C101.309 94.4736 101.221 94.1363 101.361 93.5403C101.497 92.9561 101.826 92.2485 102.276 91.4882C102.722 90.7343 103.269 89.957 103.817 89.2381L103.022 88.6319C102.46 89.3689 101.888 90.18 101.416 90.9791C100.947 91.7719 100.558 92.5821 100.387 93.3128C100.219 94.0317 100.235 94.8063 100.777 95.3602C101.3 95.895 102.168 96.0683 103.297 95.9815L103.22 94.9844ZM103.817 89.2381C104.015 88.9787 104.208 88.7258 104.389 88.4849L103.589 87.8849C103.411 88.1222 103.22 88.3719 103.022 88.6319L103.817 89.2381Z" fill="#140000"/>
</svg>
