<svg width="142" height="148" viewBox="0 0 142 148" fill="none" xmlns="http://www.w3.org/2000/svg">
<rect width="142" height="148" fill="white"/>
<path fill-rule="evenodd" clip-rule="evenodd" d="M37.5252 59.8824C34.9709 57.693 27.4833 58.4411 22.5206 68.0744C17.558 77.7078 21.1427 81.6166 22.9671 83.4411C25.6237 86.0977 27.926 86.6799 33.955 72.4941C35.3543 69.2015 36.2934 67.1422 37.436 64.9743C38.2347 63.4588 39.1189 61.9581 39.7759 61.0383C41.7024 58.3412 40.5226 62.9648 38.6811 72.5974C37.2829 79.9111 37.3449 88.7918 37.4641 92.2478C37.9506 93.9507 41.3782 98.4127 42.0877 94.9449C42.718 91.8647 42.7044 76.9174 43.69 70.2639C44.4198 64.5471 48.6042 52.6994 52.1056 46.3968C54.0321 42.9291 53.6468 41.0026 48.699 39.076C47.0967 38.4521 46.7725 41.7732 45.0111 45.1718C43.0804 48.8972 41.2122 52.5616 37.5252 59.8824ZM27.3868 70.2639C30.0141 64.1336 34.0358 61.8712 35.7387 61.5063C36.0306 62.3821 34.4007 65.2769 33.5493 66.6149C31.6032 70.1423 28.2217 78.2188 27.346 79.3864C26.2513 80.8461 24.1027 77.9268 27.3868 70.2639Z" fill="#424B54"/>
<path d="M37.5252 59.8824L37.1998 60.262L37.6846 60.6775L37.9718 60.1073L37.5252 59.8824ZM22.9671 83.4411L22.6136 83.7946L22.9671 83.4411ZM33.955 72.4941L33.4948 72.2985L33.955 72.4941ZM39.7759 61.0383L39.3691 60.7477L39.7759 61.0383ZM37.4641 92.2478L36.9644 92.265L36.9665 92.3263L36.9833 92.3852L37.4641 92.2478ZM42.0877 94.9449L42.5776 95.0452L42.0877 94.9449ZM43.69 70.2639L44.1847 70.3372L44.186 70.3272L43.69 70.2639ZM52.1056 46.3968L52.5427 46.6396L52.1056 46.3968ZM48.699 39.076L48.8805 38.6101L48.699 39.076ZM35.7387 61.5063L36.213 61.3482L36.0715 60.9236L35.6339 61.0174L35.7387 61.5063ZM27.3868 70.2639L26.9272 70.067L27.3868 70.2639ZM27.346 79.3864L26.946 79.0864L27.346 79.3864ZM33.5493 66.6149L33.1275 66.3465L33.1191 66.3597L33.1115 66.3734L33.5493 66.6149ZM37.436 64.9743L37.8783 65.2074L37.436 64.9743ZM38.6811 72.5974L39.1722 72.6913L38.6811 72.5974ZM45.0111 45.1718L45.455 45.4018L45.0111 45.1718ZM37.8506 59.5028C36.3839 58.2456 33.6567 57.9215 30.7414 59.0802C27.7978 60.2502 24.6021 62.9421 22.0762 67.8455L22.9651 68.3034C25.4018 63.5734 28.4313 61.0745 31.1107 60.0095C33.8185 58.9332 36.1122 59.3298 37.1998 60.262L37.8506 59.5028ZM22.0762 67.8455C19.5609 72.728 19.1748 76.2325 19.7093 78.7885C20.2441 81.3458 21.6846 82.8656 22.6136 83.7946L23.3207 83.0875C22.4252 82.1921 21.1611 80.8453 20.6881 78.5837C20.2149 76.3209 20.5177 73.0542 22.9651 68.3034L22.0762 67.8455ZM22.6136 83.7946C23.2807 84.4617 23.9989 85.0792 24.8123 85.3249C25.6805 85.5872 26.5713 85.4051 27.5039 84.6778C28.4106 83.9706 29.3853 82.7301 30.5003 80.8143C31.6204 78.8899 32.904 76.2452 34.4151 72.6896L33.4948 72.2985C31.9914 75.8359 30.7264 78.438 29.6361 80.3112C28.5408 82.193 27.6434 83.3008 26.8889 83.8892C26.1602 84.4575 25.6005 84.5183 25.1015 84.3676C24.5477 84.2003 23.9819 83.7487 23.3207 83.0875L22.6136 83.7946ZM36.9833 92.3852C37.1254 92.8823 37.4625 93.53 37.8755 94.1519C38.2926 94.78 38.8159 95.4251 39.3601 95.909C39.6321 96.1509 39.9219 96.3637 40.2176 96.5116C40.5103 96.658 40.8424 96.7575 41.184 96.7235C41.9538 96.6467 42.3876 95.9738 42.5776 95.0452L41.5979 94.8447C41.4331 95.65 41.1725 95.7197 41.0848 95.7284C40.9976 95.7371 40.8603 95.715 40.6649 95.6173C40.4726 95.5211 40.2557 95.3672 40.0246 95.1617C39.5623 94.7507 39.0931 94.1778 38.7086 93.5987C38.3199 93.0134 38.0461 92.4647 37.9449 92.1105L36.9833 92.3852ZM42.5776 95.0452C42.7441 94.2312 42.8625 92.6792 42.9647 90.7511C43.0677 88.8085 43.156 86.4385 43.2552 83.9644C43.4542 79.001 43.6966 73.6315 44.1846 70.3372L43.1954 70.1907C42.6978 73.5498 42.4542 78.9806 42.256 83.9243C42.1566 86.4038 42.0686 88.764 41.9661 90.6982C41.8628 92.647 41.7465 94.1185 41.5979 94.8447L42.5776 95.0452ZM44.186 70.3272C44.544 67.5227 45.7581 63.1718 47.33 58.7164C48.8999 54.2663 50.8107 49.7573 52.5427 46.6396L51.6685 46.154C49.8991 49.3389 47.967 53.9051 46.3869 58.3837C44.8088 62.857 43.5658 67.2884 43.1941 70.2006L44.186 70.3272ZM52.5427 46.6396C53.5116 44.8956 54.0122 43.3574 53.4428 41.9688C52.8826 40.6026 51.3614 39.5761 48.8805 38.6101L48.5176 39.542C50.9845 40.5025 52.1298 41.4026 52.5176 42.3482C52.8961 43.2714 52.6261 44.4303 51.6685 46.154L52.5427 46.6396ZM35.6339 61.0174C33.7448 61.4222 29.6064 63.8155 26.9272 70.067L27.8464 70.4609C30.4217 64.4517 34.3268 62.3202 35.8435 61.9952L35.6339 61.0174ZM26.9272 70.067C25.2668 73.9413 24.9446 76.6917 25.2318 78.3323C25.3716 79.131 25.6774 79.7775 26.1656 80.0796C26.4275 80.2416 26.7329 80.2952 27.0361 80.2086C27.3271 80.1254 27.5644 79.9286 27.746 79.6864L26.946 79.0864C26.8539 79.2092 26.7846 79.2404 26.7613 79.2471C26.7504 79.2502 26.734 79.2553 26.6918 79.2292C26.5719 79.155 26.3405 78.8665 26.2168 78.1599C25.9771 76.7901 26.2227 74.2495 27.8464 70.4609L26.9272 70.067ZM27.746 79.6864C28.0008 79.3466 28.3989 78.5711 28.8615 77.6114C29.3344 76.6299 29.9021 75.3962 30.5005 74.0944C31.7023 71.4804 33.0251 68.6001 33.9871 66.8565L33.1115 66.3734C32.1274 68.1571 30.7863 71.0788 29.592 73.6767C28.9923 74.981 28.4288 76.2057 27.9606 77.1773C27.482 78.1705 27.129 78.8424 26.946 79.0864L27.746 79.6864ZM33.9711 66.8834C34.4041 66.2029 35.0354 65.1265 35.524 64.1026C35.7677 63.5919 35.9827 63.0802 36.1183 62.6299C36.186 62.4048 36.2376 62.1832 36.2603 61.9773C36.2824 61.7777 36.2819 61.5549 36.213 61.3482L35.2644 61.6644C35.2684 61.6766 35.2809 61.7359 35.2664 61.8675C35.2525 61.9927 35.218 62.1514 35.1607 62.3417C35.0461 62.7224 34.8552 63.1823 34.6215 63.6719C34.1553 64.6489 33.5459 65.689 33.1275 66.3465L33.9711 66.8834ZM34.4151 72.6896C35.8124 69.402 36.7452 67.3574 37.8783 65.2074L36.9937 64.7411C35.8416 66.9271 34.8963 69.0009 33.4948 72.2985L34.4151 72.6896ZM37.8783 65.2074C38.6726 63.7002 39.5448 62.2221 40.1828 61.3289L39.3691 60.7477C38.6931 61.694 37.7968 63.2173 36.9937 64.7411L37.8783 65.2074ZM40.1828 61.3289C40.4214 60.9948 40.5767 60.827 40.6601 60.7636C40.7067 60.7281 40.6688 60.7737 40.5676 60.7776C40.4117 60.7837 40.3002 60.6911 40.2559 60.6223C40.23 60.582 40.2406 60.5736 40.2511 60.651C40.2602 60.7182 40.2652 60.8184 40.2618 60.9585C40.2551 61.2382 40.2166 61.6252 40.1464 62.1246C39.8643 64.1313 39.1146 67.6668 38.19 72.5035L39.1722 72.6913C40.0891 67.8954 40.85 64.3028 41.1366 62.2638C41.2086 61.7518 41.2534 61.32 41.2615 60.9826C41.2656 60.8141 41.2609 60.6562 41.242 60.5168C41.2246 60.3877 41.1889 60.2243 41.0972 60.0817C40.9872 59.9104 40.7904 59.7682 40.5286 59.7784C40.3214 59.7865 40.1569 59.89 40.055 59.9674C39.8414 60.1298 39.612 60.4075 39.3691 60.7477L40.1828 61.3289ZM38.19 72.5035C36.781 79.8741 36.8449 88.8004 36.9644 92.265L37.9638 92.2306C37.8449 88.7831 37.7849 79.9481 39.1722 72.6913L38.19 72.5035ZM48.8805 38.6101C48.6049 38.5028 48.322 38.4681 48.0417 38.5319C47.7643 38.5951 47.5345 38.7446 47.3451 38.9297C46.9836 39.2828 46.7058 39.8301 46.4547 40.4195C45.9231 41.6671 45.4404 43.2567 44.5672 44.9417L45.455 45.4018C46.3431 43.6882 46.9032 41.918 47.3747 40.8114C47.6251 40.2237 47.8388 39.8453 48.0439 39.645C48.1377 39.5534 48.2099 39.5192 48.2638 39.5069C48.3148 39.4953 48.3926 39.4933 48.5176 39.542L48.8805 38.6101ZM44.5672 44.9417C42.6352 48.6696 40.766 52.336 37.0786 59.6575L37.9718 60.1073C41.6584 52.7873 43.5256 49.1248 45.455 45.4018L44.5672 44.9417Z" fill="#424B54"/>
<path d="M56.7672 85.2656C51.2207 82.6383 51.3481 67.7504 54.9427 59.7226C63.2809 57.5332 59.7409 71.0345 60.1058 79.0624C60.3977 85.4846 64.363 79.7922 66.3091 76.1432L66.674 79.0624C63.3899 87.4551 58.5187 86.4333 56.7672 85.2656Z" fill="#424B54"/>
<path d="M56.7672 49.5054C58.1233 49.2621 60.6167 49.5054 59.7409 52.4246C58.6462 56.0736 55.2531 52.4246 56.7672 49.5054Z" fill="#424B54"/>
<path d="M56.7672 85.2656C51.2207 82.6383 51.3481 67.7504 54.9427 59.7226C63.2809 57.5332 59.7409 71.0345 60.1058 79.0624C60.3977 85.4846 64.363 79.7922 66.3091 76.1432L66.674 79.0624C63.3899 87.4551 58.5187 86.4333 56.7672 85.2656Z" stroke="#424B54" stroke-linecap="round" stroke-linejoin="round"/>
<path d="M56.7672 49.5054C58.1233 49.2621 60.6167 49.5054 59.7409 52.4246C58.6462 56.0736 55.2531 52.4246 56.7672 49.5054Z" stroke="#424B54" stroke-linecap="round" stroke-linejoin="round"/>
<path fill-rule="evenodd" clip-rule="evenodd" d="M71.4175 64.1015C79.4426 56.3216 84.2433 58.6279 85.3381 60.4524C85.6725 61.5418 85.9773 61.1709 86.5283 60.5005C87.2692 59.599 88.4552 58.1558 90.7572 58.9929C94.7711 60.4525 93.3115 64.4664 92.5817 66.2909C91.8519 68.1154 88.5678 76.5081 92.5817 74.3187C96.5956 72.1293 98.0552 72.4942 99.1499 73.5889C100.245 74.6836 99.5148 75.4134 95.5009 76.5081C91.487 77.6028 88.9327 80.522 87.838 87.82C86.7433 95.1181 84.5947 106.43 82.4053 112.998C80.2159 119.566 71.4175 121.756 69.9579 108.984C68.7902 98.7671 79.202 86.2388 84.5539 81.2518C86.4401 77.21 86.5355 75.158 86.7502 70.5409C86.8263 68.9054 86.9173 66.9481 87.1082 64.4664C85.527 65.5611 78.3506 73.224 74.3367 78.3326C68.1012 86.2686 61.2546 73.9537 71.4175 64.1015ZM81.6347 63.3717C80.4184 64.1015 77.2559 66.3639 74.3367 69.575C70.6877 73.5889 71.4175 76.1024 76.5261 71.7236C81.6347 67.3448 83.8241 64.4664 84.9188 63.0068C86.0135 61.5472 83.8241 61.8469 81.6347 63.3717ZM80.4992 108.619C81.9588 105.7 85.2837 93.0503 86.0135 87.0902C82.7294 89.2796 72.1473 103.511 73.9718 111.539C75.7963 119.566 78.6747 112.268 80.4992 108.619Z" fill="#424B54"/>
<path d="M85.3381 60.4524L85.816 60.3057L85.7981 60.2474L85.7668 60.1952L85.3381 60.4524ZM71.4175 64.1015L71.0694 63.7425L71.4175 64.1015ZM74.3367 78.3326L73.9435 78.0237L74.3367 78.3326ZM87.1082 64.4664L87.6067 64.5047C87.6215 64.3124 87.5244 64.1287 87.3571 64.0327C87.1898 63.9367 86.9822 63.9455 86.8236 64.0553L87.1082 64.4664ZM84.5539 81.2518L84.8948 81.6176L84.9659 81.5514L85.007 81.4633L84.5539 81.2518ZM69.9579 108.984L70.4546 108.928L69.9579 108.984ZM90.7572 58.9929L90.9281 58.523L90.7572 58.9929ZM81.6347 63.3717L81.8919 63.8004L81.9065 63.7917L81.9204 63.782L81.6347 63.3717ZM74.3367 69.575L74.7066 69.9113L74.3367 69.575ZM86.0135 87.0902L86.5098 87.151L86.6421 86.0702L85.7361 86.6742L86.0135 87.0902ZM86.7502 70.5409L87.2497 70.5642L86.7502 70.5409ZM86.5283 60.5005L86.9145 60.818V60.818L86.5283 60.5005ZM85.7668 60.1952C85.1105 59.1013 83.4445 57.997 80.9409 58.1766C78.4397 58.356 75.1284 59.8076 71.0694 63.7425L71.7655 64.4605C75.7317 60.6155 78.8334 59.3303 81.0124 59.174C83.1891 59.0179 84.4709 59.979 84.9093 60.7096L85.7668 60.1952ZM71.0694 63.7425C65.8781 68.7752 64.9552 74.5179 66.2584 78.0603C66.9074 79.8243 68.1466 81.1105 69.7507 81.3375C71.359 81.5652 73.1145 80.6974 74.7298 78.6415L73.9435 78.0237C72.4411 79.9358 71.0025 80.5047 69.8909 80.3474C68.7751 80.1895 67.7687 79.2692 67.1969 77.715C66.0587 74.6209 66.794 69.28 71.7655 64.4605L71.0694 63.7425ZM74.7298 78.6415C76.7254 76.1018 79.5131 72.9197 82.0015 70.2341C83.2451 68.8919 84.4109 67.677 85.3625 66.731C86.3267 65.7726 87.0404 65.1214 87.3928 64.8775L86.8236 64.0553C86.3854 64.3587 85.6091 65.0759 84.6575 66.0218C83.6935 66.9801 82.5178 68.2055 81.2679 69.5545C78.7693 72.2511 75.9619 75.4549 73.9435 78.0237L74.7298 78.6415ZM84.213 80.886C81.5102 83.4046 77.5392 87.8169 74.3863 92.8929C71.2436 97.9524 68.8576 103.76 69.4611 109.041L70.4546 108.928C69.8905 103.991 72.1265 98.4262 75.2358 93.4205C78.3348 88.4313 82.2457 84.086 84.8948 81.6176L84.213 80.886ZM69.4611 109.041C70.1986 115.495 72.8365 118.482 75.8651 118.742C78.8269 118.996 81.739 116.578 82.8796 113.156L81.9309 112.84C80.8821 115.987 78.3003 117.947 75.9507 117.745C73.6678 117.549 71.1767 115.246 70.4546 108.928L69.4611 109.041ZM82.8796 113.156C85.0835 106.545 87.237 95.197 88.3325 87.8942L87.3435 87.7459C86.2495 95.0391 84.1059 106.315 81.9309 112.84L82.8796 113.156ZM88.3325 87.8942C88.874 84.2843 89.7687 81.8179 90.9809 80.1294C92.1816 78.4571 93.7193 77.5123 95.6325 76.9905L95.3694 76.0257C93.2686 76.5987 91.5222 77.6608 90.1686 79.5462C88.8265 81.4156 87.8967 84.0578 87.3435 87.7459L88.3325 87.8942ZM95.6325 76.9905C96.6435 76.7148 97.4606 76.4586 98.0996 76.2101C98.7306 75.9647 99.2245 75.7132 99.5612 75.4326C99.9067 75.1447 100.148 74.7696 100.104 74.3055C100.064 73.8871 99.799 73.5309 99.5035 73.2353L98.7964 73.9425C99.0482 74.1942 99.1025 74.3398 99.1083 74.4003C99.1097 74.4151 99.1229 74.4962 98.9211 74.6644C98.7104 74.8399 98.3377 75.0446 97.7372 75.2781C97.1447 75.5085 96.3653 75.7541 95.3694 76.0257L95.6325 76.9905ZM99.5035 73.2353C98.8787 72.6106 98.1099 72.1695 96.9378 72.2228C95.8176 72.2737 94.3671 72.7753 92.3423 73.8798L92.8211 74.7577C94.8103 73.6727 96.0965 73.2621 96.9832 73.2217C97.8181 73.1838 98.3264 73.4725 98.7964 73.9425L99.5035 73.2353ZM92.3423 73.8798C91.871 74.1368 91.5877 74.1907 91.4394 74.1788C91.3431 74.1711 91.2903 74.1397 91.2359 74.0271C91.1643 73.8789 91.1166 73.6207 91.1252 73.233C91.1336 72.856 91.1936 72.4055 91.2931 71.9081C91.6933 69.907 92.6792 67.3934 93.0459 66.4766L92.1175 66.1052C91.7544 67.0129 90.7333 69.6078 90.3125 71.712C90.2067 72.2408 90.1356 72.7539 90.1255 73.2108C90.1156 73.6569 90.1619 74.1028 90.3355 74.4621C90.5262 74.8569 90.8697 75.1363 91.3593 75.1756C91.7969 75.2107 92.2889 75.048 92.8211 74.7577L92.3423 73.8798ZM93.0459 66.4766C93.4092 65.5685 93.9975 64.0196 93.9481 62.4889C93.923 61.7124 93.7339 60.9179 93.2513 60.2106C92.7667 59.5003 92.0132 58.9175 90.9281 58.523L90.5863 59.4628C91.5082 59.798 92.0774 60.2643 92.4252 60.7742C92.7751 61.287 92.928 61.8837 92.9486 62.5212C92.9905 63.8184 92.4841 65.1887 92.1175 66.1052L93.0459 66.4766ZM81.3774 62.9429C80.1229 63.6956 76.9216 65.9883 73.9667 69.2387L74.7066 69.9113C77.5902 66.7394 80.7138 64.5073 81.8919 63.8004L81.3774 62.9429ZM73.9667 69.2387C73.0348 70.2638 72.3652 71.2113 71.9735 71.9967C71.7782 72.3882 71.6427 72.7578 71.586 73.0889C71.5312 73.4091 71.5382 73.766 71.7235 74.0619C71.9282 74.3888 72.2704 74.5202 72.6174 74.5263C72.9475 74.5321 73.3198 74.4301 73.7151 74.2582C74.5118 73.9116 75.5594 73.2107 76.8515 72.1032L76.2007 71.344C74.9385 72.4259 73.9791 73.0528 73.3162 73.3411C72.9817 73.4866 72.7611 73.5287 72.635 73.5265C72.5259 73.5246 72.5488 73.4957 72.571 73.5312C72.5739 73.5358 72.5353 73.4701 72.5717 73.2577C72.6062 73.0562 72.6987 72.7832 72.8684 72.443C73.2065 71.7651 73.8141 70.8931 74.7066 69.9113L73.9667 69.2387ZM76.8515 72.1032C81.994 67.6953 84.2078 64.7881 85.3188 63.3068L84.5188 62.7068C83.4404 64.1446 81.2753 66.9943 76.2007 71.344L76.8515 72.1032ZM85.3188 63.3068C85.473 63.1012 85.5942 62.8949 85.6585 62.6915C85.7228 62.4882 85.7461 62.2305 85.612 61.99C85.4772 61.7482 85.247 61.6382 85.0535 61.5923C84.861 61.5466 84.6506 61.5491 84.448 61.5737C83.6508 61.6705 82.478 62.175 81.3489 62.9614L81.9204 63.782C82.9808 63.0435 83.9974 62.6358 84.5685 62.5664C84.708 62.5495 84.7884 62.5571 84.8225 62.5652C84.8557 62.5731 84.788 62.5656 84.7387 62.4772C84.6901 62.39 84.722 62.3364 84.705 62.3901C84.6881 62.4438 84.6383 62.5474 84.5188 62.7068L85.3188 63.3068ZM85.5172 87.0295C85.1564 89.9762 84.1494 94.6032 83.0459 98.8699C81.9381 103.154 80.7538 106.992 80.052 108.396L80.9464 108.843C81.7041 107.328 82.9121 103.381 84.0141 99.1203C85.1205 94.8423 86.1408 90.1643 86.5098 87.151L85.5172 87.0295ZM80.052 108.396C79.5805 109.339 79.0795 110.437 78.5221 111.514C77.9679 112.584 77.4059 113.534 76.8676 114.119C76.5972 114.413 76.3709 114.572 76.195 114.632C76.0512 114.682 75.9332 114.672 75.7912 114.572C75.6196 114.453 75.3969 114.187 75.1559 113.66C74.9186 113.141 74.6833 112.413 74.4593 111.428L73.4842 111.649C73.7164 112.671 73.9701 113.471 74.2465 114.076C74.5194 114.672 74.8351 115.124 75.2185 115.392C75.6314 115.681 76.0847 115.728 76.5206 115.578C76.9244 115.439 77.2859 115.141 77.6033 114.796C78.2407 114.104 78.8545 113.047 79.4102 111.974C79.9626 110.907 80.5056 109.725 80.9464 108.843L80.052 108.396ZM74.4593 111.428C74.0314 109.545 74.3239 107.249 75.0986 104.79C75.8708 102.339 77.1066 99.7743 78.5085 97.3775C79.9095 94.9822 81.4689 92.7676 82.8791 91.0189C84.3013 89.2554 85.5381 88.0081 86.2908 87.5063L85.7361 86.6742C84.8468 87.2671 83.5293 88.6197 82.1007 90.3912C80.6602 92.1774 79.0723 94.4329 77.6453 96.8726C76.2192 99.3107 74.9463 101.946 74.1449 104.489C73.346 107.025 72.9999 109.519 73.4842 111.649L74.4593 111.428ZM86.6097 64.428C86.4181 66.9179 86.3268 68.8817 86.2507 70.5177L87.2497 70.5642C87.3257 68.9291 87.4165 66.9783 87.6067 64.5047L86.6097 64.428ZM86.2507 70.5177C86.143 72.8354 86.0662 74.4672 85.7867 76.0237C85.5095 77.5675 85.03 79.0493 84.1008 81.0404L85.007 81.4633C85.964 79.4125 86.4752 77.8474 86.771 76.2005C87.0644 74.5663 87.1427 72.8635 87.2497 70.5642L86.2507 70.5177ZM90.9281 58.523C89.6452 58.0565 88.6236 58.2167 87.8181 58.6557C87.0437 59.0776 86.5056 59.7406 86.142 60.183L86.9145 60.818C87.2918 60.3589 87.7172 59.8495 88.2966 59.5337C88.8448 59.235 89.5672 59.0922 90.5863 59.4628L90.9281 58.523ZM86.142 60.183C85.9991 60.3569 85.8932 60.485 85.8021 60.5766C85.7581 60.621 85.7287 60.6452 85.7117 60.657C85.6934 60.6698 85.7065 60.6563 85.7464 60.6476C85.7962 60.6369 85.8606 60.6398 85.9209 60.6669C85.9731 60.6903 85.9908 60.7176 85.9819 60.7062C85.9729 60.6947 85.9506 60.6614 85.9192 60.591C85.8885 60.5221 85.8539 60.4291 85.816 60.3057L84.8601 60.5991C84.9476 60.8842 85.0506 61.1383 85.1934 61.3213C85.2687 61.4179 85.3719 61.5166 85.5117 61.5793C85.6599 61.6458 85.8143 61.656 85.9575 61.6251C86.2054 61.5716 86.3948 61.3989 86.5116 61.2814C86.6431 61.149 86.7819 60.9793 86.9145 60.818L86.142 60.183Z" fill="#424B54"/>
<path fill-rule="evenodd" clip-rule="evenodd" d="M109.732 52.7896C106.935 54.979 100.902 59.9416 99.1502 62.277C96.9608 65.1962 95.1363 75.0485 103.529 72.8591C106.261 72.1463 109.26 70.5489 111.076 69.8541C114.84 68.4148 118.125 69.1761 118.125 72.1293C118.125 75.8253 115.206 76.1703 112.135 77.9803C109.064 79.7903 105.592 80.9324 100.245 86.7253C91.4872 96.2128 102.069 99.8618 106.813 96.5777C110.863 93.7739 118.438 84.171 119.54 81.3619C119.826 80.6343 121.543 78.1814 121.774 77.6299C124.143 76.5352 125.238 75.8054 129.437 75.0756C130.567 74.8791 131.772 72.7131 129.437 72.1293C127.102 71.5455 122.382 72.3726 121.044 72.8591C120.436 70.4264 119.585 65.5611 115.206 65.5611C113.265 65.5611 110.727 66.2495 108.471 66.8614C104.367 67.9748 101.197 68.8346 104.259 64.8313C108.04 59.8868 111.125 57.4924 112.592 56.3547C112.965 56.0651 113.233 55.8569 113.381 55.7088C114.111 54.979 115.936 52.7896 109.732 52.7896ZM104.989 88.1849C106.74 85.8496 117.03 79.7922 119.22 79.7922L115.571 85.6306C111.828 90.3213 108.054 95.191 104.259 95.483C99.9036 95.818 102.201 91.8468 104.42 88.935C104.618 88.6753 104.809 88.424 104.989 88.1849Z" fill="#424B54"/>
<path d="M109.732 52.7896V52.2896C109.621 52.2896 109.512 52.327 109.424 52.3958L109.732 52.7896ZM99.1502 62.277L99.5502 62.577L99.1502 62.277ZM103.529 72.8591L103.655 73.3429L103.529 72.8591ZM100.245 86.7253L100.612 87.0645L100.245 86.7253ZM106.813 96.5777L107.098 96.9888L106.813 96.5777ZM121.774 77.6299L121.564 77.176L121.388 77.2575L121.313 77.4365L121.774 77.6299ZM129.437 75.0756L129.523 75.5682L129.437 75.0756ZM121.044 72.8591L120.559 72.9804L120.694 73.5186L121.215 73.329L121.044 72.8591ZM104.259 64.8313L103.862 64.5276L104.259 64.8313ZM113.381 55.7088L113.028 55.3552V55.3552L113.381 55.7088ZM119.22 79.7922L119.644 80.0572C119.74 79.9031 119.745 79.7088 119.657 79.5498C119.569 79.3909 119.401 79.2922 119.22 79.2922V79.7922ZM104.989 88.1849L105.389 88.4849L104.989 88.1849ZM104.259 95.483L104.297 95.9815H104.297L104.259 95.483ZM115.571 85.6306L115.962 85.9425L115.979 85.92L115.995 85.8956L115.571 85.6306ZM111.076 69.8541L111.255 70.3211L111.076 69.8541ZM119.54 81.3619L119.075 81.1792L119.54 81.3619ZM108.471 66.8614L108.602 67.344L108.471 66.8614ZM112.592 56.3547L112.285 55.9597V55.9597L112.592 56.3547ZM104.42 88.935L104.022 88.6319L104.42 88.935ZM109.424 52.3958C108.02 53.4947 105.806 55.2882 103.721 57.1012C101.651 58.9018 99.663 60.7598 98.7502 61.977L99.5502 62.577C100.389 61.4587 102.294 59.6678 104.377 57.8558C106.446 56.0563 108.647 54.2738 110.04 53.1833L109.424 52.3958ZM98.7502 61.977C98.1523 62.7741 97.6056 64.0022 97.2475 65.3406C96.8884 66.6829 96.7053 68.1869 96.8752 69.5458C97.0447 70.9022 97.5772 72.1813 98.7156 72.9536C99.8554 73.7268 101.482 73.9099 103.655 73.3429L103.403 72.3753C101.38 72.903 100.087 72.6756 99.277 72.126C98.4654 71.5755 98.0172 70.6197 97.8675 69.4218C97.718 68.2264 97.877 66.8568 98.2135 65.5991C98.551 64.3376 99.0534 63.2394 99.5502 62.577L98.7502 61.977ZM99.8774 86.3862C97.6519 88.7972 96.5928 90.9016 96.412 92.6785C96.228 94.4869 96.9611 95.8925 98.1567 96.8337C99.3336 97.7602 100.941 98.2278 102.545 98.2578C104.15 98.2879 105.809 97.8808 107.098 96.9888L106.528 96.1666C105.445 96.9165 104.003 97.2849 102.563 97.258C101.122 97.231 99.7421 96.8091 98.7752 96.048C97.8271 95.3015 97.2602 94.2212 97.4069 92.7797C97.5567 91.3067 98.459 89.3972 100.612 87.0645L99.8774 86.3862ZM121.984 78.0838C123.195 77.5241 124.023 77.0859 125.095 76.6841C126.152 76.2874 127.444 75.9294 129.523 75.5682L129.351 74.583C127.23 74.9516 125.875 75.3234 124.743 75.7477C123.626 76.1669 122.722 76.641 121.564 77.176L121.984 78.0838ZM129.523 75.5682C129.935 75.4965 130.312 75.2568 130.599 74.9647C130.889 74.6699 131.124 74.2837 131.223 73.8624C131.324 73.4337 131.286 72.9515 130.993 72.5254C130.705 72.1055 130.218 71.8092 129.558 71.6442L129.316 72.6144C129.824 72.7413 130.061 72.9347 130.169 73.0912C130.272 73.2416 130.3 73.4227 130.25 73.633C130.199 73.8507 130.067 74.0794 129.886 74.2642C129.701 74.4517 129.504 74.5565 129.351 74.583L129.523 75.5682ZM129.558 71.6442C128.296 71.3286 126.453 71.4009 124.808 71.5963C123.154 71.7927 121.595 72.1266 120.873 72.3892L121.215 73.329C121.831 73.1051 123.301 72.7822 124.926 72.5893C126.558 72.3955 128.243 72.3462 129.316 72.6144L129.558 71.6442ZM121.529 72.7378C121.234 71.5576 120.853 69.6494 119.977 68.0569C119.084 66.4325 117.633 65.0611 115.206 65.0611V66.0611C117.157 66.0611 118.322 67.1223 119.101 68.5388C119.897 69.9871 120.246 71.7279 120.559 72.9804L121.529 72.7378ZM113.735 56.0623C113.927 55.8701 114.215 55.5593 114.425 55.1937C114.629 54.8391 114.815 54.3325 114.628 53.8073C114.437 53.2722 113.925 52.9025 113.172 52.666C112.411 52.4272 111.304 52.2896 109.732 52.2896V53.2896C111.263 53.2896 112.253 53.4256 112.872 53.6201C113.499 53.8169 113.649 54.0402 113.686 54.1436C113.726 54.257 113.708 54.4346 113.558 54.6958C113.414 54.9459 113.2 55.1825 113.028 55.3552L113.735 56.0623ZM119.22 79.2922C118.858 79.2922 118.391 79.4115 117.889 79.5843C117.372 79.7621 116.767 80.0155 116.108 80.3218C114.789 80.9348 113.228 81.7733 111.686 82.682C110.144 83.591 108.611 84.5754 107.351 85.4825C106.109 86.3767 105.078 87.2326 104.589 87.8849L105.389 88.4849C105.775 87.9696 106.687 87.1925 107.935 86.2942C109.165 85.4087 110.671 84.4409 112.194 83.5436C113.717 82.6461 115.248 81.8242 116.53 81.2286C117.171 80.9305 117.742 80.6924 118.214 80.5298C118.701 80.3622 119.034 80.2922 119.22 80.2922V79.2922ZM104.297 95.9815C106.381 95.8212 108.383 94.4185 110.283 92.5642C112.197 90.6972 114.098 88.2782 115.962 85.9425L115.18 85.3188C113.301 87.6738 111.443 90.035 109.585 91.8485C107.714 93.6747 105.931 94.8528 104.22 94.9844L104.297 95.9815ZM115.995 85.8956L119.644 80.0572L118.796 79.5272L115.147 85.3656L115.995 85.8956ZM103.655 73.3429C105.061 72.9762 106.523 72.3856 107.846 71.8081C109.19 71.2218 110.36 70.6634 111.255 70.3211L110.898 69.3871C109.976 69.7397 108.739 70.3273 107.446 70.8916C106.133 71.4647 104.73 72.0292 103.403 72.3753L103.655 73.3429ZM111.255 70.3211C113.078 69.6238 114.722 69.4866 115.871 69.8242C116.439 69.9911 116.87 70.2684 117.161 70.6355C117.448 70.9998 117.625 71.4877 117.625 72.1293H118.625C118.625 71.2943 118.391 70.5796 117.945 70.0155C117.502 69.4543 116.877 69.0775 116.153 68.8648C114.719 68.4433 112.838 68.6451 110.898 69.3871L111.255 70.3211ZM117.625 72.1293C117.625 72.9852 117.457 73.613 117.184 74.1059C116.91 74.6002 116.511 74.9935 115.996 75.3516C115.475 75.7138 114.856 76.0268 114.147 76.373C113.448 76.7144 112.669 77.0849 111.881 77.5495L112.389 78.411C113.136 77.9707 113.874 77.6193 114.586 77.2715C115.288 76.9284 115.974 76.5848 116.567 76.1725C117.166 75.7561 117.689 75.257 118.058 74.5906C118.428 73.9228 118.625 73.1215 118.625 72.1293H117.625ZM111.881 77.5495C108.852 79.3345 105.289 80.5237 99.8774 86.3862L100.612 87.0645C105.895 81.3412 109.275 80.2461 112.389 78.411L111.881 77.5495ZM107.098 96.9888C109.186 95.5431 112.13 92.392 114.669 89.2884C115.945 87.7289 117.13 86.1669 118.067 84.8151C118.995 83.4761 119.707 82.3068 120.006 81.5446L119.075 81.1792C118.823 81.8216 118.174 82.906 117.245 84.2453C116.326 85.5717 115.157 87.1124 113.895 88.6552C111.358 91.7562 108.49 94.8084 106.528 96.1666L107.098 96.9888ZM120.006 81.5446C120.06 81.4074 120.199 81.1519 120.406 80.8068C120.607 80.4725 120.852 80.0857 121.099 79.699C121.344 79.315 121.592 78.9295 121.792 78.607C121.984 78.2985 122.159 78.0054 122.235 77.8233L121.313 77.4365C121.274 77.5302 121.147 77.7505 120.943 78.0797C120.747 78.3949 120.505 78.7716 120.256 79.1607C120.009 79.5471 119.757 79.9444 119.549 80.2919C119.346 80.6287 119.164 80.9526 119.075 81.1792L120.006 81.5446ZM115.206 65.0611C113.183 65.0611 110.572 65.7734 108.34 66.3788L108.602 67.344C110.881 66.7257 113.346 66.0611 115.206 66.0611V65.0611ZM108.34 66.3788C107.31 66.6583 106.357 66.9166 105.548 67.0877C104.719 67.2628 104.116 67.3283 103.756 67.2713C103.673 67.2581 103.618 67.2403 103.583 67.2245C103.567 67.2168 103.556 67.2103 103.55 67.206C103.547 67.2039 103.545 67.2022 103.544 67.2012C103.543 67.2002 103.543 67.1997 103.543 67.1997C103.543 67.1997 103.543 67.1999 103.543 67.2003C103.543 67.2005 103.543 67.2007 103.543 67.2009C103.543 67.201 103.544 67.2011 103.544 67.2011C103.544 67.2011 103.543 67.2009 103.543 67.2006C103.543 67.2003 103.543 67.1998 103.543 67.1991C103.542 67.1976 103.541 67.1951 103.541 67.1913C103.537 67.176 103.532 67.1379 103.543 67.0676C103.565 66.9202 103.644 66.6903 103.83 66.3561C104.012 66.0274 104.282 65.6241 104.656 65.135L103.862 64.5276C103.47 65.0393 103.17 65.4849 102.955 65.871C102.744 66.2517 102.601 66.6027 102.554 66.9203C102.505 67.2484 102.554 67.5852 102.786 67.8532C103.004 68.1058 103.313 68.2135 103.6 68.2589C104.162 68.3481 104.93 68.2402 105.754 68.0661C106.598 67.8879 107.58 67.6212 108.602 67.344L108.34 66.3788ZM104.656 65.135C108.401 60.2381 111.449 57.8739 112.898 56.7497L112.285 55.9597C110.801 57.111 107.679 59.5355 103.862 64.5276L104.656 65.135ZM112.898 56.7497C113.257 56.4712 113.559 56.2386 113.735 56.0623L113.028 55.3552C112.908 55.4751 112.673 55.6589 112.285 55.9597L112.898 56.7497ZM104.22 94.9844C103.172 95.0651 102.694 94.8677 102.492 94.6611C102.309 94.4736 102.222 94.1363 102.361 93.5403C102.497 92.9561 102.827 92.2485 103.276 91.4882C103.722 90.7343 104.27 89.957 104.817 89.2381L104.022 88.6319C103.46 89.3689 102.888 90.18 102.416 90.9791C101.947 91.7719 101.558 92.5821 101.387 93.3128C101.219 94.0317 101.235 94.8063 101.777 95.3602C102.3 95.895 103.168 96.0683 104.297 95.9815L104.22 94.9844ZM104.817 89.2381C105.015 88.9787 105.208 88.7258 105.389 88.4849L104.589 87.8849C104.411 88.1222 104.22 88.3719 104.022 88.6319L104.817 89.2381Z" fill="#424B54"/>
</svg>
