<svg width="142" height="148" viewBox="0 0 142 148" fill="none" xmlns="http://www.w3.org/2000/svg">
<rect width="142" height="148" fill="#130000"/>
<path fill-rule="evenodd" clip-rule="evenodd" d="M31.5252 60.8824C28.9709 58.693 21.4833 59.4411 16.5206 69.0744C11.558 78.7078 15.1427 82.6166 16.9671 84.4411C19.6237 87.0977 21.926 87.6799 27.955 73.4941C29.3543 70.2015 30.2934 68.1422 31.436 65.9743C32.2347 64.4588 33.1189 62.9581 33.7759 62.0383C35.7024 59.3412 34.5226 63.9648 32.6811 73.5974C31.2829 80.9111 31.3449 89.7918 31.4641 93.2478C31.9506 94.9507 35.3782 99.4127 36.0877 95.9449C36.718 92.8647 36.7044 77.9174 37.69 71.2639C38.4198 65.5471 42.6042 53.6994 46.1056 47.3968C48.0321 43.9291 47.6468 42.0026 42.699 40.076C41.0967 39.4521 40.7725 42.7732 39.0111 46.1718C37.0804 49.8972 35.2122 53.5616 31.5252 60.8824ZM21.3868 71.2639C24.0141 65.1336 28.0358 62.8712 29.7387 62.5063C30.0306 63.3821 28.4007 66.2769 27.5493 67.6149C25.6032 71.1423 22.2217 79.2188 21.346 80.3864C20.2513 81.8461 18.1027 78.9268 21.3868 71.2639Z" fill="white"/>
<path d="M31.5252 60.8824L31.1998 61.262L31.6846 61.6775L31.9718 61.1073L31.5252 60.8824ZM16.9671 84.4411L16.6136 84.7946L16.9671 84.4411ZM27.955 73.4941L27.4948 73.2985L27.955 73.4941ZM33.7759 62.0383L33.3691 61.7477L33.7759 62.0383ZM31.4641 93.2478L30.9644 93.265L30.9665 93.3263L30.9833 93.3852L31.4641 93.2478ZM36.0877 95.9449L36.5776 96.0452L36.0877 95.9449ZM37.69 71.2639L38.1847 71.3372L38.186 71.3272L37.69 71.2639ZM46.1056 47.3968L46.5427 47.6396L46.1056 47.3968ZM42.699 40.076L42.8805 39.6101L42.699 40.076ZM29.7387 62.5063L30.213 62.3482L30.0715 61.9236L29.6339 62.0174L29.7387 62.5063ZM21.3868 71.2639L20.9272 71.067L21.3868 71.2639ZM21.346 80.3864L20.946 80.0864L21.346 80.3864ZM27.5493 67.6149L27.1275 67.3465L27.1191 67.3597L27.1115 67.3734L27.5493 67.6149ZM31.436 65.9743L31.8783 66.2074L31.436 65.9743ZM32.6811 73.5974L33.1722 73.6913L32.6811 73.5974ZM39.0111 46.1718L39.455 46.4018L39.0111 46.1718ZM31.8506 60.5028C30.3839 59.2456 27.6567 58.9215 24.7414 60.0802C21.7978 61.2502 18.6021 63.9421 16.0762 68.8455L16.9651 69.3034C19.4018 64.5734 22.4313 62.0745 25.1107 61.0095C27.8185 59.9332 30.1122 60.3298 31.1998 61.262L31.8506 60.5028ZM16.0762 68.8455C13.5609 73.728 13.1748 77.2325 13.7093 79.7885C14.2441 82.3458 15.6846 83.8656 16.6136 84.7946L17.3207 84.0875C16.4252 83.1921 15.1611 81.8453 14.6881 79.5837C14.2149 77.3209 14.5177 74.0542 16.9651 69.3034L16.0762 68.8455ZM16.6136 84.7946C17.2807 85.4617 17.9989 86.0792 18.8123 86.3249C19.6805 86.5872 20.5713 86.4051 21.5039 85.6778C22.4106 84.9706 23.3853 83.7301 24.5003 81.8143C25.6204 79.8899 26.904 77.2452 28.4151 73.6896L27.4948 73.2985C25.9914 76.8359 24.7264 79.438 23.6361 81.3112C22.5408 83.193 21.6434 84.3008 20.8889 84.8892C20.1602 85.4575 19.6005 85.5183 19.1015 85.3676C18.5477 85.2003 17.9819 84.7487 17.3207 84.0875L16.6136 84.7946ZM30.9833 93.3852C31.1254 93.8823 31.4625 94.53 31.8755 95.1519C32.2926 95.78 32.8159 96.4251 33.3601 96.909C33.6321 97.1509 33.9219 97.3637 34.2176 97.5116C34.5103 97.658 34.8424 97.7575 35.184 97.7235C35.9538 97.6467 36.3876 96.9738 36.5776 96.0452L35.5979 95.8447C35.4331 96.65 35.1725 96.7197 35.0848 96.7284C34.9976 96.7371 34.8603 96.715 34.6649 96.6173C34.4726 96.5211 34.2557 96.3672 34.0246 96.1617C33.5623 95.7507 33.0931 95.1778 32.7086 94.5987C32.3199 94.0134 32.0461 93.4647 31.9449 93.1105L30.9833 93.3852ZM36.5776 96.0452C36.7441 95.2312 36.8625 93.6792 36.9647 91.7511C37.0677 89.8085 37.156 87.4385 37.2552 84.9644C37.4542 80.001 37.6966 74.6315 38.1846 71.3372L37.1954 71.1907C36.6978 74.5498 36.4542 79.9806 36.256 84.9243C36.1566 87.4038 36.0686 89.764 35.9661 91.6982C35.8628 93.647 35.7465 95.1185 35.5979 95.8447L36.5776 96.0452ZM38.186 71.3272C38.544 68.5227 39.7581 64.1718 41.33 59.7164C42.8999 55.2663 44.8107 50.7573 46.5427 47.6396L45.6685 47.154C43.8991 50.3389 41.967 54.9051 40.3869 59.3837C38.8088 63.857 37.5658 68.2884 37.1941 71.2006L38.186 71.3272ZM46.5427 47.6396C47.5116 45.8956 48.0122 44.3574 47.4428 42.9688C46.8826 41.6026 45.3614 40.5761 42.8805 39.6101L42.5176 40.542C44.9845 41.5025 46.1298 42.4026 46.5176 43.3482C46.8961 44.2714 46.6261 45.4303 45.6685 47.154L46.5427 47.6396ZM29.6339 62.0174C27.7448 62.4222 23.6064 64.8155 20.9272 71.067L21.8464 71.4609C24.4217 65.4517 28.3268 63.3202 29.8435 62.9952L29.6339 62.0174ZM20.9272 71.067C19.2668 74.9413 18.9446 77.6917 19.2318 79.3323C19.3716 80.131 19.6774 80.7775 20.1656 81.0796C20.4275 81.2416 20.7329 81.2952 21.0361 81.2086C21.3271 81.1254 21.5644 80.9286 21.746 80.6864L20.946 80.0864C20.8539 80.2092 20.7846 80.2404 20.7613 80.2471C20.7504 80.2502 20.734 80.2553 20.6918 80.2292C20.5719 80.155 20.3405 79.8665 20.2168 79.1599C19.9771 77.7901 20.2227 75.2495 21.8464 71.4609L20.9272 71.067ZM21.746 80.6864C22.0008 80.3466 22.3989 79.5711 22.8615 78.6114C23.3344 77.6299 23.9021 76.3962 24.5005 75.0944C25.7023 72.4804 27.0251 69.6001 27.9871 67.8565L27.1115 67.3734C26.1274 69.1571 24.7863 72.0788 23.592 74.6767C22.9923 75.981 22.4288 77.2057 21.9606 78.1773C21.482 79.1705 21.129 79.8424 20.946 80.0864L21.746 80.6864ZM27.9711 67.8834C28.4041 67.2029 29.0354 66.1265 29.524 65.1026C29.7677 64.5919 29.9827 64.0802 30.1183 63.6299C30.186 63.4048 30.2376 63.1832 30.2603 62.9773C30.2824 62.7777 30.2819 62.5549 30.213 62.3482L29.2644 62.6644C29.2684 62.6766 29.2809 62.7359 29.2664 62.8675C29.2525 62.9927 29.218 63.1514 29.1607 63.3417C29.0461 63.7224 28.8552 64.1823 28.6215 64.6719C28.1553 65.6489 27.5459 66.689 27.1275 67.3465L27.9711 67.8834ZM28.4151 73.6896C29.8124 70.402 30.7452 68.3574 31.8783 66.2074L30.9937 65.7411C29.8416 67.9271 28.8963 70.0009 27.4948 73.2985L28.4151 73.6896ZM31.8783 66.2074C32.6726 64.7002 33.5448 63.2221 34.1828 62.3289L33.3691 61.7477C32.6931 62.694 31.7968 64.2173 30.9937 65.7411L31.8783 66.2074ZM34.1828 62.3289C34.4214 61.9948 34.5767 61.827 34.6601 61.7636C34.7067 61.7281 34.6688 61.7737 34.5676 61.7776C34.4117 61.7837 34.3002 61.6911 34.2559 61.6223C34.23 61.582 34.2406 61.5736 34.2511 61.651C34.2602 61.7182 34.2652 61.8184 34.2618 61.9585C34.2551 62.2382 34.2166 62.6252 34.1464 63.1246C33.8643 65.1313 33.1146 68.6668 32.19 73.5035L33.1722 73.6913C34.0891 68.8954 34.85 65.3028 35.1366 63.2638C35.2086 62.7518 35.2534 62.32 35.2615 61.9826C35.2656 61.8141 35.2609 61.6562 35.242 61.5168C35.2246 61.3877 35.1889 61.2243 35.0972 61.0817C34.9872 60.9104 34.7904 60.7682 34.5286 60.7784C34.3214 60.7865 34.1569 60.89 34.055 60.9674C33.8414 61.1298 33.612 61.4075 33.3691 61.7477L34.1828 62.3289ZM32.19 73.5035C30.781 80.8741 30.8449 89.8004 30.9644 93.265L31.9638 93.2306C31.8449 89.7831 31.7849 80.9481 33.1722 73.6913L32.19 73.5035ZM42.8805 39.6101C42.6049 39.5028 42.322 39.4681 42.0417 39.5319C41.7643 39.5951 41.5345 39.7446 41.3451 39.9297C40.9836 40.2828 40.7058 40.8301 40.4547 41.4195C39.9231 42.6671 39.4404 44.2567 38.5672 45.9417L39.455 46.4018C40.3431 44.6882 40.9032 42.918 41.3747 41.8114C41.6251 41.2237 41.8388 40.8453 42.0439 40.645C42.1377 40.5534 42.2099 40.5192 42.2638 40.5069C42.3148 40.4953 42.3926 40.4933 42.5176 40.542L42.8805 39.6101ZM38.5672 45.9417C36.6352 49.6696 34.766 53.336 31.0786 60.6575L31.9718 61.1073C35.6584 53.7873 37.5256 50.1248 39.455 46.4018L38.5672 45.9417Z" fill="white"/>
<path d="M50.7672 86.2656C45.2207 83.6383 45.3481 68.7504 48.9427 60.7226C57.2809 58.5332 53.7409 72.0345 54.1058 80.0624C54.3977 86.4846 58.363 80.7922 60.3091 77.1432L60.674 80.0624C57.3899 88.4551 52.5187 87.4333 50.7672 86.2656Z" fill="white"/>
<path d="M50.7672 50.5054C52.1233 50.2621 54.6167 50.5054 53.7409 53.4246C52.6462 57.0736 49.2531 53.4246 50.7672 50.5054Z" fill="white"/>
<path d="M50.7672 86.2656C45.2207 83.6383 45.3481 68.7504 48.9427 60.7226C57.2809 58.5332 53.7409 72.0345 54.1058 80.0624C54.3977 86.4846 58.363 80.7922 60.3091 77.1432L60.674 80.0624C57.3899 88.4551 52.5187 87.4333 50.7672 86.2656Z" stroke="white" stroke-linecap="round" stroke-linejoin="round"/>
<path d="M50.7672 50.5054C52.1233 50.2621 54.6167 50.5054 53.7409 53.4246C52.6462 57.0736 49.2531 53.4246 50.7672 50.5054Z" stroke="white" stroke-linecap="round" stroke-linejoin="round"/>
<path fill-rule="evenodd" clip-rule="evenodd" d="M65.4175 65.1015C73.4427 57.3216 78.2434 59.6279 79.3381 61.4524C79.6726 62.5418 79.9773 62.1709 80.5283 61.5005C81.2692 60.599 82.4553 59.1558 84.7573 59.9929C88.7712 61.4525 87.3116 65.4664 86.5818 67.2909C85.852 69.1154 82.5679 77.5081 86.5818 75.3187C90.5957 73.1293 92.0553 73.4942 93.15 74.5889C94.2447 75.6836 93.5149 76.4134 89.501 77.5081C85.4871 78.6028 82.9328 81.522 81.8381 88.82C80.7434 96.1181 78.5948 107.43 76.4053 113.998C74.2159 120.566 65.4175 122.756 63.9579 109.984C62.7902 99.7671 73.2021 87.2388 78.554 82.2518C80.4401 78.21 80.5355 76.158 80.7503 71.5409C80.8263 69.9054 80.9174 67.9481 81.1083 65.4664C79.527 66.5611 72.3507 74.224 68.3367 79.3326C62.1012 87.2686 55.2547 74.9537 65.4175 65.1015ZM75.6347 64.3717C74.4184 65.1015 71.2559 67.3639 68.3367 70.575C64.6877 74.5889 65.4175 77.1024 70.5261 72.7236C75.6347 68.3448 77.8241 65.4664 78.9189 64.0068C80.0136 62.5472 77.8242 62.8469 75.6347 64.3717ZM74.4992 109.619C75.9588 106.7 79.2838 94.0503 80.0136 88.0902C76.7294 90.2796 66.1473 104.511 67.9718 112.539C69.7963 120.566 72.6747 113.268 74.4992 109.619Z" fill="white"/>
<path d="M79.3381 61.4524L79.8161 61.3057L79.7982 61.2474L79.7669 61.1952L79.3381 61.4524ZM65.4175 65.1015L65.0695 64.7425L65.4175 65.1015ZM68.3367 79.3326L67.9436 79.0237L68.3367 79.3326ZM81.1083 65.4664L81.6068 65.5047C81.6216 65.3124 81.5244 65.1287 81.3571 65.0327C81.1898 64.9367 80.9822 64.9455 80.8237 65.0553L81.1083 65.4664ZM78.554 82.2518L78.8948 82.6176L78.9659 82.5514L79.007 82.4633L78.554 82.2518ZM63.9579 109.984L64.4547 109.928L63.9579 109.984ZM84.7573 59.9929L84.9281 59.523L84.7573 59.9929ZM75.6347 64.3717L75.892 64.8004L75.9066 64.7917L75.9205 64.782L75.6347 64.3717ZM68.3367 70.575L68.7067 70.9113L68.3367 70.575ZM80.0136 88.0902L80.5098 88.151L80.6422 87.0702L79.7362 87.6742L80.0136 88.0902ZM80.7503 71.5409L81.2497 71.5642L80.7503 71.5409ZM80.5283 61.5005L80.9146 61.818V61.818L80.5283 61.5005ZM79.7669 61.1952C79.1105 60.1013 77.4446 58.997 74.941 59.1766C72.4397 59.356 69.1284 60.8076 65.0695 64.7425L65.7655 65.4605C69.7318 61.6155 72.8334 60.3303 75.0125 60.174C77.1892 60.0179 78.471 60.979 78.9094 61.7096L79.7669 61.1952ZM65.0695 64.7425C59.8781 69.7752 58.9553 75.5179 60.2585 79.0603C60.9074 80.8243 62.1467 82.1105 63.7508 82.3375C65.3591 82.5652 67.1145 81.6974 68.7299 79.6415L67.9436 79.0237C66.4412 80.9358 65.0025 81.5047 63.8909 81.3474C62.7751 81.1895 61.7688 80.2692 61.197 78.715C60.0587 75.6209 60.794 70.28 65.7655 65.4605L65.0695 64.7425ZM68.7299 79.6415C70.7255 77.1018 73.5132 73.9197 76.0015 71.2341C77.2451 69.8919 78.4109 68.677 79.3626 67.731C80.3268 66.7726 81.0405 66.1214 81.3929 65.8775L80.8237 65.0553C80.3854 65.3587 79.6091 66.0759 78.6576 67.0218C77.6935 67.9801 76.5179 69.2055 75.268 70.5545C72.7694 73.2511 69.962 76.4549 67.9436 79.0237L68.7299 79.6415ZM78.2131 81.886C75.5102 84.4046 71.5393 88.8169 68.3864 93.8929C65.2437 98.9524 62.8576 104.76 63.4612 110.041L64.4547 109.928C63.8905 104.991 66.1266 99.4262 69.2358 94.4205C72.3349 89.4313 76.2458 85.086 78.8948 82.6176L78.2131 81.886ZM63.4612 110.041C64.1987 116.495 66.8366 119.482 69.8652 119.742C72.827 119.996 75.7391 117.578 76.8797 114.156L75.931 113.84C74.8822 116.987 72.3004 118.947 69.9507 118.745C67.6679 118.549 65.1767 116.246 64.4547 109.928L63.4612 110.041ZM76.8797 114.156C79.0835 107.545 81.2371 96.197 82.3325 88.8942L81.3436 88.7459C80.2496 96.0391 78.106 107.315 75.931 113.84L76.8797 114.156ZM82.3325 88.8942C82.874 85.2843 83.7688 82.8179 84.981 81.1294C86.1816 79.4571 87.7194 78.5123 89.6325 77.9905L89.3694 77.0257C87.2687 77.5987 85.5223 78.6608 84.1687 80.5462C82.8266 82.4156 81.8968 85.0578 81.3436 88.7459L82.3325 88.8942ZM89.6325 77.9905C90.6435 77.7148 91.4606 77.4586 92.0997 77.2101C92.7307 76.9647 93.2246 76.7132 93.5613 76.4326C93.9068 76.1447 94.1481 75.7696 94.1039 75.3055C94.064 74.8871 93.7991 74.5309 93.5035 74.2353L92.7964 74.9425C93.0482 75.1942 93.1026 75.3398 93.1084 75.4003C93.1098 75.4151 93.123 75.4962 92.9211 75.6644C92.7105 75.8399 92.3377 76.0446 91.7372 76.2781C91.1447 76.5085 90.3654 76.7541 89.3694 77.0257L89.6325 77.9905ZM93.5035 74.2353C92.8788 73.6106 92.11 73.1695 90.9379 73.2228C89.8176 73.2737 88.3671 73.7753 86.3423 74.8798L86.8212 75.7577C88.8103 74.6727 90.0966 74.2621 90.9833 74.2217C91.8181 74.1838 92.3265 74.4725 92.7964 74.9425L93.5035 74.2353ZM86.3423 74.8798C85.8711 75.1368 85.5877 75.1907 85.4394 75.1788C85.3432 75.1711 85.2904 75.1397 85.236 75.0271C85.1644 74.8789 85.1167 74.6207 85.1253 74.233C85.1337 73.856 85.1937 73.4055 85.2932 72.9081C85.6934 70.907 86.6793 68.3934 87.046 67.4766L86.1175 67.1052C85.7545 68.0129 84.7334 70.6078 84.3126 72.712C84.2068 73.2408 84.1357 73.7539 84.1255 74.2108C84.1156 74.6569 84.162 75.1028 84.3356 75.4621C84.5263 75.8569 84.8698 76.1363 85.3594 76.1756C85.7969 76.2107 86.289 76.048 86.8212 75.7577L86.3423 74.8798ZM87.046 67.4766C87.4092 66.5685 87.9975 65.0196 87.9481 63.4889C87.9231 62.7124 87.7339 61.9179 87.2514 61.2106C86.7668 60.5003 86.0132 59.9175 84.9281 59.523L84.5864 60.4628C85.5083 60.798 86.0775 61.2643 86.4253 61.7742C86.7752 62.287 86.9281 62.8837 86.9487 63.5212C86.9905 64.8184 86.4841 66.1887 86.1175 67.1052L87.046 67.4766ZM75.3775 63.9429C74.123 64.6956 70.9216 66.9883 67.9668 70.2387L68.7067 70.9113C71.5903 67.7394 74.7138 65.5073 75.892 64.8004L75.3775 63.9429ZM67.9668 70.2387C67.0348 71.2638 66.3653 72.2113 65.9736 72.9967C65.7783 73.3882 65.6428 73.7578 65.5861 74.0889C65.5312 74.4091 65.5382 74.766 65.7235 75.0619C65.9282 75.3888 66.2705 75.5202 66.6174 75.5263C66.9475 75.5321 67.3199 75.4301 67.7151 75.2582C68.5118 74.9116 69.5594 74.2107 70.8515 73.1032L70.2007 72.344C68.9385 73.4259 67.9792 74.0528 67.3163 74.3411C66.9817 74.4866 66.7611 74.5287 66.6351 74.5265C66.5259 74.5246 66.5489 74.4957 66.5711 74.5312C66.574 74.5358 66.5353 74.4701 66.5717 74.2577C66.6062 74.0562 66.6988 73.7832 66.8684 73.443C67.2065 72.7651 67.8141 71.8931 68.7067 70.9113L67.9668 70.2387ZM70.8515 73.1032C75.9941 68.6953 78.2078 65.7881 79.3189 64.3068L78.5189 63.7068C77.4405 65.1446 75.2754 67.9943 70.2007 72.344L70.8515 73.1032ZM79.3189 64.3068C79.473 64.1012 79.5943 63.8949 79.6586 63.6915C79.7228 63.4882 79.7462 63.2305 79.6121 62.99C79.4772 62.7482 79.247 62.6382 79.0536 62.5923C78.8611 62.5466 78.6507 62.5491 78.4481 62.5737C77.6509 62.6705 76.4781 63.175 75.349 63.9614L75.9205 64.782C76.9808 64.0435 77.9974 63.6358 78.5686 63.5664C78.7081 63.5495 78.7885 63.5571 78.8226 63.5652C78.8558 63.5731 78.7881 63.5656 78.7388 63.4772C78.6902 63.39 78.7221 63.3364 78.7051 63.3901C78.6881 63.4438 78.6383 63.5474 78.5189 63.7068L79.3189 64.3068ZM79.5173 88.0295C79.1564 90.9762 78.1494 95.6032 77.046 99.8699C75.9382 104.154 74.7539 107.992 74.052 109.396L74.9465 109.843C75.7042 108.328 76.9121 104.381 78.0141 100.12C79.1205 95.8423 80.1409 91.1643 80.5098 88.151L79.5173 88.0295ZM74.052 109.396C73.5806 110.339 73.0796 111.437 72.5222 112.514C71.9679 113.584 71.406 114.534 70.8677 115.119C70.5973 115.413 70.3709 115.572 70.1951 115.632C70.0513 115.682 69.9333 115.672 69.7912 115.572C69.6196 115.453 69.3969 115.187 69.156 114.66C68.9187 114.141 68.6833 113.413 68.4594 112.428L67.4843 112.649C67.7165 113.671 67.9702 114.471 68.2466 115.076C68.5194 115.672 68.8352 116.124 69.2185 116.392C69.6314 116.681 70.0848 116.728 70.5206 116.578C70.9244 116.439 71.2859 116.141 71.6034 115.796C72.2408 115.104 72.8546 114.047 73.4102 112.974C73.9626 111.907 74.5057 110.725 74.9465 109.843L74.052 109.396ZM68.4594 112.428C68.0314 110.545 68.3239 108.249 69.0987 105.79C69.8709 103.339 71.1066 100.774 72.5086 98.3775C73.9096 95.9822 75.4689 93.7676 76.8792 92.0189C78.3013 90.2554 79.5382 89.0081 80.2909 88.5063L79.7362 87.6742C78.8469 88.2671 77.5294 89.6197 76.1008 91.3912C74.6602 93.1774 73.0723 95.4329 71.6454 97.8726C70.2193 100.311 68.9464 102.946 68.1449 105.489C67.3461 108.025 67 110.519 67.4843 112.649L68.4594 112.428ZM80.6097 65.428C80.4182 67.9179 80.3269 69.8817 80.2508 71.5177L81.2497 71.5642C81.3258 69.9291 81.4165 67.9783 81.6068 65.5047L80.6097 65.428ZM80.2508 71.5177C80.143 73.8354 80.0663 75.4672 79.7868 77.0237C79.5096 78.5675 79.03 80.0493 78.1009 82.0404L79.007 82.4633C79.964 80.4125 80.4753 78.8474 80.771 77.2005C81.0645 75.5663 81.1428 73.8635 81.2497 71.5642L80.2508 71.5177ZM84.9281 59.523C83.6453 59.0565 82.6237 59.2167 81.8181 59.6557C81.0438 60.0776 80.5056 60.7406 80.142 61.183L80.9146 61.818C81.2919 61.3589 81.7172 60.8495 82.2966 60.5337C82.8448 60.235 83.5673 60.0922 84.5864 60.4628L84.9281 59.523ZM80.142 61.183C79.9992 61.3569 79.8933 61.485 79.8022 61.5766C79.7581 61.621 79.7288 61.6452 79.7118 61.657C79.6935 61.6698 79.7066 61.6563 79.7465 61.6476C79.7962 61.6369 79.8606 61.6398 79.921 61.6669C79.9731 61.6903 79.9908 61.7176 79.9819 61.7062C79.9729 61.6947 79.9507 61.6614 79.9193 61.591C79.8886 61.5221 79.854 61.4291 79.8161 61.3057L78.8601 61.5991C78.9476 61.8842 79.0507 62.1383 79.1935 62.3213C79.2688 62.4179 79.3719 62.5166 79.5118 62.5793C79.6599 62.6458 79.8144 62.656 79.9575 62.6251C80.2055 62.5716 80.3949 62.3989 80.5117 62.2814C80.6432 62.149 80.782 61.9793 80.9146 61.818L80.142 61.183Z" fill="white"/>
<path fill-rule="evenodd" clip-rule="evenodd" d="M103.732 53.7896C100.935 55.979 94.9017 60.9416 93.1501 63.277C90.9607 66.1962 89.1362 76.0485 97.529 73.8591C100.261 73.1463 103.26 71.5489 105.076 70.8541C108.84 69.4148 112.125 70.1761 112.125 73.1293C112.125 76.8253 109.206 77.1703 106.135 78.9803C103.064 80.7903 99.592 81.9324 94.2448 87.7253C85.4872 97.2128 96.0693 100.862 100.813 97.5777C104.863 94.7739 112.438 85.171 113.54 82.3619C113.826 81.6343 115.543 79.1814 115.774 78.6299C118.143 77.5352 119.238 76.8054 123.437 76.0756C124.567 75.8791 125.772 73.7131 123.437 73.1293C121.102 72.5455 116.382 73.3726 115.044 73.8591C114.436 71.4264 113.585 66.5611 109.206 66.5611C107.265 66.5611 104.727 67.2495 102.471 67.8614C98.3669 68.9748 95.1974 69.8346 98.2587 65.8313C102.04 60.8868 105.125 58.4924 106.592 57.3547C106.965 57.0651 107.233 56.8569 107.381 56.7088C108.111 55.979 109.936 53.7896 103.732 53.7896ZM98.9885 89.1849C100.74 86.8496 111.03 80.7922 113.22 80.7922L109.571 86.6306C105.828 91.3213 102.054 96.191 98.2588 96.483C93.9036 96.818 96.2004 92.8468 98.4197 89.935C98.6177 89.6753 98.8092 89.424 98.9885 89.1849Z" fill="white"/>
<path d="M103.732 53.7896V53.2896C103.621 53.2896 103.512 53.327 103.424 53.3958L103.732 53.7896ZM93.1501 63.277L93.5501 63.577L93.1501 63.277ZM97.529 73.8591L97.6552 74.3429L97.529 73.8591ZM94.2448 87.7253L94.6122 88.0645L94.2448 87.7253ZM100.813 97.5777L101.098 97.9888L100.813 97.5777ZM115.774 78.6299L115.564 78.176L115.388 78.2575L115.313 78.4365L115.774 78.6299ZM123.437 76.0756L123.523 76.5682L123.437 76.0756ZM115.044 73.8591L114.559 73.9804L114.694 74.5186L115.215 74.329L115.044 73.8591ZM98.2587 65.8313L97.8616 65.5276L98.2587 65.8313ZM107.381 56.7088L107.028 56.3552V56.3552L107.381 56.7088ZM113.22 80.7922L113.644 81.0572C113.74 80.9031 113.745 80.7088 113.657 80.5498C113.569 80.3909 113.401 80.2922 113.22 80.2922V80.7922ZM98.9885 89.1849L99.3885 89.4849L98.9885 89.1849ZM98.2588 96.483L98.2971 96.9815H98.2971L98.2588 96.483ZM109.571 86.6306L109.961 86.9425L109.979 86.92L109.995 86.8956L109.571 86.6306ZM105.076 70.8541L105.255 71.3211L105.076 70.8541ZM113.54 82.3619L113.075 82.1792L113.54 82.3619ZM102.471 67.8614L102.602 68.344L102.471 67.8614ZM106.592 57.3547L106.285 56.9597V56.9597L106.592 57.3547ZM98.4197 89.935L98.0221 89.6319L98.4197 89.935ZM103.424 53.3958C102.02 54.4947 99.8055 56.2882 97.7208 58.1012C95.6505 59.9018 93.663 61.7598 92.7501 62.977L93.5501 63.577C94.3888 62.4587 96.2936 60.6678 98.3771 58.8558C100.446 57.0563 102.647 55.2738 104.04 54.1833L103.424 53.3958ZM92.7501 62.977C92.1523 63.7741 91.6055 65.0022 91.2474 66.3406C90.8883 67.6829 90.7052 69.1869 90.8751 70.5458C91.0447 71.9022 91.5771 73.1813 92.7155 73.9536C93.8554 74.7268 95.4818 74.9099 97.6552 74.3429L97.4027 73.3753C95.3798 73.903 94.087 73.6756 93.2769 73.126C92.4654 72.5755 92.0171 71.6197 91.8674 70.4218C91.718 69.2264 91.877 67.8568 92.2135 66.5991C92.551 65.3376 93.0533 64.2394 93.5501 63.577L92.7501 62.977ZM93.8774 87.3862C91.6518 89.7972 90.5927 91.9016 90.4119 93.6785C90.2279 95.4869 90.961 96.8925 92.1566 97.8337C93.3335 98.7602 94.9408 99.2278 96.5446 99.2578C98.1499 99.2879 99.8091 98.8808 101.098 97.9888L100.528 97.1666C99.4451 97.9165 98.0026 98.2849 96.5633 98.258C95.1224 98.231 93.7421 97.8091 92.7752 97.048C91.827 96.3015 91.2601 95.2212 91.4068 93.7797C91.5567 92.3067 92.4589 90.3972 94.6122 88.0645L93.8774 87.3862ZM115.984 79.0838C117.195 78.5241 118.023 78.0859 119.095 77.6841C120.152 77.2874 121.444 76.9294 123.523 76.5682L123.351 75.583C121.23 75.9516 119.875 76.3234 118.743 76.7477C117.626 77.1669 116.722 77.641 115.564 78.176L115.984 79.0838ZM123.523 76.5682C123.935 76.4965 124.312 76.2568 124.599 75.9647C124.889 75.6699 125.124 75.2837 125.223 74.8624C125.324 74.4337 125.286 73.9515 124.993 73.5254C124.705 73.1055 124.218 72.8092 123.558 72.6442L123.316 73.6144C123.824 73.7413 124.061 73.9347 124.169 74.0912C124.272 74.2416 124.3 74.4227 124.25 74.633C124.199 74.8507 124.067 75.0794 123.885 75.2642C123.701 75.4517 123.504 75.5565 123.351 75.583L123.523 76.5682ZM123.558 72.6442C122.296 72.3286 120.453 72.4009 118.808 72.5963C117.154 72.7927 115.595 73.1266 114.873 73.3892L115.215 74.329C115.831 74.1051 117.301 73.7822 118.925 73.5893C120.558 73.3955 122.243 73.3462 123.316 73.6144L123.558 72.6442ZM115.529 73.7378C115.234 72.5576 114.853 70.6494 113.977 69.0569C113.084 67.4325 111.633 66.0611 109.206 66.0611V67.0611C111.157 67.0611 112.322 68.1223 113.101 69.5388C113.897 70.9871 114.246 72.7279 114.559 73.9804L115.529 73.7378ZM107.735 57.0623C107.927 56.8701 108.215 56.5593 108.425 56.1937C108.628 55.8391 108.815 55.3325 108.628 54.8073C108.436 54.2722 107.925 53.9025 107.172 53.666C106.411 53.4272 105.304 53.2896 103.732 53.2896V54.2896C105.262 54.2896 106.253 54.4256 106.872 54.6201C107.499 54.8169 107.649 55.0402 107.686 55.1436C107.726 55.257 107.708 55.4346 107.558 55.6958C107.414 55.9459 107.2 56.1825 107.028 56.3552L107.735 57.0623ZM113.22 80.2922C112.858 80.2922 112.391 80.4115 111.889 80.5843C111.372 80.7621 110.767 81.0155 110.108 81.3218C108.789 81.9348 107.228 82.7733 105.686 83.682C104.144 84.591 102.611 85.5754 101.351 86.4825C100.109 87.3767 99.0778 88.2326 98.5885 88.8849L99.3885 89.4849C99.775 88.9696 100.687 88.1925 101.935 87.2942C103.165 86.4087 104.671 85.4409 106.194 84.5436C107.717 83.6461 109.248 82.8242 110.529 82.2286C111.171 81.9305 111.742 81.6924 112.214 81.5298C112.701 81.3622 113.034 81.2922 113.22 81.2922V80.2922ZM98.2971 96.9815C100.381 96.8212 102.383 95.4185 104.283 93.5642C106.197 91.6972 108.098 89.2782 109.961 86.9425L109.18 86.3188C107.301 88.6738 105.443 91.035 103.585 92.8485C101.714 94.6747 99.9313 95.8528 98.2204 95.9844L98.2971 96.9815ZM109.995 86.8956L113.644 81.0572L112.796 80.5272L109.147 86.3656L109.995 86.8956ZM97.6552 74.3429C99.0608 73.9762 100.523 73.3856 101.846 72.8081C103.189 72.2218 104.36 71.6634 105.255 71.3211L104.898 70.3871C103.976 70.7397 102.739 71.3273 101.446 71.8916C100.133 72.4647 98.7296 73.0292 97.4027 73.3753L97.6552 74.3429ZM105.255 71.3211C107.078 70.6238 108.722 70.4866 109.871 70.8242C110.439 70.9911 110.87 71.2684 111.161 71.6355C111.448 71.9998 111.625 72.4877 111.625 73.1293H112.625C112.625 72.2943 112.391 71.5796 111.945 71.0155C111.502 70.4543 110.877 70.0775 110.153 69.8648C108.718 69.4433 106.838 69.6451 104.898 70.3871L105.255 71.3211ZM111.625 73.1293C111.625 73.9852 111.457 74.613 111.184 75.1059C110.91 75.6002 110.511 75.9935 109.996 76.3516C109.475 76.7138 108.856 77.0268 108.147 77.373C107.448 77.7144 106.669 78.0849 105.881 78.5495L106.389 79.411C107.136 78.9707 107.874 78.6193 108.586 78.2715C109.288 77.9284 109.974 77.5848 110.567 77.1725C111.166 76.7561 111.689 76.257 112.058 75.5906C112.428 74.9228 112.625 74.1215 112.625 73.1293H111.625ZM105.881 78.5495C102.852 80.3345 99.2889 81.5237 93.8774 87.3862L94.6122 88.0645C99.8952 82.3412 103.275 81.2461 106.389 79.411L105.881 78.5495ZM101.098 97.9888C103.186 96.5431 106.13 93.392 108.669 90.2884C109.945 88.7289 111.13 87.1669 112.067 85.8151C112.995 84.4761 113.707 83.3068 114.006 82.5446L113.075 82.1792C112.823 82.8216 112.174 83.906 111.245 85.2453C110.326 86.5717 109.157 88.1124 107.895 89.6552C105.358 92.7562 102.49 95.8084 100.528 97.1666L101.098 97.9888ZM114.006 82.5446C114.06 82.4074 114.199 82.1519 114.406 81.8068C114.607 81.4725 114.852 81.0857 115.099 80.699C115.344 80.315 115.592 79.9295 115.792 79.607C115.984 79.2985 116.159 79.0054 116.235 78.8233L115.313 78.4365C115.274 78.5302 115.147 78.7505 114.943 79.0797C114.747 79.3949 114.505 79.7716 114.256 80.1607C114.009 80.5471 113.757 80.9444 113.549 81.2919C113.346 81.6287 113.164 81.9526 113.075 82.1792L114.006 82.5446ZM109.206 66.0611C107.183 66.0611 104.572 66.7734 102.34 67.3788L102.602 68.344C104.881 67.7257 107.346 67.0611 109.206 67.0611V66.0611ZM102.34 67.3788C101.31 67.6583 100.357 67.9166 99.5476 68.0877C98.7187 68.2628 98.1162 68.3283 97.7561 68.2713C97.6731 68.2581 97.6178 68.2403 97.5832 68.2245C97.5665 68.2168 97.556 68.2103 97.5501 68.206C97.5471 68.2039 97.5452 68.2022 97.5441 68.2012C97.543 68.2002 97.5425 68.1997 97.5425 68.1997C97.5425 68.1997 97.5427 68.1999 97.543 68.2003C97.5431 68.2005 97.5432 68.2007 97.5433 68.2009C97.5434 68.201 97.5435 68.2011 97.5435 68.2011C97.5434 68.2011 97.5434 68.2009 97.5432 68.2006C97.5431 68.2003 97.5429 68.1998 97.5427 68.1991C97.5421 68.1976 97.5414 68.1951 97.5405 68.1913C97.5371 68.176 97.5323 68.1379 97.5428 68.0676C97.5647 67.9202 97.6443 67.6903 97.8297 67.3561C98.0121 67.0274 98.2819 66.6241 98.6559 66.135L97.8616 65.5276C97.4702 66.0393 97.1694 66.4849 96.9552 66.871C96.744 67.2517 96.601 67.6027 96.5537 67.9203C96.5049 68.2484 96.5542 68.5852 96.7856 68.8532C97.0037 69.1058 97.3132 69.2135 97.5996 69.2589C98.1622 69.3481 98.9303 69.2402 99.7544 69.0661C100.598 68.8879 101.58 68.6212 102.602 68.344L102.34 67.3788ZM98.6559 66.135C102.401 61.2381 105.449 58.8739 106.898 57.7497L106.285 56.9597C104.801 58.111 101.679 60.5355 97.8616 65.5276L98.6559 66.135ZM106.898 57.7497C107.257 57.4712 107.558 57.2386 107.735 57.0623L107.028 56.3552C106.908 56.4751 106.673 56.6589 106.285 56.9597L106.898 57.7497ZM98.2204 95.9844C97.1717 96.0651 96.694 95.8677 96.492 95.6611C96.3087 95.4736 96.2214 95.1363 96.3607 94.5403C96.4972 93.9561 96.8264 93.2485 97.2762 92.4882C97.7222 91.7343 98.2695 90.957 98.8174 90.2381L98.0221 89.6319C97.4604 90.3689 96.8883 91.18 96.4155 91.9791C95.9466 92.7719 95.5577 93.5821 95.3869 94.3128C95.2189 95.0317 95.2354 95.8063 95.777 96.3602C96.2998 96.895 97.1683 97.0683 98.2971 96.9815L98.2204 95.9844ZM98.8174 90.2381C99.0151 89.9787 99.2078 89.7258 99.3885 89.4849L98.5885 88.8849C98.4106 89.1222 98.2203 89.3719 98.0221 89.6319L98.8174 90.2381Z" fill="white"/>
</svg>
