<svg width="327" height="45" viewBox="0 0 327 45" fill="none" xmlns="http://www.w3.org/2000/svg">
<rect x="33" width="294" height="45" rx="15" fill="#94A8AC"/>
<path d="M294.853 31.0955C294.067 31.9101 292.762 31.9101 291.975 31.0955L281.52 20.264C280.294 18.9942 281.194 16.875 282.959 16.875L303.87 16.875C305.635 16.875 306.535 18.9942 305.309 20.264L294.853 31.0955Z" fill="white"/>
<path d="M65.95 22.075C65.95 17.425 62.85 14.375 57.675 14.375C56.425 14.375 52.975 14.375 52.975 14.375V30C52.975 30 56.325 30 57.575 30C62.95 30 65.95 26.9 65.95 22.075ZM63.825 22.225C63.825 26.05 61.4 28.025 57.675 28.025H55.1V16.35H57.575C61.525 16.35 63.825 18.375 63.825 22.225ZM70.9139 22.525C71.7639 20.95 72.8139 20.15 73.9139 20.15C74.4889 20.15 75.1139 20.3 75.7389 20.675L76.2639 18.75C75.6639 18.375 74.8889 18.175 74.1139 18.175C72.6639 18.175 71.7139 18.925 70.9139 20.2V18.175L68.8639 18.5V30H70.9139V22.525ZM88.5412 24.275C88.5412 20.575 86.3162 18.15 83.0412 18.15C79.7412 18.15 77.3912 20.6 77.3912 24.275C77.3912 27.975 79.6662 30.375 82.9162 30.375C86.1412 30.375 88.5412 27.95 88.5412 24.275ZM86.5162 24.3C86.5162 26.775 85.2662 28.525 82.9912 28.525C80.7412 28.525 79.4162 26.7 79.4162 24.25C79.4162 21.775 80.6662 20 82.9412 20C85.1912 20 86.5162 21.85 86.5162 24.3ZM93.3992 19.6C93.3992 19.475 93.3992 18.175 93.3992 18.175L91.3492 18.5V35.825H93.3992V30.075C94.1242 30.275 95.1992 30.375 95.8742 30.375C99.2992 30.375 101.699 27.7 101.699 24.225C101.699 20.775 99.8242 18.175 96.5992 18.175C95.2492 18.175 94.2242 18.825 93.3992 19.6ZM93.3992 21.175C94.1742 20.5 95.0992 20.075 96.1742 20.075C98.2992 20.075 99.5742 21.75 99.5742 24.275C99.5742 26.625 98.2742 28.525 95.9492 28.525C94.9492 28.525 94.0742 28.25 93.3992 27.7C93.3992 27.7 93.3992 21.05 93.3992 21.175ZM112.058 18.55C111.333 18.325 110.408 18.175 109.583 18.175C106.158 18.175 103.758 20.85 103.758 24.325C103.758 27.775 105.633 30.375 108.858 30.375C110.208 30.375 111.233 29.725 112.058 28.95C112.058 29.075 112.058 30 112.058 30H114.108V12.825L112.058 13.15V18.55ZM112.058 20.85C112.058 20.85 112.058 27.5 112.058 27.375C111.283 28.05 110.358 28.475 109.283 28.475C107.158 28.475 105.883 26.8 105.883 24.275C105.883 21.925 107.183 20.025 109.508 20.025C110.508 20.025 111.383 20.3 112.058 20.85ZM128.068 24.275C128.068 20.575 125.843 18.15 122.568 18.15C119.268 18.15 116.918 20.6 116.918 24.275C116.918 27.975 119.193 30.375 122.443 30.375C125.668 30.375 128.068 27.95 128.068 24.275ZM126.043 24.3C126.043 26.775 124.793 28.525 122.518 28.525C120.268 28.525 118.943 26.7 118.943 24.25C118.943 21.775 120.193 20 122.468 20C124.718 20 126.043 21.85 126.043 24.3ZM134.729 30.05L137.529 21.5L140.454 30.05H142.329L145.779 18.55H143.504L141.404 27.075L138.479 18.6H136.604L133.954 27.05L131.529 18.55H129.329L132.854 30.05H134.729ZM157.318 30V22.125C157.318 19.65 155.943 18.175 153.618 18.175C152.293 18.175 150.943 18.85 149.893 19.9V18.175L147.843 18.5V30H149.893V21.4C150.543 20.775 151.693 20.15 152.893 20.15C154.518 20.15 155.268 20.825 155.268 22.8V30H157.318ZM182.797 30V22.175C182.797 19.65 181.422 18.175 179.322 18.175C177.747 18.175 176.397 18.85 175.172 20.075C174.597 18.8 173.497 18.175 172.172 18.175C170.797 18.175 169.597 18.7 168.497 19.75C168.497 19.625 168.497 18.175 168.497 18.175L166.447 18.5V30H168.497V21.3C169.147 20.675 170.122 20.125 171.397 20.125C172.872 20.125 173.597 20.85 173.597 22.85V30H175.647V22.125V21.425C176.297 20.8 177.272 20.125 178.547 20.125C180.022 20.125 180.747 20.85 180.747 22.85V30H182.797ZM187.572 24.525C187.572 24.525 195.247 24.475 195.272 24.475C195.422 23.975 195.522 23.275 195.522 22.65C195.522 19.925 193.922 18.175 191.147 18.175C187.947 18.175 185.497 20.7 185.497 24.4C185.497 27.9 187.847 30.375 191.297 30.375C192.747 30.375 194.122 30.05 195.147 29.425L194.772 27.525C193.847 28.15 192.547 28.475 191.347 28.475C189.147 28.475 187.647 26.875 187.572 24.625V24.525ZM187.672 23.025C187.847 21.525 188.997 19.975 190.947 19.975C192.747 19.975 193.547 21.1 193.547 22.8V22.975L187.672 23.025ZM207.733 30V22.125C207.733 19.65 206.358 18.175 204.033 18.175C202.708 18.175 201.358 18.85 200.308 19.9V18.175L198.258 18.5V30H200.308V21.4C200.958 20.775 202.108 20.15 203.308 20.15C204.933 20.15 205.683 20.825 205.683 22.8V30H207.733ZM211.073 18.55V26.425C211.073 28.9 212.448 30.375 214.648 30.375C216.098 30.375 217.448 29.75 218.498 28.7C218.498 28.825 218.498 30.375 218.498 30.375L220.548 30.05V18.55H218.498V27.15C217.848 27.775 216.698 28.4 215.373 28.4C213.873 28.4 213.123 27.725 213.123 25.75V18.55H211.073Z" fill="white"/>
</svg>
