<svg width="36" height="37" viewBox="0 0 36 37" fill="none" xmlns="http://www.w3.org/2000/svg">
<path fill-rule="evenodd" clip-rule="evenodd" d="M33.1729 4.20528C33.9339 3.40467 33.9018 2.13874 33.1012 1.37776C32.3006 0.616778 31.0346 0.648903 30.2737 1.44951L17.4238 14.9686L3.62171 1.84967C2.8211 1.08869 1.55517 1.12081 0.794192 1.92142C0.0332085 2.72203 0.0653342 3.98796 0.865945 4.74894L14.668 17.8678L0.550369 32.7206C-0.210614 33.5213 -0.178489 34.7872 0.622122 35.5482C1.42273 36.3091 2.68866 36.277 3.44964 35.4764L17.5673 20.6236L32.1371 34.4722C32.9377 35.2332 34.2036 35.2011 34.9646 34.4005C35.7256 33.5999 35.6934 32.3339 34.8928 31.573L20.323 17.7243L33.1729 4.20528Z" fill="#424B54"/>
</svg>
