<svg width="122" height="122" viewBox="0 0 122 122" fill="none" xmlns="http://www.w3.org/2000/svg">
<circle cx="61" cy="61" r="60" fill="white" stroke="black"/>
<path d="M13.6 61.86L14.56 56.94H18.22L17.26 61.86H13.6ZM9.97 69H12.25L13.18 64.11H16.84L15.91 69H18.19L19.12 64.11H22.06V61.86H19.54L20.5 56.94H23.02V54.69H20.92L21.85 49.8H19.57L18.64 54.69H14.98L15.91 49.8H13.63L12.7 54.69H9.94V56.94H12.28L11.32 61.86H8.98V64.11H10.9L9.97 69ZM25.06 69H27.97V60.72H36.01V58.11H27.97V52.41H36.7V49.8H25.06V69ZM40.06 69H42.97V60.72H51.01V58.11H42.97V52.41H51.7V49.8H40.06V69ZM55.06 69H57.97V60.72H66.01V58.11H57.97V52.41H66.7V49.8H55.06V69ZM70.06 69H72.97V60.72H81.01V58.11H72.97V52.41H81.7V49.8H70.06V69ZM85.06 69H87.97V60.72H96.01V58.11H87.97V52.41H96.7V49.8H85.06V69ZM100.06 69H102.97V60.72H111.01V58.11H102.97V52.41H111.7V49.8H100.06V69Z" fill="#424B54"/>
</svg>
