<svg width="66" height="65" viewBox="0 0 66 65" fill="none" xmlns="http://www.w3.org/2000/svg">
<path fill-rule="evenodd" clip-rule="evenodd" d="M32.6725 65C50.6217 65 65.1725 50.4493 65.1725 32.5C65.1725 14.5507 50.6217 0 32.6725 0C14.7232 0 0.172485 14.5507 0.172485 32.5C0.172485 50.4493 14.7232 65 32.6725 65ZM26.8037 19.2644C28.6908 18.6367 31.6048 17.979 34.1827 18.0005C36.9442 18.0236 38.3027 18.7777 38.7271 19.8362C39.5849 21.9761 39.1121 23.6254 38.0745 24.9776C36.9577 26.433 35.1562 27.5427 33.5418 28.1468C32.2941 28.6136 31.3097 29.3363 30.6071 30.3223C29.9223 31.2833 29.5995 32.3624 29.4411 33.3987C29.2843 34.4237 29.2739 35.5143 29.2923 36.5579C29.2998 36.9821 29.3114 37.3879 29.323 37.7908C29.3418 38.4449 29.3604 39.0915 29.3604 39.7975C29.3604 40.9021 30.2559 41.7975 31.3604 41.7975C32.465 41.7975 33.3604 40.9021 33.3604 39.7975C33.3604 39.05 33.3387 38.2798 33.3189 37.5762L33.3188 37.5756C33.3079 37.1877 33.2975 36.8201 33.2917 36.4876C33.274 35.4822 33.2924 34.6749 33.3951 34.0032C33.4961 33.3427 33.6632 32.9264 33.8647 32.6436C34.0484 32.3859 34.3465 32.1165 34.9435 31.8931C37.0183 31.1168 39.5401 29.6383 41.2479 27.4127C43.0348 25.0839 43.8877 21.9595 42.4398 18.3478C41.0196 14.8052 37.1902 14.0255 34.2161 14.0007C31.0585 13.9743 27.6893 14.7544 25.5413 15.4688C24.4932 15.8174 23.9261 16.9496 24.2747 17.9978C24.6233 19.0459 25.7556 19.613 26.8037 19.2644ZM31.3604 46.4248C30.2559 46.4248 29.3604 47.3203 29.3604 48.4248V49C29.3604 50.1046 30.2559 51 31.3604 51H31.9369C33.0414 51 33.9369 50.1046 33.9369 49V48.4248C33.9369 47.3203 33.0414 46.4248 31.9369 46.4248H31.3604Z" fill="#424B54"/>
</svg>
