<svg width="149" height="169" viewBox="0 0 149 169" fill="none" xmlns="http://www.w3.org/2000/svg">
<mask id="path-1-inside-1" fill="white">
<path fill-rule="evenodd" clip-rule="evenodd" d="M148.598 69.3906C148.495 69.3906 148.396 69.3507 148.321 69.2792L78.3891 2.34731C76.4557 0.49686 73.4081 0.496861 71.4747 2.34731L1.50621 69.3142C1.45503 69.3632 1.38692 69.3906 1.31607 69.3906H1.29954C1.1568 69.3906 1.04108 69.5063 1.04108 69.649V69.739C1.04108 69.752 1.03576 69.7645 1.02636 69.7735L0.992347 69.806C0.973582 69.824 0.986294 69.8557 1.01227 69.8557C1.02818 69.8557 1.04108 69.8686 1.04108 69.8845V163.101C1.04108 165.862 3.27966 168.101 6.04108 168.101H143.999C146.761 168.101 148.999 165.862 148.999 163.101V69.7917C148.999 69.5702 148.82 69.3906 148.598 69.3906Z"/>
</mask>
<path fill-rule="evenodd" clip-rule="evenodd" d="M148.598 69.3906C148.495 69.3906 148.396 69.3507 148.321 69.2792L78.3891 2.34731C76.4557 0.49686 73.4081 0.496861 71.4747 2.34731L1.50621 69.3142C1.45503 69.3632 1.38692 69.3906 1.31607 69.3906H1.29954C1.1568 69.3906 1.04108 69.5063 1.04108 69.649V69.739C1.04108 69.752 1.03576 69.7645 1.02636 69.7735L0.992347 69.806C0.973582 69.824 0.986294 69.8557 1.01227 69.8557C1.02818 69.8557 1.04108 69.8686 1.04108 69.8845V163.101C1.04108 165.862 3.27966 168.101 6.04108 168.101H143.999C146.761 168.101 148.999 165.862 148.999 163.101V69.7917C148.999 69.5702 148.82 69.3906 148.598 69.3906Z" fill="#94A8AC" fill-opacity="0.5"/>
<path d="M0.992347 69.806L-1.082 67.6388L0.992347 69.806ZM1.02636 69.7735L3.10071 71.9408L1.02636 69.7735ZM1.50621 69.3142L3.58053 71.4815L1.50621 69.3142ZM148.321 69.2792L146.247 71.4465L148.321 69.2792ZM71.4747 2.34731L69.4004 0.180012L71.4747 2.34731ZM76.3148 4.51461L146.247 71.4465L150.395 67.1119L80.4634 0.18001L76.3148 4.51461ZM3.58053 71.4815L73.549 4.51461L69.4004 0.180012L-0.568115 67.1469L3.58053 71.4815ZM1.29954 72.3906H1.31607V66.3906H1.29954V72.3906ZM4.04108 69.739V69.649H-1.95892V69.739H4.04108ZM3.06669 71.9733L3.10071 71.9408L-1.04798 67.6062L-1.082 67.6388L3.06669 71.9733ZM4.04108 163.101V69.8845H-1.95892V163.101H4.04108ZM143.999 165.101H6.04108V171.101H143.999V165.101ZM145.999 69.7917V163.101H151.999V69.7917H145.999ZM151.999 69.7917C151.999 67.9133 150.477 66.3906 148.598 66.3906V72.3906C147.163 72.3906 145.999 71.227 145.999 69.7917H151.999ZM143.999 171.101C148.418 171.101 151.999 167.519 151.999 163.101H145.999C145.999 164.205 145.104 165.101 143.999 165.101V171.101ZM-1.95892 163.101C-1.95892 167.519 1.6228 171.101 6.04108 171.101V165.101C4.93651 165.101 4.04108 164.205 4.04108 163.101H-1.95892ZM1.01227 72.8557C-0.629119 72.8557 -1.95892 71.525 -1.95892 69.8845H4.04108C4.04108 68.2122 2.68548 66.8557 1.01227 66.8557V72.8557ZM-1.082 67.6388C-3.05457 69.5268 -1.71823 72.8557 1.01227 72.8557V66.8557C3.69082 66.8557 5.00174 70.1213 3.06669 71.9733L-1.082 67.6388ZM-1.95892 69.739C-1.95892 68.9336 -1.62985 68.1631 -1.04798 67.6062L3.10071 71.9408C3.70138 71.3659 4.04108 70.5705 4.04108 69.739H-1.95892ZM1.29954 66.3906C-0.500056 66.3906 -1.95892 67.8494 -1.95892 69.649H4.04108C4.04108 71.1631 2.81365 72.3906 1.29954 72.3906V66.3906ZM-0.568115 67.1469C-0.0609336 66.6615 0.614026 66.3906 1.31607 66.3906V72.3906C2.15981 72.3906 2.97099 72.0649 3.58053 71.4815L-0.568115 67.1469ZM146.247 71.4465C146.88 72.0524 147.722 72.3906 148.598 72.3906V66.3906C149.268 66.3906 149.912 66.649 150.395 67.1119L146.247 71.4465ZM80.4634 0.18001C77.37 -2.78071 72.4938 -2.7807 69.4004 0.180012L73.549 4.51461C74.3224 3.77443 75.5414 3.77443 76.3148 4.51461L80.4634 0.18001Z" fill="#94A8AC" mask="url(#path-1-inside-1)"/>
</svg>
