<svg width="726" height="99" viewBox="0 0 726 99" fill="none" xmlns="http://www.w3.org/2000/svg">
<rect width="726" height="99" fill="#94A8AC"/>
<rect x="26.5" y="29.5" width="679" height="42" rx="6.5" fill="white" fill-opacity="0.75" stroke="white" stroke-width="3"/>
<path d="M52.125 60V44.375H50.025V60H52.125ZM65.4268 60V52.125C65.4268 49.65 64.0518 48.175 61.7268 48.175C60.4018 48.175 59.0518 48.85 58.0018 49.9V48.175L55.9518 48.5V60H58.0018V51.4C58.6518 50.775 59.8018 50.15 61.0018 50.15C62.6268 50.15 63.3768 50.825 63.3768 52.8V60H65.4268ZM70.9168 49.6C70.9168 49.475 70.9168 48.175 70.9168 48.175L68.8668 48.5V65.825H70.9168V60.075C71.6418 60.275 72.7168 60.375 73.3918 60.375C76.8168 60.375 79.2168 57.7 79.2168 54.225C79.2168 50.775 77.3418 48.175 74.1168 48.175C72.7668 48.175 71.7418 48.825 70.9168 49.6ZM70.9168 51.175C71.6918 50.5 72.6168 50.075 73.6918 50.075C75.8168 50.075 77.0918 51.75 77.0918 54.275C77.0918 56.625 75.7918 58.525 73.4668 58.525C72.4668 58.525 71.5918 58.25 70.9168 57.7C70.9168 57.7 70.9168 51.05 70.9168 51.175ZM81.926 48.55V56.425C81.926 58.9 83.301 60.375 85.501 60.375C86.951 60.375 88.301 59.75 89.351 58.7C89.351 58.825 89.351 60.375 89.351 60.375L91.401 60.05V48.55H89.351V57.15C88.701 57.775 87.551 58.4 86.226 58.4C84.726 58.4 83.976 57.725 83.976 55.75V48.55H81.926ZM100.966 59.875C100.966 59.875 100.616 58.075 100.591 58.075C99.916 58.325 99.216 58.5 98.516 58.5C97.491 58.5 96.991 57.95 97.016 56.875L97.191 50.4H100.766L100.841 48.55H97.266L97.341 45.925H95.366L95.316 48.4L93.416 48.975L93.341 50.275L95.241 50.4L95.066 56.8C94.991 59.3 96.166 60.375 98.391 60.375C99.241 60.375 100.116 60.2 100.966 59.875ZM119.376 44.55C119.376 43.775 118.951 43.075 118.026 43.075C117.101 43.075 116.676 43.775 116.676 44.55C116.676 45.325 117.101 46.025 118.026 46.025C118.951 46.025 119.376 45.325 119.376 44.55ZM115.601 43.15C115.051 42.9 114.151 42.6 113.301 42.6C111.051 42.6 109.576 43.775 109.526 46.975L109.501 48.425L107.626 48.975L107.526 50.275L109.526 50.425V60H111.576V50.4H115.126L115.201 48.55H111.576V46.95C111.576 45.225 112.126 44.525 113.276 44.525C113.851 44.525 114.576 44.8 115.101 45.025C115.101 45.075 115.601 43.2 115.601 43.15ZM119.051 60V48.175L117.001 48.5V60H119.051ZM123.854 54.525C123.854 54.525 131.529 54.475 131.554 54.475C131.704 53.975 131.804 53.275 131.804 52.65C131.804 49.925 130.204 48.175 127.429 48.175C124.229 48.175 121.779 50.7 121.779 54.4C121.779 57.9 124.129 60.375 127.579 60.375C129.029 60.375 130.404 60.05 131.429 59.425L131.054 57.525C130.129 58.15 128.829 58.475 127.629 58.475C125.429 58.475 123.929 56.875 123.854 54.625V54.525ZM123.954 53.025C124.129 51.525 125.279 49.975 127.229 49.975C129.029 49.975 129.829 51.1 129.829 52.8V52.975L123.954 53.025ZM136.591 60V42.825L134.541 43.15V60H136.591ZM147.681 48.55C146.956 48.325 146.031 48.175 145.206 48.175C141.781 48.175 139.381 50.85 139.381 54.325C139.381 57.775 141.256 60.375 144.481 60.375C145.831 60.375 146.856 59.725 147.681 58.95C147.681 59.075 147.681 60 147.681 60H149.731V42.825L147.681 43.15V48.55ZM147.681 50.85C147.681 50.85 147.681 57.5 147.681 57.375C146.906 58.05 145.981 58.475 144.906 58.475C142.781 58.475 141.506 56.8 141.506 54.275C141.506 51.925 142.806 50.025 145.131 50.025C146.131 50.025 147.006 50.3 147.681 50.85Z" fill="#94A8AC"/>
</svg>
