<svg width="682" height="45" viewBox="0 0 682 45" fill="none" xmlns="http://www.w3.org/2000/svg">
<rect x="1.5" y="1.5" width="679" height="42" rx="6.5" fill="#94A8AC" fill-opacity="0.75" stroke="#94A8AC" stroke-width="3"/>
<path d="M27.125 32V16.375H25.025V32H27.125ZM40.4268 32V24.125C40.4268 21.65 39.0518 20.175 36.7268 20.175C35.4018 20.175 34.0518 20.85 33.0018 21.9V20.175L30.9518 20.5V32H33.0018V23.4C33.6518 22.775 34.8018 22.15 36.0018 22.15C37.6268 22.15 38.3768 22.825 38.3768 24.8V32H40.4268ZM45.9168 21.6C45.9168 21.475 45.9168 20.175 45.9168 20.175L43.8668 20.5V37.825H45.9168V32.075C46.6418 32.275 47.7168 32.375 48.3918 32.375C51.8168 32.375 54.2168 29.7 54.2168 26.225C54.2168 22.775 52.3418 20.175 49.1168 20.175C47.7668 20.175 46.7418 20.825 45.9168 21.6ZM45.9168 23.175C46.6918 22.5 47.6168 22.075 48.6918 22.075C50.8168 22.075 52.0918 23.75 52.0918 26.275C52.0918 28.625 50.7918 30.525 48.4668 30.525C47.4668 30.525 46.5918 30.25 45.9168 29.7C45.9168 29.7 45.9168 23.05 45.9168 23.175ZM56.926 20.55V28.425C56.926 30.9 58.301 32.375 60.501 32.375C61.951 32.375 63.301 31.75 64.351 30.7C64.351 30.825 64.351 32.375 64.351 32.375L66.401 32.05V20.55H64.351V29.15C63.701 29.775 62.551 30.4 61.226 30.4C59.726 30.4 58.976 29.725 58.976 27.75V20.55H56.926ZM75.966 31.875C75.966 31.875 75.616 30.075 75.591 30.075C74.916 30.325 74.216 30.5 73.516 30.5C72.491 30.5 71.991 29.95 72.016 28.875L72.191 22.4H75.766L75.841 20.55H72.266L72.341 17.925H70.366L70.316 20.4L68.416 20.975L68.341 22.275L70.241 22.4L70.066 28.8C69.991 31.3 71.166 32.375 73.391 32.375C74.241 32.375 75.116 32.2 75.966 31.875ZM94.3762 16.55C94.3762 15.775 93.9512 15.075 93.0262 15.075C92.1012 15.075 91.6762 15.775 91.6762 16.55C91.6762 17.325 92.1012 18.025 93.0262 18.025C93.9512 18.025 94.3762 17.325 94.3762 16.55ZM90.6012 15.15C90.0512 14.9 89.1512 14.6 88.3012 14.6C86.0512 14.6 84.5762 15.775 84.5262 18.975L84.5012 20.425L82.6262 20.975L82.5262 22.275L84.5262 22.425V32H86.5762V22.4H90.1262L90.2012 20.55H86.5762V18.95C86.5762 17.225 87.1262 16.525 88.2762 16.525C88.8512 16.525 89.5762 16.8 90.1012 17.025C90.1012 17.075 90.6012 15.2 90.6012 15.15ZM94.0512 32V20.175L92.0012 20.5V32H94.0512ZM98.8539 26.525C98.8539 26.525 106.529 26.475 106.554 26.475C106.704 25.975 106.804 25.275 106.804 24.65C106.804 21.925 105.204 20.175 102.429 20.175C99.2289 20.175 96.7789 22.7 96.7789 26.4C96.7789 29.9 99.1289 32.375 102.579 32.375C104.029 32.375 105.404 32.05 106.429 31.425L106.054 29.525C105.129 30.15 103.829 30.475 102.629 30.475C100.429 30.475 98.9289 28.875 98.8539 26.625V26.525ZM98.9539 25.025C99.1289 23.525 100.279 21.975 102.229 21.975C104.029 21.975 104.829 23.1 104.829 24.8V24.975L98.9539 25.025ZM111.591 32V14.825L109.541 15.15V32H111.591ZM122.681 20.55C121.956 20.325 121.031 20.175 120.206 20.175C116.781 20.175 114.381 22.85 114.381 26.325C114.381 29.775 116.256 32.375 119.481 32.375C120.831 32.375 121.856 31.725 122.681 30.95C122.681 31.075 122.681 32 122.681 32H124.731V14.825L122.681 15.15V20.55ZM122.681 22.85C122.681 22.85 122.681 29.5 122.681 29.375C121.906 30.05 120.981 30.475 119.906 30.475C117.781 30.475 116.506 28.8 116.506 26.275C116.506 23.925 117.806 22.025 120.131 22.025C121.131 22.025 122.006 22.3 122.681 22.85Z" fill="white" fill-opacity="0.75"/>
</svg>
