<svg width="66" height="65" viewBox="0 0 66 65" fill="none" xmlns="http://www.w3.org/2000/svg">
<circle cx="32.6725" cy="32.5" r="32.5" fill="#414A53"/>
<path fill-rule="evenodd" clip-rule="evenodd" d="M30.7248 18.6368C31.5058 17.8558 32.7721 17.8558 33.5532 18.6368L46.14 31.2236C46.5882 31.4663 46.9328 31.875 47.0921 32.3666C47.7256 33.152 47.6775 34.305 46.9479 35.0346L34.0867 47.8958C33.3057 48.6769 32.0393 48.6769 31.2583 47.8958C30.4772 47.1148 30.4772 45.8485 31.2583 45.0674L41.3736 34.9521L17.8621 34.7577C16.7576 34.7486 15.8696 33.8458 15.8787 32.7413C15.8879 31.6367 16.7907 30.7487 17.8952 30.7579L40.2018 30.9422L30.7248 21.4652C29.9437 20.6842 29.9437 19.4179 30.7248 18.6368Z" fill="white"/>
</svg>
