<svg width="328" height="45" viewBox="0 0 328 45" fill="none" xmlns="http://www.w3.org/2000/svg">
<rect width="328" height="45" rx="22.5" fill="#94A8AC"/>
<path d="M98.5581 18.425C98.5581 15.5 96.6331 13.375 92.3581 13.375C92.3331 13.375 88.0331 13.375 88.0331 13.375V29H90.1581V23.825L92.2081 23.8C96.1081 23.75 98.5581 21.95 98.5581 18.425ZM96.4081 18.525C96.4081 20.55 95.0581 21.725 92.4331 21.775L90.1581 21.825V15.35C90.1581 15.35 92.2331 15.35 92.2581 15.35C95.0331 15.35 96.4081 16.425 96.4081 18.525ZM103.311 21.525C104.161 19.95 105.211 19.15 106.311 19.15C106.886 19.15 107.511 19.3 108.136 19.675L108.661 17.75C108.061 17.375 107.286 17.175 106.511 17.175C105.061 17.175 104.111 17.925 103.311 19.2V17.175L101.261 17.5V29H103.311V21.525ZM113.157 13.55C113.157 12.775 112.732 12.075 111.807 12.075C110.882 12.075 110.457 12.775 110.457 13.55C110.457 14.325 110.882 15.025 111.807 15.025C112.732 15.025 113.157 14.325 113.157 13.55ZM112.832 29V17.175L110.782 17.5V29H112.832ZM132.723 29V21.175C132.723 18.65 131.348 17.175 129.248 17.175C127.673 17.175 126.323 17.85 125.098 19.075C124.523 17.8 123.423 17.175 122.098 17.175C120.723 17.175 119.523 17.7 118.423 18.75C118.423 18.625 118.423 17.175 118.423 17.175L116.373 17.5V29H118.423V20.3C119.073 19.675 120.048 19.125 121.323 19.125C122.798 19.125 123.523 19.85 123.523 21.85V29H125.573V21.125V20.425C126.223 19.8 127.198 19.125 128.473 19.125C129.948 19.125 130.673 19.85 130.673 21.85V29H132.723ZM142.048 26.4C141.398 27.1 140.473 27.625 139.423 27.625C138.173 27.625 137.398 26.875 137.398 25.85C137.398 24.45 138.648 23.75 142.048 23.3V26.4ZM142.123 27.775C142.423 28.775 143.248 29.425 145.098 29.275L145.223 27.55C144.223 27.55 144.098 27.375 144.098 26.425V21.625C144.148 18.5 142.773 17.175 139.673 17.175C138.048 17.175 136.373 17.8 135.373 18.5L135.773 20.35C136.848 19.625 138.298 19.075 139.473 19.075C141.323 19.075 142.048 19.825 142.048 21.675V22C136.698 22.25 135.223 24.05 135.223 26.1C135.223 27.95 136.723 29.375 138.873 29.375C140.098 29.375 141.148 28.8 142.023 27.775H142.123ZM149.502 21.525C150.352 19.95 151.402 19.15 152.502 19.15C153.077 19.15 153.702 19.3 154.327 19.675L154.852 17.75C154.252 17.375 153.477 17.175 152.702 17.175C151.252 17.175 150.302 17.925 149.502 19.2V17.175L147.452 17.5V29H149.502V21.525ZM166.174 17.55H163.999L160.774 26.45L157.449 17.55H155.249L159.699 28.75L158.999 30.525C158.224 32.525 157.674 33 156.799 33C156.224 33 155.574 32.75 154.974 32.45L154.374 34.35C155.149 34.7 155.924 34.95 156.799 34.95C158.574 34.95 159.724 34.075 160.824 31.175L161.599 29.125L166.174 17.55ZM181.847 20.95C183.597 20.3 184.522 19.125 184.522 17.525C184.522 15.075 182.847 13.375 179.072 13.375H173.897V29H179.222C183.247 29 185.022 27.225 185.022 24.575C185.022 22.825 183.922 21.475 181.847 20.95ZM182.397 17.7C182.397 19.225 181.172 20.225 178.922 20.225C178.922 20.225 176.047 20.225 176.022 20.225V15.325H179.247C181.297 15.325 182.397 16.2 182.397 17.7ZM182.897 24.6C182.897 26.225 181.747 27.05 179.422 27.05H176.022V22.15H179.097C181.297 22.15 182.897 22.8 182.897 24.6ZM187.758 17.55V25.425C187.758 27.9 189.133 29.375 191.333 29.375C192.783 29.375 194.133 28.75 195.183 27.7C195.183 27.825 195.183 29.375 195.183 29.375L197.233 29.05V17.55H195.183V26.15C194.533 26.775 193.383 27.4 192.058 27.4C190.558 27.4 189.808 26.725 189.808 24.75V17.55H187.758ZM206.798 28.875C206.798 28.875 206.448 27.075 206.423 27.075C205.748 27.325 205.048 27.5 204.348 27.5C203.323 27.5 202.823 26.95 202.848 25.875L203.023 19.4H206.598L206.673 17.55H203.098L203.173 14.925H201.198L201.148 17.4L199.248 17.975L199.173 19.275L201.073 19.4L200.898 25.8C200.823 28.3 201.998 29.375 204.223 29.375C205.073 29.375 205.948 29.2 206.798 28.875ZM215.269 28.875C215.269 28.875 214.919 27.075 214.894 27.075C214.219 27.325 213.519 27.5 212.819 27.5C211.794 27.5 211.294 26.95 211.319 25.875L211.494 19.4H215.069L215.144 17.55H211.569L211.644 14.925H209.669L209.619 17.4L207.719 17.975L207.644 19.275L209.544 19.4L209.369 25.8C209.294 28.3 210.469 29.375 212.694 29.375C213.544 29.375 214.419 29.2 215.269 28.875ZM227.994 23.275C227.994 19.575 225.769 17.15 222.494 17.15C219.194 17.15 216.844 19.6 216.844 23.275C216.844 26.975 219.119 29.375 222.369 29.375C225.594 29.375 227.994 26.95 227.994 23.275ZM225.969 23.3C225.969 25.775 224.719 27.525 222.444 27.525C220.194 27.525 218.869 25.7 218.869 23.25C218.869 20.775 220.119 19 222.394 19C224.644 19 225.969 20.85 225.969 23.3ZM240.277 29V21.125C240.277 18.65 238.902 17.175 236.577 17.175C235.252 17.175 233.902 17.85 232.852 18.9V17.175L230.802 17.5V29H232.852V20.4C233.502 19.775 234.652 19.15 235.852 19.15C237.477 19.15 238.227 19.825 238.227 21.8V29H240.277Z" fill="white"/>
</svg>
