<svg width="150" height="168" viewBox="0 0 150 168" fill="none" xmlns="http://www.w3.org/2000/svg">
<mask id="path-1-inside-1" fill="white">
<path fill-rule="evenodd" clip-rule="evenodd" d="M149.999 5.24732C149.999 1.57369 146.17 -0.845665 142.853 0.731634L1.60503 67.8819C1.55603 67.9052 1.50245 67.9173 1.44819 67.9173H1.21331C1.14127 67.9173 1.08287 67.9757 1.08287 68.0478C1.08287 68.0981 1.05393 68.1439 1.00851 68.1655L0.926047 68.2047C0.820414 68.2549 0.856193 68.4135 0.973155 68.4135C1.03375 68.4135 1.08287 68.4626 1.08287 68.5232V162.977C1.08287 165.739 3.32145 167.977 6.08287 167.977H144.999C147.761 167.977 149.999 165.739 149.999 162.977V5.24732Z"/>
</mask>
<path fill-rule="evenodd" clip-rule="evenodd" d="M149.999 5.24732C149.999 1.57369 146.17 -0.845665 142.853 0.731634L1.60503 67.8819C1.55603 67.9052 1.50245 67.9173 1.44819 67.9173H1.21331C1.14127 67.9173 1.08287 67.9757 1.08287 68.0478C1.08287 68.0981 1.05393 68.1439 1.00851 68.1655L0.926047 68.2047C0.820414 68.2549 0.856193 68.4135 0.973155 68.4135C1.03375 68.4135 1.08287 68.4626 1.08287 68.5232V162.977C1.08287 165.739 3.32145 167.977 6.08287 167.977H144.999C147.761 167.977 149.999 165.739 149.999 162.977V5.24732Z" fill="white" fill-opacity="0.75"/>
<path d="M0.926047 68.2047L-0.362032 65.4953L0.926047 68.2047ZM1.00851 68.1655L2.29659 70.8749L1.00851 68.1655ZM1.60503 67.8819L2.89311 70.5913L1.60503 67.8819ZM142.853 0.731634L141.565 -1.97777L142.853 0.731634ZM141.565 -1.97777L0.316963 65.1725L2.89311 70.5913L144.141 3.44104L141.565 -1.97777ZM1.44819 64.9173H1.21331V70.9173H1.44819V64.9173ZM-0.27957 65.4561L-0.362032 65.4953L2.21413 70.9141L2.29659 70.8749L-0.27957 65.4561ZM-1.91713 68.5232V162.977H4.08287V68.5232H-1.91713ZM6.08287 170.977H144.999V164.977H6.08287V170.977ZM152.999 162.977V5.24732H146.999V162.977H152.999ZM144.999 170.977C149.418 170.977 152.999 167.396 152.999 162.977H146.999C146.999 164.082 146.104 164.977 144.999 164.977V170.977ZM-1.91713 162.977C-1.91713 167.396 1.66459 170.977 6.08287 170.977V164.977C4.97831 164.977 4.08287 164.082 4.08287 162.977H-1.91713ZM0.973155 71.4135C-0.623104 71.4135 -1.91713 70.1195 -1.91713 68.5232H4.08287C4.08287 66.8058 2.69061 65.4135 0.973155 65.4135V71.4135ZM-0.362032 65.4953C-3.35598 66.9186 -2.34191 71.4135 0.973155 71.4135V65.4135C4.0543 65.4135 4.99681 69.5912 2.21413 70.9141L-0.362032 65.4953ZM-1.91713 68.0478C-1.91713 66.941 -1.2805 65.9319 -0.27957 65.4561L2.29659 70.8749C3.38836 70.3558 4.08287 69.2551 4.08287 68.0478H-1.91713ZM1.21331 64.9173C-0.516971 64.9173 -1.91713 66.3203 -1.91713 68.0478H4.08287C4.08287 69.6312 2.79951 70.9173 1.21331 70.9173V64.9173ZM0.316963 65.1725C0.670408 65.0045 1.05684 64.9173 1.44819 64.9173V70.9173C1.94805 70.9173 2.44165 70.8059 2.89311 70.5913L0.316963 65.1725ZM144.141 3.44104C145.468 2.81012 146.999 3.77786 146.999 5.24732H152.999C152.999 -0.630474 146.873 -4.50145 141.565 -1.97777L144.141 3.44104Z" fill="#94A8AC" mask="url(#path-1-inside-1)"/>
</svg>
