<svg width="156" height="148" viewBox="0 0 156 148" fill="none" xmlns="http://www.w3.org/2000/svg">
<rect width="156" height="148" fill="#424B54"/>
<path fill-rule="evenodd" clip-rule="evenodd" d="M50.7993 51.5729C48.9118 48.7881 41.4915 47.5378 34.167 55.5241C26.8424 63.5104 29.2711 68.2253 30.5507 70.4659C32.4138 73.7283 34.4814 74.8963 44.0336 62.7991C46.2508 59.9913 47.699 58.2521 49.3722 56.4615C50.5419 55.2099 51.7901 53.9951 52.6661 53.2808C55.235 51.1862 52.8791 55.3359 48.5657 64.1435C45.2908 70.8307 43.0117 79.4142 42.2165 82.7797C42.2374 84.5505 44.3688 89.7577 45.9666 86.5993C47.3858 83.7937 51.3093 69.3705 54.0124 63.2116C56.222 57.8888 63.3789 47.5613 68.4166 42.4034C71.1884 39.5654 71.324 37.6055 67.0583 34.4439C65.6768 33.42 64.4894 36.5384 61.8952 39.3532C59.0515 42.4386 56.2842 45.4816 50.7993 51.5729ZM38.2847 58.9179C42.4337 53.6959 46.9093 52.5725 48.6482 52.669C48.6992 53.5907 46.3644 55.9542 45.1906 57.0207C42.3842 59.911 36.9951 66.8118 35.8428 67.7076C34.4023 68.8274 33.0984 65.4453 38.2847 58.9179Z" fill="white"/>
<path d="M50.7993 51.5729L50.3854 51.8534L50.7436 52.382L51.1709 51.9075L50.7993 51.5729ZM30.5507 70.4659L30.1165 70.7138L30.5507 70.4659ZM44.0336 62.7991L43.6412 62.4892L44.0336 62.7991ZM52.6661 53.2808L52.3502 52.8933L52.6661 53.2808ZM42.2165 82.7797L41.7299 82.6647L41.7158 82.7243L41.7165 82.7856L42.2165 82.7797ZM45.9666 86.5993L46.4127 86.8249L45.9666 86.5993ZM54.0124 63.2116L54.4703 63.4125L54.4742 63.4033L54.0124 63.2116ZM68.4166 42.4034L68.7743 42.7527L68.4166 42.4034ZM67.0583 34.4439L67.356 34.0422L67.0583 34.4439ZM48.6482 52.669L49.1474 52.6414L49.1227 52.1946L48.6759 52.1698L48.6482 52.669ZM38.2847 58.9179L37.8932 58.6068L38.2847 58.9179ZM35.8428 67.7076L35.5359 67.3128L35.8428 67.7076ZM45.1906 57.0207L44.8544 56.6506L44.8428 56.6611L44.8319 56.6724L45.1906 57.0207ZM49.3722 56.4615L49.7375 56.8029L49.3722 56.4615ZM48.5657 64.1435L49.0148 64.3634L48.5657 64.1435ZM61.8952 39.3532L62.2628 39.692L61.8952 39.3532ZM51.2132 51.2924C50.1294 49.6933 47.5838 48.6624 44.4662 49.0125C41.3184 49.3659 37.5267 51.1211 33.7985 55.1862L34.5355 55.8621C38.1318 51.9408 41.7125 50.328 44.5778 50.0062C47.4734 49.6811 49.5817 50.6677 50.3854 51.8534L51.2132 51.2924ZM33.7985 55.1862C30.0861 59.2339 28.7907 62.513 28.6332 65.1195C28.4756 67.7274 29.4649 69.5729 30.1165 70.7138L30.9849 70.2179C30.3569 69.1182 29.492 67.486 29.6314 65.1798C29.7708 62.8722 30.9233 59.8006 34.5355 55.8621L33.7985 55.1862ZM30.1165 70.7138C30.5843 71.533 31.1146 72.3178 31.8346 72.7691C32.6031 73.2508 33.5103 73.3097 34.6015 72.8537C35.6625 72.4103 36.9295 71.4703 38.5097 69.9158C40.0971 68.3543 42.0319 66.141 44.4261 63.109L43.6412 62.4892C41.2593 65.5058 39.3536 67.6829 37.8085 69.2029C36.2563 70.7298 35.0988 71.5621 34.216 71.931C33.3634 72.2873 32.8073 72.1986 32.3657 71.9218C31.8755 71.6145 31.4486 71.0299 30.9849 70.2179L30.1165 70.7138ZM41.7165 82.7856C41.7226 83.3026 41.8773 84.0161 42.1119 84.7249C42.3489 85.4406 42.6838 86.2008 43.0813 86.8109C43.28 87.1159 43.5035 87.3975 43.7499 87.6181C43.9937 87.8364 44.2879 88.0199 44.6263 88.077C45.3891 88.2057 45.9849 87.6707 46.4127 86.8249L45.5204 86.3736C45.1494 87.107 44.8796 87.1056 44.7927 87.0909C44.7063 87.0763 44.5797 87.0188 44.4169 86.8731C44.2567 86.7297 44.088 86.5241 43.9191 86.265C43.5815 85.7467 43.2797 85.0705 43.0612 84.4106C42.8404 83.7436 42.7208 83.1422 42.7165 82.7738L41.7165 82.7856ZM46.4127 86.8249C46.7877 86.0836 47.3107 84.6176 47.917 82.7845C48.528 80.9375 49.2374 78.6745 49.9847 76.3138C51.4838 71.5781 53.1319 66.462 54.4702 63.4125L53.5545 63.0106C52.1898 66.1201 50.5245 71.2951 49.0313 76.012C48.2824 78.3778 47.576 80.6315 46.9676 82.4704C46.3547 84.3232 45.855 85.7121 45.5204 86.3736L46.4127 86.8249ZM54.4742 63.4033C55.5582 60.792 57.8753 56.9145 60.565 53.0303C63.2515 49.1508 66.2823 45.3042 68.7743 42.7527L68.0589 42.054C65.5132 44.6605 62.4466 48.5566 59.7429 52.461C57.0424 56.3607 54.6762 60.3083 53.5506 63.0198L54.4742 63.4033ZM68.7743 42.7527C70.1683 41.3254 71.0563 39.9734 70.8727 38.4839C70.6921 37.0183 69.4949 35.6275 67.356 34.0422L66.7606 34.8456C68.8874 36.4219 69.7552 37.5919 69.8802 38.6062C70.0023 39.5965 69.4366 40.6434 68.0589 42.054L68.7743 42.7527ZM48.6759 52.1698C46.7469 52.0628 42.1242 53.2817 37.8932 58.6068L38.6762 59.2289C42.7432 54.1101 47.0718 53.0823 48.6205 53.1682L48.6759 52.1698ZM37.8932 58.6068C35.271 61.9071 34.2359 64.4756 34.0809 66.1339C34.0054 66.9411 34.1301 67.6454 34.5215 68.0654C34.7315 68.2907 35.012 68.4228 35.3273 68.4191C35.6299 68.4155 35.9107 68.2881 36.1496 68.1023L35.5359 67.3128C35.4147 67.407 35.3396 67.4189 35.3155 67.4192C35.3041 67.4193 35.2869 67.4199 35.2531 67.3836C35.157 67.2805 35.0097 66.9412 35.0765 66.227C35.206 64.8424 36.112 62.4561 38.6762 59.2289L37.8932 58.6068ZM36.1496 68.1023C36.485 67.8416 37.0733 67.1984 37.7722 66.3943C38.487 65.5721 39.3595 64.5314 40.2797 63.4332C42.1275 61.2279 44.1621 58.7977 45.5494 57.369L44.8319 56.6724C43.4127 58.134 41.3496 60.5992 39.5132 62.7909C38.5913 63.8912 37.7251 64.9243 37.0175 65.7383C36.2942 66.5704 35.7767 67.1256 35.5359 67.3128L36.1496 68.1023ZM45.5269 57.3907C46.1238 56.8483 47.0163 55.9762 47.7573 55.1171C48.1269 54.6886 48.4691 54.2516 48.7184 53.8529C48.8431 53.6536 48.9512 53.4534 49.0274 53.2607C49.1012 53.074 49.1595 52.859 49.1474 52.6414L48.1489 52.6966C48.1497 52.7095 48.1461 52.7699 48.0974 52.893C48.0511 53.0102 47.976 53.1542 47.8706 53.3227C47.6598 53.6598 47.3545 54.0531 47.0001 54.464C46.293 55.2837 45.4312 56.1265 44.8544 56.6506L45.5269 57.3907ZM44.4261 63.109C46.6398 60.3054 48.0782 58.5786 49.7375 56.8029L49.0069 56.1202C47.3198 57.9255 45.8617 59.6771 43.6412 62.4892L44.4261 63.109ZM49.7375 56.8029C50.9007 55.5582 52.1314 54.3619 52.9821 53.6683L52.3502 52.8933C51.4488 53.6282 50.183 54.8616 49.0069 56.1202L49.7375 56.8029ZM52.9821 53.6683C53.3003 53.4088 53.4943 53.2878 53.5914 53.2486C53.6457 53.2267 53.5972 53.2607 53.4985 53.2378C53.3465 53.2027 53.2633 53.084 53.2388 53.0059C53.2244 52.9602 53.2368 52.9549 53.2265 53.0323C53.2176 53.0996 53.196 53.1975 53.1559 53.3318C53.0757 53.5998 52.9367 53.963 52.7374 54.4263C51.9368 56.2879 50.2825 59.5011 48.1167 63.9235L49.0148 64.3634C51.1623 59.9782 52.8426 56.7129 53.6561 54.8214C53.8603 54.3464 54.0173 53.9417 54.114 53.6183C54.1623 53.4569 54.1993 53.3033 54.2178 53.1639C54.235 53.0347 54.2436 52.8676 54.1927 52.7059C54.1317 52.5117 53.9793 52.3227 53.724 52.2636C53.5221 52.2168 53.3361 52.2733 53.2174 52.3212C52.9685 52.4216 52.6742 52.6291 52.3502 52.8933L52.9821 53.6683ZM48.1167 63.9235C44.8163 70.6628 42.5271 79.2909 41.7299 82.6647L42.7031 82.8946C43.4963 79.5376 45.7653 70.9987 49.0148 64.3634L48.1167 63.9235ZM67.356 34.0422C67.1185 33.8661 66.8547 33.7581 66.5675 33.7459C66.2832 33.7338 66.0222 33.8175 65.7907 33.9461C65.349 34.1916 64.9368 34.6464 64.5394 35.1488C63.698 36.2124 62.8137 37.6188 61.5275 39.0143L62.2628 39.692C63.5709 38.2728 64.5774 36.7126 65.3237 35.7692C65.72 35.2682 66.0259 34.9595 66.2764 34.8202C66.3911 34.7565 66.4697 34.7426 66.5249 34.745C66.5772 34.7472 66.6528 34.7657 66.7606 34.8456L67.356 34.0422ZM61.5275 39.0143C58.6819 42.1018 55.9131 45.1465 50.4277 51.2383L51.1709 51.9075C56.6552 45.8168 59.421 42.7754 62.2628 39.692L61.5275 39.0143Z" fill="white"/>
<path d="M62.677 81.1276C58.0182 77.1323 62.0621 62.8036 67.644 56.0058C76.2645 56.0897 69.2937 68.1821 67.5315 76.0226C66.1217 82.295 71.4461 77.8478 74.2846 74.8402L73.8678 77.7524C68.4893 84.9839 64.0592 82.7153 62.677 81.1276Z" fill="white"/>
<path d="M72.0949 46.6298C73.4673 46.7523 75.8085 47.6436 74.1949 50.2291C72.1778 53.461 69.8655 49.0472 72.0949 46.6298Z" fill="white"/>
<path d="M62.677 81.1276C58.0182 77.1323 62.0621 62.8036 67.644 56.0058C76.2645 56.0897 69.2937 68.1821 67.5315 76.0226C66.1217 82.295 71.4461 77.8478 74.2846 74.8402L73.8678 77.7524C68.4893 84.9839 64.0592 82.7153 62.677 81.1276Z" stroke="white" stroke-linecap="round" stroke-linejoin="round"/>
<path d="M72.0949 46.6298C73.4673 46.7523 75.8085 47.6436 74.1949 50.2291C72.1778 53.461 69.8655 49.0472 72.0949 46.6298Z" stroke="white" stroke-linecap="round" stroke-linejoin="round"/>
<path fill-rule="evenodd" clip-rule="evenodd" d="M82.3839 64.5692C92.1747 59.1775 96.1986 62.6667 96.7741 64.7151C96.8099 65.8541 97.2015 65.5766 97.9096 65.075C98.8618 64.4004 100.386 63.3205 102.386 64.7343C105.874 67.1995 103.409 70.6873 102.224 72.2552C101.04 73.8231 95.6614 81.0546 100.11 79.9996C104.559 78.9446 105.871 79.681 106.639 81.0254C107.406 82.3698 106.51 82.8816 102.35 82.8805C98.1892 82.8795 94.9563 85.0229 91.9782 91.775C89.0001 98.527 83.9482 108.874 80.1062 114.633C76.2643 120.393 67.1999 120.188 69.1554 107.483C70.7198 97.319 84.0635 87.9752 90.5398 84.5737C93.4239 81.1714 94.0564 79.2169 95.4795 74.8194C95.9836 73.2617 96.5869 71.3974 97.4246 69.0536C95.6109 69.6932 86.6698 75.1956 81.4521 79.0667C73.3467 85.0804 69.9852 71.3971 82.3839 64.5692ZM92.4327 66.556C91.0671 66.9397 87.4204 68.2893 83.7586 70.6183C79.1813 73.5295 79.2233 76.1464 85.3048 73.2676C91.3863 70.3888 94.2565 68.1887 95.6969 67.0689C97.1374 65.9491 94.9464 65.6616 92.4327 66.556ZM79.4206 109.907C81.5975 107.476 88.1366 96.1479 90.4103 90.5904C86.6655 91.8376 72.709 102.779 72.3549 111.004C72.0007 119.229 76.6995 112.947 79.4206 109.907Z" fill="white"/>
<path d="M96.7741 64.7151L97.2739 64.6994L97.272 64.6385L97.2555 64.5799L96.7741 64.7151ZM82.3839 64.5692L82.1427 64.1312L82.3839 64.5692ZM81.4521 79.0667L81.1542 78.6652L81.4521 79.0667ZM97.4246 69.0536L97.8955 69.2219C97.9604 69.0402 97.915 68.8374 97.7789 68.7008C97.6428 68.5641 97.4403 68.5179 97.2583 68.582L97.4246 69.0536ZM90.5398 84.5737L90.7723 85.0164L90.8584 84.9712L90.9212 84.897L90.5398 84.5737ZM69.1554 107.483L69.6495 107.559L69.1554 107.483ZM102.386 64.7343L102.675 64.326L102.386 64.7343ZM92.4327 66.556L92.5679 67.0374L92.5843 67.0328L92.6003 67.0271L92.4327 66.556ZM83.7586 70.6183L84.0269 71.0402L83.7586 70.6183ZM90.4103 90.5904L90.8731 90.7798L91.2854 89.772L90.2523 90.116L90.4103 90.5904ZM95.4795 74.8194L95.9552 74.9733L95.4795 74.8194ZM97.9096 65.075L98.1987 65.483L98.1987 65.483L97.9096 65.075ZM97.2555 64.5799C96.9104 63.3517 95.5941 61.8477 93.1316 61.3616C90.6714 60.8759 87.0947 61.4042 82.1427 64.1312L82.6251 65.0072C87.464 62.3425 90.7946 61.9196 92.9379 62.3427C95.0789 62.7653 96.0623 64.0301 96.2928 64.8504L97.2555 64.5799ZM82.1427 64.1312C75.8092 67.619 73.4066 72.9159 73.7308 76.6765C73.8923 78.5492 74.749 80.1163 76.2367 80.7578C77.7283 81.4009 79.6503 81.0262 81.7501 79.4683L81.1542 78.6652C79.2013 80.1141 77.6636 80.2841 76.6326 79.8395C75.5978 79.3933 74.8694 78.2405 74.7271 76.5906C74.4439 73.3059 76.5598 68.3473 82.6251 65.0072L82.1427 64.1312ZM81.7501 79.4683C84.3441 77.5437 87.8714 75.2082 90.9792 73.2728C92.5324 72.3055 93.977 71.4405 95.1442 70.7785C96.3267 70.1078 97.1867 69.6677 97.5909 69.5251L97.2583 68.582C96.7557 68.7593 95.8179 69.2468 94.6508 69.9087C93.4684 70.5793 92.0116 71.4518 90.4506 72.4239C87.33 74.3673 83.7779 76.7186 81.1542 78.6652L81.7501 79.4683ZM90.3073 84.1311C87.0366 85.8489 82.0438 89.0597 77.6654 93.1261C73.3011 97.1793 69.4697 102.154 68.6612 107.407L69.6495 107.559C70.4054 102.648 74.028 97.8689 78.3459 93.8588C82.6495 89.8619 87.5667 86.7 90.7723 85.0164L90.3073 84.1311ZM68.6612 107.407C67.6731 113.827 69.4311 117.403 72.2843 118.452C75.0746 119.477 78.5207 117.912 80.5222 114.911L79.6903 114.356C77.8498 117.115 74.8428 118.327 72.6292 117.513C70.4786 116.723 68.6822 113.844 69.6495 107.559L68.6612 107.407ZM80.5222 114.911C84.3895 109.113 89.4556 98.7333 92.4356 91.9768L91.5207 91.5732C88.5446 98.3208 83.5069 108.634 79.6903 114.356L80.5222 114.911ZM92.4356 91.9768C93.9087 88.6369 95.4215 86.4932 97.0356 85.1836C98.6343 83.8865 100.367 83.38 102.35 83.3805L102.35 82.3805C100.172 82.38 98.2079 82.9447 96.4055 84.407C94.6185 85.8569 93.0257 88.161 91.5207 91.5732L92.4356 91.9768ZM102.35 83.3805C103.398 83.3808 104.253 83.3489 104.935 83.2774C105.609 83.2069 106.151 83.0943 106.55 82.9123C106.959 82.7256 107.291 82.4273 107.37 81.9679C107.442 81.5538 107.28 81.1404 107.073 80.7774L106.205 81.2734C106.381 81.5826 106.395 81.7373 106.385 81.7972C106.382 81.8118 106.374 81.8935 106.135 82.0026C105.885 82.1165 105.472 82.2157 104.831 82.2829C104.199 82.3491 103.382 82.3808 102.35 82.3805L102.35 83.3805ZM107.073 80.7774C106.635 80.0102 106.009 79.3822 104.864 79.1249C103.77 78.879 102.239 78.9809 99.9948 79.5131L100.226 80.4861C102.43 79.9633 103.779 79.9059 104.645 80.1006C105.461 80.2838 105.875 80.6962 106.205 81.2734L107.073 80.7774ZM99.9948 79.5131C99.4725 79.637 99.1849 79.6143 99.045 79.5638C98.9542 79.531 98.9115 79.4868 98.8887 79.3638C98.8587 79.202 98.8806 78.9404 98.9911 78.5686C99.0984 78.2071 99.275 77.7883 99.5019 77.3347C100.415 75.5097 102.028 73.3445 102.623 72.5566L101.825 71.9538C101.236 72.7338 99.5677 74.9683 98.6076 76.8873C98.3663 77.3696 98.1626 77.8458 98.0324 78.2839C97.9054 78.7117 97.8327 79.1541 97.9055 79.5464C97.9855 79.9775 98.2433 80.3374 98.7053 80.5043C99.1181 80.6534 99.6356 80.626 100.226 80.4861L99.9948 79.5131ZM102.623 72.5566C103.213 71.7763 104.188 70.437 104.544 68.9473C104.724 68.1916 104.751 67.3753 104.472 66.5659C104.191 65.7531 103.618 64.9924 102.675 64.326L102.098 65.1426C102.899 65.7088 103.325 66.3086 103.526 66.892C103.729 67.4789 103.719 68.0948 103.571 68.7152C103.27 69.9777 102.42 71.1662 101.825 71.9538L102.623 72.5566ZM92.2974 66.0746C90.889 66.4704 87.1968 67.839 83.4902 70.1964L84.0269 71.0402C87.644 68.7397 91.2452 67.409 92.5679 67.0374L92.2974 66.0746ZM83.4902 70.1964C82.3212 70.9399 81.4258 71.6776 80.841 72.3321C80.5496 72.6584 80.3215 72.9793 80.1796 73.2837C80.0424 73.5781 79.9551 73.9243 80.0559 74.2586C80.1673 74.6279 80.4629 74.8447 80.796 74.942C81.1129 75.0346 81.4989 75.0341 81.9255 74.9724C82.7854 74.8479 83.9806 74.4477 85.5187 73.7196L85.0909 72.8157C83.5883 73.527 82.4977 73.8792 81.7823 73.9827C81.4212 74.035 81.1973 74.0175 81.0763 73.9821C80.9715 73.9515 81.0012 73.9297 81.0133 73.9698C81.0149 73.975 80.9949 73.9015 81.086 73.7062C81.1724 73.5208 81.3335 73.2818 81.5868 72.9983C82.0915 72.4334 82.9073 71.7523 84.0269 71.0402L83.4902 70.1964ZM85.5187 73.7196C91.6407 70.8216 94.5419 68.6001 96.0038 67.4636L95.3901 66.6741C93.9711 67.7772 91.1319 69.9561 85.0909 72.8157L85.5187 73.7196ZM96.0038 67.4636C96.2067 67.3059 96.378 67.1388 96.4936 66.9596C96.6091 66.7804 96.6995 66.5379 96.6335 66.2706C96.567 66.0018 96.374 65.8351 96.1994 65.7398C96.0258 65.645 95.8221 65.5921 95.6202 65.5624C94.8256 65.4459 93.5614 65.6237 92.2651 66.0849L92.6003 67.0271C93.8176 66.5939 94.9057 66.4683 95.475 66.5519C95.614 66.5722 95.6896 66.6008 95.7204 66.6176C95.7503 66.6339 95.687 66.6089 95.6627 66.5105C95.6387 66.4137 95.6837 66.3704 95.6531 66.4177C95.6226 66.4651 95.5473 66.5519 95.3901 66.6741L96.0038 67.4636ZM89.9475 90.4011C88.8234 93.1488 86.6333 97.3473 84.4451 101.173C82.2483 105.013 80.0949 108.404 79.0481 109.574L79.7932 110.241C80.9233 108.978 83.1278 105.49 85.3132 101.669C87.5072 97.8336 89.7235 93.5895 90.8731 90.7798L89.9475 90.4011ZM79.0481 109.574C78.345 110.359 77.5724 111.287 76.751 112.179C75.9345 113.066 75.1422 113.834 74.4688 114.256C74.1306 114.469 73.8705 114.562 73.6849 114.574C73.5331 114.584 73.4219 114.543 73.311 114.41C73.177 114.249 73.0323 113.934 72.9386 113.362C72.8463 112.799 72.8109 112.035 72.8544 111.026L71.8553 110.983C71.8103 112.03 71.8443 112.868 71.9518 113.524C72.0579 114.171 72.2434 114.691 72.5426 115.05C72.865 115.437 73.29 115.602 73.7499 115.572C74.1761 115.544 74.6031 115.353 75.0002 115.104C75.7975 114.604 76.668 113.745 77.4867 112.856C78.3006 111.972 79.1358 110.975 79.7932 110.241L79.0481 109.574ZM72.8544 111.026C72.9375 109.097 73.8242 106.959 75.2193 104.791C76.6096 102.63 78.4773 100.481 80.461 98.5379C82.4433 96.5962 84.5309 94.8705 86.3519 93.5549C88.1883 92.2283 89.71 91.3507 90.5683 91.0648L90.2523 90.116C89.2382 90.4538 87.611 91.4116 85.7663 92.7443C83.9062 94.0882 81.7803 95.8458 79.7612 97.8235C77.7434 99.8 75.8215 102.007 74.3783 104.25C72.9399 106.485 71.9493 108.8 71.8553 110.983L72.8544 111.026ZM96.9538 68.8853C96.1133 71.2368 95.508 73.1073 95.0038 74.6654L95.9552 74.9733C96.4591 73.416 97.0605 71.558 97.8955 69.2219L96.9538 68.8853ZM95.0038 74.6654C94.2894 76.8729 93.7856 78.4269 93.106 79.8549C92.432 81.2711 91.5792 82.5744 90.1584 84.2504L90.9212 84.897C92.3845 83.1707 93.2899 81.7955 94.009 80.2846C94.7225 78.7854 95.2465 77.1634 95.9552 74.9733L95.0038 74.6654ZM102.675 64.326C101.56 63.5381 100.533 63.4236 99.6398 63.6349C98.7816 63.8381 98.0879 64.3359 97.6206 64.667L98.1987 65.483C98.6836 65.1394 99.228 64.7601 99.8701 64.6081C100.478 64.4642 101.212 64.5167 102.098 65.1426L102.675 64.326ZM97.6206 64.667C97.437 64.797 97.3011 64.8927 97.1891 64.9572C97.1349 64.9884 97.1002 65.004 97.0807 65.0109C97.0597 65.0184 97.0759 65.0088 97.1167 65.011C97.1675 65.0137 97.2288 65.0335 97.2799 65.0756C97.3241 65.1118 97.3339 65.1429 97.3284 65.1295C97.3227 65.1161 97.31 65.078 97.2983 65.0018C97.2868 64.9274 97.2779 64.8284 97.2739 64.6994L96.2744 64.7308C96.2837 65.0288 96.3162 65.3011 96.4057 65.5153C96.453 65.6282 96.5265 65.7507 96.6449 65.848C96.7703 65.9511 96.9166 66.0017 97.0628 66.0096C97.3161 66.0232 97.5443 65.9065 97.6879 65.8239C97.8496 65.7308 98.0282 65.6037 98.1987 65.483L97.6206 64.667Z" fill="white"/>
<path fill-rule="evenodd" clip-rule="evenodd" d="M122.325 63.7473C119.05 65.1227 111.923 68.3213 109.618 70.1129C106.737 72.3524 102.382 81.3764 111.055 81.4746C113.879 81.5066 117.192 80.7553 119.128 80.5634C123.137 80.1661 126.106 81.7658 125.328 84.6147C124.355 88.1802 121.448 87.7442 118.008 88.6815C114.569 89.6187 110.919 89.8063 104.235 93.9864C93.2881 100.832 102.536 107.14 107.977 105.221C112.622 103.583 122.459 96.3137 124.262 93.8941C124.729 93.2674 127.031 91.3532 127.4 90.8821C129.973 90.4499 131.221 90.0342 135.465 90.4361C136.607 90.5443 138.34 88.7721 136.241 87.5938C134.142 86.4155 129.371 85.9705 127.952 86.0875C128.006 83.5806 128.466 78.6627 124.242 77.5095C122.369 76.9983 119.74 76.994 117.403 76.9903C113.15 76.9834 109.866 76.9782 113.874 73.9224C118.823 70.1483 122.431 68.6511 124.145 67.9397C124.581 67.7586 124.895 67.6284 125.077 67.5245C125.973 67.0127 128.309 65.3811 122.325 63.7473ZM108.427 96.6438C110.732 94.8522 122.254 91.7188 124.366 92.2954L119.308 96.9666C114.462 100.506 109.539 104.21 105.801 103.492C101.511 102.668 104.773 99.4422 107.681 97.2176C107.94 97.0192 108.191 96.8272 108.427 96.6438Z" fill="white"/>
<path d="M122.325 63.7473L122.457 63.265C122.349 63.2356 122.235 63.2431 122.132 63.2863L122.325 63.7473ZM109.618 70.1129L109.925 70.5076L109.618 70.1129ZM111.055 81.4746L111.05 81.9746L111.055 81.4746ZM104.235 93.9864L104.5 94.4103L104.235 93.9864ZM107.977 105.221L108.143 105.692L107.977 105.221ZM127.4 90.8821L127.317 90.389L127.125 90.4211L127.006 90.5741L127.4 90.8821ZM135.465 90.4361L135.418 90.9339L135.465 90.4361ZM127.952 86.0875L127.452 86.0768L127.44 86.6314L127.993 86.5858L127.952 86.0875ZM113.874 73.9224L113.57 73.5248L113.874 73.9224ZM125.077 67.5245L124.829 67.0903L124.829 67.0903L125.077 67.5245ZM124.366 92.2954L124.705 92.6627C124.839 92.5394 124.895 92.3533 124.852 92.1767C124.809 92.0001 124.673 91.8609 124.498 91.813L124.366 92.2954ZM108.427 96.6438L108.734 97.0386L108.427 96.6438ZM105.801 103.492L105.707 103.983L105.707 103.983L105.801 103.492ZM119.308 96.9666L119.603 97.3704L119.626 97.3535L119.648 97.334L119.308 96.9666ZM119.128 80.5634L119.177 81.061L119.128 80.5634ZM124.262 93.8941L123.861 93.5953L124.262 93.8941ZM117.403 76.9903L117.402 77.4903L117.403 76.9903ZM124.145 67.9397L123.953 67.4779L123.953 67.4779L124.145 67.9397ZM107.681 97.2176L107.377 96.8205L107.681 97.2176ZM122.132 63.2863C120.488 63.9766 117.879 65.1236 115.39 66.3236C112.919 67.5153 110.512 68.7844 109.311 69.7181L109.925 70.5076C111.028 69.6498 113.338 68.4237 115.825 67.2244C118.295 66.0333 120.887 64.8934 122.519 64.2084L122.132 63.2863ZM109.311 69.7181C108.524 70.3297 107.674 71.3704 106.976 72.5673C106.276 73.7676 105.703 75.1702 105.509 76.5259C105.315 77.8791 105.492 79.2533 106.387 80.2981C107.283 81.3443 108.804 81.9492 111.05 81.9746L111.061 80.9747C108.97 80.951 107.783 80.3911 107.146 79.6476C106.508 78.9028 106.328 77.8626 106.499 76.6676C106.67 75.4751 107.184 74.1957 107.839 73.071C108.497 71.943 109.271 71.0159 109.925 70.5076L109.311 69.7181ZM103.97 93.5625C101.188 95.3023 99.6122 97.0535 98.9698 98.72C98.316 100.416 98.653 101.965 99.5586 103.188C100.45 104.392 101.877 105.266 103.417 105.717C104.957 106.169 106.665 106.214 108.143 105.692L107.811 104.749C106.568 105.187 105.079 105.163 103.698 104.758C102.315 104.352 101.095 103.582 100.362 102.593C99.6441 101.623 99.3818 100.432 99.9029 99.0796C100.435 97.6981 101.809 96.0936 104.5 94.4103L103.97 93.5625ZM127.483 91.3752C128.798 91.1542 129.712 90.9496 130.852 90.8442C131.977 90.7401 133.318 90.7349 135.418 90.9339L135.512 89.9383C133.369 89.7353 131.963 89.7371 130.76 89.8484C129.571 89.9584 128.575 90.1778 127.317 90.389L127.483 91.3752ZM135.418 90.9339C135.835 90.9734 136.262 90.8415 136.615 90.6352C136.972 90.427 137.301 90.1165 137.508 89.7362C137.718 89.3492 137.808 88.8739 137.638 88.3859C137.471 87.9049 137.079 87.4907 136.486 87.1578L135.996 88.0298C136.453 88.2861 136.631 88.5353 136.694 88.7146C136.754 88.8868 136.732 89.0687 136.629 89.2586C136.522 89.4551 136.335 89.641 136.111 89.7714C135.884 89.9039 135.666 89.9529 135.512 89.9383L135.418 90.9339ZM136.486 87.1578C135.351 86.5208 133.554 86.1054 131.915 85.8604C130.268 85.6143 128.677 85.5261 127.911 85.5892L127.993 86.5858C128.646 86.532 130.15 86.6077 131.767 86.8495C133.393 87.0924 135.032 87.4886 135.996 88.0298L136.486 87.1578ZM128.452 86.0983C128.478 84.882 128.613 82.9407 128.187 81.1738C127.753 79.3715 126.715 77.6665 124.374 77.0272L124.11 77.9919C125.992 78.5057 126.837 79.8363 127.215 81.4079C127.602 83.0149 127.48 84.786 127.452 86.0768L128.452 86.0983ZM125.324 67.9587C125.561 67.8239 125.92 67.6 126.219 67.3025C126.509 67.0141 126.822 66.5745 126.78 66.0184C126.736 65.4519 126.34 64.9606 125.676 64.534C125.005 64.1033 123.973 63.6789 122.457 63.265L122.193 64.2297C123.67 64.6327 124.589 65.0248 125.136 65.3755C125.688 65.7304 125.774 65.9853 125.783 66.0949C125.792 66.2149 125.727 66.3813 125.514 66.5938C125.309 66.7972 125.041 66.9692 124.829 67.0903L125.324 67.9587ZM124.498 91.813C124.148 91.7176 123.667 91.7097 123.137 91.7442C122.592 91.7798 121.941 91.8647 121.225 91.9867C119.791 92.2308 118.064 92.6285 116.337 93.0991C114.61 93.5697 112.873 94.1159 111.418 94.659C109.984 95.1945 108.764 95.7486 108.12 96.2491L108.734 97.0386C109.243 96.6432 110.327 96.1338 111.768 95.5959C113.188 95.0657 114.895 94.5285 116.6 94.0639C118.306 93.5992 120 93.2097 121.393 92.9725C122.09 92.8538 122.704 92.7746 123.202 92.7421C123.716 92.7086 124.056 92.7289 124.234 92.7777L124.498 91.813ZM105.707 103.983C107.759 104.377 110.06 103.551 112.382 102.263C114.719 100.966 117.19 99.1328 119.603 97.3704L119.013 96.5629C116.58 98.3398 114.167 100.129 111.896 101.389C109.61 102.657 107.58 103.325 105.895 103.001L105.707 103.983ZM119.648 97.334L124.705 92.6627L124.027 91.9281L118.969 96.5993L119.648 97.334ZM111.05 81.9746C112.502 81.9911 114.068 81.8063 115.497 81.5977C116.947 81.3859 118.223 81.1555 119.177 81.061L119.078 80.0659C118.096 80.1632 116.748 80.4044 115.352 80.6082C113.935 80.8152 112.432 80.9902 111.061 80.9747L111.05 81.9746ZM119.177 81.061C121.12 80.8685 122.741 81.169 123.761 81.7973C124.265 82.1078 124.608 82.489 124.791 82.9196C124.973 83.3468 125.015 83.864 124.846 84.483L125.811 84.7463C126.03 83.9408 125.993 83.1897 125.711 82.5282C125.431 81.87 124.928 81.3419 124.285 80.946C123.013 80.1617 121.145 79.861 119.078 80.0659L119.177 81.061ZM124.846 84.483C124.62 85.3086 124.293 85.87 123.899 86.2735C123.505 86.6783 123.017 86.9527 122.426 87.1625C121.828 87.3748 121.148 87.5135 120.373 87.6608C119.609 87.8061 118.76 87.9584 117.877 88.1991L118.14 89.1639C118.977 88.9359 119.781 88.7912 120.56 88.6432C121.328 88.4972 122.08 88.3464 122.76 88.1048C123.448 87.8608 124.084 87.5171 124.616 86.9715C125.149 86.4247 125.549 85.7035 125.811 84.7463L124.846 84.483ZM117.877 88.1991C114.485 89.1234 110.735 89.3321 103.97 93.5625L104.5 94.4103C111.104 90.2805 114.653 90.1141 118.14 89.1639L117.877 88.1991ZM108.143 105.692C110.538 104.848 114.209 102.583 117.475 100.258C119.117 99.0893 120.671 97.8946 121.931 96.8373C123.179 95.7901 124.174 94.8494 124.663 94.1929L123.861 93.5953C123.449 94.1486 122.537 95.0238 121.289 96.0712C120.052 97.1086 118.519 98.2871 116.895 99.4431C113.631 101.767 110.061 103.956 107.811 104.749L108.143 105.692ZM124.663 94.1929C124.751 94.0747 124.952 93.8648 125.243 93.5865C125.525 93.3169 125.863 93.0084 126.204 92.7003C126.541 92.3945 126.882 92.088 127.16 91.8296C127.426 91.5823 127.672 91.3456 127.794 91.1901L127.006 90.5741C126.943 90.6541 126.763 90.8333 126.479 91.0971C126.208 91.3497 125.875 91.6492 125.532 91.9591C125.192 92.2668 124.845 92.5838 124.552 92.8641C124.268 93.1357 124.007 93.4001 123.861 93.5953L124.663 94.1929ZM124.374 77.0272C122.422 76.4945 119.716 76.494 117.403 76.4903L117.402 77.4903C119.763 77.4941 122.316 77.5021 124.11 77.9919L124.374 77.0272ZM117.403 76.4903C116.336 76.4886 115.349 76.4868 114.523 76.4386C113.677 76.3893 113.078 76.2938 112.746 76.1439C112.669 76.1093 112.621 76.0777 112.592 76.0533C112.577 76.0415 112.569 76.0324 112.564 76.0267C112.562 76.0238 112.561 76.0218 112.56 76.0205C112.559 76.0193 112.559 76.0186 112.559 76.0186C112.559 76.0186 112.559 76.0189 112.559 76.0194C112.559 76.0196 112.559 76.0198 112.559 76.02C112.559 76.0201 112.559 76.0202 112.559 76.0202C112.559 76.0202 112.559 76.02 112.559 76.0197C112.559 76.0193 112.559 76.0188 112.559 76.018C112.559 76.0165 112.559 76.0139 112.559 76.01C112.56 75.9943 112.565 75.9563 112.594 75.8912C112.654 75.7549 112.791 75.554 113.058 75.2804C113.321 75.0113 113.687 74.6934 114.177 74.32L113.57 73.5248C113.058 73.9154 112.651 74.2661 112.342 74.5822C112.038 74.8938 111.808 75.1947 111.679 75.4887C111.545 75.7923 111.504 76.1302 111.657 76.4497C111.8 76.7508 112.071 76.9362 112.335 77.0555C112.854 77.2897 113.624 77.3879 114.464 77.4369C115.325 77.4871 116.343 77.4886 117.402 77.4903L117.403 76.4903ZM114.177 74.32C119.079 70.5822 122.643 69.1044 124.336 68.4015L123.953 67.4779C122.218 68.1978 118.568 69.7144 113.57 73.5248L114.177 74.32ZM124.336 68.4015C124.756 68.2273 125.108 68.0823 125.324 67.9587L124.829 67.0903C124.681 67.1744 124.406 67.2898 123.953 67.4779L124.336 68.4015ZM105.895 103.001C104.862 102.803 104.454 102.486 104.313 102.234C104.186 102.005 104.19 101.656 104.482 101.118C104.767 100.59 105.271 99.9946 105.905 99.3796C106.534 98.7697 107.267 98.164 107.985 97.6147L107.377 96.8205C106.641 97.3835 105.876 98.0153 105.209 98.6617C104.548 99.303 103.959 99.9822 103.602 100.642C103.251 101.291 103.063 102.043 103.439 102.72C103.803 103.374 104.595 103.77 105.707 103.983L105.895 103.001ZM107.985 97.6147C108.244 97.4166 108.496 97.2234 108.734 97.0386L108.12 96.2491C107.886 96.4311 107.637 96.6218 107.377 96.8205L107.985 97.6147Z" fill="white"/>
<path fill-rule="evenodd" clip-rule="evenodd" d="M149.173 9.37789C149.934 8.57727 149.902 7.31135 149.101 6.55037C148.301 5.78939 147.035 5.82151 146.274 6.62212L133.424 20.1412L119.622 7.02228C118.821 6.26129 117.555 6.29342 116.794 7.09403C116.033 7.89464 116.065 9.16056 116.866 9.92155L130.668 23.0404L116.55 37.8933C115.789 38.6939 115.822 39.9598 116.622 40.7208C117.423 41.4818 118.689 41.4496 119.45 40.649L133.567 25.7962L148.137 39.6448C148.938 40.4058 150.204 40.3737 150.965 39.5731C151.726 38.7725 151.693 37.5066 150.893 36.7456L136.323 22.8969L149.173 9.37789Z" fill="white"/>
</svg>
