<svg width="117" height="113" viewBox="0 0 117 113" fill="none" xmlns="http://www.w3.org/2000/svg">
<path fill-rule="evenodd" clip-rule="evenodd" d="M18.5252 53.8824C15.9709 51.693 8.48329 52.4411 3.52064 62.0744C-1.44201 71.7078 2.14266 75.6166 3.96714 77.4411C6.62367 80.0977 8.92595 80.6799 14.955 66.4941C16.3543 63.2015 17.2934 61.1422 18.436 58.9743C19.2347 57.4588 20.1189 55.9581 20.7759 55.0383C22.7024 52.3412 21.5226 56.9648 19.6811 66.5974C18.2829 73.9111 18.3449 82.7918 18.4641 86.2478C18.9506 87.9507 22.3782 92.4127 23.0877 88.9449C23.718 85.8647 23.7044 70.9174 24.69 64.2639C25.4198 58.5471 29.6042 46.6994 33.1056 40.3968C35.0321 36.9291 34.6468 35.0026 29.699 33.076C28.0967 32.4521 27.7725 35.7732 26.0111 39.1718C24.0804 42.8972 22.2122 46.5616 18.5252 53.8824ZM8.38678 64.2639C11.0141 58.1336 15.0358 55.8712 16.7387 55.5063C17.0306 56.3821 15.4007 59.2769 14.5493 60.6149C12.6032 64.1423 9.22174 72.2188 8.34598 73.3864C7.25127 74.8461 5.10267 71.9268 8.38678 64.2639Z" fill="#94A8AC"/>
<path d="M18.5252 53.8824L18.1998 54.262L18.6846 54.6775L18.9718 54.1073L18.5252 53.8824ZM3.96714 77.4411L3.61358 77.7946L3.96714 77.4411ZM14.955 66.4941L14.4948 66.2985L14.955 66.4941ZM20.7759 55.0383L20.3691 54.7477L20.7759 55.0383ZM18.4641 86.2478L17.9644 86.265L17.9665 86.3263L17.9833 86.3852L18.4641 86.2478ZM23.0877 88.9449L23.5776 89.0452L23.0877 88.9449ZM24.69 64.2639L25.1847 64.3372L25.186 64.3272L24.69 64.2639ZM33.1056 40.3968L33.5427 40.6396L33.1056 40.3968ZM29.699 33.076L29.8805 32.6101L29.699 33.076ZM16.7387 55.5063L17.213 55.3482L17.0715 54.9236L16.6339 55.0174L16.7387 55.5063ZM8.38678 64.2639L7.92721 64.067L8.38678 64.2639ZM8.34598 73.3864L7.94598 73.0864L8.34598 73.3864ZM14.5493 60.6149L14.1275 60.3465L14.1191 60.3597L14.1115 60.3734L14.5493 60.6149ZM18.436 58.9743L18.8783 59.2074L18.436 58.9743ZM19.6811 66.5974L20.1722 66.6913L19.6811 66.5974ZM26.0111 39.1718L26.455 39.4018L26.0111 39.1718ZM18.8506 53.5028C17.3839 52.2456 14.6567 51.9215 11.7414 53.0802C8.79778 54.2502 5.60214 56.9421 3.07615 61.8455L3.96513 62.3034C6.40179 57.5734 9.4313 55.0745 12.1107 54.0095C14.8185 52.9332 17.1122 53.3298 18.1998 54.262L18.8506 53.5028ZM3.07615 61.8455C0.560896 66.728 0.174762 70.2325 0.709305 72.7885C1.24413 75.3458 2.68457 76.8656 3.61358 77.7946L4.32069 77.0875C3.42523 76.1921 2.16109 74.8453 1.68813 72.5837C1.21488 70.3209 1.51774 67.0542 3.96513 62.3034L3.07615 61.8455ZM3.61358 77.7946C4.28066 78.4617 4.99887 79.0792 5.81229 79.3249C6.68053 79.5872 7.57125 79.4051 8.50386 78.6778C9.41062 77.9706 10.3853 76.7301 11.5003 74.8143C12.6204 72.8899 13.904 70.2452 15.4151 66.6896L14.4948 66.2985C12.9914 69.8359 11.7264 72.438 10.6361 74.3112C9.54079 76.193 8.64339 77.3008 7.88888 77.8892C7.16023 78.4575 6.60047 78.5183 6.10147 78.3676C5.54766 78.2003 4.98188 77.7487 4.32069 77.0875L3.61358 77.7946ZM17.9833 86.3852C18.1254 86.8823 18.4625 87.53 18.8755 88.1519C19.2926 88.78 19.8159 89.4251 20.3601 89.909C20.6321 90.1509 20.9219 90.3637 21.2176 90.5116C21.5103 90.658 21.8424 90.7575 22.184 90.7235C22.9538 90.6467 23.3876 89.9738 23.5776 89.0452L22.5979 88.8447C22.4331 89.65 22.1725 89.7197 22.0848 89.7284C21.9976 89.7371 21.8603 89.715 21.6649 89.6173C21.4726 89.5211 21.2557 89.3672 21.0246 89.1617C20.5623 88.7507 20.0931 88.1778 19.7086 87.5987C19.3199 87.0134 19.0461 86.4647 18.9449 86.1105L17.9833 86.3852ZM23.5776 89.0452C23.7441 88.2312 23.8625 86.6792 23.9647 84.7511C24.0677 82.8085 24.156 80.4385 24.2552 77.9644C24.4542 73.001 24.6966 67.6315 25.1846 64.3372L24.1954 64.1907C23.6978 67.5498 23.4542 72.9806 23.256 77.9243C23.1566 80.4038 23.0686 82.764 22.9661 84.6982C22.8628 86.647 22.7465 88.1185 22.5979 88.8447L23.5776 89.0452ZM25.186 64.3272C25.544 61.5227 26.7581 57.1718 28.33 52.7164C29.8999 48.2663 31.8107 43.7573 33.5427 40.6396L32.6685 40.154C30.8991 43.3389 28.967 47.9051 27.3869 52.3837C25.8088 56.857 24.5658 61.2884 24.1941 64.2006L25.186 64.3272ZM33.5427 40.6396C34.5116 38.8956 35.0122 37.3574 34.4428 35.9688C33.8826 34.6026 32.3614 33.5761 29.8805 32.6101L29.5176 33.542C31.9845 34.5025 33.1298 35.4026 33.5176 36.3482C33.8961 37.2714 33.6261 38.4303 32.6685 40.154L33.5427 40.6396ZM16.6339 55.0174C14.7448 55.4222 10.6064 57.8155 7.92721 64.067L8.84635 64.4609C11.4217 58.4517 15.3268 56.3202 16.8435 55.9952L16.6339 55.0174ZM7.92721 64.067C6.26678 67.9413 5.94464 70.6917 6.23181 72.3323C6.3716 73.131 6.67737 73.7775 7.1656 74.0796C7.42747 74.2416 7.73287 74.2952 8.03613 74.2086C8.3271 74.1254 8.56439 73.9286 8.74598 73.6864L7.94598 73.0864C7.85389 73.2092 7.78457 73.2404 7.76133 73.2471C7.75038 73.2502 7.73398 73.2553 7.6918 73.2292C7.5719 73.155 7.34052 72.8665 7.21684 72.1599C6.97706 70.7901 7.22267 68.2495 8.84635 64.4609L7.92721 64.067ZM8.74598 73.6864C9.00084 73.3466 9.39895 72.5711 9.86146 71.6114C10.3344 70.6299 10.9021 69.3962 11.5005 68.0944C12.7023 65.4804 14.0251 62.6001 14.9871 60.8565L14.1115 60.3734C13.1274 62.1571 11.7863 65.0788 10.592 67.6767C9.99233 68.981 9.42879 70.2057 8.9606 71.1773C8.48197 72.1705 8.129 72.8424 7.94598 73.0864L8.74598 73.6864ZM14.9711 60.8834C15.4041 60.2029 16.0354 59.1265 16.524 58.1026C16.7677 57.5919 16.9827 57.0802 17.1183 56.6299C17.186 56.4048 17.2376 56.1832 17.2603 55.9773C17.2824 55.7777 17.2819 55.5549 17.213 55.3482L16.2644 55.6644C16.2684 55.6766 16.2809 55.7359 16.2664 55.8675C16.2525 55.9927 16.218 56.1514 16.1607 56.3417C16.0461 56.7224 15.8552 57.1823 15.6215 57.6719C15.1553 58.6489 14.5459 59.689 14.1275 60.3465L14.9711 60.8834ZM15.4151 66.6896C16.8124 63.402 17.7452 61.3574 18.8783 59.2074L17.9937 58.7411C16.8416 60.9271 15.8963 63.0009 14.4948 66.2985L15.4151 66.6896ZM18.8783 59.2074C19.6726 57.7002 20.5448 56.2221 21.1828 55.3289L20.3691 54.7477C19.6931 55.694 18.7968 57.2173 17.9937 58.7411L18.8783 59.2074ZM21.1828 55.3289C21.4214 54.9948 21.5767 54.827 21.6601 54.7636C21.7067 54.7281 21.6688 54.7737 21.5676 54.7776C21.4117 54.7837 21.3002 54.6911 21.2559 54.6223C21.23 54.582 21.2406 54.5736 21.2511 54.651C21.2602 54.7182 21.2652 54.8184 21.2618 54.9585C21.2551 55.2382 21.2166 55.6252 21.1464 56.1246C20.8643 58.1313 20.1146 61.6668 19.19 66.5035L20.1722 66.6913C21.0891 61.8954 21.85 58.3028 22.1366 56.2638C22.2086 55.7518 22.2534 55.32 22.2615 54.9826C22.2656 54.8141 22.2609 54.6562 22.242 54.5168C22.2246 54.3877 22.1889 54.2243 22.0972 54.0817C21.9872 53.9104 21.7904 53.7682 21.5286 53.7784C21.3214 53.7865 21.1569 53.89 21.055 53.9674C20.8414 54.1298 20.612 54.4075 20.3691 54.7477L21.1828 55.3289ZM19.19 66.5035C17.781 73.8741 17.8449 82.8004 17.9644 86.265L18.9638 86.2306C18.8449 82.7831 18.7849 73.9481 20.1722 66.6913L19.19 66.5035ZM29.8805 32.6101C29.6049 32.5028 29.322 32.4681 29.0417 32.5319C28.7643 32.5951 28.5345 32.7446 28.3451 32.9297C27.9836 33.2828 27.7058 33.8301 27.4547 34.4195C26.9231 35.6671 26.4404 37.2567 25.5672 38.9417L26.455 39.4018C27.3431 37.6882 27.9032 35.918 28.3747 34.8114C28.6251 34.2237 28.8388 33.8453 29.0439 33.645C29.1377 33.5534 29.2099 33.5192 29.2638 33.5069C29.3148 33.4953 29.3926 33.4933 29.5176 33.542L29.8805 32.6101ZM25.5672 38.9417C23.6352 42.6696 21.766 46.336 18.0786 53.6575L18.9718 54.1073C22.6584 46.7873 24.5256 43.1248 26.455 39.4018L25.5672 38.9417Z" fill="#424B54"/>
<path d="M37.7671 79.2656C32.2206 76.6383 32.3481 61.7504 35.9426 53.7226C44.2809 51.5332 40.7408 65.0345 41.1057 73.0624C41.3977 79.4846 45.3629 73.7922 47.3091 70.1432L47.674 73.0624C44.3899 81.4551 39.5187 80.4333 37.7671 79.2656Z" fill="#94A8AC"/>
<path d="M37.7671 43.5054C39.1233 43.2621 41.6166 43.5054 40.7408 46.4246C39.6461 50.0736 36.253 46.4246 37.7671 43.5054Z" fill="#94A8AC"/>
<path d="M37.7671 79.2656C32.2206 76.6383 32.3481 61.7504 35.9426 53.7226C44.2809 51.5332 40.7408 65.0345 41.1057 73.0624C41.3977 79.4846 45.3629 73.7922 47.3091 70.1432L47.674 73.0624C44.3899 81.4551 39.5187 80.4333 37.7671 79.2656Z" stroke="#424B54" stroke-linecap="round" stroke-linejoin="round"/>
<path d="M37.7671 43.5054C39.1233 43.2621 41.6166 43.5054 40.7408 46.4246C39.6461 50.0736 36.253 46.4246 37.7671 43.5054Z" stroke="#424B54" stroke-linecap="round" stroke-linejoin="round"/>
<path fill-rule="evenodd" clip-rule="evenodd" d="M52.4175 58.1015C60.4427 50.3216 65.2434 52.6279 66.3381 54.4524C66.6726 55.5418 66.9773 55.1709 67.5283 54.5005C68.2692 53.599 69.4553 52.1558 71.7573 52.9929C75.7712 54.4525 74.3116 58.4664 73.5818 60.2909C72.852 62.1154 69.5679 70.5081 73.5818 68.3187C77.5957 66.1293 79.0553 66.4942 80.15 67.5889C81.2447 68.6836 80.5149 69.4134 76.501 70.5081C72.4871 71.6028 69.9328 74.522 68.8381 81.82C67.7434 89.1181 65.5948 100.43 63.4053 106.998C61.2159 113.566 52.4175 115.756 50.9579 102.984C49.7902 92.7671 60.2021 80.2388 65.554 75.2518C67.4401 71.21 67.5355 69.158 67.7503 64.5409C67.8263 62.9054 67.9174 60.9481 68.1083 58.4664C66.527 59.5611 59.3507 67.224 55.3367 72.3326C49.1012 80.2686 42.2547 67.9537 52.4175 58.1015ZM62.6347 57.3717C61.4184 58.1015 58.2559 60.3639 55.3367 63.575C51.6877 67.5889 52.4175 70.1024 57.5261 65.7236C62.6347 61.3448 64.8241 58.4664 65.9189 57.0068C67.0136 55.5472 64.8242 55.8469 62.6347 57.3717ZM61.4992 102.619C62.9588 99.7002 66.2838 87.0503 67.0136 81.0902C63.7294 83.2796 53.1473 97.5108 54.9718 105.539C56.7963 113.566 59.6747 106.268 61.4992 102.619Z" fill="#94A8AC"/>
<path d="M66.3381 54.4524L66.8161 54.3057L66.7982 54.2474L66.7669 54.1952L66.3381 54.4524ZM52.4175 58.1015L52.0695 57.7425L52.4175 58.1015ZM55.3367 72.3326L54.9436 72.0237L55.3367 72.3326ZM68.1083 58.4664L68.6068 58.5047C68.6216 58.3124 68.5244 58.1287 68.3571 58.0327C68.1898 57.9367 67.9822 57.9455 67.8237 58.0553L68.1083 58.4664ZM65.554 75.2518L65.8948 75.6176L65.9659 75.5514L66.007 75.4633L65.554 75.2518ZM50.9579 102.984L51.4547 102.928L50.9579 102.984ZM71.7573 52.9929L71.9281 52.523L71.7573 52.9929ZM62.6347 57.3717L62.892 57.8004L62.9066 57.7917L62.9205 57.782L62.6347 57.3717ZM55.3367 63.575L55.7067 63.9113L55.3367 63.575ZM67.0136 81.0902L67.5098 81.151L67.6422 80.0702L66.7362 80.6742L67.0136 81.0902ZM67.7503 64.5409L68.2497 64.5642L67.7503 64.5409ZM67.5283 54.5005L67.9146 54.818V54.818L67.5283 54.5005ZM66.7669 54.1952C66.1105 53.1013 64.4446 51.997 61.941 52.1766C59.4397 52.356 56.1284 53.8076 52.0695 57.7425L52.7655 58.4605C56.7318 54.6155 59.8334 53.3303 62.0125 53.174C64.1892 53.0179 65.471 53.979 65.9094 54.7096L66.7669 54.1952ZM52.0695 57.7425C46.8781 62.7752 45.9553 68.5179 47.2585 72.0603C47.9074 73.8243 49.1467 75.1105 50.7508 75.3375C52.3591 75.5652 54.1145 74.6974 55.7299 72.6415L54.9436 72.0237C53.4412 73.9358 52.0025 74.5047 50.8909 74.3474C49.7751 74.1895 48.7688 73.2692 48.197 71.715C47.0587 68.6209 47.794 63.28 52.7655 58.4605L52.0695 57.7425ZM55.7299 72.6415C57.7255 70.1018 60.5132 66.9197 63.0015 64.2341C64.2451 62.8919 65.4109 61.677 66.3626 60.731C67.3268 59.7726 68.0405 59.1214 68.3929 58.8775L67.8237 58.0553C67.3854 58.3587 66.6091 59.0759 65.6576 60.0218C64.6935 60.9801 63.5179 62.2055 62.268 63.5545C59.7694 66.2511 56.962 69.4549 54.9436 72.0237L55.7299 72.6415ZM65.2131 74.886C62.5102 77.4046 58.5393 81.8169 55.3864 86.8929C52.2437 91.9524 49.8576 97.7604 50.4612 103.041L51.4547 102.928C50.8905 97.991 53.1266 92.4262 56.2358 87.4205C59.3349 82.4313 63.2458 78.086 65.8948 75.6176L65.2131 74.886ZM50.4612 103.041C51.1987 109.495 53.8366 112.482 56.8652 112.742C59.827 112.996 62.7391 110.578 63.8797 107.156L62.931 106.84C61.8822 109.987 59.3004 111.947 56.9507 111.745C54.6679 111.549 52.1767 109.246 51.4547 102.928L50.4612 103.041ZM63.8797 107.156C66.0835 100.545 68.2371 89.197 69.3325 81.8942L68.3436 81.7459C67.2496 89.0391 65.106 100.315 62.931 106.84L63.8797 107.156ZM69.3325 81.8942C69.874 78.2843 70.7688 75.8179 71.981 74.1294C73.1816 72.4571 74.7194 71.5123 76.6325 70.9905L76.3694 70.0257C74.2687 70.5987 72.5223 71.6608 71.1687 73.5462C69.8266 75.4156 68.8968 78.0578 68.3436 81.7459L69.3325 81.8942ZM76.6325 70.9905C77.6435 70.7148 78.4606 70.4586 79.0997 70.2101C79.7307 69.9647 80.2246 69.7132 80.5613 69.4326C80.9068 69.1447 81.1481 68.7696 81.1039 68.3055C81.064 67.8871 80.7991 67.5309 80.5035 67.2353L79.7964 67.9425C80.0482 68.1942 80.1026 68.3398 80.1084 68.4003C80.1098 68.4151 80.123 68.4962 79.9211 68.6644C79.7105 68.8399 79.3377 69.0446 78.7372 69.2781C78.1447 69.5085 77.3654 69.7541 76.3694 70.0257L76.6325 70.9905ZM80.5035 67.2353C79.8788 66.6106 79.11 66.1695 77.9379 66.2228C76.8176 66.2737 75.3671 66.7753 73.3423 67.8798L73.8212 68.7577C75.8103 67.6727 77.0966 67.2621 77.9833 67.2217C78.8181 67.1838 79.3265 67.4725 79.7964 67.9425L80.5035 67.2353ZM73.3423 67.8798C72.8711 68.1368 72.5877 68.1907 72.4394 68.1788C72.3432 68.1711 72.2904 68.1397 72.236 68.0271C72.1644 67.8789 72.1167 67.6207 72.1253 67.233C72.1337 66.856 72.1937 66.4055 72.2932 65.9081C72.6934 63.907 73.6793 61.3934 74.046 60.4766L73.1175 60.1052C72.7545 61.0129 71.7334 63.6078 71.3126 65.712C71.2068 66.2408 71.1357 66.7539 71.1255 67.2108C71.1156 67.6569 71.162 68.1028 71.3356 68.4621C71.5263 68.8569 71.8698 69.1363 72.3594 69.1756C72.7969 69.2107 73.289 69.048 73.8212 68.7577L73.3423 67.8798ZM74.046 60.4766C74.4092 59.5685 74.9975 58.0196 74.9481 56.4889C74.9231 55.7124 74.7339 54.9179 74.2514 54.2106C73.7668 53.5003 73.0132 52.9175 71.9281 52.523L71.5864 53.4628C72.5083 53.798 73.0775 54.2643 73.4253 54.7742C73.7752 55.287 73.9281 55.8837 73.9487 56.5212C73.9905 57.8184 73.4841 59.1887 73.1175 60.1052L74.046 60.4766ZM62.3775 56.9429C61.123 57.6956 57.9216 59.9883 54.9668 63.2387L55.7067 63.9113C58.5903 60.7394 61.7138 58.5073 62.892 57.8004L62.3775 56.9429ZM54.9668 63.2387C54.0348 64.2638 53.3653 65.2113 52.9736 65.9967C52.7783 66.3882 52.6428 66.7578 52.5861 67.0889C52.5312 67.4091 52.5382 67.766 52.7235 68.0619C52.9282 68.3888 53.2705 68.5202 53.6174 68.5263C53.9475 68.5321 54.3199 68.4301 54.7151 68.2582C55.5118 67.9116 56.5594 67.2107 57.8515 66.1032L57.2007 65.344C55.9385 66.4259 54.9792 67.0528 54.3163 67.3411C53.9817 67.4866 53.7611 67.5287 53.6351 67.5265C53.5259 67.5246 53.5489 67.4957 53.5711 67.5312C53.574 67.5358 53.5353 67.4701 53.5717 67.2577C53.6062 67.0562 53.6988 66.7832 53.8684 66.443C54.2065 65.7651 54.8141 64.8931 55.7067 63.9113L54.9668 63.2387ZM57.8515 66.1032C62.9941 61.6953 65.2078 58.7881 66.3189 57.3068L65.5189 56.7068C64.4405 58.1446 62.2754 60.9943 57.2007 65.344L57.8515 66.1032ZM66.3189 57.3068C66.473 57.1012 66.5943 56.8949 66.6586 56.6915C66.7228 56.4882 66.7462 56.2305 66.6121 55.99C66.4772 55.7482 66.247 55.6382 66.0536 55.5923C65.8611 55.5466 65.6507 55.5491 65.4481 55.5737C64.6509 55.6705 63.4781 56.175 62.349 56.9614L62.9205 57.782C63.9808 57.0435 64.9974 56.6358 65.5686 56.5664C65.7081 56.5495 65.7885 56.5571 65.8226 56.5652C65.8558 56.5731 65.7881 56.5656 65.7388 56.4772C65.6902 56.39 65.7221 56.3364 65.7051 56.3901C65.6881 56.4438 65.6383 56.5474 65.5189 56.7068L66.3189 57.3068ZM66.5173 81.0295C66.1564 83.9762 65.1494 88.6032 64.046 92.8699C62.9382 97.1535 61.7539 100.992 61.052 102.396L61.9465 102.843C62.7042 101.328 63.9121 97.3815 65.0141 93.1203C66.1205 88.8423 67.1409 84.1643 67.5098 81.151L66.5173 81.0295ZM61.052 102.396C60.5806 103.339 60.0796 104.437 59.5222 105.514C58.9679 106.584 58.406 107.534 57.8677 108.119C57.5973 108.413 57.3709 108.572 57.1951 108.632C57.0513 108.682 56.9333 108.672 56.7912 108.572C56.6196 108.453 56.3969 108.187 56.156 107.66C55.9187 107.141 55.6833 106.413 55.4594 105.428L54.4843 105.649C54.7165 106.671 54.9702 107.471 55.2466 108.076C55.5194 108.672 55.8352 109.124 56.2185 109.392C56.6314 109.681 57.0848 109.728 57.5206 109.578C57.9244 109.439 58.2859 109.141 58.6034 108.796C59.2408 108.104 59.8546 107.047 60.4102 105.974C60.9626 104.907 61.5057 103.725 61.9465 102.843L61.052 102.396ZM55.4594 105.428C55.0314 103.545 55.3239 101.249 56.0987 98.7899C56.8709 96.3392 58.1066 93.7743 59.5086 91.3775C60.9096 88.9822 62.4689 86.7676 63.8792 85.0189C65.3013 83.2554 66.5382 82.0081 67.2909 81.5063L66.7362 80.6742C65.8469 81.2671 64.5294 82.6197 63.1008 84.3912C61.6602 86.1774 60.0723 88.4329 58.6454 90.8726C57.2193 93.3107 55.9464 95.9456 55.1449 98.4894C54.3461 101.025 54 103.519 54.4843 105.649L55.4594 105.428ZM67.6097 58.428C67.4182 60.9179 67.3269 62.8817 67.2508 64.5177L68.2497 64.5642C68.3258 62.9291 68.4165 60.9783 68.6068 58.5047L67.6097 58.428ZM67.2508 64.5177C67.143 66.8354 67.0663 68.4672 66.7868 70.0237C66.5096 71.5675 66.03 73.0493 65.1009 75.0404L66.007 75.4633C66.964 73.4125 67.4753 71.8474 67.771 70.2005C68.0645 68.5663 68.1428 66.8635 68.2497 64.5642L67.2508 64.5177ZM71.9281 52.523C70.6453 52.0565 69.6237 52.2167 68.8181 52.6557C68.0438 53.0776 67.5056 53.7406 67.142 54.183L67.9146 54.818C68.2919 54.3589 68.7172 53.8495 69.2966 53.5337C69.8448 53.235 70.5673 53.0922 71.5864 53.4628L71.9281 52.523ZM67.142 54.183C66.9992 54.3569 66.8933 54.485 66.8022 54.5766C66.7581 54.621 66.7288 54.6452 66.7118 54.657C66.6935 54.6698 66.7066 54.6563 66.7465 54.6476C66.7962 54.6369 66.8606 54.6398 66.921 54.6669C66.9731 54.6903 66.9908 54.7176 66.9819 54.7062C66.9729 54.6947 66.9507 54.6614 66.9193 54.591C66.8886 54.5221 66.854 54.4291 66.8161 54.3057L65.8601 54.5991C65.9476 54.8842 66.0507 55.1383 66.1935 55.3213C66.2688 55.4179 66.3719 55.5166 66.5118 55.5793C66.6599 55.6458 66.8144 55.656 66.9575 55.6251C67.2055 55.5716 67.3949 55.3989 67.5117 55.2814C67.6432 55.149 67.782 54.9793 67.9146 54.818L67.142 54.183Z" fill="#424B54"/>
<path fill-rule="evenodd" clip-rule="evenodd" d="M90.7323 46.7896C87.9347 48.979 81.9017 53.9416 80.1501 56.277C77.9607 59.1962 76.1362 69.0485 84.529 66.8591C87.2614 66.1463 90.2596 64.5489 92.0763 63.8541C95.8397 62.4148 99.1249 63.1761 99.1249 66.1293C99.1249 69.8253 96.2058 70.1703 93.1346 71.9803C90.0635 73.7903 86.592 74.9324 81.2448 80.7253C72.4872 90.2128 83.0693 93.8618 87.813 90.5777C91.863 87.7739 99.4378 78.171 100.54 75.3619C100.826 74.6343 102.543 72.1814 102.774 71.6299C105.143 70.5352 106.238 69.8054 110.437 69.0756C111.567 68.8791 112.772 66.7131 110.437 66.1293C108.102 65.5455 103.382 66.3726 102.044 66.8591C101.436 64.4264 100.585 59.5611 96.2058 59.5611C94.2646 59.5611 91.7267 60.2495 89.4712 60.8614C85.3669 61.9748 82.1974 62.8346 85.2587 58.8313C89.0398 53.8868 92.1254 51.4924 93.5916 50.3547C93.9648 50.0651 94.2332 49.8569 94.3813 49.7088C95.1111 48.979 96.9356 46.7896 90.7323 46.7896ZM85.9885 82.1849C87.74 79.8496 98.0302 73.7922 100.22 73.7922L96.5706 79.6306C92.8277 84.3213 89.0537 89.191 85.2588 89.483C80.9036 89.818 83.2004 85.8468 85.4197 82.935C85.6177 82.6753 85.8092 82.424 85.9885 82.1849Z" fill="#94A8AC"/>
<path d="M90.7323 46.7896V46.2896C90.6206 46.2896 90.5121 46.327 90.4241 46.3958L90.7323 46.7896ZM80.1501 56.277L80.5501 56.577L80.1501 56.277ZM84.529 66.8591L84.6552 67.3429L84.529 66.8591ZM81.2448 80.7253L81.6122 81.0645L81.2448 80.7253ZM87.813 90.5777L88.0976 90.9888L87.813 90.5777ZM102.774 71.6299L102.564 71.176L102.388 71.2575L102.313 71.4365L102.774 71.6299ZM110.437 69.0756L110.523 69.5682L110.437 69.0756ZM102.044 66.8591L101.559 66.9804L101.694 67.5186L102.215 67.329L102.044 66.8591ZM85.2587 58.8313L84.8616 58.5276L85.2587 58.8313ZM94.3813 49.7088L94.0277 49.3552V49.3552L94.3813 49.7088ZM100.22 73.7922L100.644 74.0572C100.74 73.9031 100.745 73.7088 100.657 73.5498C100.569 73.3909 100.401 73.2922 100.22 73.2922V73.7922ZM85.9885 82.1849L86.3885 82.4849L85.9885 82.1849ZM85.2588 89.483L85.2971 89.9815H85.2971L85.2588 89.483ZM96.5706 79.6306L96.9615 79.9425L96.9794 79.92L96.9946 79.8956L96.5706 79.6306ZM92.0763 63.8541L92.2549 64.3211L92.0763 63.8541ZM100.54 75.3619L100.075 75.1792L100.54 75.3619ZM89.4712 60.8614L89.6021 61.344L89.4712 60.8614ZM93.5916 50.3547L93.285 49.9597V49.9597L93.5916 50.3547ZM85.4197 82.935L85.0221 82.6319L85.4197 82.935ZM90.4241 46.3958C89.02 47.4947 86.8055 49.2882 84.7208 51.1012C82.6505 52.9018 80.663 54.7598 79.7501 55.977L80.5501 56.577C81.3888 55.4587 83.2936 53.6678 85.3771 51.8558C87.4462 50.0563 89.647 48.2738 91.0404 47.1833L90.4241 46.3958ZM79.7501 55.977C79.1523 56.7741 78.6055 58.0022 78.2474 59.3406C77.8883 60.6829 77.7052 62.1869 77.8751 63.5458C78.0447 64.9022 78.5771 66.1813 79.7155 66.9536C80.8554 67.7268 82.4818 67.9099 84.6552 67.3429L84.4027 66.3753C82.3798 66.903 81.087 66.6756 80.2769 66.126C79.4654 65.5755 79.0171 64.6197 78.8674 63.4218C78.718 62.2264 78.877 60.8568 79.2135 59.5991C79.551 58.3376 80.0533 57.2394 80.5501 56.577L79.7501 55.977ZM80.8774 80.3862C78.6518 82.7972 77.5927 84.9016 77.4119 86.6785C77.2279 88.4869 77.961 89.8925 79.1566 90.8337C80.3335 91.7602 81.9408 92.2278 83.5446 92.2578C85.1499 92.2879 86.8091 91.8808 88.0976 90.9888L87.5284 90.1666C86.4451 90.9165 85.0026 91.2849 83.5633 91.258C82.1224 91.231 80.7421 90.8091 79.7752 90.048C78.827 89.3015 78.2601 88.2212 78.4068 86.7797C78.5567 85.3067 79.4589 83.3972 81.6122 81.0645L80.8774 80.3862ZM102.984 72.0838C104.195 71.5241 105.023 71.0859 106.095 70.6841C107.152 70.2874 108.444 69.9294 110.523 69.5682L110.351 68.583C108.23 68.9516 106.875 69.3234 105.743 69.7477C104.626 70.1669 103.722 70.641 102.564 71.176L102.984 72.0838ZM110.523 69.5682C110.935 69.4965 111.312 69.2568 111.599 68.9647C111.889 68.6699 112.124 68.2837 112.223 67.8624C112.324 67.4337 112.286 66.9515 111.993 66.5254C111.705 66.1055 111.218 65.8092 110.558 65.6442L110.316 66.6144C110.824 66.7413 111.061 66.9347 111.169 67.0912C111.272 67.2416 111.3 67.4227 111.25 67.633C111.199 67.8507 111.067 68.0794 110.885 68.2642C110.701 68.4517 110.504 68.5565 110.351 68.583L110.523 69.5682ZM110.558 65.6442C109.296 65.3286 107.453 65.4009 105.808 65.5963C104.154 65.7927 102.595 66.1266 101.873 66.3892L102.215 67.329C102.831 67.1051 104.301 66.7822 105.925 66.5893C107.558 66.3955 109.243 66.3462 110.316 66.6144L110.558 65.6442ZM102.529 66.7378C102.234 65.5576 101.853 63.6494 100.977 62.0569C100.084 60.4325 98.6334 59.0611 96.2058 59.0611V60.0611C98.1569 60.0611 99.3218 61.1223 100.101 62.5388C100.897 63.9871 101.246 65.7279 101.559 66.9804L102.529 66.7378ZM94.7348 50.0623C94.927 49.8701 95.215 49.5593 95.4249 49.1937C95.6285 48.8391 95.8151 48.3325 95.6276 47.8073C95.4364 47.2722 94.925 46.9025 94.1719 46.666C93.4113 46.4272 92.3037 46.2896 90.7323 46.2896V47.2896C92.2624 47.2896 93.253 47.4256 93.8723 47.6201C94.4989 47.8169 94.6489 48.0402 94.6858 48.1436C94.7263 48.257 94.7077 48.4346 94.5577 48.6958C94.4141 48.9459 94.2004 49.1825 94.0277 49.3552L94.7348 50.0623ZM100.22 73.2922C99.8575 73.2922 99.3906 73.4115 98.8886 73.5843C98.3722 73.7621 97.7668 74.0155 97.1079 74.3218C95.7892 74.9348 94.2282 75.7733 92.686 76.682C91.1435 77.591 89.6114 78.5754 88.3511 79.4825C87.1088 80.3767 86.0778 81.2326 85.5885 81.8849L86.3885 82.4849C86.775 81.9696 87.6871 81.1925 88.9353 80.2942C90.1654 79.4087 91.6711 78.4409 93.1937 77.5436C94.7167 76.6461 96.2482 75.8242 97.5295 75.2286C98.1706 74.9305 98.742 74.6924 99.2142 74.5298C99.7009 74.3622 100.034 74.2922 100.22 74.2922V73.2922ZM85.2971 89.9815C87.3812 89.8212 89.3832 88.4185 91.2834 86.5642C93.1966 84.6972 95.0977 82.2782 96.9615 79.9425L96.1798 79.3188C94.3007 81.6738 92.4433 84.035 90.585 85.8485C88.7137 87.6747 86.9313 88.8528 85.2204 88.9844L85.2971 89.9815ZM96.9946 79.8956L100.644 74.0572L99.7957 73.5272L96.1466 79.3656L96.9946 79.8956ZM84.6552 67.3429C86.0608 66.9762 87.5228 66.3856 88.846 65.8081C90.1895 65.2218 91.36 64.6634 92.2549 64.3211L91.8977 63.3871C90.9759 63.7397 89.7389 64.3273 88.446 64.8916C87.1329 65.4647 85.7296 66.0292 84.4027 66.3753L84.6552 67.3429ZM92.2549 64.3211C94.0782 63.6238 95.7218 63.4866 96.8709 63.8242C97.4387 63.9911 97.8704 64.2684 98.1605 64.6355C98.4484 64.9998 98.6249 65.4877 98.6249 66.1293H99.6249C99.6249 65.2943 99.3909 64.5796 98.9451 64.0155C98.5017 63.4543 97.8768 63.0775 97.1528 62.8648C95.7185 62.4433 93.8377 62.6451 91.8977 63.3871L92.2549 64.3211ZM98.6249 66.1293C98.6249 66.9852 98.4567 67.613 98.1835 68.1059C97.9095 68.6002 97.5108 68.9935 96.996 69.3516C96.4751 69.7138 95.8555 70.0268 95.1468 70.373C94.4478 70.7144 93.6692 71.0849 92.8808 71.5495L93.3885 72.411C94.1356 71.9707 94.8736 71.6193 95.5857 71.2715C96.2881 70.9284 96.9742 70.5848 97.5669 70.1725C98.1658 69.7561 98.6888 69.257 99.0582 68.5906C99.4283 67.9228 99.6249 67.1215 99.6249 66.1293H98.6249ZM92.8808 71.5495C89.8521 73.3345 86.2889 74.5237 80.8774 80.3862L81.6122 81.0645C86.8952 75.3412 90.2749 74.2461 93.3885 72.411L92.8808 71.5495ZM88.0976 90.9888C90.1858 89.5431 93.1302 86.392 95.669 83.2884C96.9447 81.7289 98.1297 80.1669 99.067 78.8151C99.9953 77.4761 100.707 76.3068 101.006 75.5446L100.075 75.1792C99.8227 75.8216 99.1737 76.906 98.2452 78.2453C97.3255 79.5717 96.157 81.1124 94.8949 82.6552C92.3583 85.7562 89.4903 88.8084 87.5284 90.1666L88.0976 90.9888ZM101.006 75.5446C101.06 75.4074 101.199 75.1519 101.406 74.8068C101.607 74.4725 101.852 74.0857 102.099 73.699C102.344 73.315 102.592 72.9295 102.792 72.607C102.984 72.2985 103.159 72.0054 103.235 71.8233L102.313 71.4365C102.274 71.5302 102.147 71.7505 101.943 72.0797C101.747 72.3949 101.505 72.7716 101.256 73.1607C101.009 73.5471 100.757 73.9444 100.549 74.2919C100.346 74.6287 100.164 74.9526 100.075 75.1792L101.006 75.5446ZM96.2058 59.0611C94.1831 59.0611 91.5722 59.7734 89.3403 60.3788L89.6021 61.344C91.8812 60.7257 94.3461 60.0611 96.2058 60.0611V59.0611ZM89.3403 60.3788C88.31 60.6583 87.3573 60.9166 86.5476 61.0877C85.7187 61.2628 85.1162 61.3283 84.7561 61.2713C84.6731 61.2581 84.6178 61.2403 84.5832 61.2245C84.5665 61.2168 84.556 61.2103 84.5501 61.206C84.5471 61.2039 84.5452 61.2022 84.5441 61.2012C84.543 61.2002 84.5425 61.1997 84.5425 61.1997C84.5425 61.1997 84.5427 61.1999 84.543 61.2003C84.5431 61.2005 84.5432 61.2007 84.5433 61.2009C84.5434 61.201 84.5435 61.2011 84.5435 61.2011C84.5434 61.2011 84.5434 61.2009 84.5432 61.2006C84.5431 61.2003 84.5429 61.1998 84.5427 61.1991C84.5421 61.1976 84.5414 61.1951 84.5405 61.1913C84.5371 61.176 84.5323 61.1379 84.5428 61.0676C84.5647 60.9202 84.6443 60.6903 84.8297 60.3561C85.0121 60.0274 85.2819 59.6241 85.6559 59.135L84.8616 58.5276C84.4702 59.0393 84.1694 59.4849 83.9552 59.871C83.744 60.2517 83.601 60.6027 83.5537 60.9203C83.5049 61.2484 83.5542 61.5852 83.7856 61.8532C84.0037 62.1058 84.3132 62.2135 84.5996 62.2589C85.1622 62.3481 85.9303 62.2402 86.7544 62.0661C87.5976 61.8879 88.5802 61.6212 89.6021 61.344L89.3403 60.3788ZM85.6559 59.135C89.4006 54.2381 92.4494 51.8739 93.8981 50.7497L93.285 49.9597C91.8014 51.111 88.679 53.5355 84.8616 58.5276L85.6559 59.135ZM93.8981 50.7497C94.257 50.4712 94.5585 50.2386 94.7348 50.0623L94.0277 49.3552C93.9078 49.4751 93.6726 49.6589 93.285 49.9597L93.8981 50.7497ZM85.2204 88.9844C84.1717 89.0651 83.694 88.8677 83.492 88.6611C83.3087 88.4736 83.2214 88.1363 83.3607 87.5403C83.4972 86.9561 83.8264 86.2485 84.2762 85.4882C84.7222 84.7343 85.2695 83.957 85.8174 83.2381L85.0221 82.6319C84.4604 83.3689 83.8883 84.18 83.4155 84.9791C82.9466 85.7719 82.5577 86.5821 82.3869 87.3128C82.2189 88.0317 82.2354 88.8063 82.777 89.3602C83.2998 89.895 84.1683 90.0683 85.2971 89.9815L85.2204 88.9844ZM85.8174 83.2381C86.0151 82.9787 86.2078 82.7258 86.3885 82.4849L85.5885 81.8849C85.4106 82.1222 85.2203 82.3719 85.0221 82.6319L85.8174 83.2381Z" fill="#424B54"/>
<path fill-rule="evenodd" clip-rule="evenodd" d="M114.173 3.37789C114.934 2.57727 114.902 1.31135 114.101 0.550369C113.301 -0.210614 112.035 -0.178489 111.274 0.622122L98.4238 14.1412L84.6217 1.02228C83.8211 0.261294 82.5552 0.293418 81.7942 1.09403C81.0332 1.89464 81.0653 3.16056 81.8659 3.92155L95.668 17.0404L81.5504 31.8933C80.7894 32.6939 80.8215 33.9598 81.6221 34.7208C82.4227 35.4818 83.6887 35.4496 84.4496 34.649L98.5673 19.7962L113.137 33.6448C113.938 34.4058 115.204 34.3737 115.965 33.5731C116.726 32.7725 116.693 31.5066 115.893 30.7456L101.323 16.8969L114.173 3.37789Z" fill="#140000"/>
</svg>
