<svg width="117" height="128" viewBox="0 0 117 128" fill="none" xmlns="http://www.w3.org/2000/svg">
<path fill-rule="evenodd" clip-rule="evenodd" d="M18.5252 40.0891C15.9709 36.8295 8.48329 37.9433 3.52064 52.2852C-1.44201 66.6271 2.14266 72.4463 3.96714 75.1626C6.62367 79.1176 8.92595 79.9844 14.955 58.865C16.3543 53.963 17.2934 50.8973 18.436 47.6697C19.2347 45.4135 20.1189 43.1793 20.7759 41.8099C22.7024 37.7945 21.5226 44.6781 19.6811 59.0188C18.2829 69.9072 18.3449 83.1285 18.4641 88.2738C18.9506 90.8089 22.3782 97.4518 23.0877 92.2891C23.718 87.7033 23.7044 65.4503 24.69 55.5448C25.4198 47.0338 29.6042 29.3953 33.1056 20.0121C35.0321 14.8495 34.6468 11.9814 29.699 9.11321C28.0967 8.18432 27.7725 13.1286 26.0111 18.1884C24.0804 23.7346 22.2122 29.1902 18.5252 40.0891ZM8.38678 55.5448C11.0141 46.4181 15.0358 43.05 16.7387 42.5067C17.0306 43.8105 15.4007 48.1203 14.5493 50.1123C12.6032 55.3637 9.22174 67.3877 8.34598 69.1261C7.25127 71.2992 5.10267 66.9531 8.38678 55.5448Z" fill="#94A8AC"/>
<path d="M18.5252 40.0891L18.1316 40.3975L18.7023 41.1257L18.9988 40.2493L18.5252 40.0891ZM3.96714 75.1626L3.55208 75.4414L3.96714 75.1626ZM14.955 58.865L14.4742 58.7277L14.955 58.865ZM20.7759 41.8099L20.3251 41.5937L20.7759 41.8099ZM18.4641 88.2738L17.9642 88.2853L17.9652 88.327L17.9731 88.368L18.4641 88.2738ZM23.0877 92.2891L23.5831 92.3572L23.0877 92.2891ZM24.69 55.5448L25.1876 55.5943L25.1882 55.5875L24.69 55.5448ZM33.1056 20.0121L33.5741 20.1869L33.1056 20.0121ZM29.699 9.11321L29.9498 8.68064L29.699 9.11321ZM16.7387 42.5067L17.2266 42.3975L17.1072 41.8643L16.5867 42.0304L16.7387 42.5067ZM8.38678 55.5448L7.90629 55.4065L8.38678 55.5448ZM8.34598 69.1261L7.89944 68.9012L8.34598 69.1261ZM14.5493 50.1123L14.0895 49.9157L14.0847 49.927L14.0805 49.9385L14.5493 50.1123ZM18.436 47.6697L18.9073 47.8366L18.436 47.6697ZM19.6811 59.0188L20.177 59.0825L19.6811 59.0188ZM26.0111 18.1884L26.4833 18.3527L26.0111 18.1884ZM18.9188 39.7807C17.4489 37.9049 14.6415 37.3987 11.6714 39.1563C8.71582 40.9053 5.54841 44.896 3.04813 52.1217L3.99315 52.4487C6.45553 45.3325 9.51326 41.5954 12.1807 40.0169C14.8336 38.447 17.0472 39.0137 18.1316 40.3975L18.9188 39.7807ZM3.04813 52.1217C0.548188 59.3464 0.185949 64.4682 0.703579 68.153C1.22261 71.8478 2.62117 74.0554 3.55208 75.4414L4.3822 74.8838C3.48863 73.5534 2.18262 71.4933 1.69386 68.0139C1.20369 64.5246 1.53044 59.5658 3.99315 52.4487L3.04813 52.1217ZM3.55208 75.4414C3.88916 75.9432 4.23165 76.4129 4.58515 76.8008C4.93606 77.1859 5.32158 77.517 5.7518 77.7105C6.19792 77.9112 6.68164 77.958 7.18397 77.7854C7.66905 77.6188 8.12769 77.2626 8.57523 76.743C9.46465 75.7103 10.4256 73.8943 11.5339 71.0595C12.6473 68.2115 13.9266 64.2887 15.4358 59.0022L14.4742 58.7277C12.9688 64.001 11.6994 67.8896 10.6025 70.6954C9.50046 73.5143 8.58935 75.1942 7.81752 76.0904C7.43442 76.5352 7.11512 76.7517 6.85902 76.8397C6.62016 76.9218 6.39946 76.9053 6.16196 76.7985C5.90856 76.6846 5.63128 76.4641 5.32425 76.1272C5.01982 75.7932 4.70925 75.3707 4.3822 74.8838L3.55208 75.4414ZM17.9731 88.368C18.1048 89.0542 18.4265 89.9837 18.8354 90.9004C19.2452 91.8191 19.7593 92.7626 20.2933 93.4695C20.5592 93.8215 20.8454 94.1355 21.1427 94.3569C21.4313 94.5718 21.8013 94.7512 22.2078 94.6908C22.638 94.627 22.9432 94.3227 23.1473 93.9365C23.3494 93.5543 23.491 93.0272 23.5831 92.3572L22.5924 92.2211C22.5071 92.8417 22.3864 93.2364 22.2633 93.4691C22.2032 93.5828 22.1507 93.6421 22.1162 93.6713C22.0855 93.6973 22.0683 93.7006 22.061 93.7017C22.0388 93.705 21.9394 93.7033 21.7399 93.5548C21.5491 93.4127 21.3286 93.181 21.0913 92.8668C20.6189 92.2414 20.1405 91.3715 19.7487 90.493C19.3559 89.6125 19.0667 88.761 18.9551 88.1795L17.9731 88.368ZM23.5831 92.3572C23.9031 90.0285 24.0575 83.2745 24.2554 75.9253C24.4542 68.5439 24.697 60.525 25.1876 55.5943L24.1925 55.4953C23.6975 60.4701 23.4542 68.5304 23.2558 75.8984C23.0565 83.2985 22.9026 89.964 22.5924 92.2211L23.5831 92.3572ZM25.1882 55.5875C25.9135 47.129 30.0857 29.535 33.5741 20.1869L32.6372 19.8373C29.1227 29.2555 24.9262 46.9387 24.1919 55.5021L25.1882 55.5875ZM33.5741 20.1869C34.5439 17.588 34.9806 15.4516 34.4622 13.5695C33.9377 11.665 32.4725 10.1431 29.9498 8.68064L29.4483 9.54578C31.8733 10.9516 33.0747 12.2978 33.4981 13.835C33.9277 15.3947 33.5939 17.2736 32.6372 19.8373L33.5741 20.1869ZM16.5867 42.0304C15.5973 42.346 14.0885 43.4132 12.5102 45.5059C10.9208 47.6133 9.23392 50.7946 7.90629 55.4065L8.86727 55.6831C10.1669 51.1684 11.8046 48.1022 13.3086 46.108C14.8237 44.0992 16.1772 43.2107 16.8907 42.9831L16.5867 42.0304ZM7.90629 55.4065C6.2543 61.1452 5.9536 65.1552 6.22774 67.4869C6.29652 68.0718 6.40285 68.5635 6.53972 68.9564C6.6731 69.3392 6.85053 69.6723 7.08992 69.8928C7.35281 70.135 7.71787 70.2547 8.09449 70.0945C8.41316 69.9589 8.63581 69.6621 8.79251 69.3511L7.89944 68.9012C7.78246 69.1334 7.69851 69.1762 7.70297 69.1743C7.76539 69.1477 7.80864 69.1953 7.76747 69.1574C7.70281 69.0978 7.59392 68.9427 7.48405 68.6274C7.37769 68.3221 7.28387 67.9056 7.2209 67.3701C6.9681 65.2199 7.23515 61.3528 8.86727 55.6831L7.90629 55.4065ZM8.79251 69.3511C9.03286 68.874 9.42109 67.7528 9.88673 66.3143C10.3586 64.8566 10.9252 63.023 11.524 61.0841C12.7241 57.1978 14.0511 52.8954 15.0181 50.286L14.0805 49.9385C13.1013 52.5805 11.7646 56.9159 10.5685 60.7891C9.96915 62.7299 9.40464 64.5565 8.93533 66.0063C8.45983 67.4753 8.09697 68.5091 7.89944 68.9012L8.79251 69.3511ZM15.0091 50.3088C15.4391 49.3026 16.0655 47.7121 16.5489 46.2041C16.7904 45.4507 16.9994 44.708 17.1296 44.0641C17.2549 43.4443 17.325 42.8369 17.2266 42.3975L16.2508 42.6159C16.2983 42.8284 16.2742 43.2487 16.1494 43.8659C16.0295 44.4591 15.8325 45.1628 15.5966 45.8988C15.1252 47.3696 14.5109 48.93 14.0895 49.9157L15.0091 50.3088ZM15.4358 59.0022C16.8341 54.104 17.7699 51.0498 18.9073 47.8366L17.9647 47.5029C16.817 50.7449 15.8746 53.8221 14.4742 58.7277L15.4358 59.0022ZM18.9073 47.8366C19.7038 45.5866 20.5811 43.3719 21.2267 42.0262L20.3251 41.5937C19.6567 42.9868 18.7656 45.2403 17.9647 47.5029L18.9073 47.8366ZM21.2267 42.0262C21.4686 41.522 21.6351 41.2493 21.7322 41.1394C21.7532 41.1157 21.7568 41.1162 21.7428 41.1258C21.7308 41.1339 21.6727 41.1717 21.5771 41.1772C21.4647 41.1838 21.3634 41.1422 21.294 41.0826C21.2368 41.0335 21.2178 40.987 21.2175 40.9863C21.2157 40.9822 21.2211 40.994 21.2286 41.0308C21.2357 41.066 21.2428 41.1145 21.2486 41.1788C21.2604 41.3081 21.2653 41.4808 21.2617 41.701C21.2546 42.1409 21.2144 42.7353 21.1437 43.4838C20.8604 46.4843 20.1077 51.7707 19.1852 58.9551L20.177 59.0825C21.096 51.9261 21.8539 46.6004 22.1393 43.5778C22.2108 42.8206 22.2539 42.196 22.2616 41.7172C22.2655 41.478 22.2607 41.2665 22.2445 41.0882C22.2292 40.9203 22.2007 40.7407 22.1356 40.59C22.0757 40.4511 21.8947 40.1571 21.519 40.1789C21.3705 40.1876 21.2542 40.2485 21.1788 40.3C21.1013 40.3529 21.0362 40.4169 20.9829 40.4772C20.7829 40.7035 20.5648 41.094 20.3251 41.5937L21.2267 42.0262ZM19.1852 58.9551C17.782 69.8824 17.8449 83.1345 17.9642 88.2853L18.964 88.2622C18.8449 83.1225 18.7838 69.9321 20.177 59.0825L19.1852 58.9551ZM29.9498 8.68064C29.6575 8.51122 29.3267 8.44198 28.9922 8.55543C28.681 8.66096 28.4528 8.89682 28.2825 9.14452C27.9469 9.63263 27.6829 10.3976 27.434 11.2675C26.917 13.0739 26.4155 15.5058 25.5389 18.024L26.4833 18.3527C27.3681 15.8112 27.9093 13.241 28.3954 11.5426C28.648 10.6601 28.8756 10.0469 29.1065 9.71108C29.2194 9.54682 29.2932 9.50927 29.3133 9.50245C29.3197 9.5003 29.3257 9.49899 29.339 9.50097C29.3552 9.50339 29.3907 9.51242 29.4483 9.54578L29.9498 8.68064ZM25.5389 18.024C23.6075 23.5723 21.7388 29.0293 18.0516 39.9288L18.9988 40.2493C22.6856 29.351 24.5533 23.897 26.4833 18.3527L25.5389 18.024Z" fill="#93A7AB"/>
<path d="M37.7671 77.8788C32.2206 73.9674 32.3481 51.8028 35.9426 39.8512C44.2809 36.5917 40.7408 56.692 41.1057 68.6436C41.3977 78.2049 45.3629 69.7301 47.3091 64.2976L47.674 68.6436C44.3899 81.1385 39.5187 79.6172 37.7671 77.8788Z" fill="#94A8AC"/>
<path d="M37.7671 24.6401C39.1233 24.2779 41.6166 24.6401 40.7408 28.9861C39.6461 34.4187 36.253 28.9861 37.7671 24.6401Z" fill="#94A8AC"/>
<path d="M37.7671 77.8788C32.2206 73.9674 32.3481 51.8028 35.9426 39.8512C44.2809 36.5917 40.7408 56.692 41.1057 68.6436C41.3977 78.2049 45.3629 69.7301 47.3091 64.2976L47.674 68.6436C44.3899 81.1385 39.5187 79.6172 37.7671 77.8788Z" stroke="#93A7AB" stroke-linecap="round" stroke-linejoin="round"/>
<path d="M37.7671 24.6401C39.1233 24.2779 41.6166 24.6401 40.7408 28.9861C39.6461 34.4187 36.253 28.9861 37.7671 24.6401Z" stroke="#93A7AB" stroke-linecap="round" stroke-linejoin="round"/>
<path fill-rule="evenodd" clip-rule="evenodd" d="M52.4175 46.3706C60.4427 34.7882 65.2434 38.2217 66.3381 40.938C66.6726 42.5598 66.9773 42.0077 67.5283 41.0096C68.2692 39.6674 69.4553 37.5188 71.7573 38.7651C75.7712 40.9381 74.3116 46.9139 73.5818 49.6301C72.852 52.3464 69.5679 64.8412 73.5818 61.5817C77.5957 58.3222 79.0553 58.8654 80.15 60.4952C81.2447 62.125 80.5149 63.2115 76.501 64.8412C72.4871 66.471 69.9328 70.817 68.8381 81.6821C67.7434 92.5472 65.5948 109.388 63.4053 119.167C61.2159 128.945 52.4175 132.205 50.9579 113.191C49.7902 97.9797 60.2021 79.328 65.554 71.9035C67.4401 65.8863 67.5355 62.8312 67.7503 55.9575C67.8263 53.5226 67.9174 50.6085 68.1083 46.9139C66.527 48.5436 59.3507 59.952 55.3367 67.5575C49.1012 79.3724 42.2547 61.0383 52.4175 46.3706ZM62.6347 45.2841C61.4184 46.3706 58.2559 49.7388 55.3367 54.5194C51.6877 60.4952 52.4175 64.2372 57.5261 57.7182C62.6347 51.1992 64.8241 46.9139 65.9189 44.7409C67.0136 42.5678 64.8242 43.0141 62.6347 45.2841ZM61.4992 112.648C62.9588 108.302 66.2838 89.4687 67.0136 80.5956C63.7294 83.8551 53.1473 105.042 54.9718 116.994C56.7963 128.945 59.6747 118.08 61.4992 112.648Z" fill="#94A8AC"/>
<path d="M66.3381 40.938L66.8278 40.837L66.8187 40.7929L66.8019 40.7511L66.3381 40.938ZM52.4175 46.3706L52.0065 46.0859L52.4175 46.3706ZM55.3367 67.5575L54.8945 67.3241L55.3367 67.5575ZM68.1083 46.9139L68.6076 46.9397C68.6183 46.7316 68.499 46.5387 68.308 46.4555C68.117 46.3723 67.8945 46.4162 67.7494 46.5657L68.1083 46.9139ZM65.554 71.9035L65.9596 72.1959L66.0069 72.1303L66.0311 72.0531L65.554 71.9035ZM50.9579 113.191L51.4565 113.153L50.9579 113.191ZM71.7573 38.7651L71.9953 38.3254L71.7573 38.7651ZM62.6347 45.2841L62.9678 45.657L62.9817 45.6446L62.9946 45.6312L62.6347 45.2841ZM55.3367 54.5194L55.7635 54.78L55.3367 54.5194ZM67.0136 80.5956L67.5119 80.6366L67.6229 79.2863L66.6613 80.2407L67.0136 80.5956ZM67.7503 55.9575L68.25 55.9731L67.7503 55.9575ZM67.5283 41.0096L67.9661 41.2512V41.2512L67.5283 41.0096ZM66.8019 40.7511C66.1977 39.2519 64.5499 37.5147 61.9236 37.7951C59.3556 38.0694 56.0377 40.2679 52.0065 46.0859L52.8285 46.6554C56.8225 40.891 59.9175 39.015 62.0298 38.7895C64.0839 38.5701 65.3838 39.9077 65.8744 41.1249L66.8019 40.7511ZM52.0065 46.0859C46.8466 53.533 45.9859 61.9301 47.2423 67.015C47.5573 68.2895 48.0109 69.3795 48.5832 70.1995C49.1537 71.0171 49.871 71.605 50.7178 71.7834C51.5788 71.9648 52.4654 71.7006 53.3132 71.034C54.1532 70.3736 54.9819 69.3011 55.7789 67.7909L54.8945 67.3241C54.1327 68.7676 53.3835 69.7067 52.6952 70.2478C52.0148 70.7828 51.4228 70.91 50.9239 70.8049C50.4107 70.6967 49.8867 70.3201 49.4032 69.6273C48.9215 68.9369 48.5086 67.9706 48.2131 66.7751C47.0282 61.9797 47.8256 53.8759 52.8285 46.6554L52.0065 46.0859ZM55.7789 67.7909C57.7785 64.0022 60.5695 59.2595 63.0593 55.259C64.3038 53.2592 65.471 51.4483 66.4244 50.0374C67.3885 48.6106 68.1085 47.6317 68.4671 47.262L67.7494 46.5657C67.3174 47.0109 66.5474 48.0692 65.5958 49.4775C64.6334 50.9018 63.4592 52.7238 62.2103 54.7306C59.7131 58.743 56.9089 63.5073 54.8945 67.3241L55.7789 67.7909ZM65.1483 71.6112C62.4516 75.3522 58.4914 81.9046 55.3497 89.4347C52.2113 96.9567 49.8667 105.509 50.4594 113.229L51.4565 113.153C50.8814 105.662 53.1589 97.2824 56.2725 89.8197C59.3828 82.3651 63.3044 75.8793 65.9596 72.1959L65.1483 71.6112ZM50.4594 113.229C50.8267 118.014 51.6581 121.444 52.76 123.738C53.8579 126.023 55.2742 127.271 56.8446 127.472C58.4114 127.672 59.9153 126.802 61.1258 125.353C62.344 123.894 63.333 121.778 63.8933 119.276L62.9174 119.057C62.383 121.444 61.4511 123.403 60.3583 124.712C59.2577 126.029 58.0602 126.619 56.9714 126.48C55.886 126.341 54.6921 125.45 53.6614 123.305C52.6347 121.168 51.819 117.875 51.4565 113.153L50.4594 113.229ZM63.8933 119.276C66.0896 109.466 68.2405 92.6002 69.3355 81.7322L68.3406 81.632C67.2462 92.4942 65.0999 109.31 62.9174 119.057L63.8933 119.276ZM69.3355 81.7322C70.4291 70.8787 72.9632 66.8173 76.6891 65.3045L76.3129 64.378C72.0109 66.1247 69.4364 70.7553 68.3406 81.632L69.3355 81.7322ZM76.6891 65.3045C77.703 64.8928 78.5249 64.5094 79.169 64.1365C79.8088 63.766 80.3017 63.39 80.6305 62.982C80.9697 62.5611 81.1371 62.1013 81.1051 61.6007C81.0743 61.1196 80.8627 60.6596 80.565 60.2164L79.7349 60.774C79.9846 61.1457 80.0923 61.4327 80.1071 61.6646C80.1207 61.877 80.06 62.0963 79.8519 62.3544C79.6334 62.6256 79.2596 62.9285 78.6679 63.2711C78.0804 63.6112 77.3059 63.9748 76.3129 64.378L76.6891 65.3045ZM80.565 60.2164C80.273 59.7816 79.9318 59.3805 79.4983 59.0995C79.0535 58.8111 78.5356 58.6649 77.9268 58.7061C76.7553 58.7854 75.2809 59.5578 73.2666 61.1936L73.897 61.9699C75.8966 60.3461 77.1589 59.7604 77.9943 59.7038C78.389 59.6771 78.6921 59.7686 78.9543 59.9386C79.2279 60.116 79.4796 60.3939 79.7349 60.774L80.565 60.2164ZM73.2666 61.1936C72.782 61.5871 72.5359 61.6282 72.4587 61.619C72.454 61.6184 72.3601 61.6214 72.2614 61.317C72.1643 61.0181 72.1164 60.5595 72.1254 59.9562C72.1342 59.3624 72.1973 58.6663 72.2984 57.9134C72.7041 54.894 73.699 51.1206 74.0646 49.7599L73.0989 49.5004C72.7347 50.8559 71.7227 54.6881 71.3073 57.7803C71.2032 58.5553 71.1351 59.2938 71.1255 59.9413C71.1159 60.5794 71.162 61.1692 71.3102 61.6257C71.4566 62.0768 71.7589 62.5424 72.3401 62.6119C72.8487 62.6727 73.378 62.3913 73.897 61.9699L73.2666 61.1936ZM74.0646 49.7599C74.4295 48.4019 74.9956 46.167 74.9483 43.9831C74.901 41.7987 74.2322 39.5364 71.9953 38.3254L71.5192 39.2048C73.2962 40.1668 73.9046 41.9788 73.9485 44.0047C73.9924 46.031 73.4638 48.1421 73.0989 49.5004L74.0646 49.7599ZM62.3017 44.9112C61.0477 46.0314 57.854 49.4377 54.91 54.2588L55.7635 54.78C58.6579 50.0399 61.7892 46.7099 62.9678 45.657L62.3017 44.9112ZM54.91 54.2588C53.9834 55.7763 53.3265 57.165 52.9469 58.2982C52.7573 58.8642 52.633 59.3779 52.5822 59.8194C52.5328 60.2482 52.546 60.6643 52.6864 60.9982C52.7598 61.1727 52.8737 61.3377 53.0426 61.4598C53.214 61.5836 53.4114 61.6411 53.6131 61.6464C53.993 61.6564 54.3942 61.4833 54.7875 61.2287C55.5891 60.7096 56.634 59.6672 57.9197 58.0266L57.1326 57.4098C55.8639 59.0287 54.9019 59.9632 54.2439 60.3893C53.9074 60.6072 53.7156 60.6487 53.6394 60.6467C53.613 60.646 53.6166 60.6408 53.6283 60.6493C53.6376 60.656 53.6261 60.653 53.6082 60.6105C53.5662 60.5106 53.5337 60.2977 53.5756 59.9337C53.6161 59.5822 53.7198 59.1391 53.8951 58.6158C54.2453 57.5705 54.8656 56.2504 55.7635 54.78L54.91 54.2588ZM57.9197 58.0266C63.0547 51.4739 65.2609 47.1582 66.3654 44.9658L65.4723 44.5159C64.3874 46.6696 62.2148 50.9244 57.1326 57.4098L57.9197 58.0266ZM66.3654 44.9658C66.5141 44.6706 66.6185 44.398 66.6709 44.151C66.7223 43.9091 66.7324 43.6512 66.6436 43.4144C66.5466 43.1554 66.3508 42.9748 66.1047 42.8878C65.8793 42.8081 65.6377 42.8148 65.4194 42.8543C64.9824 42.9333 64.4721 43.1744 63.9502 43.5186C63.4197 43.8684 62.8444 44.3465 62.2749 44.937L62.9946 45.6312C63.5198 45.0867 64.0392 44.6577 64.5007 44.3534C64.9709 44.0433 65.3501 43.883 65.5973 43.8384C65.6558 43.8278 65.6996 43.8251 65.7303 43.826C65.7612 43.8269 65.773 43.8312 65.7715 43.8307C65.752 43.8238 65.7187 43.7959 65.7072 43.7652C65.704 43.7567 65.7226 43.8027 65.6927 43.9434C65.6639 44.0791 65.5973 44.2679 65.4723 44.5159L66.3654 44.9658ZM66.5152 80.5546C66.1522 84.9684 65.1416 91.8773 64.0374 98.2337C62.9309 104.604 61.7406 110.358 61.0253 112.488L61.9732 112.807C62.7175 110.591 63.9194 104.756 65.0227 98.4048C66.1283 92.04 67.1451 85.0959 67.5119 80.6366L66.5152 80.5546ZM61.0253 112.488C60.5609 113.871 60.0502 115.535 59.4939 117.135C58.9383 118.733 58.3658 120.178 57.8103 121.077C57.5248 121.538 57.2908 121.776 57.1298 121.858C57.0643 121.892 57.0348 121.887 57.0236 121.885C57.008 121.882 56.9541 121.866 56.8653 121.774C56.6728 121.574 56.4312 121.134 56.1793 120.314C55.9324 119.511 55.6923 118.4 55.4661 116.918L54.4776 117.069C54.7075 118.575 54.9564 119.739 55.2234 120.608C55.4852 121.46 55.782 122.09 56.1444 122.467C56.3331 122.663 56.5608 122.813 56.8298 122.866C57.1034 122.92 57.3616 122.863 57.5859 122.748C58.0045 122.533 58.3584 122.092 58.6608 121.603C59.281 120.6 59.8842 119.057 60.4384 117.463C60.9921 115.871 61.5253 114.14 61.9732 112.807L61.0253 112.488ZM55.4661 116.918C54.5754 111.084 56.7177 102.908 59.5423 95.7179C60.949 92.1375 62.5141 88.8286 63.9296 86.2154C65.3559 83.5824 66.6029 81.7077 67.3658 80.9505L66.6613 80.2407C65.7822 81.1133 64.4749 83.1092 63.0503 85.7391C61.6151 88.3886 60.0329 91.7345 58.6116 95.3522C55.7803 102.559 53.5437 110.952 54.4776 117.069L55.4661 116.918ZM67.6089 46.8881C67.4177 50.5882 67.3266 53.5067 67.2505 55.9419L68.25 55.9731C68.3261 53.5385 68.417 50.6288 68.6076 46.9397L67.6089 46.8881ZM67.2505 55.9419C67.036 62.8075 66.9415 65.8053 65.0768 71.754L66.0311 72.0531C67.9387 65.9672 68.0351 62.8548 68.25 55.9731L67.2505 55.9419ZM71.9953 38.3254C71.3493 37.9756 70.7428 37.8443 70.177 37.904C69.6126 37.9637 69.1369 38.2083 68.7424 38.5284C67.9762 39.15 67.4505 40.116 67.0906 40.7679L67.9661 41.2512C68.3471 40.561 68.7849 39.7816 69.3724 39.305C69.6547 39.0759 69.9535 38.9332 70.282 38.8985C70.6092 38.864 71.0143 38.9314 71.5192 39.2048L71.9953 38.3254ZM67.0906 40.7679C66.9491 41.0242 66.838 41.2247 66.741 41.37C66.693 41.4419 66.659 41.4842 66.6377 41.5063C66.6277 41.5167 66.6261 41.5167 66.633 41.5118C66.6397 41.507 66.6619 41.4922 66.699 41.4802C66.7386 41.4675 66.7917 41.4594 66.8522 41.4678C66.9127 41.4762 66.9608 41.4985 66.994 41.5207C67.0252 41.5415 67.0404 41.5602 67.043 41.5634C67.0457 41.5668 67.041 41.5615 67.0306 41.5417C67.0089 41.5004 66.9782 41.4261 66.9416 41.3041C66.9057 41.1843 66.8677 41.0307 66.8278 40.837L65.8484 41.039C65.9331 41.4497 66.0258 41.7786 66.1448 42.0058C66.2038 42.1184 66.2944 42.256 66.4387 42.3524C66.6097 42.4665 66.8133 42.4939 67.005 42.4323C67.166 42.3805 67.2833 42.2775 67.3579 42.2C67.4379 42.117 67.5095 42.0199 67.5728 41.9251C67.6984 41.7369 67.832 41.494 67.9661 41.2512L67.0906 40.7679Z" fill="#93A7AB"/>
<path fill-rule="evenodd" clip-rule="evenodd" d="M90.7323 29.5295C87.9347 32.7891 81.9017 40.1773 80.1501 43.6541C77.9607 48.0002 76.1362 62.668 84.529 59.4085C87.2614 58.3473 90.2596 55.9692 92.0763 54.9347C95.8397 52.7919 99.1249 53.9254 99.1249 58.322C99.1249 63.8245 96.2058 64.3381 93.1346 67.0328C90.0635 69.7274 86.592 71.4278 81.2448 80.0521C72.4872 94.1767 83.0693 99.6093 87.813 94.72C91.863 90.5458 99.4378 76.2494 100.54 72.0672C100.826 70.984 102.543 67.3321 102.774 66.5111C105.143 64.8813 106.238 63.7948 110.437 62.7083C111.567 62.4158 112.772 59.1912 110.437 58.322C108.102 57.4528 103.382 58.6842 102.044 59.4085C101.436 55.7868 100.585 48.5434 96.2058 48.5434C94.2646 48.5434 91.7267 49.5684 89.4712 50.4793C85.3669 52.1369 82.1974 53.4169 85.2587 47.4569C89.0398 40.0957 92.1254 36.5311 93.5916 34.8373C93.9648 34.406 94.2332 34.0961 94.3813 33.8756C95.1111 32.7891 96.9356 29.5295 90.7323 29.5295ZM85.9885 82.2251C87.74 78.7483 98.0302 69.7303 100.22 69.7303L96.5706 78.4224C92.8277 85.4057 89.0537 92.6556 85.2588 93.0902C80.9036 93.589 83.2004 87.6769 85.4197 83.3418C85.6177 82.9552 85.8092 82.581 85.9885 82.2251Z" fill="#94A8AC"/>
<path d="M90.7323 29.5295V29.0295C90.5864 29.0295 90.4478 29.0932 90.3529 29.2039L90.7323 29.5295ZM80.1501 43.6541L80.5967 43.8791L80.1501 43.6541ZM84.529 59.4085L84.71 59.8746L84.529 59.4085ZM81.2448 80.0521L81.6697 80.3156L81.2448 80.0521ZM87.813 94.72L88.1719 95.0681L87.813 94.72ZM102.774 66.5111L102.491 66.0992L102.342 66.2016L102.293 66.3755L102.774 66.5111ZM110.437 62.7083L110.562 63.1924L110.437 62.7083ZM102.044 59.4085L101.551 59.4913L101.667 60.1813L102.282 59.8482L102.044 59.4085ZM85.2587 47.4569L84.814 47.2285L85.2587 47.4569ZM94.3813 33.8756L93.9662 33.5968L94.3813 33.8756ZM100.22 69.7303L100.681 69.9239C100.745 69.7695 100.729 69.5929 100.636 69.4535C100.543 69.3141 100.387 69.2303 100.22 69.2303V69.7303ZM85.9885 82.2251L86.4351 82.4501L85.9885 82.2251ZM85.2588 93.0902L85.3156 93.587H85.3156L85.2588 93.0902ZM96.5706 78.4224L97.0113 78.6586L97.0225 78.6377L97.0317 78.6159L96.5706 78.4224ZM92.0763 54.9347L92.3237 55.3692L92.0763 54.9347ZM100.54 72.0672L100.057 71.9398L100.54 72.0672ZM89.4712 50.4793L89.6584 50.9429H89.6584L89.4712 50.4793ZM93.5916 34.8373L93.2135 34.51V34.51L93.5916 34.8373ZM85.4197 83.3418L84.9747 83.114L85.4197 83.3418ZM90.3529 29.2039C88.9495 30.8389 86.7363 33.5076 84.6532 36.2047C82.5794 38.8898 80.604 41.6418 79.7036 43.4292L80.5967 43.8791C81.4478 42.1896 83.3647 39.5091 85.4447 36.816C87.5154 34.1349 89.7174 31.4797 91.1117 29.8552L90.3529 29.2039ZM79.7036 43.4292C79.1262 44.5754 78.5906 46.3591 78.2383 48.3192C77.8851 50.2846 77.7088 52.469 77.873 54.4252C78.0354 56.3596 78.539 58.1721 79.6409 59.2849C80.2034 59.853 80.9131 60.2289 81.7768 60.3414C82.6318 60.4529 83.6076 60.3027 84.71 59.8746L84.3479 58.9424C83.3522 59.3291 82.5491 59.4336 81.906 59.3498C81.2715 59.2672 80.764 58.9979 80.3515 58.5813C79.5034 57.7249 79.0264 56.2099 78.8695 54.3416C78.7145 52.495 78.8802 50.4013 79.2226 48.496C79.5659 46.5855 80.0794 44.9059 80.5967 43.8791L79.7036 43.4292ZM80.8198 79.7887C76.395 86.9252 76.7313 92.0816 79.0855 94.8408C81.4232 97.5806 85.5976 97.7214 88.1719 95.0681L87.4542 94.3718C85.2847 96.6078 81.7961 96.477 79.8463 94.1917C77.9129 91.9258 77.337 87.3036 81.6697 80.3156L80.8198 79.7887ZM103.057 66.923C104.272 66.0873 105.095 65.4386 106.163 64.8426C107.212 64.2568 108.494 63.7276 110.562 63.1924L110.312 62.2243C108.181 62.7756 106.815 63.3328 105.675 63.9694C104.553 64.5957 103.645 65.3052 102.491 66.0992L103.057 66.923ZM110.562 63.1924C111.02 63.0738 111.396 62.6965 111.66 62.2971C111.934 61.8805 112.144 61.3557 112.23 60.8096C112.317 60.2642 112.285 59.6651 112.035 59.1236C111.78 58.5695 111.314 58.1148 110.611 57.8534L110.262 58.7906C110.728 58.9638 110.987 59.2381 111.127 59.5422C111.273 59.8589 111.307 60.2473 111.243 60.6532C111.179 61.0585 111.021 61.449 110.825 61.7465C110.617 62.0611 110.419 62.1966 110.312 62.2243L110.562 63.1924ZM110.611 57.8534C109.309 57.3686 107.429 57.4837 105.779 57.7753C104.117 58.0692 102.543 58.57 101.806 58.9688L102.282 59.8482C102.884 59.5226 104.338 59.0456 105.954 58.76C107.582 58.4722 109.23 58.4061 110.262 58.7906L110.611 57.8534ZM102.537 59.3257C102.238 57.5427 101.865 54.7643 101.008 52.4446C100.163 50.1561 98.7416 48.0434 96.2058 48.0434V49.0434C98.0487 49.0434 99.2429 50.5524 100.07 52.7911C100.885 54.9984 101.242 57.6526 101.551 59.4913L102.537 59.3257ZM94.7963 34.1544C94.9875 33.8698 95.2616 33.4268 95.4578 32.918C95.6515 32.4159 95.7907 31.7946 95.6429 31.1785C95.4879 30.5324 95.039 29.9794 94.2338 29.6029C93.4493 29.2361 92.3166 29.0295 90.7323 29.0295V30.0295C92.2496 30.0295 93.2151 30.2305 93.8103 30.5088C94.3849 30.7774 94.5974 31.1071 94.6705 31.4117C94.7507 31.7463 94.6847 32.1437 94.5248 32.5582C94.3675 32.9662 94.1399 33.3381 93.9662 33.5968L94.7963 34.1544ZM100.22 69.2303C99.8157 69.2303 99.3215 69.4243 98.8233 69.6796C98.3019 69.9469 97.6936 70.3261 97.0341 70.7826C95.7137 71.6965 94.1519 72.9454 92.6101 74.2981C91.0676 75.6514 89.5363 77.1161 88.2776 78.4649C87.0302 79.8016 86.0147 81.0618 85.542 82.0002L86.4351 82.4501C86.8381 81.65 87.7656 80.4792 89.0087 79.1472C90.2405 77.8272 91.747 76.3856 93.2696 75.0498C94.793 73.7133 96.3238 72.4904 97.6033 71.6048C98.2438 71.1615 98.8122 70.809 99.2795 70.5695C99.77 70.3181 100.076 70.2303 100.22 70.2303V69.2303ZM85.3156 93.587C86.4099 93.4617 87.4512 92.8529 88.435 91.969C89.4226 91.0817 90.3927 89.8806 91.3461 88.4956C93.2513 85.7275 95.1455 82.1398 97.0113 78.6586L96.1299 78.1862C94.2529 81.6883 92.3886 85.2172 90.5223 87.9286C89.5899 89.2833 88.6711 90.4126 87.7667 91.2251C86.8586 92.041 86.0051 92.5015 85.2019 92.5935L85.3156 93.587ZM97.0317 78.6159L100.681 69.9239L99.7586 69.5368L96.1096 78.2288L97.0317 78.6159ZM84.71 59.8746C86.1272 59.3242 87.596 58.4401 88.9184 57.5808C90.2657 56.7055 91.4312 55.8774 92.3237 55.3692L91.8289 54.5002C90.9046 55.0265 89.6627 55.9047 88.3736 56.7423C87.0597 57.596 85.6632 58.4316 84.3479 58.9424L84.71 59.8746ZM92.3237 55.3692C94.1372 54.3367 95.7243 54.1585 96.8115 54.6342C97.8594 55.0926 98.6249 56.2447 98.6249 58.322H99.6249C99.6249 56.0027 98.7479 54.3898 97.2123 53.718C95.716 53.0634 93.7788 53.39 91.8289 54.5002L92.3237 55.3692ZM98.6249 58.322C98.6249 60.9642 97.9321 62.3369 96.9218 63.383C96.399 63.9243 95.7793 64.3901 95.0722 64.9043C94.3731 65.4127 93.5936 65.9648 92.8049 66.6569L93.4644 67.4086C94.2112 66.7533 94.9483 66.2308 95.6603 65.7131C96.3643 65.2011 97.0503 64.6894 97.6411 64.0777C98.8582 62.8176 99.6249 61.1823 99.6249 58.322H98.6249ZM92.8049 66.6569C92.0484 67.3207 91.2709 67.9202 90.4207 68.6007C89.5752 69.2775 88.6731 70.0228 87.6973 70.9578C85.7427 72.8308 83.5124 75.446 80.8198 79.7887L81.6697 80.3156C84.3244 76.034 86.5035 73.4868 88.3892 71.6798C89.3337 70.7748 90.2094 70.0508 91.0457 69.3814C91.8773 68.7157 92.6854 68.0921 93.4644 67.4086L92.8049 66.6569ZM88.1719 95.0681C90.2497 92.9266 93.1844 88.2525 95.7202 83.6373C98.2555 79.0232 100.455 74.3532 101.024 72.1947L100.057 71.9398C99.5233 73.9634 97.384 78.5327 94.8438 83.1558C92.3041 87.778 89.4264 92.3391 87.4542 94.3718L88.1719 95.0681ZM101.024 72.1947C101.155 71.6986 101.634 70.5594 102.137 69.388C102.383 68.8146 102.63 68.2435 102.829 67.7657C103.024 67.2986 103.188 66.8867 103.255 66.6467L102.293 66.3755C102.245 66.546 102.107 66.8984 101.906 67.3809C101.709 67.8525 101.466 68.416 101.218 68.9937C100.733 70.1242 100.212 71.3526 100.057 71.9398L101.024 72.1947ZM96.2058 48.0434C95.1577 48.0434 93.9796 48.3182 92.8043 48.6934C91.6243 49.0702 90.4083 49.5616 89.284 50.0157L89.6584 50.9429C90.7896 50.4861 91.9704 50.0095 93.1084 49.6461C94.2512 49.2812 95.3126 49.0434 96.2058 49.0434V48.0434ZM89.284 50.0157C88.2521 50.4324 87.3046 50.8147 86.501 51.0675C86.1003 51.1935 85.749 51.2829 85.4514 51.3287C85.1485 51.3754 84.9342 51.3715 84.7927 51.3381C84.666 51.3082 84.622 51.2624 84.5966 51.2186C84.5612 51.1575 84.5167 51.017 84.5458 50.7264C84.6049 50.1348 84.9413 49.1693 85.7035 47.6854L84.814 47.2285C84.0455 48.7245 83.63 49.834 83.5507 50.6269C83.5106 51.0285 83.5502 51.4075 83.7316 51.7202C83.9229 52.0501 84.2283 52.2323 84.563 52.3113C84.8828 52.3868 85.2419 52.3728 85.6036 52.3171C85.9706 52.2605 86.3752 52.1553 86.801 52.0214C87.6504 51.7542 88.6382 51.3549 89.6584 50.9429L89.284 50.0157ZM85.7035 47.6854C89.4606 40.3708 92.5198 36.8394 93.9696 35.1645L93.2135 34.51C91.731 36.2227 88.619 39.8206 84.814 47.2285L85.7035 47.6854ZM93.9696 35.1645C94.3319 34.7459 94.6267 34.4069 94.7963 34.1544L93.9662 33.5968C93.8396 33.7852 93.5978 34.0661 93.2135 34.51L93.9696 35.1645ZM85.2019 92.5935C84.2156 92.7064 83.7714 92.446 83.5524 92.1126C83.2964 91.7228 83.2188 91.0553 83.3678 90.1062C83.6614 88.2351 84.7558 85.736 85.8648 83.5697L84.9747 83.114C83.8644 85.2827 82.7007 87.9072 82.3799 89.9512C82.2216 90.9596 82.2476 91.9476 82.7165 92.6615C83.2224 93.4318 84.1243 93.7234 85.3156 93.587L85.2019 92.5935ZM85.8648 83.5697C86.0626 83.1833 86.2549 82.8077 86.4351 82.4501L85.542 82.0002C85.3635 82.3544 85.1728 82.727 84.9747 83.114L85.8648 83.5697Z" fill="#93A7AB"/>
<path fill-rule="evenodd" clip-rule="evenodd" d="M114.173 3.37789C114.934 2.57727 114.902 1.31135 114.101 0.550369C113.301 -0.210614 112.035 -0.178489 111.274 0.622122L98.4238 14.1412L84.6217 1.02228C83.8211 0.261294 82.5552 0.293418 81.7942 1.09403C81.0332 1.89464 81.0653 3.16056 81.8659 3.92155L95.668 17.0404L81.5504 31.8933C80.7894 32.6939 80.8215 33.9598 81.6221 34.7208C82.4227 35.4818 83.6887 35.4496 84.4496 34.649L98.5673 19.7962L113.137 33.6448C113.938 34.4058 115.204 34.3737 115.965 33.5731C116.726 32.7725 116.693 31.5066 115.893 30.7456L101.323 16.8969L114.173 3.37789Z" fill="#140000"/>
</svg>
