<svg width="131" height="102" viewBox="0 0 131 102" fill="none" xmlns="http://www.w3.org/2000/svg">
<path fill-rule="evenodd" clip-rule="evenodd" d="M21.4087 52.3888C18.4342 50.5657 9.71456 51.1886 3.93538 59.2104C-1.84381 67.2321 2.33067 70.4869 4.45533 72.0062C7.54896 74.2183 10.2301 74.7031 17.251 62.8906C18.8807 60.1488 19.9742 58.4341 21.3048 56.6288C22.235 55.3669 23.2647 54.1172 24.0298 53.3513C26.2733 51.1054 24.8993 54.9555 22.7548 62.9766C21.1266 69.0667 21.1988 76.4617 21.3376 79.3396C21.9042 80.7575 25.8957 84.473 26.7219 81.5855C27.4559 79.0205 27.4401 66.5739 28.5879 61.0335C29.4378 56.2732 34.3106 46.4075 38.3881 41.1593C40.6316 38.2717 40.1829 36.6676 34.421 35.0633C32.555 34.5438 32.1775 37.3092 30.1263 40.1392C27.8779 43.2414 25.7024 46.2928 21.4087 52.3888ZM9.60216 61.0335C12.6617 55.9288 17.3452 54.0449 19.3283 53.741C19.6682 54.4703 17.7702 56.8809 16.7786 57.995C14.5123 60.9322 10.5745 67.6575 9.55465 68.6299C8.27983 69.8453 5.7777 67.4145 9.60216 61.0335Z" fill="#140000"/>
<path d="M21.4087 52.3888L21.1474 52.8151L21.5474 53.0602L21.8175 52.6767L21.4087 52.3888ZM4.45533 72.0062L4.16451 72.4129L4.45533 72.0062ZM17.251 62.8906L16.8212 62.6351L17.251 62.8906ZM24.0298 53.3513L23.676 52.998L24.0298 53.3513ZM21.3376 79.3396L20.8381 79.3636L20.8422 79.4473L20.8733 79.5251L21.3376 79.3396ZM26.7219 81.5855L27.2027 81.723L26.7219 81.5855ZM28.5879 61.0335L29.0777 61.135L29.0801 61.1214L28.5879 61.0335ZM38.3881 41.1593L38.7829 41.4661L38.3881 41.1593ZM34.421 35.0633L34.5551 34.5816L34.421 35.0633ZM19.3283 53.741L19.7814 53.5298L19.6231 53.19L19.2525 53.2468L19.3283 53.741ZM9.60216 61.0335L9.1733 60.7765L9.60216 61.0335ZM9.55465 68.6299L9.20963 68.268L9.55465 68.6299ZM16.7786 57.995L16.4051 57.6626L16.3935 57.6757L16.3828 57.6896L16.7786 57.995ZM21.3048 56.6288L21.7073 56.9255L21.3048 56.6288ZM22.7548 62.9766L23.2378 63.1057L22.7548 62.9766ZM30.1263 40.1392L30.5312 40.4327L30.1263 40.1392ZM21.67 51.9625C20.0176 50.9497 16.9332 50.6758 13.5871 51.6268C10.2096 52.5867 6.4881 54.8117 3.52969 58.9181L4.34106 59.5026C7.16183 55.5873 10.6897 53.4899 13.8605 52.5887C17.0626 51.6786 19.8253 52.0048 21.1474 52.8151L21.67 51.9625ZM3.52969 58.9181C0.592821 62.9946 0.104369 65.9744 0.751518 68.187C1.39089 70.3731 3.10148 71.6528 4.16451 72.4129L4.74616 71.5995C3.68452 70.8403 2.24555 69.7329 1.71131 67.9063C1.18485 66.1063 1.49875 63.4479 4.34106 59.5026L3.52969 58.9181ZM4.16451 72.4129C4.94941 72.9742 5.76619 73.4704 6.66689 73.665C7.59243 73.8649 8.56037 73.7374 9.62395 73.1443C10.6702 72.5609 11.8072 71.5287 13.1125 69.925C14.421 68.3175 15.9191 66.1101 17.6809 63.146L16.8212 62.6351C15.0725 65.5773 13.6025 67.739 12.337 69.2938C11.0683 70.8523 10.0253 71.7756 9.1369 72.271C8.26588 72.7567 7.54469 72.8315 6.87803 72.6875C6.18654 72.5382 5.50807 72.1443 4.74616 71.5995L4.16451 72.4129ZM20.8733 79.5251C21.0495 79.9661 21.4555 80.5184 21.9353 81.035C22.4248 81.562 23.0349 82.099 23.6641 82.499C24.2756 82.8878 24.9839 83.1982 25.6473 83.1509C25.9956 83.126 26.3313 83.002 26.6128 82.7463C26.889 82.4953 27.0814 82.1467 27.2027 81.723L26.2412 81.4479C26.1559 81.7461 26.0428 81.913 25.9404 82.0061C25.8433 82.0943 25.7271 82.1426 25.5762 82.1534C25.2411 82.1773 24.7612 82.0116 24.2007 81.6552C23.6579 81.3101 23.1122 80.8327 22.6681 80.3545C22.2143 79.8659 21.909 79.4221 21.8019 79.154L20.8733 79.5251ZM27.2027 81.723C27.4031 81.0227 27.5417 79.7086 27.6604 78.1082C27.7805 76.4882 27.8835 74.512 27.9989 72.4533C28.231 68.315 28.5128 63.8606 29.0775 61.135L28.0983 60.9321C27.5152 63.7468 27.231 68.2859 27.0005 72.3973C26.8847 74.4634 26.7823 76.426 26.6631 78.0343C26.5424 79.6621 26.4078 80.8658 26.2412 81.4479L27.2027 81.723ZM29.0801 61.1214C29.4921 58.8136 30.8963 55.2092 32.726 51.5006C34.5512 47.8012 36.7718 44.0546 38.7829 41.4661L37.9933 40.8526C35.9269 43.5122 33.6723 47.3226 31.8292 51.0581C29.9907 54.7845 28.5335 58.4931 28.0957 60.9457L29.0801 61.1214ZM38.7829 41.4661C39.356 40.7285 39.7917 40.0309 40.0018 39.3646C40.2183 38.6783 40.1993 38.0074 39.8403 37.3813C39.4953 36.7797 38.8715 36.2828 38.0162 35.8421C37.1553 35.3985 36.01 34.9867 34.5551 34.5816L34.2869 35.545C35.713 35.9421 36.7844 36.3324 37.5581 36.731C38.3374 37.1325 38.7659 37.5179 38.9728 37.8788C39.1658 38.2153 39.1985 38.5871 39.0481 39.0638C38.8915 39.5606 38.5419 40.1464 37.9933 40.8526L38.7829 41.4661ZM19.2525 53.2468C17.1405 53.5704 12.3184 55.529 9.1733 60.7765L10.031 61.2906C13.0051 56.3285 17.5499 54.5194 19.404 54.2353L19.2525 53.2468ZM9.1733 60.7765C7.23523 64.0101 6.82725 66.3561 7.18052 67.7992C7.35765 68.5228 7.74433 69.0714 8.28413 69.3103C8.84402 69.558 9.45184 69.4187 9.89967 68.9918L9.20963 68.268C9.02004 68.4487 8.83704 68.4614 8.68876 68.3958C8.52038 68.3213 8.28153 68.0913 8.15184 67.5614C7.89145 66.4977 8.14464 64.4379 10.031 61.2906L9.1733 60.7765ZM9.89967 68.9918C10.2024 68.7031 10.6718 68.0484 11.2096 67.2505C11.7612 66.4319 12.423 65.4033 13.1198 64.3197C14.5204 62.1412 16.0577 59.7479 17.1745 58.3004L16.3828 57.6896C15.2332 59.1794 13.6684 61.6173 12.2786 63.7789C11.5801 64.8653 10.9247 65.8839 10.3803 66.6916C9.8221 67.5199 9.41682 68.0705 9.20963 68.268L9.89967 68.9918ZM17.1521 58.3274C17.6575 57.7595 18.3958 56.8596 18.9686 56.0012C19.2538 55.574 19.51 55.1392 19.6736 54.7507C19.7552 54.5567 19.8213 54.3568 19.8511 54.1638C19.8801 53.9764 19.8825 53.7465 19.7814 53.5298L18.8751 53.9523C18.859 53.9179 18.8765 53.9228 18.8628 54.0112C18.8501 54.094 18.8159 54.2108 18.7519 54.3627C18.6242 54.6661 18.4077 55.0403 18.1369 55.4461C17.5978 56.2539 16.8913 57.1163 16.4051 57.6626L17.1521 58.3274ZM17.6809 63.146C19.3069 60.4103 20.3909 58.7116 21.7073 56.9255L20.9023 56.3322C19.5576 58.1566 18.4544 59.8874 16.8212 62.6351L17.6809 63.146ZM21.7073 56.9255C22.6305 55.673 23.6434 54.4456 24.3835 53.7047L23.676 52.998C22.8859 53.7889 21.8395 55.0607 20.9023 56.3322L21.7073 56.9255ZM24.3835 53.7047C24.6574 53.4305 24.8394 53.2883 24.9458 53.2304C24.9994 53.2013 24.9927 53.2167 24.9429 53.2181C24.8683 53.2201 24.7732 53.1881 24.7067 53.114C24.6587 53.0606 24.6608 53.0236 24.6688 53.066C24.6757 53.1024 24.6816 53.1697 24.678 53.2781C24.6707 53.4947 24.6283 53.8046 24.5472 54.2174C24.2203 55.88 23.3513 58.8096 22.2718 62.8475L23.2378 63.1057C24.3028 59.1225 25.193 56.1165 25.5284 54.4103C25.6128 53.9809 25.6674 53.609 25.6774 53.3118C25.6824 53.1633 25.6771 53.0156 25.6514 52.88C25.6268 52.7503 25.5751 52.5843 25.4505 52.4456C25.3074 52.2863 25.113 52.2129 24.915 52.2184C24.7418 52.2233 24.5877 52.2869 24.4683 52.3518C24.2288 52.4819 23.9629 52.7107 23.676 52.998L24.3835 53.7047ZM22.2718 62.8475C20.6229 69.0149 20.6988 76.4732 20.8381 79.3636L21.837 79.3155C21.6988 76.4502 21.6303 69.1186 23.2378 63.1057L22.2718 62.8475ZM34.5551 34.5816C33.9503 34.4132 33.4217 34.5103 32.9649 34.8294C32.5427 35.1243 32.2117 35.589 31.9136 36.0893C31.6155 36.5895 31.3017 37.2138 30.961 37.8403C30.6127 38.4809 30.2162 39.1633 29.7215 39.8458L30.5312 40.4327C31.062 39.7002 31.4819 38.9756 31.8395 38.318C32.2049 37.6463 32.4867 37.081 32.7726 36.6011C33.0586 36.1212 33.3 35.8151 33.5375 35.6492C33.7404 35.5075 33.9588 35.4536 34.2869 35.545L34.5551 34.5816ZM29.7215 39.8458C27.4712 42.9506 25.2941 46.0041 20.9999 52.1009L21.8175 52.6767C26.1106 46.5815 28.2847 43.5322 30.5312 40.4327L29.7215 39.8458Z" fill="#140000"/>
<path d="M43.8166 73.5254C37.3575 71.3377 37.5059 58.9405 41.6919 52.2558C51.402 50.4326 47.2796 61.6752 47.7045 68.36C48.0445 73.7078 52.6621 68.9677 54.9285 65.9292L55.3534 68.36C51.529 75.3486 45.8563 74.4978 43.8166 73.5254Z" fill="#140000"/>
<path d="M43.8166 43.7479C45.3959 43.5453 48.2994 43.7479 47.2796 46.1787C46.0048 49.2172 42.0533 46.1787 43.8166 43.7479Z" fill="#140000"/>
<path d="M43.8166 73.5254C37.3575 71.3377 37.5059 58.9405 41.6919 52.2558C51.402 50.4326 47.2796 61.6752 47.7045 68.36C48.0445 73.7078 52.6621 68.9677 54.9285 65.9292L55.3534 68.36C51.529 75.3486 45.8563 74.4978 43.8166 73.5254Z" stroke="#140000" stroke-linecap="round" stroke-linejoin="round"/>
<path d="M43.8166 43.7479C45.3959 43.5453 48.2994 43.7479 47.2796 46.1787C46.0048 49.2172 42.0533 46.1787 43.8166 43.7479Z" stroke="#140000" stroke-linecap="round" stroke-linejoin="round"/>
<path fill-rule="evenodd" clip-rule="evenodd" d="M60.8775 55.9021C70.2231 49.4238 75.8137 51.3442 77.0885 52.8635C77.478 53.7706 77.8329 53.4618 78.4746 52.9035C79.3374 52.1528 80.7186 50.9511 83.3993 51.6481C88.0736 52.8636 86.3739 56.2059 85.524 57.7252C84.6741 59.2445 80.8497 66.2331 85.524 64.41C90.1983 62.5869 91.8981 62.8907 93.1729 63.8023C94.4477 64.7138 93.5979 65.3216 88.9235 66.2331C84.2492 67.1447 81.2746 69.5755 79.9998 75.6526C78.725 81.7297 76.2229 91.1491 73.6732 96.6185C71.1236 102.088 60.8775 103.911 59.1777 93.2761C57.8179 84.7682 69.9429 74.3359 76.1753 70.1832C78.3718 66.8176 78.483 65.1088 78.733 61.2642C78.8216 59.9023 78.9276 58.2724 79.1499 56.2059C77.3085 57.1175 68.9514 63.4984 64.277 67.7524C57.0156 74.3607 49.0425 64.1061 60.8775 55.9021ZM72.7758 55.2944C71.3594 55.9021 67.6766 57.786 64.277 60.4599C60.0276 63.8023 60.8775 65.8953 66.8267 62.249C72.7758 58.6028 75.3255 56.2059 76.6003 54.9905C77.8751 53.7751 75.3255 54.0247 72.7758 55.2944ZM71.4535 92.9722C73.1532 90.5414 77.0252 80.0078 77.8751 75.0449C74.0506 76.868 61.7274 88.7183 63.8521 95.4031C65.9768 102.088 69.3288 96.0108 71.4535 92.9722Z" fill="#140000"/>
<path d="M77.0885 52.8635L77.548 52.6662L77.5189 52.5985L77.4715 52.5421L77.0885 52.8635ZM60.8775 55.9021L60.5926 55.4912H60.5926L60.8775 55.9021ZM64.277 67.7524L63.9405 67.3826L64.277 67.7524ZM79.1499 56.2059L79.647 56.2594C79.6666 56.078 79.5857 55.9003 79.436 55.7959C79.2863 55.6915 79.0916 55.6769 78.9281 55.7578L79.1499 56.2059ZM76.1753 70.1832L76.4526 70.5993L76.538 70.5424L76.5941 70.4565L76.1753 70.1832ZM59.1777 93.2761L59.6715 93.1972L59.1777 93.2761ZM83.3993 51.6481L83.5251 51.1642L83.3993 51.6481ZM72.7758 55.2944L72.973 55.7539L72.986 55.7483L72.9987 55.742L72.7758 55.2944ZM64.277 60.4599L64.5861 60.8529L64.277 60.4599ZM77.8751 75.0449L78.3679 75.1293L78.5307 74.1784L77.6599 74.5935L77.8751 75.0449ZM78.733 61.2642L79.232 61.2967V61.2967L78.733 61.2642ZM78.4746 52.9035L78.8027 53.2808V53.2808L78.4746 52.9035ZM77.4715 52.5421C76.6985 51.6209 74.8023 50.7398 71.9839 50.8844C69.143 51.0301 65.3208 52.2136 60.5926 55.4912L61.1624 56.313C65.7798 53.1122 69.4256 52.0169 72.0351 51.8831C74.6672 51.7481 76.2037 52.5869 76.7055 53.1849L77.4715 52.5421ZM60.5926 55.4912C54.5747 59.6628 53.3847 64.5263 54.9715 67.6106C55.7581 69.1396 57.2122 70.1622 58.9678 70.3398C60.722 70.5173 62.7171 69.848 64.6136 68.1222L63.9405 67.3826C62.2062 68.9609 60.4817 69.4879 59.0685 69.3449C57.6566 69.202 56.4956 68.3872 55.8607 67.1531C54.6044 64.7112 55.3453 60.3454 61.1624 56.313L60.5926 55.4912ZM64.6136 68.1222C66.9369 66.0078 70.1832 63.3582 73.0813 61.1216C74.5296 60.0039 75.8875 58.992 76.9962 58.204C78.1169 57.4074 78.9527 56.8615 79.3717 56.654L78.9281 55.7578C78.4264 56.0062 77.5271 56.5997 76.4168 57.3889C75.2946 58.1866 73.9258 59.2067 72.4704 60.3299C69.561 62.5752 66.2915 65.243 63.9405 67.3826L64.6136 68.1222ZM75.8981 69.7671C72.7545 71.8617 68.1285 75.5362 64.452 79.7685C62.6134 81.8851 60.9993 84.1558 59.9302 86.4515C58.8618 88.7457 58.3231 91.0969 58.684 93.355L59.6715 93.1972C59.3525 91.2014 59.8195 89.058 60.8368 86.8736C61.8534 84.6906 63.4052 82.4984 65.2069 80.4243C68.811 76.2754 73.3637 72.6574 76.4526 70.5993L75.8981 69.7671ZM58.684 93.355C59.1216 96.0927 60.1176 98.0779 61.4477 99.4077C62.7801 100.74 64.4178 101.384 66.0761 101.485C69.3619 101.687 72.7598 99.7613 74.1264 96.8297L73.22 96.4072C72.037 98.945 69.037 100.665 66.1374 100.487C64.7031 100.399 63.3012 99.8467 62.1547 98.7005C61.0059 97.552 60.0838 95.777 59.6715 93.1972L58.684 93.355ZM74.1264 96.8297C76.7013 91.3061 79.2127 81.8401 80.4891 75.7552L79.5104 75.5499C78.2373 81.6192 75.7444 90.9922 73.22 96.4072L74.1264 96.8297ZM80.4891 75.7552C81.1136 72.7783 82.1424 70.7517 83.5397 69.3601C84.9352 67.9702 86.7446 67.1674 89.0192 66.7239L88.8278 65.7424C86.4281 66.2103 84.4131 67.0788 82.834 68.6515C81.2567 70.2224 80.1608 72.4498 79.5104 75.5499L80.4891 75.7552ZM89.0192 66.7239C90.1933 66.4949 91.1374 66.2831 91.8727 66.0786C92.5989 65.8767 93.1568 65.6727 93.5351 65.4472C93.8887 65.2366 94.2687 64.8907 94.1997 64.3725C94.1693 64.1439 94.0544 63.955 93.9293 63.8076C93.803 63.6587 93.6409 63.5223 93.4638 63.3956L92.8821 64.209C93.0236 64.3102 93.1139 64.3921 93.1668 64.4546C93.221 64.5185 93.2124 64.5337 93.2085 64.5045C93.1926 64.3851 93.3071 64.419 93.0232 64.5882C92.7641 64.7426 92.3128 64.9183 91.6048 65.1152C90.9059 65.3095 89.9909 65.5155 88.8278 65.7424L89.0192 66.7239ZM93.4638 63.3956C92.7415 62.8791 91.8908 62.5392 90.607 62.5809C89.354 62.6216 87.698 63.0254 85.3423 63.9442L85.7057 64.8758C88.0244 63.9715 89.5554 63.6156 90.6395 63.5804C91.6929 63.5461 92.3296 63.8139 92.8821 64.209L93.4638 63.3956ZM85.3423 63.9442C84.7878 64.1605 84.4139 64.223 84.1758 64.2093C83.9602 64.197 83.8866 64.1273 83.8468 64.0683C83.7884 63.982 83.7362 63.8117 83.7455 63.5122C83.7546 63.2207 83.8202 62.8625 83.9339 62.4557C84.3934 60.8129 85.5313 58.7364 85.9604 57.9693L85.0876 57.4811C84.6669 58.2333 83.4675 60.4107 82.9709 62.1863C82.8457 62.6341 82.7585 63.0782 82.746 63.4811C82.7337 63.8759 82.7911 64.292 83.0182 64.6282C83.2639 64.9918 83.6518 65.1809 84.1184 65.2077C84.5625 65.2332 85.0916 65.1153 85.7057 64.8758L85.3423 63.9442ZM85.9604 57.9693C86.3778 57.223 87.0931 55.8892 87.0327 54.5502C87.0014 53.8555 86.7622 53.1571 86.1845 52.5516C85.6154 51.9551 84.7504 51.4828 83.5251 51.1642L83.2735 52.132C84.3854 52.4212 85.0608 52.8224 85.461 53.2419C85.8528 53.6525 86.012 54.1125 86.0337 54.5953C86.0796 55.6111 85.5201 56.7081 85.0876 57.4811L85.9604 57.9693ZM72.5787 54.8349C71.1294 55.4567 67.4074 57.3615 63.9679 60.0669L64.5861 60.8529C67.9457 58.2104 71.5893 56.3475 72.973 55.7539L72.5787 54.8349ZM63.9679 60.0669C62.8851 60.9186 62.0999 61.7111 61.636 62.3762C61.4058 62.7063 61.235 63.0327 61.1615 63.3398C61.0877 63.6476 61.0975 64.0148 61.3512 64.3046C61.5928 64.5805 61.9506 64.6624 62.2788 64.6666C62.6172 64.6708 63.0185 64.5954 63.4694 64.4552C64.375 64.1736 65.5834 63.5975 67.0879 62.6753L66.5654 61.8227C65.0953 62.7238 63.9666 63.2533 63.1724 63.5003C62.7735 63.6244 62.4842 63.6691 62.2914 63.6666C62.0884 63.6641 62.0744 63.6125 62.1035 63.6458C62.1448 63.693 62.1015 63.7084 62.134 63.5727C62.1666 63.4363 62.2614 63.2276 62.4562 62.9483C62.8422 62.3949 63.5443 61.6724 64.5861 60.8529L63.9679 60.0669ZM67.0879 62.6753C73.0721 59.0077 75.6494 56.5879 76.9453 55.3524L76.2553 54.6286C75.0015 55.824 72.4795 58.1979 66.5654 61.8227L67.0879 62.6753ZM76.9453 55.3524C77.1228 55.1832 77.2774 55.0003 77.3638 54.8047C77.4565 54.5951 77.4948 54.2975 77.2933 54.0392C77.1269 53.8259 76.8775 53.7539 76.7064 53.7248C76.5166 53.6926 76.3007 53.6932 76.079 53.7124C75.1996 53.7888 73.8626 54.1946 72.5529 54.8468L72.9987 55.742C74.2387 55.1244 75.4513 54.7707 76.1655 54.7087C76.3421 54.6933 76.4649 54.6981 76.539 54.7107C76.6318 54.7265 76.5716 54.7399 76.5048 54.6542C76.4029 54.5236 76.4512 54.396 76.4492 54.4004C76.4411 54.4189 76.3964 54.494 76.2553 54.6286L76.9453 55.3524ZM77.3823 74.9605C76.9651 77.3968 75.7971 81.2371 74.5128 84.788C73.8722 86.5592 73.2063 88.2484 72.5963 89.6432C71.9813 91.0493 71.4375 92.1226 71.0437 92.6857L71.8632 93.2588C72.3194 92.6065 72.8969 91.4515 73.5125 90.0439C74.1332 88.6248 74.8071 86.9147 75.4532 85.1282C76.7423 81.5639 77.9352 77.6559 78.3679 75.1293L77.3823 74.9605ZM71.0437 92.6857C70.4893 93.4786 69.9133 94.3829 69.2632 95.2808C68.6209 96.1679 67.9709 96.9537 67.3461 97.439C66.7148 97.9294 66.246 98.0159 65.8608 97.8234C65.4102 97.5983 64.8541 96.9049 64.3286 95.2516L63.3756 95.5545C63.9124 97.2436 64.5721 98.2974 65.4139 98.718C66.3212 99.1712 67.2216 98.8019 67.9595 98.2288C68.7039 97.6506 69.423 96.7652 70.0732 95.8672C70.7156 94.98 71.3553 93.9852 71.8632 93.2588L71.0437 92.6857ZM64.3286 95.2516C63.8516 93.7509 64.1701 91.8946 65.0666 89.86C65.9581 87.8367 67.389 85.7109 69.0197 83.7174C70.6481 81.7267 72.4618 79.8846 74.1035 78.429C75.7558 76.964 77.2001 75.9205 78.0902 75.4962L77.6599 74.5935C76.6378 75.0808 75.1076 76.2023 73.4401 77.6808C71.7619 79.1688 69.9105 81.049 68.2456 83.0843C66.583 85.1169 65.0925 87.321 64.1515 89.4567C63.2154 91.5811 62.7902 93.7129 63.3756 95.5545L64.3286 95.2516ZM78.6528 56.1525C78.4293 58.2303 78.3227 59.8692 78.2341 61.2318L79.232 61.2967C79.3205 59.9355 79.426 58.3146 79.647 56.2594L78.6528 56.1525ZM78.2341 61.2318C78.1083 63.1664 78.0195 64.5059 77.6992 65.7816C77.3827 67.0416 76.834 68.2591 75.7566 69.9099L76.5941 70.4565C77.7131 68.7417 78.3183 67.422 78.669 66.0251C79.0159 64.6439 79.1077 63.2067 79.232 61.2967L78.2341 61.2318ZM83.5251 51.1642C82.0884 50.7906 80.965 50.9197 80.0737 51.2671C79.1956 51.6092 78.5765 52.1521 78.1464 52.5263L78.8027 53.2808C79.2354 52.9043 79.7383 52.471 80.4367 52.1988C81.1219 51.9319 82.0295 51.8086 83.2735 52.132L83.5251 51.1642ZM78.1464 52.5263C77.9804 52.6707 77.8569 52.7776 77.75 52.8546C77.6368 52.936 77.5992 52.9407 77.6107 52.9389C77.6248 52.9367 77.6515 52.9362 77.6817 52.9459C77.7106 52.9551 77.7222 52.9671 77.717 52.9624C77.6968 52.9439 77.6355 52.8702 77.548 52.6662L76.6291 53.0608C76.7363 53.3104 76.8654 53.5383 77.0413 53.6995C77.2424 53.8838 77.493 53.9689 77.7633 53.9272C77.9923 53.8918 78.1881 53.7713 78.3342 53.6662C78.4864 53.5566 78.6479 53.4155 78.8027 53.2808L78.1464 52.5263Z" fill="#140000"/>
<path fill-rule="evenodd" clip-rule="evenodd" d="M105.496 46.4827C102.238 48.3058 95.2128 52.4382 93.1731 54.3829C90.6234 56.8137 88.4987 65.0177 98.2723 63.1946C101.454 62.6011 104.946 61.2709 107.061 60.6924C111.444 59.4938 115.27 60.1278 115.27 62.5869C115.27 65.6646 111.87 65.9519 108.294 67.459C104.718 68.9662 100.675 69.9173 94.4478 74.7411C84.2493 82.6413 96.5725 85.6798 102.097 82.9451C106.813 80.6104 115.634 72.6141 116.918 70.2749C117.251 69.669 119.25 67.6265 119.519 67.1673C122.278 66.2557 123.553 65.648 128.443 65.0403C129.76 64.8767 131.163 63.0731 128.443 62.5869C125.723 62.1007 120.228 62.7895 118.669 63.1946C117.961 61.1689 116.97 57.1175 111.87 57.1175C109.61 57.1175 106.654 57.6908 104.028 58.2003C99.2482 59.1274 95.5571 59.8434 99.1222 56.5098C103.525 52.3926 107.119 50.3988 108.826 49.4514C109.261 49.2102 109.573 49.0368 109.746 48.9135C110.596 48.3058 112.72 46.4827 105.496 46.4827ZM99.9721 75.9565C102.012 74.0118 113.995 68.9678 116.545 68.9678L112.295 73.8295C107.937 77.7355 103.542 81.7905 99.1222 82.0335C94.0504 82.3125 96.7252 79.0057 99.3097 76.5811C99.5402 76.3648 99.7633 76.1555 99.9721 75.9565Z" fill="#140000"/>
<path d="M105.496 46.4827V45.9827C105.411 45.9827 105.327 46.0046 105.252 46.0463L105.496 46.4827ZM93.1731 54.3829L93.5181 54.7447L93.1731 54.3829ZM98.2723 63.1946L98.364 63.6861L98.2723 63.1946ZM94.4478 74.7411L94.754 75.1363L94.4478 74.7411ZM102.097 82.9451L102.319 83.3932L102.097 82.9451ZM119.519 67.1673L119.362 66.6925L119.183 66.7517L119.088 66.9143L119.519 67.1673ZM128.443 65.0403L128.505 65.5365L128.443 65.0403ZM118.669 63.1946L118.197 63.3596L118.349 63.7944L118.795 63.6785L118.669 63.1946ZM99.1222 56.5098L98.7807 56.1446L99.1222 56.5098ZM109.746 48.9135L109.455 48.5068V48.5068L109.746 48.9135ZM116.545 68.9678L116.921 69.2969C117.05 69.1492 117.081 68.9397 117 68.7611C116.919 68.5825 116.741 68.4678 116.545 68.4678V68.9678ZM99.9721 75.9565L100.317 76.3184L99.9721 75.9565ZM99.1222 82.0335L99.1497 82.5328L99.1222 82.0335ZM112.295 73.8295L112.629 74.2019L112.652 74.1815L112.672 74.1586L112.295 73.8295ZM107.061 60.6924L107.193 61.1746L107.061 60.6924ZM116.918 70.2749L116.48 70.0343L116.918 70.2749ZM104.028 58.2003L104.123 58.6912L104.028 58.2003ZM108.826 49.4514L108.583 49.0142V49.0142L108.826 49.4514ZM99.3097 76.5811L98.9676 76.2164L99.3097 76.5811ZM105.252 46.0463C103.618 46.9608 101.04 48.4536 98.6138 49.9626C96.2047 51.4608 93.8919 53.0067 92.828 54.021L93.5181 54.7447C94.4939 53.8144 96.7139 52.3217 99.1419 50.8118C101.553 49.3126 104.117 47.8277 105.74 46.919L105.252 46.0463ZM92.828 54.021C92.124 54.6922 91.4765 55.7305 91.0515 56.8664C90.6264 58.0024 90.403 59.2921 90.609 60.4701C90.8186 61.6695 91.4763 62.7484 92.7756 63.3786C94.0472 63.9954 95.8698 64.1514 98.364 63.6861L98.1807 62.7031C95.788 63.1494 94.2112 62.9635 93.212 62.4789C92.2405 62.0076 91.7562 61.2255 91.594 60.2979C91.4281 59.3489 91.6031 58.2457 91.9881 57.2168C92.3731 56.1877 92.9473 55.2889 93.5181 54.7447L92.828 54.021ZM94.1416 74.3458C91.5668 76.3403 90.2897 78.1159 90.0686 79.67C89.8366 81.3002 90.7774 82.5049 92.131 83.2669C93.4748 84.0233 95.3043 84.4034 97.1302 84.4278C98.9584 84.4523 100.848 84.1212 102.319 83.3932L101.875 82.497C100.583 83.1363 98.861 83.4509 97.1436 83.4279C95.4239 83.4049 93.7742 83.0443 92.6215 82.3955C91.4785 81.7521 90.9055 80.8868 91.0586 79.8108C91.2226 78.6587 92.2295 77.0919 94.754 75.1363L94.1416 74.3458ZM119.676 67.642C122.435 66.7304 123.668 66.1375 128.505 65.5365L128.381 64.5441C123.437 65.1585 122.121 65.781 119.362 66.6925L119.676 67.642ZM128.505 65.5365C128.929 65.4838 129.342 65.3032 129.675 65.0605C130.004 64.8211 130.301 64.4869 130.431 64.0911C130.572 63.6633 130.505 63.19 130.136 62.8061C129.799 62.4551 129.255 62.2241 128.531 62.0947L128.355 63.0791C128.991 63.1929 129.291 63.3696 129.415 63.4986C129.507 63.5947 129.516 63.6737 129.482 63.778C129.437 63.9143 129.306 64.0921 129.087 64.2521C128.871 64.4088 128.616 64.515 128.381 64.5441L128.505 65.5365ZM128.531 62.0947C127.102 61.8392 124.992 61.8959 123.078 62.0583C121.16 62.2212 119.363 62.4976 118.544 62.7107L118.795 63.6785C119.534 63.4865 121.264 63.2159 123.163 63.0547C125.067 62.8931 127.065 62.8484 128.355 63.0791L128.531 62.0947ZM119.141 63.0296C118.801 62.0574 118.349 60.4381 117.313 59.0916C116.248 57.7066 114.58 56.6175 111.87 56.6175V57.6175C114.26 57.6175 115.638 58.5541 116.52 59.7013C117.432 60.8869 117.829 62.3061 118.197 63.3596L119.141 63.0296ZM110.037 49.3202C110.257 49.1628 110.595 48.9025 110.846 48.5903C111.078 48.3014 111.368 47.7921 111.096 47.2468C110.97 46.9941 110.75 46.8017 110.481 46.6536C110.212 46.5054 109.865 46.3854 109.437 46.2892C108.581 46.0969 107.316 45.9827 105.496 45.9827V46.9827C107.288 46.9827 108.467 47.0963 109.218 47.2649C109.593 47.3491 109.841 47.4427 109.998 47.5295C110.156 47.6165 110.195 47.6804 110.201 47.6936C110.203 47.6962 110.209 47.7022 110.199 47.7399C110.185 47.7889 110.146 47.8647 110.066 47.9643C109.905 48.1649 109.66 48.3603 109.455 48.5068L110.037 49.3202ZM116.545 68.4678C116.163 68.4678 115.648 68.5594 115.065 68.7029C114.472 68.8488 113.773 69.0578 113.009 69.3119C111.479 69.8203 109.666 70.5165 107.873 71.2721C106.08 72.0278 104.299 72.846 102.835 73.5995C101.392 74.3419 100.197 75.0513 99.627 75.5946L100.317 76.3184C100.767 75.8893 101.834 75.239 103.292 74.4887C104.728 73.7496 106.485 72.9421 108.261 72.1937C110.038 71.4452 111.826 70.7589 113.324 70.2608C114.074 70.0116 114.745 69.8113 115.304 69.6739C115.872 69.5339 116.289 69.4678 116.545 69.4678V68.4678ZM99.1497 82.5328C101.497 82.4037 103.794 81.2669 106.018 79.7151C108.244 78.1614 110.458 76.1474 112.629 74.2019L111.962 73.4571C109.774 75.4176 107.611 77.384 105.445 78.8951C103.277 80.408 101.166 81.4203 99.0948 81.5343L99.1497 82.5328ZM112.672 74.1586L116.921 69.2969L116.168 68.6388L111.919 73.5004L112.672 74.1586ZM98.364 63.6861C99.985 63.3838 101.676 62.8956 103.216 62.4152C104.771 61.9298 106.146 61.461 107.193 61.1746L106.93 60.2101C105.861 60.5023 104.433 60.9879 102.918 61.4606C101.387 61.9382 99.7418 62.4119 98.1807 62.7031L98.364 63.6861ZM107.193 61.1746C109.339 60.588 111.306 60.463 112.706 60.7573C113.406 60.9044 113.929 61.1484 114.268 61.4557C114.594 61.7508 114.77 62.1184 114.77 62.5869H115.77C115.77 61.8258 115.467 61.1921 114.939 60.7142C114.424 60.2484 113.716 59.9477 112.912 59.7787C111.304 59.4409 109.167 59.5982 106.93 60.2101L107.193 61.1746ZM114.77 62.5869C114.77 63.255 114.589 63.74 114.288 64.1283C113.978 64.5279 113.516 64.8583 112.9 65.1642C112.284 65.4706 111.553 65.7345 110.728 66.0227C109.912 66.3077 109.012 66.614 108.1 66.9983L108.488 67.9198C109.364 67.5505 110.23 67.2557 111.058 66.9668C111.876 66.681 112.665 66.3981 113.346 66.0596C114.028 65.7206 114.639 65.3079 115.078 64.7409C115.526 64.1627 115.77 63.4576 115.77 62.5869H114.77ZM108.1 66.9983C104.566 68.4874 100.435 69.4703 94.1416 74.3458L94.754 75.1363C100.914 70.3643 104.869 69.4451 108.488 67.9198L108.1 66.9983ZM102.319 83.3932C104.739 82.1953 108.164 79.5755 111.124 76.9881C112.609 75.6894 113.99 74.3881 115.083 73.2612C116.161 72.1492 116.999 71.1669 117.356 70.5155L116.48 70.0343C116.195 70.5525 115.449 71.4469 114.365 72.5651C113.295 73.6684 111.935 74.9507 110.466 76.2352C107.515 78.8145 104.171 81.3602 101.875 82.497L102.319 83.3932ZM117.356 70.5155C117.412 70.4143 117.566 70.2097 117.81 69.9199C118.043 69.6426 118.328 69.3213 118.615 68.9992C118.901 68.6798 119.19 68.3582 119.424 68.0891C119.644 67.8356 119.855 67.5836 119.951 67.4202L119.088 66.9143C119.049 66.9805 118.909 67.1561 118.668 67.4336C118.441 67.6956 118.159 68.0086 117.87 68.333C117.582 68.6547 117.288 68.9863 117.044 69.2768C116.811 69.5547 116.59 69.8326 116.48 70.0343L117.356 70.5155ZM111.87 56.6175C109.551 56.6175 106.543 57.2032 103.933 57.7095L104.123 58.6912C106.766 58.1785 109.668 57.6175 111.87 57.6175V56.6175ZM103.933 57.7095C102.735 57.9418 101.619 58.1582 100.669 58.3017C99.7053 58.4473 98.9665 58.5087 98.5021 58.456C98.3906 58.4434 98.3078 58.4254 98.2487 58.4061C98.2198 58.3966 98.1993 58.3877 98.1855 58.3806C98.1787 58.3771 98.1739 58.3742 98.1708 58.3722C98.1677 58.3701 98.1663 58.369 98.1663 58.369C98.1696 58.3717 98.186 58.3884 98.1948 58.4168C98.2026 58.4416 98.1952 58.4457 98.2021 58.4126C98.219 58.3313 98.2927 58.1622 98.5084 57.8841C98.7169 57.6154 99.0282 57.2822 99.4637 56.875L98.7807 56.1446C98.3249 56.5708 97.9718 56.9445 97.7183 57.2711C97.4722 57.5883 97.2867 57.903 97.2231 58.2088C97.1896 58.3693 97.1865 58.5428 97.2403 58.7148C97.2951 58.8904 97.399 59.032 97.5285 59.1392C97.7689 59.3383 98.0921 59.4159 98.3894 59.4496C98.9995 59.5188 99.8568 59.4357 100.818 59.2905C101.793 59.1432 102.931 58.9223 104.123 58.6912L103.933 57.7095ZM99.4637 56.875C103.824 52.7983 107.376 50.8277 109.069 49.8886L108.583 49.0142C106.861 49.9698 103.227 51.9868 98.7807 56.1446L99.4637 56.875ZM109.069 49.8886C109.488 49.6557 109.834 49.4647 110.037 49.3202L109.455 48.5068C109.312 48.6089 109.033 48.7647 108.583 49.0142L109.069 49.8886ZM99.0948 81.5343C97.8417 81.6032 97.2148 81.4351 96.9436 81.2367C96.8285 81.1525 96.7807 81.0658 96.7612 80.9702C96.7388 80.8605 96.747 80.7002 96.8201 80.4765C96.969 80.0209 97.3376 79.4479 97.8621 78.8139C98.3786 78.1895 99.0139 77.5442 99.6518 76.9457L98.9676 76.2164C98.3133 76.8303 97.645 77.5075 97.0916 78.1764C96.5462 78.8357 96.0785 79.5266 95.8696 80.1659C95.7638 80.4896 95.7128 80.8345 95.7814 81.1703C95.8529 81.5203 96.0463 81.8194 96.3533 82.0438C96.9261 82.4628 97.8668 82.6034 99.1497 82.5328L99.0948 81.5343ZM99.6518 76.9457C99.882 76.7297 100.107 76.5191 100.317 76.3184L99.627 75.5946C99.42 75.792 99.1984 75.9998 98.9676 76.2164L99.6518 76.9457Z" fill="#140000"/>
<path fill-rule="evenodd" clip-rule="evenodd" d="M124.173 3.37789C124.934 2.57727 124.902 1.31135 124.101 0.550369C123.301 -0.210614 122.035 -0.178489 121.274 0.622122L108.424 14.1412L94.6217 1.02228C93.8211 0.261294 92.5552 0.293418 91.7942 1.09403C91.0332 1.89464 91.0653 3.16056 91.8659 3.92155L105.668 17.0404L91.5504 31.8933C90.7894 32.6939 90.8215 33.9598 91.6221 34.7208C92.4227 35.4818 93.6887 35.4496 94.4496 34.649L108.567 19.7962L123.137 33.6448C123.938 34.4058 125.204 34.3737 125.965 33.5731C126.726 32.7725 126.693 31.5066 125.893 30.7456L111.323 16.8969L124.173 3.37789Z" fill="#140000"/>
</svg>
